%TF.GenerationSoftware,KiCad,Pcbnew,(5.1.9)-1*%
%TF.CreationDate,2021-04-11T16:44:48+02:00*%
%TF.ProjectId,charge_pcb,63686172-6765-45f7-9063-622e6b696361,rev?*%
%TF.SameCoordinates,Original*%
%TF.FileFunction,Soldermask,Bot*%
%TF.FilePolarity,Negative*%
%FSLAX46Y46*%
G04 Gerber Fmt 4.6, Leading zero omitted, Abs format (unit mm)*
G04 Created by KiCad (PCBNEW (5.1.9)-1) date 2021-04-11 16:44:48*
%MOMM*%
%LPD*%
G01*
G04 APERTURE LIST*
%ADD10C,5.600000*%
%ADD11C,3.600000*%
%ADD12C,1.800000*%
%ADD13R,1.800000X1.800000*%
%ADD14O,1.600000X1.600000*%
%ADD15C,1.600000*%
%ADD16C,1.524000*%
%ADD17C,2.000000*%
%ADD18O,1.800000X1.714500*%
%ADD19R,1.800000X1.714500*%
%ADD20R,1.500000X1.500000*%
%ADD21C,1.500000*%
%ADD22O,1.714500X1.800000*%
%ADD23R,1.714500X1.800000*%
%ADD24C,3.000000*%
%ADD25R,3.000000X3.000000*%
%ADD26O,1.700000X1.700000*%
%ADD27R,1.700000X1.700000*%
%ADD28C,3.200000*%
%ADD29O,4.000500X2.499360*%
%ADD30O,2.200000X2.200000*%
%ADD31R,2.200000X2.200000*%
%ADD32O,2.000000X2.000000*%
%ADD33R,2.000000X2.000000*%
%ADD34R,1.600000X1.600000*%
%ADD35C,1.501140*%
%ADD36C,2.540000*%
%ADD37R,2.540000X2.540000*%
G04 APERTURE END LIST*
D10*
%TO.C,H2*%
X179610000Y-107830000D03*
D11*
X179610000Y-107830000D03*
%TD*%
D10*
%TO.C,H4*%
X73250000Y-151030000D03*
D11*
X73250000Y-151030000D03*
%TD*%
D10*
%TO.C,H3*%
X179680000Y-151210000D03*
D11*
X179680000Y-151210000D03*
%TD*%
D10*
%TO.C,H1*%
X73080000Y-107940000D03*
D11*
X73080000Y-107940000D03*
%TD*%
D12*
%TO.C,D6*%
X91170000Y-129870000D03*
D13*
X88630000Y-129870000D03*
%TD*%
D14*
%TO.C,R9*%
X115680000Y-120770000D03*
D15*
X108060000Y-120770000D03*
%TD*%
D16*
%TO.C,U1*%
X126980000Y-122340000D03*
X124440000Y-122340000D03*
X124440000Y-124880000D03*
X126980000Y-124880000D03*
D17*
X133330000Y-109132000D03*
X115550000Y-109132000D03*
X133330000Y-124880000D03*
X115550000Y-124880000D03*
D16*
X125964000Y-110656000D03*
X122662000Y-110656000D03*
X129520000Y-124880000D03*
X119360000Y-124880000D03*
X121900000Y-124880000D03*
%TD*%
D14*
%TO.C,R8*%
X120380000Y-152580000D03*
D15*
X112760000Y-152580000D03*
%TD*%
D14*
%TO.C,R7*%
X124830000Y-149150000D03*
D15*
X124830000Y-141530000D03*
%TD*%
D14*
%TO.C,R6*%
X119590000Y-137990000D03*
D15*
X119590000Y-130370000D03*
%TD*%
D14*
%TO.C,R5*%
X131200000Y-141560000D03*
D15*
X131200000Y-149180000D03*
%TD*%
D14*
%TO.C,R4*%
X106400000Y-140650000D03*
D15*
X98780000Y-140650000D03*
%TD*%
D14*
%TO.C,R3*%
X120360000Y-146290000D03*
D15*
X112740000Y-146290000D03*
%TD*%
D14*
%TO.C,R2*%
X109980000Y-127680000D03*
D15*
X109980000Y-135300000D03*
%TD*%
D14*
%TO.C,R1*%
X103760000Y-127510000D03*
D15*
X103760000Y-135130000D03*
%TD*%
D18*
%TO.C,Q4*%
X151830000Y-137988000D03*
X151830000Y-140274000D03*
D19*
X151830000Y-142560000D03*
%TD*%
D20*
%TO.C,Q3*%
X124580000Y-136030000D03*
D21*
X129780000Y-136030000D03*
X127180000Y-136030000D03*
%TD*%
D22*
%TO.C,Q2*%
X98612000Y-135050000D03*
X96326000Y-135050000D03*
D23*
X94040000Y-135050000D03*
%TD*%
D20*
%TO.C,Q1*%
X110060000Y-140730000D03*
D21*
X115260000Y-140730000D03*
X112660000Y-140730000D03*
%TD*%
D24*
%TO.C,J7*%
X171010000Y-124920000D03*
D25*
X171010000Y-119840000D03*
%TD*%
D24*
%TO.C,J6*%
X171010000Y-151010000D03*
D25*
X171010000Y-145930000D03*
%TD*%
D24*
%TO.C,J5*%
X171010000Y-138070000D03*
D25*
X171010000Y-132990000D03*
%TD*%
D24*
%TO.C,J4*%
X172380000Y-111170000D03*
D25*
X167300000Y-111170000D03*
%TD*%
D24*
%TO.C,J3*%
X145310000Y-111070000D03*
D25*
X140230000Y-111070000D03*
%TD*%
D24*
%TO.C,J2*%
X158750000Y-111070000D03*
D25*
X153670000Y-111070000D03*
%TD*%
D26*
%TO.C,J1*%
X73400000Y-126620000D03*
X73400000Y-129160000D03*
X73400000Y-131700000D03*
X73400000Y-134240000D03*
X73400000Y-136780000D03*
D27*
X73400000Y-139320000D03*
%TD*%
D28*
%TO.C,F2*%
X149620000Y-122630000D03*
D29*
X138619260Y-122630000D03*
X160620740Y-122630000D03*
%TD*%
D28*
%TO.C,F1*%
X99226000Y-112321000D03*
D29*
X88225260Y-112321000D03*
X110226740Y-112321000D03*
%TD*%
D30*
%TO.C,D5*%
X155090000Y-131590000D03*
D31*
X165250000Y-131590000D03*
%TD*%
D32*
%TO.C,D4*%
X145220000Y-131040000D03*
D33*
X150300000Y-131040000D03*
%TD*%
D14*
%TO.C,D3*%
X88450000Y-141230000D03*
D34*
X96070000Y-141230000D03*
%TD*%
D30*
%TO.C,D2*%
X104280000Y-120750000D03*
D31*
X94120000Y-120750000D03*
%TD*%
D32*
%TO.C,D1*%
X81780000Y-120720000D03*
D33*
X86860000Y-120720000D03*
%TD*%
D35*
%TO.C,C1*%
X159280000Y-139840000D03*
X159280000Y-142380000D03*
%TD*%
D36*
%TO.C,BT1*%
X80140000Y-114550000D03*
D37*
X80140000Y-109470000D03*
%TD*%
M02*
