%TF.GenerationSoftware,KiCad,Pcbnew,(5.1.9)-1*%
%TF.CreationDate,2021-04-11T16:44:48+02:00*%
%TF.ProjectId,charge_pcb,63686172-6765-45f7-9063-622e6b696361,rev?*%
%TF.SameCoordinates,Original*%
%TF.FileFunction,Legend,Top*%
%TF.FilePolarity,Positive*%
%FSLAX46Y46*%
G04 Gerber Fmt 4.6, Leading zero omitted, Abs format (unit mm)*
G04 Created by KiCad (PCBNEW (5.1.9)-1) date 2021-04-11 16:44:48*
%MOMM*%
%LPD*%
G01*
G04 APERTURE LIST*
%ADD10C,0.200000*%
%ADD11C,0.300000*%
%ADD12C,0.250000*%
%ADD13C,0.120000*%
%ADD14C,0.150000*%
%ADD15C,0.100000*%
G04 APERTURE END LIST*
D10*
X118962380Y-122916190D02*
X118962380Y-122297142D01*
X119343333Y-122630476D01*
X119343333Y-122487619D01*
X119390952Y-122392380D01*
X119438571Y-122344761D01*
X119533809Y-122297142D01*
X119771904Y-122297142D01*
X119867142Y-122344761D01*
X119914761Y-122392380D01*
X119962380Y-122487619D01*
X119962380Y-122773333D01*
X119914761Y-122868571D01*
X119867142Y-122916190D01*
X119867142Y-121868571D02*
X119914761Y-121820952D01*
X119962380Y-121868571D01*
X119914761Y-121916190D01*
X119867142Y-121868571D01*
X119962380Y-121868571D01*
X118962380Y-121487619D02*
X118962380Y-120868571D01*
X119343333Y-121201904D01*
X119343333Y-121059047D01*
X119390952Y-120963809D01*
X119438571Y-120916190D01*
X119533809Y-120868571D01*
X119771904Y-120868571D01*
X119867142Y-120916190D01*
X119914761Y-120963809D01*
X119962380Y-121059047D01*
X119962380Y-121344761D01*
X119914761Y-121440000D01*
X119867142Y-121487619D01*
X118962380Y-120582857D02*
X119962380Y-120249523D01*
X118962380Y-119916190D01*
D11*
X170438571Y-142447142D02*
X171581428Y-142447142D01*
X171010000Y-143018571D02*
X171010000Y-141875714D01*
X170438571Y-129417142D02*
X171581428Y-129417142D01*
X171010000Y-129988571D02*
X171010000Y-128845714D01*
X170508571Y-116317142D02*
X171651428Y-116317142D01*
X171080000Y-116888571D02*
X171080000Y-115745714D01*
X163188571Y-111167142D02*
X164331428Y-111167142D01*
X163760000Y-111738571D02*
X163760000Y-110595714D01*
X149588571Y-111127142D02*
X150731428Y-111127142D01*
X150160000Y-111698571D02*
X150160000Y-110555714D01*
X79648571Y-106007142D02*
X80791428Y-106007142D01*
X80220000Y-106578571D02*
X80220000Y-105435714D01*
X82691428Y-148828571D02*
X82691428Y-147328571D01*
X83191428Y-148400000D01*
X83691428Y-147328571D01*
X83691428Y-148828571D01*
X84620000Y-148828571D02*
X84477142Y-148757142D01*
X84405714Y-148685714D01*
X84334285Y-148542857D01*
X84334285Y-148114285D01*
X84405714Y-147971428D01*
X84477142Y-147900000D01*
X84620000Y-147828571D01*
X84834285Y-147828571D01*
X84977142Y-147900000D01*
X85048571Y-147971428D01*
X85120000Y-148114285D01*
X85120000Y-148542857D01*
X85048571Y-148685714D01*
X84977142Y-148757142D01*
X84834285Y-148828571D01*
X84620000Y-148828571D01*
X85620000Y-147828571D02*
X85905714Y-148828571D01*
X86191428Y-148114285D01*
X86477142Y-148828571D01*
X86762857Y-147828571D01*
X87905714Y-148757142D02*
X87762857Y-148828571D01*
X87477142Y-148828571D01*
X87334285Y-148757142D01*
X87262857Y-148614285D01*
X87262857Y-148042857D01*
X87334285Y-147900000D01*
X87477142Y-147828571D01*
X87762857Y-147828571D01*
X87905714Y-147900000D01*
X87977142Y-148042857D01*
X87977142Y-148185714D01*
X87262857Y-148328571D01*
X88620000Y-148828571D02*
X88620000Y-147828571D01*
X88620000Y-148114285D02*
X88691428Y-147971428D01*
X88762857Y-147900000D01*
X88905714Y-147828571D01*
X89048571Y-147828571D01*
X91548571Y-148685714D02*
X91477142Y-148757142D01*
X91262857Y-148828571D01*
X91120000Y-148828571D01*
X90905714Y-148757142D01*
X90762857Y-148614285D01*
X90691428Y-148471428D01*
X90620000Y-148185714D01*
X90620000Y-147971428D01*
X90691428Y-147685714D01*
X90762857Y-147542857D01*
X90905714Y-147400000D01*
X91120000Y-147328571D01*
X91262857Y-147328571D01*
X91477142Y-147400000D01*
X91548571Y-147471428D01*
X92191428Y-148828571D02*
X92191428Y-147328571D01*
X92834285Y-148828571D02*
X92834285Y-148042857D01*
X92762857Y-147900000D01*
X92620000Y-147828571D01*
X92405714Y-147828571D01*
X92262857Y-147900000D01*
X92191428Y-147971428D01*
X94191428Y-148828571D02*
X94191428Y-148042857D01*
X94120000Y-147900000D01*
X93977142Y-147828571D01*
X93691428Y-147828571D01*
X93548571Y-147900000D01*
X94191428Y-148757142D02*
X94048571Y-148828571D01*
X93691428Y-148828571D01*
X93548571Y-148757142D01*
X93477142Y-148614285D01*
X93477142Y-148471428D01*
X93548571Y-148328571D01*
X93691428Y-148257142D01*
X94048571Y-148257142D01*
X94191428Y-148185714D01*
X94905714Y-148828571D02*
X94905714Y-147828571D01*
X94905714Y-148114285D02*
X94977142Y-147971428D01*
X95048571Y-147900000D01*
X95191428Y-147828571D01*
X95334285Y-147828571D01*
X96477142Y-147828571D02*
X96477142Y-149042857D01*
X96405714Y-149185714D01*
X96334285Y-149257142D01*
X96191428Y-149328571D01*
X95977142Y-149328571D01*
X95834285Y-149257142D01*
X96477142Y-148757142D02*
X96334285Y-148828571D01*
X96048571Y-148828571D01*
X95905714Y-148757142D01*
X95834285Y-148685714D01*
X95762857Y-148542857D01*
X95762857Y-148114285D01*
X95834285Y-147971428D01*
X95905714Y-147900000D01*
X96048571Y-147828571D01*
X96334285Y-147828571D01*
X96477142Y-147900000D01*
X97191428Y-148828571D02*
X97191428Y-147828571D01*
X97191428Y-147328571D02*
X97120000Y-147400000D01*
X97191428Y-147471428D01*
X97262857Y-147400000D01*
X97191428Y-147328571D01*
X97191428Y-147471428D01*
X97905714Y-147828571D02*
X97905714Y-148828571D01*
X97905714Y-147971428D02*
X97977142Y-147900000D01*
X98120000Y-147828571D01*
X98334285Y-147828571D01*
X98477142Y-147900000D01*
X98548571Y-148042857D01*
X98548571Y-148828571D01*
X99905714Y-147828571D02*
X99905714Y-149042857D01*
X99834285Y-149185714D01*
X99762857Y-149257142D01*
X99620000Y-149328571D01*
X99405714Y-149328571D01*
X99262857Y-149257142D01*
X99905714Y-148757142D02*
X99762857Y-148828571D01*
X99477142Y-148828571D01*
X99334285Y-148757142D01*
X99262857Y-148685714D01*
X99191428Y-148542857D01*
X99191428Y-148114285D01*
X99262857Y-147971428D01*
X99334285Y-147900000D01*
X99477142Y-147828571D01*
X99762857Y-147828571D01*
X99905714Y-147900000D01*
X102262857Y-148042857D02*
X102477142Y-148114285D01*
X102548571Y-148185714D01*
X102620000Y-148328571D01*
X102620000Y-148542857D01*
X102548571Y-148685714D01*
X102477142Y-148757142D01*
X102334285Y-148828571D01*
X101762857Y-148828571D01*
X101762857Y-147328571D01*
X102262857Y-147328571D01*
X102405714Y-147400000D01*
X102477142Y-147471428D01*
X102548571Y-147614285D01*
X102548571Y-147757142D01*
X102477142Y-147900000D01*
X102405714Y-147971428D01*
X102262857Y-148042857D01*
X101762857Y-148042857D01*
X103477142Y-148828571D02*
X103334285Y-148757142D01*
X103262857Y-148685714D01*
X103191428Y-148542857D01*
X103191428Y-148114285D01*
X103262857Y-147971428D01*
X103334285Y-147900000D01*
X103477142Y-147828571D01*
X103691428Y-147828571D01*
X103834285Y-147900000D01*
X103905714Y-147971428D01*
X103977142Y-148114285D01*
X103977142Y-148542857D01*
X103905714Y-148685714D01*
X103834285Y-148757142D01*
X103691428Y-148828571D01*
X103477142Y-148828571D01*
X105262857Y-148828571D02*
X105262857Y-148042857D01*
X105191428Y-147900000D01*
X105048571Y-147828571D01*
X104762857Y-147828571D01*
X104620000Y-147900000D01*
X105262857Y-148757142D02*
X105120000Y-148828571D01*
X104762857Y-148828571D01*
X104620000Y-148757142D01*
X104548571Y-148614285D01*
X104548571Y-148471428D01*
X104620000Y-148328571D01*
X104762857Y-148257142D01*
X105120000Y-148257142D01*
X105262857Y-148185714D01*
X105977142Y-148828571D02*
X105977142Y-147828571D01*
X105977142Y-148114285D02*
X106048571Y-147971428D01*
X106120000Y-147900000D01*
X106262857Y-147828571D01*
X106405714Y-147828571D01*
X107548571Y-148828571D02*
X107548571Y-147328571D01*
X107548571Y-148757142D02*
X107405714Y-148828571D01*
X107120000Y-148828571D01*
X106977142Y-148757142D01*
X106905714Y-148685714D01*
X106834285Y-148542857D01*
X106834285Y-148114285D01*
X106905714Y-147971428D01*
X106977142Y-147900000D01*
X107120000Y-147828571D01*
X107405714Y-147828571D01*
X107548571Y-147900000D01*
X91834285Y-151378571D02*
X91834285Y-149878571D01*
X91834285Y-150450000D02*
X91977142Y-150378571D01*
X92262857Y-150378571D01*
X92405714Y-150450000D01*
X92477142Y-150521428D01*
X92548571Y-150664285D01*
X92548571Y-151092857D01*
X92477142Y-151235714D01*
X92405714Y-151307142D01*
X92262857Y-151378571D01*
X91977142Y-151378571D01*
X91834285Y-151307142D01*
X93048571Y-150378571D02*
X93405714Y-151378571D01*
X93762857Y-150378571D02*
X93405714Y-151378571D01*
X93262857Y-151735714D01*
X93191428Y-151807142D01*
X93048571Y-151878571D01*
X95405714Y-151307142D02*
X95620000Y-151378571D01*
X95977142Y-151378571D01*
X96120000Y-151307142D01*
X96191428Y-151235714D01*
X96262857Y-151092857D01*
X96262857Y-150950000D01*
X96191428Y-150807142D01*
X96120000Y-150735714D01*
X95977142Y-150664285D01*
X95691428Y-150592857D01*
X95548571Y-150521428D01*
X95477142Y-150450000D01*
X95405714Y-150307142D01*
X95405714Y-150164285D01*
X95477142Y-150021428D01*
X95548571Y-149950000D01*
X95691428Y-149878571D01*
X96048571Y-149878571D01*
X96262857Y-149950000D01*
X96905714Y-151235714D02*
X96977142Y-151307142D01*
X96905714Y-151378571D01*
X96834285Y-151307142D01*
X96905714Y-151235714D01*
X96905714Y-151378571D01*
X97620000Y-151378571D02*
X97620000Y-149878571D01*
X97977142Y-149878571D01*
X98191428Y-149950000D01*
X98334285Y-150092857D01*
X98405714Y-150235714D01*
X98477142Y-150521428D01*
X98477142Y-150735714D01*
X98405714Y-151021428D01*
X98334285Y-151164285D01*
X98191428Y-151307142D01*
X97977142Y-151378571D01*
X97620000Y-151378571D01*
X92262857Y-152428571D02*
X92762857Y-153928571D01*
X93262857Y-152428571D01*
X94548571Y-153928571D02*
X93691428Y-153928571D01*
X94120000Y-153928571D02*
X94120000Y-152428571D01*
X93977142Y-152642857D01*
X93834285Y-152785714D01*
X93691428Y-152857142D01*
X95191428Y-153785714D02*
X95262857Y-153857142D01*
X95191428Y-153928571D01*
X95120000Y-153857142D01*
X95191428Y-153785714D01*
X95191428Y-153928571D01*
X96191428Y-152428571D02*
X96334285Y-152428571D01*
X96477142Y-152500000D01*
X96548571Y-152571428D01*
X96620000Y-152714285D01*
X96691428Y-153000000D01*
X96691428Y-153357142D01*
X96620000Y-153642857D01*
X96548571Y-153785714D01*
X96477142Y-153857142D01*
X96334285Y-153928571D01*
X96191428Y-153928571D01*
X96048571Y-153857142D01*
X95977142Y-153785714D01*
X95905714Y-153642857D01*
X95834285Y-153357142D01*
X95834285Y-153000000D01*
X95905714Y-152714285D01*
X95977142Y-152571428D01*
X96048571Y-152500000D01*
X96191428Y-152428571D01*
D12*
X76476666Y-139118571D02*
X76619523Y-139166190D01*
X76667142Y-139213809D01*
X76714761Y-139309047D01*
X76714761Y-139451904D01*
X76667142Y-139547142D01*
X76619523Y-139594761D01*
X76524285Y-139642380D01*
X76143333Y-139642380D01*
X76143333Y-138642380D01*
X76476666Y-138642380D01*
X76571904Y-138690000D01*
X76619523Y-138737619D01*
X76667142Y-138832857D01*
X76667142Y-138928095D01*
X76619523Y-139023333D01*
X76571904Y-139070952D01*
X76476666Y-139118571D01*
X76143333Y-139118571D01*
X77571904Y-139642380D02*
X77571904Y-139118571D01*
X77524285Y-139023333D01*
X77429047Y-138975714D01*
X77238571Y-138975714D01*
X77143333Y-139023333D01*
X77571904Y-139594761D02*
X77476666Y-139642380D01*
X77238571Y-139642380D01*
X77143333Y-139594761D01*
X77095714Y-139499523D01*
X77095714Y-139404285D01*
X77143333Y-139309047D01*
X77238571Y-139261428D01*
X77476666Y-139261428D01*
X77571904Y-139213809D01*
X77905238Y-138975714D02*
X78286190Y-138975714D01*
X78048095Y-138642380D02*
X78048095Y-139499523D01*
X78095714Y-139594761D01*
X78190952Y-139642380D01*
X78286190Y-139642380D01*
X78476666Y-138975714D02*
X78857619Y-138975714D01*
X78619523Y-138642380D02*
X78619523Y-139499523D01*
X78667142Y-139594761D01*
X78762380Y-139642380D01*
X78857619Y-139642380D01*
X79571904Y-139594761D02*
X79476666Y-139642380D01*
X79286190Y-139642380D01*
X79190952Y-139594761D01*
X79143333Y-139499523D01*
X79143333Y-139118571D01*
X79190952Y-139023333D01*
X79286190Y-138975714D01*
X79476666Y-138975714D01*
X79571904Y-139023333D01*
X79619523Y-139118571D01*
X79619523Y-139213809D01*
X79143333Y-139309047D01*
X80048095Y-139642380D02*
X80048095Y-138975714D01*
X80048095Y-139166190D02*
X80095714Y-139070952D01*
X80143333Y-139023333D01*
X80238571Y-138975714D01*
X80333809Y-138975714D01*
X80571904Y-138975714D02*
X80810000Y-139642380D01*
X81048095Y-138975714D02*
X80810000Y-139642380D01*
X80714761Y-139880476D01*
X80667142Y-139928095D01*
X80571904Y-139975714D01*
X81286190Y-138642380D02*
X81619523Y-139642380D01*
X81952857Y-138642380D01*
X82429047Y-139642380D02*
X82333809Y-139594761D01*
X82286190Y-139547142D01*
X82238571Y-139451904D01*
X82238571Y-139166190D01*
X82286190Y-139070952D01*
X82333809Y-139023333D01*
X82429047Y-138975714D01*
X82571904Y-138975714D01*
X82667142Y-139023333D01*
X82714761Y-139070952D01*
X82762380Y-139166190D01*
X82762380Y-139451904D01*
X82714761Y-139547142D01*
X82667142Y-139594761D01*
X82571904Y-139642380D01*
X82429047Y-139642380D01*
X83333809Y-139642380D02*
X83238571Y-139594761D01*
X83190952Y-139499523D01*
X83190952Y-138642380D01*
X83571904Y-138975714D02*
X83952857Y-138975714D01*
X83714761Y-138642380D02*
X83714761Y-139499523D01*
X83762380Y-139594761D01*
X83857619Y-139642380D01*
X83952857Y-139642380D01*
X84714761Y-139642380D02*
X84714761Y-139118571D01*
X84667142Y-139023333D01*
X84571904Y-138975714D01*
X84381428Y-138975714D01*
X84286190Y-139023333D01*
X84714761Y-139594761D02*
X84619523Y-139642380D01*
X84381428Y-139642380D01*
X84286190Y-139594761D01*
X84238571Y-139499523D01*
X84238571Y-139404285D01*
X84286190Y-139309047D01*
X84381428Y-139261428D01*
X84619523Y-139261428D01*
X84714761Y-139213809D01*
X85619523Y-138975714D02*
X85619523Y-139785238D01*
X85571904Y-139880476D01*
X85524285Y-139928095D01*
X85429047Y-139975714D01*
X85286190Y-139975714D01*
X85190952Y-139928095D01*
X85619523Y-139594761D02*
X85524285Y-139642380D01*
X85333809Y-139642380D01*
X85238571Y-139594761D01*
X85190952Y-139547142D01*
X85143333Y-139451904D01*
X85143333Y-139166190D01*
X85190952Y-139070952D01*
X85238571Y-139023333D01*
X85333809Y-138975714D01*
X85524285Y-138975714D01*
X85619523Y-139023333D01*
X86476666Y-139594761D02*
X86381428Y-139642380D01*
X86190952Y-139642380D01*
X86095714Y-139594761D01*
X86048095Y-139499523D01*
X86048095Y-139118571D01*
X86095714Y-139023333D01*
X86190952Y-138975714D01*
X86381428Y-138975714D01*
X86476666Y-139023333D01*
X86524285Y-139118571D01*
X86524285Y-139213809D01*
X86048095Y-139309047D01*
X76433809Y-136838571D02*
X76576666Y-136886190D01*
X76624285Y-136933809D01*
X76671904Y-137029047D01*
X76671904Y-137171904D01*
X76624285Y-137267142D01*
X76576666Y-137314761D01*
X76481428Y-137362380D01*
X76100476Y-137362380D01*
X76100476Y-136362380D01*
X76433809Y-136362380D01*
X76529047Y-136410000D01*
X76576666Y-136457619D01*
X76624285Y-136552857D01*
X76624285Y-136648095D01*
X76576666Y-136743333D01*
X76529047Y-136790952D01*
X76433809Y-136838571D01*
X76100476Y-136838571D01*
X77529047Y-137362380D02*
X77529047Y-136838571D01*
X77481428Y-136743333D01*
X77386190Y-136695714D01*
X77195714Y-136695714D01*
X77100476Y-136743333D01*
X77529047Y-137314761D02*
X77433809Y-137362380D01*
X77195714Y-137362380D01*
X77100476Y-137314761D01*
X77052857Y-137219523D01*
X77052857Y-137124285D01*
X77100476Y-137029047D01*
X77195714Y-136981428D01*
X77433809Y-136981428D01*
X77529047Y-136933809D01*
X77862380Y-136695714D02*
X78243333Y-136695714D01*
X78005238Y-136362380D02*
X78005238Y-137219523D01*
X78052857Y-137314761D01*
X78148095Y-137362380D01*
X78243333Y-137362380D01*
X78433809Y-136695714D02*
X78814761Y-136695714D01*
X78576666Y-136362380D02*
X78576666Y-137219523D01*
X78624285Y-137314761D01*
X78719523Y-137362380D01*
X78814761Y-137362380D01*
X79529047Y-137314761D02*
X79433809Y-137362380D01*
X79243333Y-137362380D01*
X79148095Y-137314761D01*
X79100476Y-137219523D01*
X79100476Y-136838571D01*
X79148095Y-136743333D01*
X79243333Y-136695714D01*
X79433809Y-136695714D01*
X79529047Y-136743333D01*
X79576666Y-136838571D01*
X79576666Y-136933809D01*
X79100476Y-137029047D01*
X80005238Y-137362380D02*
X80005238Y-136695714D01*
X80005238Y-136886190D02*
X80052857Y-136790952D01*
X80100476Y-136743333D01*
X80195714Y-136695714D01*
X80290952Y-136695714D01*
X80529047Y-136695714D02*
X80767142Y-137362380D01*
X81005238Y-136695714D02*
X80767142Y-137362380D01*
X80671904Y-137600476D01*
X80624285Y-137648095D01*
X80529047Y-137695714D01*
X81338571Y-137314761D02*
X81481428Y-137362380D01*
X81719523Y-137362380D01*
X81814761Y-137314761D01*
X81862380Y-137267142D01*
X81910000Y-137171904D01*
X81910000Y-137076666D01*
X81862380Y-136981428D01*
X81814761Y-136933809D01*
X81719523Y-136886190D01*
X81529047Y-136838571D01*
X81433809Y-136790952D01*
X81386190Y-136743333D01*
X81338571Y-136648095D01*
X81338571Y-136552857D01*
X81386190Y-136457619D01*
X81433809Y-136410000D01*
X81529047Y-136362380D01*
X81767142Y-136362380D01*
X81910000Y-136410000D01*
X82243333Y-136695714D02*
X82433809Y-137362380D01*
X82624285Y-136886190D01*
X82814761Y-137362380D01*
X83005238Y-136695714D01*
X83386190Y-137362380D02*
X83386190Y-136695714D01*
X83386190Y-136362380D02*
X83338571Y-136410000D01*
X83386190Y-136457619D01*
X83433809Y-136410000D01*
X83386190Y-136362380D01*
X83386190Y-136457619D01*
X83719523Y-136695714D02*
X84100476Y-136695714D01*
X83862380Y-136362380D02*
X83862380Y-137219523D01*
X83910000Y-137314761D01*
X84005238Y-137362380D01*
X84100476Y-137362380D01*
X84862380Y-137314761D02*
X84767142Y-137362380D01*
X84576666Y-137362380D01*
X84481428Y-137314761D01*
X84433809Y-137267142D01*
X84386190Y-137171904D01*
X84386190Y-136886190D01*
X84433809Y-136790952D01*
X84481428Y-136743333D01*
X84576666Y-136695714D01*
X84767142Y-136695714D01*
X84862380Y-136743333D01*
X85290952Y-137362380D02*
X85290952Y-136362380D01*
X85719523Y-137362380D02*
X85719523Y-136838571D01*
X85671904Y-136743333D01*
X85576666Y-136695714D01*
X85433809Y-136695714D01*
X85338571Y-136743333D01*
X85290952Y-136790952D01*
X76732380Y-134747142D02*
X76684761Y-134794761D01*
X76541904Y-134842380D01*
X76446666Y-134842380D01*
X76303809Y-134794761D01*
X76208571Y-134699523D01*
X76160952Y-134604285D01*
X76113333Y-134413809D01*
X76113333Y-134270952D01*
X76160952Y-134080476D01*
X76208571Y-133985238D01*
X76303809Y-133890000D01*
X76446666Y-133842380D01*
X76541904Y-133842380D01*
X76684761Y-133890000D01*
X76732380Y-133937619D01*
X77160952Y-134842380D02*
X77160952Y-133842380D01*
X77589523Y-134842380D02*
X77589523Y-134318571D01*
X77541904Y-134223333D01*
X77446666Y-134175714D01*
X77303809Y-134175714D01*
X77208571Y-134223333D01*
X77160952Y-134270952D01*
X78494285Y-134842380D02*
X78494285Y-134318571D01*
X78446666Y-134223333D01*
X78351428Y-134175714D01*
X78160952Y-134175714D01*
X78065714Y-134223333D01*
X78494285Y-134794761D02*
X78399047Y-134842380D01*
X78160952Y-134842380D01*
X78065714Y-134794761D01*
X78018095Y-134699523D01*
X78018095Y-134604285D01*
X78065714Y-134509047D01*
X78160952Y-134461428D01*
X78399047Y-134461428D01*
X78494285Y-134413809D01*
X78970476Y-134842380D02*
X78970476Y-134175714D01*
X78970476Y-134366190D02*
X79018095Y-134270952D01*
X79065714Y-134223333D01*
X79160952Y-134175714D01*
X79256190Y-134175714D01*
X80018095Y-134175714D02*
X80018095Y-134985238D01*
X79970476Y-135080476D01*
X79922857Y-135128095D01*
X79827619Y-135175714D01*
X79684761Y-135175714D01*
X79589523Y-135128095D01*
X80018095Y-134794761D02*
X79922857Y-134842380D01*
X79732380Y-134842380D01*
X79637142Y-134794761D01*
X79589523Y-134747142D01*
X79541904Y-134651904D01*
X79541904Y-134366190D01*
X79589523Y-134270952D01*
X79637142Y-134223333D01*
X79732380Y-134175714D01*
X79922857Y-134175714D01*
X80018095Y-134223333D01*
X80875238Y-134794761D02*
X80780000Y-134842380D01*
X80589523Y-134842380D01*
X80494285Y-134794761D01*
X80446666Y-134699523D01*
X80446666Y-134318571D01*
X80494285Y-134223333D01*
X80589523Y-134175714D01*
X80780000Y-134175714D01*
X80875238Y-134223333D01*
X80922857Y-134318571D01*
X80922857Y-134413809D01*
X80446666Y-134509047D01*
X81208571Y-133842380D02*
X81541904Y-134842380D01*
X81875238Y-133842380D01*
X82351428Y-134842380D02*
X82256190Y-134794761D01*
X82208571Y-134747142D01*
X82160952Y-134651904D01*
X82160952Y-134366190D01*
X82208571Y-134270952D01*
X82256190Y-134223333D01*
X82351428Y-134175714D01*
X82494285Y-134175714D01*
X82589523Y-134223333D01*
X82637142Y-134270952D01*
X82684761Y-134366190D01*
X82684761Y-134651904D01*
X82637142Y-134747142D01*
X82589523Y-134794761D01*
X82494285Y-134842380D01*
X82351428Y-134842380D01*
X83256190Y-134842380D02*
X83160952Y-134794761D01*
X83113333Y-134699523D01*
X83113333Y-133842380D01*
X83494285Y-134175714D02*
X83875238Y-134175714D01*
X83637142Y-133842380D02*
X83637142Y-134699523D01*
X83684761Y-134794761D01*
X83780000Y-134842380D01*
X83875238Y-134842380D01*
X84637142Y-134842380D02*
X84637142Y-134318571D01*
X84589523Y-134223333D01*
X84494285Y-134175714D01*
X84303809Y-134175714D01*
X84208571Y-134223333D01*
X84637142Y-134794761D02*
X84541904Y-134842380D01*
X84303809Y-134842380D01*
X84208571Y-134794761D01*
X84160952Y-134699523D01*
X84160952Y-134604285D01*
X84208571Y-134509047D01*
X84303809Y-134461428D01*
X84541904Y-134461428D01*
X84637142Y-134413809D01*
X85541904Y-134175714D02*
X85541904Y-134985238D01*
X85494285Y-135080476D01*
X85446666Y-135128095D01*
X85351428Y-135175714D01*
X85208571Y-135175714D01*
X85113333Y-135128095D01*
X85541904Y-134794761D02*
X85446666Y-134842380D01*
X85256190Y-134842380D01*
X85160952Y-134794761D01*
X85113333Y-134747142D01*
X85065714Y-134651904D01*
X85065714Y-134366190D01*
X85113333Y-134270952D01*
X85160952Y-134223333D01*
X85256190Y-134175714D01*
X85446666Y-134175714D01*
X85541904Y-134223333D01*
X86399047Y-134794761D02*
X86303809Y-134842380D01*
X86113333Y-134842380D01*
X86018095Y-134794761D01*
X85970476Y-134699523D01*
X85970476Y-134318571D01*
X86018095Y-134223333D01*
X86113333Y-134175714D01*
X86303809Y-134175714D01*
X86399047Y-134223333D01*
X86446666Y-134318571D01*
X86446666Y-134413809D01*
X85970476Y-134509047D01*
X76816190Y-132277142D02*
X76768571Y-132324761D01*
X76625714Y-132372380D01*
X76530476Y-132372380D01*
X76387619Y-132324761D01*
X76292380Y-132229523D01*
X76244761Y-132134285D01*
X76197142Y-131943809D01*
X76197142Y-131800952D01*
X76244761Y-131610476D01*
X76292380Y-131515238D01*
X76387619Y-131420000D01*
X76530476Y-131372380D01*
X76625714Y-131372380D01*
X76768571Y-131420000D01*
X76816190Y-131467619D01*
X77244761Y-132372380D02*
X77244761Y-131372380D01*
X77673333Y-132372380D02*
X77673333Y-131848571D01*
X77625714Y-131753333D01*
X77530476Y-131705714D01*
X77387619Y-131705714D01*
X77292380Y-131753333D01*
X77244761Y-131800952D01*
X78578095Y-132372380D02*
X78578095Y-131848571D01*
X78530476Y-131753333D01*
X78435238Y-131705714D01*
X78244761Y-131705714D01*
X78149523Y-131753333D01*
X78578095Y-132324761D02*
X78482857Y-132372380D01*
X78244761Y-132372380D01*
X78149523Y-132324761D01*
X78101904Y-132229523D01*
X78101904Y-132134285D01*
X78149523Y-132039047D01*
X78244761Y-131991428D01*
X78482857Y-131991428D01*
X78578095Y-131943809D01*
X79054285Y-132372380D02*
X79054285Y-131705714D01*
X79054285Y-131896190D02*
X79101904Y-131800952D01*
X79149523Y-131753333D01*
X79244761Y-131705714D01*
X79340000Y-131705714D01*
X80101904Y-131705714D02*
X80101904Y-132515238D01*
X80054285Y-132610476D01*
X80006666Y-132658095D01*
X79911428Y-132705714D01*
X79768571Y-132705714D01*
X79673333Y-132658095D01*
X80101904Y-132324761D02*
X80006666Y-132372380D01*
X79816190Y-132372380D01*
X79720952Y-132324761D01*
X79673333Y-132277142D01*
X79625714Y-132181904D01*
X79625714Y-131896190D01*
X79673333Y-131800952D01*
X79720952Y-131753333D01*
X79816190Y-131705714D01*
X80006666Y-131705714D01*
X80101904Y-131753333D01*
X80959047Y-132324761D02*
X80863809Y-132372380D01*
X80673333Y-132372380D01*
X80578095Y-132324761D01*
X80530476Y-132229523D01*
X80530476Y-131848571D01*
X80578095Y-131753333D01*
X80673333Y-131705714D01*
X80863809Y-131705714D01*
X80959047Y-131753333D01*
X81006666Y-131848571D01*
X81006666Y-131943809D01*
X80530476Y-132039047D01*
X82006666Y-132277142D02*
X81959047Y-132324761D01*
X81816190Y-132372380D01*
X81720952Y-132372380D01*
X81578095Y-132324761D01*
X81482857Y-132229523D01*
X81435238Y-132134285D01*
X81387619Y-131943809D01*
X81387619Y-131800952D01*
X81435238Y-131610476D01*
X81482857Y-131515238D01*
X81578095Y-131420000D01*
X81720952Y-131372380D01*
X81816190Y-131372380D01*
X81959047Y-131420000D01*
X82006666Y-131467619D01*
X82863809Y-131705714D02*
X82863809Y-132372380D01*
X82435238Y-131705714D02*
X82435238Y-132229523D01*
X82482857Y-132324761D01*
X82578095Y-132372380D01*
X82720952Y-132372380D01*
X82816190Y-132324761D01*
X82863809Y-132277142D01*
X83340000Y-132372380D02*
X83340000Y-131705714D01*
X83340000Y-131896190D02*
X83387619Y-131800952D01*
X83435238Y-131753333D01*
X83530476Y-131705714D01*
X83625714Y-131705714D01*
X83959047Y-132372380D02*
X83959047Y-131705714D01*
X83959047Y-131896190D02*
X84006666Y-131800952D01*
X84054285Y-131753333D01*
X84149523Y-131705714D01*
X84244761Y-131705714D01*
X84959047Y-132324761D02*
X84863809Y-132372380D01*
X84673333Y-132372380D01*
X84578095Y-132324761D01*
X84530476Y-132229523D01*
X84530476Y-131848571D01*
X84578095Y-131753333D01*
X84673333Y-131705714D01*
X84863809Y-131705714D01*
X84959047Y-131753333D01*
X85006666Y-131848571D01*
X85006666Y-131943809D01*
X84530476Y-132039047D01*
X85435238Y-131705714D02*
X85435238Y-132372380D01*
X85435238Y-131800952D02*
X85482857Y-131753333D01*
X85578095Y-131705714D01*
X85720952Y-131705714D01*
X85816190Y-131753333D01*
X85863809Y-131848571D01*
X85863809Y-132372380D01*
X86197142Y-131705714D02*
X86578095Y-131705714D01*
X86340000Y-131372380D02*
X86340000Y-132229523D01*
X86387619Y-132324761D01*
X86482857Y-132372380D01*
X86578095Y-132372380D01*
X76764285Y-129517142D02*
X76716666Y-129564761D01*
X76573809Y-129612380D01*
X76478571Y-129612380D01*
X76335714Y-129564761D01*
X76240476Y-129469523D01*
X76192857Y-129374285D01*
X76145238Y-129183809D01*
X76145238Y-129040952D01*
X76192857Y-128850476D01*
X76240476Y-128755238D01*
X76335714Y-128660000D01*
X76478571Y-128612380D01*
X76573809Y-128612380D01*
X76716666Y-128660000D01*
X76764285Y-128707619D01*
X77192857Y-129612380D02*
X77192857Y-128612380D01*
X77621428Y-129612380D02*
X77621428Y-129088571D01*
X77573809Y-128993333D01*
X77478571Y-128945714D01*
X77335714Y-128945714D01*
X77240476Y-128993333D01*
X77192857Y-129040952D01*
X78526190Y-129612380D02*
X78526190Y-129088571D01*
X78478571Y-128993333D01*
X78383333Y-128945714D01*
X78192857Y-128945714D01*
X78097619Y-128993333D01*
X78526190Y-129564761D02*
X78430952Y-129612380D01*
X78192857Y-129612380D01*
X78097619Y-129564761D01*
X78050000Y-129469523D01*
X78050000Y-129374285D01*
X78097619Y-129279047D01*
X78192857Y-129231428D01*
X78430952Y-129231428D01*
X78526190Y-129183809D01*
X79002380Y-129612380D02*
X79002380Y-128945714D01*
X79002380Y-129136190D02*
X79050000Y-129040952D01*
X79097619Y-128993333D01*
X79192857Y-128945714D01*
X79288095Y-128945714D01*
X80050000Y-128945714D02*
X80050000Y-129755238D01*
X80002380Y-129850476D01*
X79954761Y-129898095D01*
X79859523Y-129945714D01*
X79716666Y-129945714D01*
X79621428Y-129898095D01*
X80050000Y-129564761D02*
X79954761Y-129612380D01*
X79764285Y-129612380D01*
X79669047Y-129564761D01*
X79621428Y-129517142D01*
X79573809Y-129421904D01*
X79573809Y-129136190D01*
X79621428Y-129040952D01*
X79669047Y-128993333D01*
X79764285Y-128945714D01*
X79954761Y-128945714D01*
X80050000Y-128993333D01*
X80907142Y-129564761D02*
X80811904Y-129612380D01*
X80621428Y-129612380D01*
X80526190Y-129564761D01*
X80478571Y-129469523D01*
X80478571Y-129088571D01*
X80526190Y-128993333D01*
X80621428Y-128945714D01*
X80811904Y-128945714D01*
X80907142Y-128993333D01*
X80954761Y-129088571D01*
X80954761Y-129183809D01*
X80478571Y-129279047D01*
X81383333Y-129088571D02*
X81716666Y-129088571D01*
X81859523Y-129612380D02*
X81383333Y-129612380D01*
X81383333Y-128612380D01*
X81859523Y-128612380D01*
X82288095Y-128945714D02*
X82288095Y-129612380D01*
X82288095Y-129040952D02*
X82335714Y-128993333D01*
X82430952Y-128945714D01*
X82573809Y-128945714D01*
X82669047Y-128993333D01*
X82716666Y-129088571D01*
X82716666Y-129612380D01*
X83621428Y-129612380D02*
X83621428Y-129088571D01*
X83573809Y-128993333D01*
X83478571Y-128945714D01*
X83288095Y-128945714D01*
X83192857Y-128993333D01*
X83621428Y-129564761D02*
X83526190Y-129612380D01*
X83288095Y-129612380D01*
X83192857Y-129564761D01*
X83145238Y-129469523D01*
X83145238Y-129374285D01*
X83192857Y-129279047D01*
X83288095Y-129231428D01*
X83526190Y-129231428D01*
X83621428Y-129183809D01*
X84097619Y-129612380D02*
X84097619Y-128612380D01*
X84097619Y-128993333D02*
X84192857Y-128945714D01*
X84383333Y-128945714D01*
X84478571Y-128993333D01*
X84526190Y-129040952D01*
X84573809Y-129136190D01*
X84573809Y-129421904D01*
X84526190Y-129517142D01*
X84478571Y-129564761D01*
X84383333Y-129612380D01*
X84192857Y-129612380D01*
X84097619Y-129564761D01*
X85145238Y-129612380D02*
X85050000Y-129564761D01*
X85002380Y-129469523D01*
X85002380Y-128612380D01*
X85907142Y-129564761D02*
X85811904Y-129612380D01*
X85621428Y-129612380D01*
X85526190Y-129564761D01*
X85478571Y-129469523D01*
X85478571Y-129088571D01*
X85526190Y-128993333D01*
X85621428Y-128945714D01*
X85811904Y-128945714D01*
X85907142Y-128993333D01*
X85954761Y-129088571D01*
X85954761Y-129183809D01*
X85478571Y-129279047D01*
X75992380Y-126112380D02*
X76325714Y-127112380D01*
X76659047Y-126112380D01*
X77135238Y-127112380D02*
X77040000Y-127064761D01*
X76992380Y-127017142D01*
X76944761Y-126921904D01*
X76944761Y-126636190D01*
X76992380Y-126540952D01*
X77040000Y-126493333D01*
X77135238Y-126445714D01*
X77278095Y-126445714D01*
X77373333Y-126493333D01*
X77420952Y-126540952D01*
X77468571Y-126636190D01*
X77468571Y-126921904D01*
X77420952Y-127017142D01*
X77373333Y-127064761D01*
X77278095Y-127112380D01*
X77135238Y-127112380D01*
X78040000Y-127112380D02*
X77944761Y-127064761D01*
X77897142Y-126969523D01*
X77897142Y-126112380D01*
X78278095Y-126445714D02*
X78659047Y-126445714D01*
X78420952Y-126112380D02*
X78420952Y-126969523D01*
X78468571Y-127064761D01*
X78563809Y-127112380D01*
X78659047Y-127112380D01*
X79420952Y-127112380D02*
X79420952Y-126588571D01*
X79373333Y-126493333D01*
X79278095Y-126445714D01*
X79087619Y-126445714D01*
X78992380Y-126493333D01*
X79420952Y-127064761D02*
X79325714Y-127112380D01*
X79087619Y-127112380D01*
X78992380Y-127064761D01*
X78944761Y-126969523D01*
X78944761Y-126874285D01*
X78992380Y-126779047D01*
X79087619Y-126731428D01*
X79325714Y-126731428D01*
X79420952Y-126683809D01*
X80325714Y-126445714D02*
X80325714Y-127255238D01*
X80278095Y-127350476D01*
X80230476Y-127398095D01*
X80135238Y-127445714D01*
X79992380Y-127445714D01*
X79897142Y-127398095D01*
X80325714Y-127064761D02*
X80230476Y-127112380D01*
X80040000Y-127112380D01*
X79944761Y-127064761D01*
X79897142Y-127017142D01*
X79849523Y-126921904D01*
X79849523Y-126636190D01*
X79897142Y-126540952D01*
X79944761Y-126493333D01*
X80040000Y-126445714D01*
X80230476Y-126445714D01*
X80325714Y-126493333D01*
X81182857Y-127064761D02*
X81087619Y-127112380D01*
X80897142Y-127112380D01*
X80801904Y-127064761D01*
X80754285Y-126969523D01*
X80754285Y-126588571D01*
X80801904Y-126493333D01*
X80897142Y-126445714D01*
X81087619Y-126445714D01*
X81182857Y-126493333D01*
X81230476Y-126588571D01*
X81230476Y-126683809D01*
X80754285Y-126779047D01*
X81659047Y-127112380D02*
X81659047Y-126112380D01*
X81992380Y-126826666D01*
X82325714Y-126112380D01*
X82325714Y-127112380D01*
X83182857Y-127064761D02*
X83087619Y-127112380D01*
X82897142Y-127112380D01*
X82801904Y-127064761D01*
X82754285Y-126969523D01*
X82754285Y-126588571D01*
X82801904Y-126493333D01*
X82897142Y-126445714D01*
X83087619Y-126445714D01*
X83182857Y-126493333D01*
X83230476Y-126588571D01*
X83230476Y-126683809D01*
X82754285Y-126779047D01*
X84087619Y-127112380D02*
X84087619Y-126588571D01*
X84040000Y-126493333D01*
X83944761Y-126445714D01*
X83754285Y-126445714D01*
X83659047Y-126493333D01*
X84087619Y-127064761D02*
X83992380Y-127112380D01*
X83754285Y-127112380D01*
X83659047Y-127064761D01*
X83611428Y-126969523D01*
X83611428Y-126874285D01*
X83659047Y-126779047D01*
X83754285Y-126731428D01*
X83992380Y-126731428D01*
X84087619Y-126683809D01*
X84516190Y-127064761D02*
X84611428Y-127112380D01*
X84801904Y-127112380D01*
X84897142Y-127064761D01*
X84944761Y-126969523D01*
X84944761Y-126921904D01*
X84897142Y-126826666D01*
X84801904Y-126779047D01*
X84659047Y-126779047D01*
X84563809Y-126731428D01*
X84516190Y-126636190D01*
X84516190Y-126588571D01*
X84563809Y-126493333D01*
X84659047Y-126445714D01*
X84801904Y-126445714D01*
X84897142Y-126493333D01*
X85801904Y-126445714D02*
X85801904Y-127112380D01*
X85373333Y-126445714D02*
X85373333Y-126969523D01*
X85420952Y-127064761D01*
X85516190Y-127112380D01*
X85659047Y-127112380D01*
X85754285Y-127064761D01*
X85801904Y-127017142D01*
X86278095Y-127112380D02*
X86278095Y-126445714D01*
X86278095Y-126636190D02*
X86325714Y-126540952D01*
X86373333Y-126493333D01*
X86468571Y-126445714D01*
X86563809Y-126445714D01*
X87278095Y-127064761D02*
X87182857Y-127112380D01*
X86992380Y-127112380D01*
X86897142Y-127064761D01*
X86849523Y-126969523D01*
X86849523Y-126588571D01*
X86897142Y-126493333D01*
X86992380Y-126445714D01*
X87182857Y-126445714D01*
X87278095Y-126493333D01*
X87325714Y-126588571D01*
X87325714Y-126683809D01*
X86849523Y-126779047D01*
X87754285Y-127112380D02*
X87754285Y-126445714D01*
X87754285Y-126540952D02*
X87801904Y-126493333D01*
X87897142Y-126445714D01*
X88040000Y-126445714D01*
X88135238Y-126493333D01*
X88182857Y-126588571D01*
X88182857Y-127112380D01*
X88182857Y-126588571D02*
X88230476Y-126493333D01*
X88325714Y-126445714D01*
X88468571Y-126445714D01*
X88563809Y-126493333D01*
X88611428Y-126588571D01*
X88611428Y-127112380D01*
X89468571Y-127064761D02*
X89373333Y-127112380D01*
X89182857Y-127112380D01*
X89087619Y-127064761D01*
X89040000Y-126969523D01*
X89040000Y-126588571D01*
X89087619Y-126493333D01*
X89182857Y-126445714D01*
X89373333Y-126445714D01*
X89468571Y-126493333D01*
X89516190Y-126588571D01*
X89516190Y-126683809D01*
X89040000Y-126779047D01*
X89944761Y-126445714D02*
X89944761Y-127112380D01*
X89944761Y-126540952D02*
X89992380Y-126493333D01*
X90087619Y-126445714D01*
X90230476Y-126445714D01*
X90325714Y-126493333D01*
X90373333Y-126588571D01*
X90373333Y-127112380D01*
X90706666Y-126445714D02*
X91087619Y-126445714D01*
X90849523Y-126112380D02*
X90849523Y-126969523D01*
X90897142Y-127064761D01*
X90992380Y-127112380D01*
X91087619Y-127112380D01*
D13*
%TO.C,D6*%
X88430000Y-130950000D02*
X88430000Y-131130000D01*
X88430000Y-128610000D02*
X88430000Y-128790000D01*
X88310000Y-130950000D02*
X88310000Y-131130000D01*
X88310000Y-128610000D02*
X88310000Y-128790000D01*
X91610000Y-130965000D02*
X91610000Y-131130000D01*
X91610000Y-128610000D02*
X91610000Y-128775000D01*
X88190000Y-130950000D02*
X88190000Y-131130000D01*
X88190000Y-128610000D02*
X88190000Y-128790000D01*
X88190000Y-131130000D02*
X91610000Y-131130000D01*
X88190000Y-128610000D02*
X91610000Y-128610000D01*
%TO.C,R9*%
X115140000Y-122140000D02*
X115140000Y-121810000D01*
X108600000Y-122140000D02*
X115140000Y-122140000D01*
X108600000Y-121810000D02*
X108600000Y-122140000D01*
X115140000Y-119400000D02*
X115140000Y-119730000D01*
X108600000Y-119400000D02*
X115140000Y-119400000D01*
X108600000Y-119730000D02*
X108600000Y-119400000D01*
D14*
%TO.C,U1*%
X135870000Y-127420000D02*
X113010000Y-127420000D01*
X113010000Y-108370000D02*
X113010000Y-105830000D01*
X113010000Y-105830000D02*
X135870000Y-105830000D01*
X135870000Y-105830000D02*
X135870000Y-108370000D01*
X135870000Y-108370000D02*
X135870000Y-107100000D01*
X135870000Y-127420000D02*
X135870000Y-108370000D01*
X113010000Y-108370000D02*
X113010000Y-127420000D01*
D13*
%TO.C,R8*%
X113300000Y-151540000D02*
X113300000Y-151210000D01*
X113300000Y-151210000D02*
X119840000Y-151210000D01*
X119840000Y-151210000D02*
X119840000Y-151540000D01*
X113300000Y-153620000D02*
X113300000Y-153950000D01*
X113300000Y-153950000D02*
X119840000Y-153950000D01*
X119840000Y-153950000D02*
X119840000Y-153620000D01*
%TO.C,R7*%
X125870000Y-142070000D02*
X126200000Y-142070000D01*
X126200000Y-142070000D02*
X126200000Y-148610000D01*
X126200000Y-148610000D02*
X125870000Y-148610000D01*
X123790000Y-142070000D02*
X123460000Y-142070000D01*
X123460000Y-142070000D02*
X123460000Y-148610000D01*
X123460000Y-148610000D02*
X123790000Y-148610000D01*
%TO.C,R6*%
X120630000Y-130910000D02*
X120960000Y-130910000D01*
X120960000Y-130910000D02*
X120960000Y-137450000D01*
X120960000Y-137450000D02*
X120630000Y-137450000D01*
X118550000Y-130910000D02*
X118220000Y-130910000D01*
X118220000Y-130910000D02*
X118220000Y-137450000D01*
X118220000Y-137450000D02*
X118550000Y-137450000D01*
%TO.C,R5*%
X130160000Y-148640000D02*
X129830000Y-148640000D01*
X129830000Y-148640000D02*
X129830000Y-142100000D01*
X129830000Y-142100000D02*
X130160000Y-142100000D01*
X132240000Y-148640000D02*
X132570000Y-148640000D01*
X132570000Y-148640000D02*
X132570000Y-142100000D01*
X132570000Y-142100000D02*
X132240000Y-142100000D01*
%TO.C,R4*%
X99320000Y-139610000D02*
X99320000Y-139280000D01*
X99320000Y-139280000D02*
X105860000Y-139280000D01*
X105860000Y-139280000D02*
X105860000Y-139610000D01*
X99320000Y-141690000D02*
X99320000Y-142020000D01*
X99320000Y-142020000D02*
X105860000Y-142020000D01*
X105860000Y-142020000D02*
X105860000Y-141690000D01*
%TO.C,R3*%
X113280000Y-145250000D02*
X113280000Y-144920000D01*
X113280000Y-144920000D02*
X119820000Y-144920000D01*
X119820000Y-144920000D02*
X119820000Y-145250000D01*
X113280000Y-147330000D02*
X113280000Y-147660000D01*
X113280000Y-147660000D02*
X119820000Y-147660000D01*
X119820000Y-147660000D02*
X119820000Y-147330000D01*
%TO.C,R2*%
X108940000Y-134760000D02*
X108610000Y-134760000D01*
X108610000Y-134760000D02*
X108610000Y-128220000D01*
X108610000Y-128220000D02*
X108940000Y-128220000D01*
X111020000Y-134760000D02*
X111350000Y-134760000D01*
X111350000Y-134760000D02*
X111350000Y-128220000D01*
X111350000Y-128220000D02*
X111020000Y-128220000D01*
%TO.C,R1*%
X102720000Y-134590000D02*
X102390000Y-134590000D01*
X102390000Y-134590000D02*
X102390000Y-128050000D01*
X102390000Y-128050000D02*
X102720000Y-128050000D01*
X104800000Y-134590000D02*
X105130000Y-134590000D01*
X105130000Y-134590000D02*
X105130000Y-128050000D01*
X105130000Y-128050000D02*
X104800000Y-128050000D01*
%TO.C,Q4*%
X150930000Y-143694000D02*
X150930000Y-143568000D01*
X150930000Y-141552000D02*
X150930000Y-141281000D01*
X150930000Y-139266000D02*
X150930000Y-138995000D01*
X150930000Y-136980000D02*
X150930000Y-136854000D01*
X143570000Y-143694000D02*
X143570000Y-143174000D01*
X143570000Y-137374000D02*
X143570000Y-136854000D01*
X143570000Y-143694000D02*
X150930000Y-143694000D01*
X143570000Y-136854000D02*
X150930000Y-136854000D01*
D15*
%TO.C,Q3*%
X129530000Y-137630000D02*
X129680000Y-137330000D01*
X129530000Y-137630000D02*
X129230000Y-137630000D01*
X125130000Y-137630000D02*
X124830000Y-137630000D01*
X124830000Y-137630000D02*
X124680000Y-137330000D01*
D14*
X129130000Y-134480000D02*
G75*
G03*
X125280000Y-134430000I-1950000J-1900000D01*
G01*
D13*
%TO.C,Q2*%
X92906000Y-134150000D02*
X93032000Y-134150000D01*
X95048000Y-134150000D02*
X95319000Y-134150000D01*
X97334000Y-134150000D02*
X97605000Y-134150000D01*
X99620000Y-134150000D02*
X99746000Y-134150000D01*
X92906000Y-126790000D02*
X93426000Y-126790000D01*
X99226000Y-126790000D02*
X99746000Y-126790000D01*
X92906000Y-126790000D02*
X92906000Y-134150000D01*
X99746000Y-126790000D02*
X99746000Y-134150000D01*
D15*
%TO.C,Q1*%
X115010000Y-142330000D02*
X115160000Y-142030000D01*
X115010000Y-142330000D02*
X114710000Y-142330000D01*
X110610000Y-142330000D02*
X110310000Y-142330000D01*
X110310000Y-142330000D02*
X110160000Y-142030000D01*
D14*
X114610000Y-139180000D02*
G75*
G03*
X110760000Y-139130000I-1950000J-1900000D01*
G01*
D13*
%TO.C,J7*%
X168470000Y-127460000D02*
X168470000Y-117300000D01*
X167200000Y-127460000D02*
X174820000Y-127460000D01*
X174820000Y-127460000D02*
X174820000Y-117300000D01*
X174820000Y-117300000D02*
X167200000Y-117300000D01*
X167200000Y-117300000D02*
X167200000Y-127460000D01*
%TO.C,J6*%
X168470000Y-153550000D02*
X168470000Y-143390000D01*
X167200000Y-153550000D02*
X174820000Y-153550000D01*
X174820000Y-153550000D02*
X174820000Y-143390000D01*
X174820000Y-143390000D02*
X167200000Y-143390000D01*
X167200000Y-143390000D02*
X167200000Y-153550000D01*
%TO.C,J5*%
X168470000Y-140610000D02*
X168470000Y-130450000D01*
X167200000Y-140610000D02*
X174820000Y-140610000D01*
X174820000Y-140610000D02*
X174820000Y-130450000D01*
X174820000Y-130450000D02*
X167200000Y-130450000D01*
X167200000Y-130450000D02*
X167200000Y-140610000D01*
%TO.C,J4*%
X174920000Y-113710000D02*
X164760000Y-113710000D01*
X174920000Y-114980000D02*
X174920000Y-107360000D01*
X174920000Y-107360000D02*
X164760000Y-107360000D01*
X164760000Y-107360000D02*
X164760000Y-114980000D01*
X164760000Y-114980000D02*
X174920000Y-114980000D01*
%TO.C,J3*%
X147850000Y-113610000D02*
X137690000Y-113610000D01*
X147850000Y-114880000D02*
X147850000Y-107260000D01*
X147850000Y-107260000D02*
X137690000Y-107260000D01*
X137690000Y-107260000D02*
X137690000Y-114880000D01*
X137690000Y-114880000D02*
X147850000Y-114880000D01*
%TO.C,J2*%
X161290000Y-113610000D02*
X151130000Y-113610000D01*
X161290000Y-114880000D02*
X161290000Y-107260000D01*
X161290000Y-107260000D02*
X151130000Y-107260000D01*
X151130000Y-107260000D02*
X151130000Y-114880000D01*
X151130000Y-114880000D02*
X161290000Y-114880000D01*
%TO.C,J1*%
X74730000Y-125290000D02*
X72070000Y-125290000D01*
X74730000Y-138050000D02*
X74730000Y-125290000D01*
X72070000Y-138050000D02*
X72070000Y-125290000D01*
X74730000Y-138050000D02*
X72070000Y-138050000D01*
X74730000Y-139320000D02*
X74730000Y-140650000D01*
X74730000Y-140650000D02*
X73400000Y-140650000D01*
D14*
%TO.C,F2*%
X143620520Y-120130640D02*
X143620520Y-117628740D01*
X143620520Y-127631260D02*
X143620520Y-125129360D01*
X155619480Y-127631260D02*
X155619480Y-125129360D01*
X155619480Y-117628740D02*
X155619480Y-120130640D01*
X145119120Y-122630000D02*
X154120880Y-122630000D01*
X145119120Y-120130640D02*
X145119120Y-125129360D01*
X154120880Y-120130640D02*
X154120880Y-125129360D01*
X159619980Y-120730080D02*
X159619980Y-120130640D01*
X139620020Y-124529920D02*
X139620020Y-125129360D01*
X139620020Y-125129360D02*
X159619980Y-125129360D01*
X159619980Y-125129360D02*
X159619980Y-124529920D01*
X159619980Y-120130640D02*
X139620020Y-120130640D01*
X139620020Y-120130640D02*
X139620020Y-120730080D01*
X161618960Y-120730080D02*
X161618960Y-117628740D01*
X137621040Y-124529920D02*
X137621040Y-127631260D01*
X137621040Y-127631260D02*
X161618960Y-127631260D01*
X161618960Y-127631260D02*
X161618960Y-124529920D01*
X161618960Y-117628740D02*
X137621040Y-117628740D01*
X137621040Y-117628740D02*
X137621040Y-120730080D01*
%TO.C,F1*%
X93226520Y-109821640D02*
X93226520Y-107319740D01*
X93226520Y-117322260D02*
X93226520Y-114820360D01*
X105225480Y-117322260D02*
X105225480Y-114820360D01*
X105225480Y-107319740D02*
X105225480Y-109821640D01*
X94725120Y-112321000D02*
X103726880Y-112321000D01*
X94725120Y-109821640D02*
X94725120Y-114820360D01*
X103726880Y-109821640D02*
X103726880Y-114820360D01*
X109225980Y-110421080D02*
X109225980Y-109821640D01*
X89226020Y-114220920D02*
X89226020Y-114820360D01*
X89226020Y-114820360D02*
X109225980Y-114820360D01*
X109225980Y-114820360D02*
X109225980Y-114220920D01*
X109225980Y-109821640D02*
X89226020Y-109821640D01*
X89226020Y-109821640D02*
X89226020Y-110421080D01*
X111224960Y-110421080D02*
X111224960Y-107319740D01*
X87227040Y-114220920D02*
X87227040Y-117322260D01*
X87227040Y-117322260D02*
X111224960Y-117322260D01*
X111224960Y-117322260D02*
X111224960Y-114220920D01*
X111224960Y-107319740D02*
X87227040Y-107319740D01*
X87227040Y-107319740D02*
X87227040Y-110421080D01*
D13*
%TO.C,D5*%
X162890000Y-133060000D02*
X162890000Y-130120000D01*
X162890000Y-130120000D02*
X157450000Y-130120000D01*
X157450000Y-130120000D02*
X157450000Y-133060000D01*
X157450000Y-133060000D02*
X162890000Y-133060000D01*
X163910000Y-131590000D02*
X162890000Y-131590000D01*
X156430000Y-131590000D02*
X157450000Y-131590000D01*
X161990000Y-133060000D02*
X161990000Y-130120000D01*
X161870000Y-133060000D02*
X161870000Y-130120000D01*
X162110000Y-133060000D02*
X162110000Y-130120000D01*
%TO.C,D4*%
X152880000Y-134310000D02*
X142640000Y-134310000D01*
X152880000Y-129669000D02*
X142640000Y-129669000D01*
X152880000Y-134310000D02*
X152880000Y-129669000D01*
X142640000Y-134310000D02*
X142640000Y-129669000D01*
X152880000Y-132800000D02*
X142640000Y-132800000D01*
X149610000Y-134310000D02*
X149610000Y-132800000D01*
X145909000Y-134310000D02*
X145909000Y-132800000D01*
%TO.C,D3*%
X94380000Y-142350000D02*
X94380000Y-140110000D01*
X94380000Y-140110000D02*
X90140000Y-140110000D01*
X90140000Y-140110000D02*
X90140000Y-142350000D01*
X90140000Y-142350000D02*
X94380000Y-142350000D01*
X95030000Y-141230000D02*
X94380000Y-141230000D01*
X89490000Y-141230000D02*
X90140000Y-141230000D01*
X93660000Y-142350000D02*
X93660000Y-140110000D01*
X93540000Y-142350000D02*
X93540000Y-140110000D01*
X93780000Y-142350000D02*
X93780000Y-140110000D01*
%TO.C,D2*%
X96480000Y-119280000D02*
X96480000Y-122220000D01*
X96480000Y-122220000D02*
X101920000Y-122220000D01*
X101920000Y-122220000D02*
X101920000Y-119280000D01*
X101920000Y-119280000D02*
X96480000Y-119280000D01*
X95460000Y-120750000D02*
X96480000Y-120750000D01*
X102940000Y-120750000D02*
X101920000Y-120750000D01*
X97380000Y-119280000D02*
X97380000Y-122220000D01*
X97500000Y-119280000D02*
X97500000Y-122220000D01*
X97260000Y-119280000D02*
X97260000Y-122220000D01*
%TO.C,D1*%
X89440000Y-123990000D02*
X79200000Y-123990000D01*
X89440000Y-119349000D02*
X79200000Y-119349000D01*
X89440000Y-123990000D02*
X89440000Y-119349000D01*
X79200000Y-123990000D02*
X79200000Y-119349000D01*
X89440000Y-122480000D02*
X79200000Y-122480000D01*
X86170000Y-123990000D02*
X86170000Y-122480000D01*
X82469000Y-123990000D02*
X82469000Y-122480000D01*
D14*
%TO.C,C1*%
X157080360Y-142110760D02*
X158081120Y-142110760D01*
X157580740Y-142611140D02*
X157580740Y-141610380D01*
X162429600Y-141110000D02*
G75*
G03*
X162429600Y-141110000I-3149600J0D01*
G01*
%TO.C,BT1*%
X77600000Y-117090000D02*
X77600000Y-106930000D01*
X76330000Y-117090000D02*
X83950000Y-117090000D01*
X83950000Y-117090000D02*
X83950000Y-106930000D01*
X83950000Y-106930000D02*
X76330000Y-106930000D01*
X76330000Y-106930000D02*
X76330000Y-117090000D01*
%TO.C,H2*%
X178848095Y-104482380D02*
X178848095Y-103482380D01*
X178848095Y-103958571D02*
X179419523Y-103958571D01*
X179419523Y-104482380D02*
X179419523Y-103482380D01*
X179848095Y-103577619D02*
X179895714Y-103530000D01*
X179990952Y-103482380D01*
X180229047Y-103482380D01*
X180324285Y-103530000D01*
X180371904Y-103577619D01*
X180419523Y-103672857D01*
X180419523Y-103768095D01*
X180371904Y-103910952D01*
X179800476Y-104482380D01*
X180419523Y-104482380D01*
%TO.C,H4*%
X72488095Y-147682380D02*
X72488095Y-146682380D01*
X72488095Y-147158571D02*
X73059523Y-147158571D01*
X73059523Y-147682380D02*
X73059523Y-146682380D01*
X73964285Y-147015714D02*
X73964285Y-147682380D01*
X73726190Y-146634761D02*
X73488095Y-147349047D01*
X74107142Y-147349047D01*
%TO.C,H3*%
X178918095Y-147862380D02*
X178918095Y-146862380D01*
X178918095Y-147338571D02*
X179489523Y-147338571D01*
X179489523Y-147862380D02*
X179489523Y-146862380D01*
X179870476Y-146862380D02*
X180489523Y-146862380D01*
X180156190Y-147243333D01*
X180299047Y-147243333D01*
X180394285Y-147290952D01*
X180441904Y-147338571D01*
X180489523Y-147433809D01*
X180489523Y-147671904D01*
X180441904Y-147767142D01*
X180394285Y-147814761D01*
X180299047Y-147862380D01*
X180013333Y-147862380D01*
X179918095Y-147814761D01*
X179870476Y-147767142D01*
%TO.C,H1*%
X72318095Y-104592380D02*
X72318095Y-103592380D01*
X72318095Y-104068571D02*
X72889523Y-104068571D01*
X72889523Y-104592380D02*
X72889523Y-103592380D01*
X73889523Y-104592380D02*
X73318095Y-104592380D01*
X73603809Y-104592380D02*
X73603809Y-103592380D01*
X73508571Y-103735238D01*
X73413333Y-103830476D01*
X73318095Y-103878095D01*
%TO.C,D6*%
X89161904Y-128062380D02*
X89161904Y-127062380D01*
X89400000Y-127062380D01*
X89542857Y-127110000D01*
X89638095Y-127205238D01*
X89685714Y-127300476D01*
X89733333Y-127490952D01*
X89733333Y-127633809D01*
X89685714Y-127824285D01*
X89638095Y-127919523D01*
X89542857Y-128014761D01*
X89400000Y-128062380D01*
X89161904Y-128062380D01*
X90590476Y-127062380D02*
X90400000Y-127062380D01*
X90304761Y-127110000D01*
X90257142Y-127157619D01*
X90161904Y-127300476D01*
X90114285Y-127490952D01*
X90114285Y-127871904D01*
X90161904Y-127967142D01*
X90209523Y-128014761D01*
X90304761Y-128062380D01*
X90495238Y-128062380D01*
X90590476Y-128014761D01*
X90638095Y-127967142D01*
X90685714Y-127871904D01*
X90685714Y-127633809D01*
X90638095Y-127538571D01*
X90590476Y-127490952D01*
X90495238Y-127443333D01*
X90304761Y-127443333D01*
X90209523Y-127490952D01*
X90161904Y-127538571D01*
X90114285Y-127633809D01*
X90476666Y-134930000D02*
X90476666Y-135263333D01*
X89776666Y-135263333D01*
X90110000Y-134696666D02*
X90110000Y-134463333D01*
X90476666Y-134363333D02*
X90476666Y-134696666D01*
X89776666Y-134696666D01*
X89776666Y-134363333D01*
X90476666Y-134063333D02*
X89776666Y-134063333D01*
X89776666Y-133896666D01*
X89810000Y-133796666D01*
X89876666Y-133730000D01*
X89943333Y-133696666D01*
X90076666Y-133663333D01*
X90176666Y-133663333D01*
X90310000Y-133696666D01*
X90376666Y-133730000D01*
X90443333Y-133796666D01*
X90476666Y-133896666D01*
X90476666Y-134063333D01*
%TO.C,R9*%
X111703333Y-118852380D02*
X111370000Y-118376190D01*
X111131904Y-118852380D02*
X111131904Y-117852380D01*
X111512857Y-117852380D01*
X111608095Y-117900000D01*
X111655714Y-117947619D01*
X111703333Y-118042857D01*
X111703333Y-118185714D01*
X111655714Y-118280952D01*
X111608095Y-118328571D01*
X111512857Y-118376190D01*
X111131904Y-118376190D01*
X112179523Y-118852380D02*
X112370000Y-118852380D01*
X112465238Y-118804761D01*
X112512857Y-118757142D01*
X112608095Y-118614285D01*
X112655714Y-118423809D01*
X112655714Y-118042857D01*
X112608095Y-117947619D01*
X112560476Y-117900000D01*
X112465238Y-117852380D01*
X112274761Y-117852380D01*
X112179523Y-117900000D01*
X112131904Y-117947619D01*
X112084285Y-118042857D01*
X112084285Y-118280952D01*
X112131904Y-118376190D01*
X112179523Y-118423809D01*
X112274761Y-118471428D01*
X112465238Y-118471428D01*
X112560476Y-118423809D01*
X112608095Y-118376190D01*
X112655714Y-118280952D01*
%TO.C,U1*%
X123297142Y-116438571D02*
X123297142Y-117652857D01*
X123368571Y-117795714D01*
X123440000Y-117867142D01*
X123582857Y-117938571D01*
X123868571Y-117938571D01*
X124011428Y-117867142D01*
X124082857Y-117795714D01*
X124154285Y-117652857D01*
X124154285Y-116438571D01*
X125654285Y-117938571D02*
X124797142Y-117938571D01*
X125225714Y-117938571D02*
X125225714Y-116438571D01*
X125082857Y-116652857D01*
X124940000Y-116795714D01*
X124797142Y-116867142D01*
X121797142Y-114886666D02*
X122273333Y-114886666D01*
X121701904Y-115172380D02*
X122035238Y-114172380D01*
X122368571Y-115172380D01*
X123273333Y-115077142D02*
X123225714Y-115124761D01*
X123082857Y-115172380D01*
X122987619Y-115172380D01*
X122844761Y-115124761D01*
X122749523Y-115029523D01*
X122701904Y-114934285D01*
X122654285Y-114743809D01*
X122654285Y-114600952D01*
X122701904Y-114410476D01*
X122749523Y-114315238D01*
X122844761Y-114220000D01*
X122987619Y-114172380D01*
X123082857Y-114172380D01*
X123225714Y-114220000D01*
X123273333Y-114267619D01*
X123654285Y-115124761D02*
X123797142Y-115172380D01*
X124035238Y-115172380D01*
X124130476Y-115124761D01*
X124178095Y-115077142D01*
X124225714Y-114981904D01*
X124225714Y-114886666D01*
X124178095Y-114791428D01*
X124130476Y-114743809D01*
X124035238Y-114696190D01*
X123844761Y-114648571D01*
X123749523Y-114600952D01*
X123701904Y-114553333D01*
X123654285Y-114458095D01*
X123654285Y-114362857D01*
X123701904Y-114267619D01*
X123749523Y-114220000D01*
X123844761Y-114172380D01*
X124082857Y-114172380D01*
X124225714Y-114220000D01*
X124559047Y-114172380D02*
X125225714Y-114172380D01*
X124797142Y-115172380D01*
X126130476Y-115172380D02*
X125559047Y-115172380D01*
X125844761Y-115172380D02*
X125844761Y-114172380D01*
X125749523Y-114315238D01*
X125654285Y-114410476D01*
X125559047Y-114458095D01*
X126511428Y-114267619D02*
X126559047Y-114220000D01*
X126654285Y-114172380D01*
X126892380Y-114172380D01*
X126987619Y-114220000D01*
X127035238Y-114267619D01*
X127082857Y-114362857D01*
X127082857Y-114458095D01*
X127035238Y-114600952D01*
X126463809Y-115172380D01*
X127082857Y-115172380D01*
%TO.C,R8*%
X116403333Y-150662380D02*
X116070000Y-150186190D01*
X115831904Y-150662380D02*
X115831904Y-149662380D01*
X116212857Y-149662380D01*
X116308095Y-149710000D01*
X116355714Y-149757619D01*
X116403333Y-149852857D01*
X116403333Y-149995714D01*
X116355714Y-150090952D01*
X116308095Y-150138571D01*
X116212857Y-150186190D01*
X115831904Y-150186190D01*
X116974761Y-150090952D02*
X116879523Y-150043333D01*
X116831904Y-149995714D01*
X116784285Y-149900476D01*
X116784285Y-149852857D01*
X116831904Y-149757619D01*
X116879523Y-149710000D01*
X116974761Y-149662380D01*
X117165238Y-149662380D01*
X117260476Y-149710000D01*
X117308095Y-149757619D01*
X117355714Y-149852857D01*
X117355714Y-149900476D01*
X117308095Y-149995714D01*
X117260476Y-150043333D01*
X117165238Y-150090952D01*
X116974761Y-150090952D01*
X116879523Y-150138571D01*
X116831904Y-150186190D01*
X116784285Y-150281428D01*
X116784285Y-150471904D01*
X116831904Y-150567142D01*
X116879523Y-150614761D01*
X116974761Y-150662380D01*
X117165238Y-150662380D01*
X117260476Y-150614761D01*
X117308095Y-150567142D01*
X117355714Y-150471904D01*
X117355714Y-150281428D01*
X117308095Y-150186190D01*
X117260476Y-150138571D01*
X117165238Y-150090952D01*
%TO.C,R7*%
X123042380Y-145246666D02*
X122566190Y-145580000D01*
X123042380Y-145818095D02*
X122042380Y-145818095D01*
X122042380Y-145437142D01*
X122090000Y-145341904D01*
X122137619Y-145294285D01*
X122232857Y-145246666D01*
X122375714Y-145246666D01*
X122470952Y-145294285D01*
X122518571Y-145341904D01*
X122566190Y-145437142D01*
X122566190Y-145818095D01*
X122042380Y-144913333D02*
X122042380Y-144246666D01*
X123042380Y-144675238D01*
%TO.C,R6*%
X117782380Y-134356666D02*
X117306190Y-134690000D01*
X117782380Y-134928095D02*
X116782380Y-134928095D01*
X116782380Y-134547142D01*
X116830000Y-134451904D01*
X116877619Y-134404285D01*
X116972857Y-134356666D01*
X117115714Y-134356666D01*
X117210952Y-134404285D01*
X117258571Y-134451904D01*
X117306190Y-134547142D01*
X117306190Y-134928095D01*
X116782380Y-133499523D02*
X116782380Y-133690000D01*
X116830000Y-133785238D01*
X116877619Y-133832857D01*
X117020476Y-133928095D01*
X117210952Y-133975714D01*
X117591904Y-133975714D01*
X117687142Y-133928095D01*
X117734761Y-133880476D01*
X117782380Y-133785238D01*
X117782380Y-133594761D01*
X117734761Y-133499523D01*
X117687142Y-133451904D01*
X117591904Y-133404285D01*
X117353809Y-133404285D01*
X117258571Y-133451904D01*
X117210952Y-133499523D01*
X117163333Y-133594761D01*
X117163333Y-133785238D01*
X117210952Y-133880476D01*
X117258571Y-133928095D01*
X117353809Y-133975714D01*
%TO.C,R5*%
X129282380Y-145536666D02*
X128806190Y-145870000D01*
X129282380Y-146108095D02*
X128282380Y-146108095D01*
X128282380Y-145727142D01*
X128330000Y-145631904D01*
X128377619Y-145584285D01*
X128472857Y-145536666D01*
X128615714Y-145536666D01*
X128710952Y-145584285D01*
X128758571Y-145631904D01*
X128806190Y-145727142D01*
X128806190Y-146108095D01*
X128282380Y-144631904D02*
X128282380Y-145108095D01*
X128758571Y-145155714D01*
X128710952Y-145108095D01*
X128663333Y-145012857D01*
X128663333Y-144774761D01*
X128710952Y-144679523D01*
X128758571Y-144631904D01*
X128853809Y-144584285D01*
X129091904Y-144584285D01*
X129187142Y-144631904D01*
X129234761Y-144679523D01*
X129282380Y-144774761D01*
X129282380Y-145012857D01*
X129234761Y-145108095D01*
X129187142Y-145155714D01*
%TO.C,R4*%
X102423333Y-138732380D02*
X102090000Y-138256190D01*
X101851904Y-138732380D02*
X101851904Y-137732380D01*
X102232857Y-137732380D01*
X102328095Y-137780000D01*
X102375714Y-137827619D01*
X102423333Y-137922857D01*
X102423333Y-138065714D01*
X102375714Y-138160952D01*
X102328095Y-138208571D01*
X102232857Y-138256190D01*
X101851904Y-138256190D01*
X103280476Y-138065714D02*
X103280476Y-138732380D01*
X103042380Y-137684761D02*
X102804285Y-138399047D01*
X103423333Y-138399047D01*
%TO.C,R3*%
X116383333Y-144372380D02*
X116050000Y-143896190D01*
X115811904Y-144372380D02*
X115811904Y-143372380D01*
X116192857Y-143372380D01*
X116288095Y-143420000D01*
X116335714Y-143467619D01*
X116383333Y-143562857D01*
X116383333Y-143705714D01*
X116335714Y-143800952D01*
X116288095Y-143848571D01*
X116192857Y-143896190D01*
X115811904Y-143896190D01*
X116716666Y-143372380D02*
X117335714Y-143372380D01*
X117002380Y-143753333D01*
X117145238Y-143753333D01*
X117240476Y-143800952D01*
X117288095Y-143848571D01*
X117335714Y-143943809D01*
X117335714Y-144181904D01*
X117288095Y-144277142D01*
X117240476Y-144324761D01*
X117145238Y-144372380D01*
X116859523Y-144372380D01*
X116764285Y-144324761D01*
X116716666Y-144277142D01*
%TO.C,R2*%
X108062380Y-131656666D02*
X107586190Y-131990000D01*
X108062380Y-132228095D02*
X107062380Y-132228095D01*
X107062380Y-131847142D01*
X107110000Y-131751904D01*
X107157619Y-131704285D01*
X107252857Y-131656666D01*
X107395714Y-131656666D01*
X107490952Y-131704285D01*
X107538571Y-131751904D01*
X107586190Y-131847142D01*
X107586190Y-132228095D01*
X107157619Y-131275714D02*
X107110000Y-131228095D01*
X107062380Y-131132857D01*
X107062380Y-130894761D01*
X107110000Y-130799523D01*
X107157619Y-130751904D01*
X107252857Y-130704285D01*
X107348095Y-130704285D01*
X107490952Y-130751904D01*
X108062380Y-131323333D01*
X108062380Y-130704285D01*
%TO.C,R1*%
X101842380Y-131486666D02*
X101366190Y-131820000D01*
X101842380Y-132058095D02*
X100842380Y-132058095D01*
X100842380Y-131677142D01*
X100890000Y-131581904D01*
X100937619Y-131534285D01*
X101032857Y-131486666D01*
X101175714Y-131486666D01*
X101270952Y-131534285D01*
X101318571Y-131581904D01*
X101366190Y-131677142D01*
X101366190Y-132058095D01*
X101842380Y-130534285D02*
X101842380Y-131105714D01*
X101842380Y-130820000D02*
X100842380Y-130820000D01*
X100985238Y-130915238D01*
X101080476Y-131010476D01*
X101128095Y-131105714D01*
%TO.C,Q4*%
X142084286Y-140369238D02*
X142036667Y-140464476D01*
X141941428Y-140559714D01*
X141798571Y-140702571D01*
X141750952Y-140797809D01*
X141750952Y-140893047D01*
X141989047Y-140845428D02*
X141941428Y-140940666D01*
X141846190Y-141035904D01*
X141655714Y-141083523D01*
X141322381Y-141083523D01*
X141131905Y-141035904D01*
X141036667Y-140940666D01*
X140989047Y-140845428D01*
X140989047Y-140654952D01*
X141036667Y-140559714D01*
X141131905Y-140464476D01*
X141322381Y-140416857D01*
X141655714Y-140416857D01*
X141846190Y-140464476D01*
X141941428Y-140559714D01*
X141989047Y-140654952D01*
X141989047Y-140845428D01*
X141322381Y-139559714D02*
X141989047Y-139559714D01*
X140941428Y-139797809D02*
X141655714Y-140035904D01*
X141655714Y-139416857D01*
%TO.C,Q3*%
X127084761Y-133227619D02*
X126989523Y-133180000D01*
X126894285Y-133084761D01*
X126751428Y-132941904D01*
X126656190Y-132894285D01*
X126560952Y-132894285D01*
X126608571Y-133132380D02*
X126513333Y-133084761D01*
X126418095Y-132989523D01*
X126370476Y-132799047D01*
X126370476Y-132465714D01*
X126418095Y-132275238D01*
X126513333Y-132180000D01*
X126608571Y-132132380D01*
X126799047Y-132132380D01*
X126894285Y-132180000D01*
X126989523Y-132275238D01*
X127037142Y-132465714D01*
X127037142Y-132799047D01*
X126989523Y-132989523D01*
X126894285Y-133084761D01*
X126799047Y-133132380D01*
X126608571Y-133132380D01*
X127370476Y-132132380D02*
X127989523Y-132132380D01*
X127656190Y-132513333D01*
X127799047Y-132513333D01*
X127894285Y-132560952D01*
X127941904Y-132608571D01*
X127989523Y-132703809D01*
X127989523Y-132941904D01*
X127941904Y-133037142D01*
X127894285Y-133084761D01*
X127799047Y-133132380D01*
X127513333Y-133132380D01*
X127418095Y-133084761D01*
X127370476Y-133037142D01*
%TO.C,Q2*%
X96230761Y-125304286D02*
X96135523Y-125256667D01*
X96040285Y-125161428D01*
X95897428Y-125018571D01*
X95802190Y-124970952D01*
X95706952Y-124970952D01*
X95754571Y-125209047D02*
X95659333Y-125161428D01*
X95564095Y-125066190D01*
X95516476Y-124875714D01*
X95516476Y-124542381D01*
X95564095Y-124351905D01*
X95659333Y-124256667D01*
X95754571Y-124209047D01*
X95945047Y-124209047D01*
X96040285Y-124256667D01*
X96135523Y-124351905D01*
X96183142Y-124542381D01*
X96183142Y-124875714D01*
X96135523Y-125066190D01*
X96040285Y-125161428D01*
X95945047Y-125209047D01*
X95754571Y-125209047D01*
X96564095Y-124304286D02*
X96611714Y-124256667D01*
X96706952Y-124209047D01*
X96945047Y-124209047D01*
X97040285Y-124256667D01*
X97087904Y-124304286D01*
X97135523Y-124399524D01*
X97135523Y-124494762D01*
X97087904Y-124637619D01*
X96516476Y-125209047D01*
X97135523Y-125209047D01*
%TO.C,Q1*%
X112564761Y-137927619D02*
X112469523Y-137880000D01*
X112374285Y-137784761D01*
X112231428Y-137641904D01*
X112136190Y-137594285D01*
X112040952Y-137594285D01*
X112088571Y-137832380D02*
X111993333Y-137784761D01*
X111898095Y-137689523D01*
X111850476Y-137499047D01*
X111850476Y-137165714D01*
X111898095Y-136975238D01*
X111993333Y-136880000D01*
X112088571Y-136832380D01*
X112279047Y-136832380D01*
X112374285Y-136880000D01*
X112469523Y-136975238D01*
X112517142Y-137165714D01*
X112517142Y-137499047D01*
X112469523Y-137689523D01*
X112374285Y-137784761D01*
X112279047Y-137832380D01*
X112088571Y-137832380D01*
X113469523Y-137832380D02*
X112898095Y-137832380D01*
X113183809Y-137832380D02*
X113183809Y-136832380D01*
X113088571Y-136975238D01*
X112993333Y-137070476D01*
X112898095Y-137118095D01*
%TO.C,J7*%
X165552380Y-122683333D02*
X166266666Y-122683333D01*
X166409523Y-122730952D01*
X166504761Y-122826190D01*
X166552380Y-122969047D01*
X166552380Y-123064285D01*
X165552380Y-122302380D02*
X165552380Y-121635714D01*
X166552380Y-122064285D01*
X176362380Y-126692857D02*
X175362380Y-126692857D01*
X176076666Y-126359523D01*
X175362380Y-126026190D01*
X176362380Y-126026190D01*
X176362380Y-125407142D02*
X176314761Y-125502380D01*
X176267142Y-125550000D01*
X176171904Y-125597619D01*
X175886190Y-125597619D01*
X175790952Y-125550000D01*
X175743333Y-125502380D01*
X175695714Y-125407142D01*
X175695714Y-125264285D01*
X175743333Y-125169047D01*
X175790952Y-125121428D01*
X175886190Y-125073809D01*
X176171904Y-125073809D01*
X176267142Y-125121428D01*
X176314761Y-125169047D01*
X176362380Y-125264285D01*
X176362380Y-125407142D01*
X175695714Y-124788095D02*
X175695714Y-124407142D01*
X175362380Y-124645238D02*
X176219523Y-124645238D01*
X176314761Y-124597619D01*
X176362380Y-124502380D01*
X176362380Y-124407142D01*
X176362380Y-123930952D02*
X176314761Y-124026190D01*
X176267142Y-124073809D01*
X176171904Y-124121428D01*
X175886190Y-124121428D01*
X175790952Y-124073809D01*
X175743333Y-124026190D01*
X175695714Y-123930952D01*
X175695714Y-123788095D01*
X175743333Y-123692857D01*
X175790952Y-123645238D01*
X175886190Y-123597619D01*
X176171904Y-123597619D01*
X176267142Y-123645238D01*
X176314761Y-123692857D01*
X176362380Y-123788095D01*
X176362380Y-123930952D01*
X176362380Y-123169047D02*
X175695714Y-123169047D01*
X175886190Y-123169047D02*
X175790952Y-123121428D01*
X175743333Y-123073809D01*
X175695714Y-122978571D01*
X175695714Y-122883333D01*
X176457619Y-122788095D02*
X176457619Y-122026190D01*
X176362380Y-121216666D02*
X175886190Y-121550000D01*
X176362380Y-121788095D02*
X175362380Y-121788095D01*
X175362380Y-121407142D01*
X175410000Y-121311904D01*
X175457619Y-121264285D01*
X175552857Y-121216666D01*
X175695714Y-121216666D01*
X175790952Y-121264285D01*
X175838571Y-121311904D01*
X175886190Y-121407142D01*
X175886190Y-121788095D01*
X176362380Y-120788095D02*
X175695714Y-120788095D01*
X175362380Y-120788095D02*
X175410000Y-120835714D01*
X175457619Y-120788095D01*
X175410000Y-120740476D01*
X175362380Y-120788095D01*
X175457619Y-120788095D01*
X175695714Y-119883333D02*
X176505238Y-119883333D01*
X176600476Y-119930952D01*
X176648095Y-119978571D01*
X176695714Y-120073809D01*
X176695714Y-120216666D01*
X176648095Y-120311904D01*
X176314761Y-119883333D02*
X176362380Y-119978571D01*
X176362380Y-120169047D01*
X176314761Y-120264285D01*
X176267142Y-120311904D01*
X176171904Y-120359523D01*
X175886190Y-120359523D01*
X175790952Y-120311904D01*
X175743333Y-120264285D01*
X175695714Y-120169047D01*
X175695714Y-119978571D01*
X175743333Y-119883333D01*
X176362380Y-119407142D02*
X175362380Y-119407142D01*
X176362380Y-118978571D02*
X175838571Y-118978571D01*
X175743333Y-119026190D01*
X175695714Y-119121428D01*
X175695714Y-119264285D01*
X175743333Y-119359523D01*
X175790952Y-119407142D01*
X175695714Y-118645238D02*
X175695714Y-118264285D01*
X175362380Y-118502380D02*
X176219523Y-118502380D01*
X176314761Y-118454761D01*
X176362380Y-118359523D01*
X176362380Y-118264285D01*
%TO.C,J6*%
X165582380Y-148623333D02*
X166296666Y-148623333D01*
X166439523Y-148670952D01*
X166534761Y-148766190D01*
X166582380Y-148909047D01*
X166582380Y-149004285D01*
X165582380Y-147718571D02*
X165582380Y-147909047D01*
X165630000Y-148004285D01*
X165677619Y-148051904D01*
X165820476Y-148147142D01*
X166010952Y-148194761D01*
X166391904Y-148194761D01*
X166487142Y-148147142D01*
X166534761Y-148099523D01*
X166582380Y-148004285D01*
X166582380Y-147813809D01*
X166534761Y-147718571D01*
X166487142Y-147670952D01*
X166391904Y-147623333D01*
X166153809Y-147623333D01*
X166058571Y-147670952D01*
X166010952Y-147718571D01*
X165963333Y-147813809D01*
X165963333Y-148004285D01*
X166010952Y-148099523D01*
X166058571Y-148147142D01*
X166153809Y-148194761D01*
X176402380Y-153066190D02*
X175402380Y-153066190D01*
X176116666Y-152732857D01*
X175402380Y-152399523D01*
X176402380Y-152399523D01*
X176402380Y-151780476D02*
X176354761Y-151875714D01*
X176307142Y-151923333D01*
X176211904Y-151970952D01*
X175926190Y-151970952D01*
X175830952Y-151923333D01*
X175783333Y-151875714D01*
X175735714Y-151780476D01*
X175735714Y-151637619D01*
X175783333Y-151542380D01*
X175830952Y-151494761D01*
X175926190Y-151447142D01*
X176211904Y-151447142D01*
X176307142Y-151494761D01*
X176354761Y-151542380D01*
X176402380Y-151637619D01*
X176402380Y-151780476D01*
X175735714Y-151161428D02*
X175735714Y-150780476D01*
X175402380Y-151018571D02*
X176259523Y-151018571D01*
X176354761Y-150970952D01*
X176402380Y-150875714D01*
X176402380Y-150780476D01*
X176402380Y-150304285D02*
X176354761Y-150399523D01*
X176307142Y-150447142D01*
X176211904Y-150494761D01*
X175926190Y-150494761D01*
X175830952Y-150447142D01*
X175783333Y-150399523D01*
X175735714Y-150304285D01*
X175735714Y-150161428D01*
X175783333Y-150066190D01*
X175830952Y-150018571D01*
X175926190Y-149970952D01*
X176211904Y-149970952D01*
X176307142Y-150018571D01*
X176354761Y-150066190D01*
X176402380Y-150161428D01*
X176402380Y-150304285D01*
X176402380Y-149542380D02*
X175735714Y-149542380D01*
X175926190Y-149542380D02*
X175830952Y-149494761D01*
X175783333Y-149447142D01*
X175735714Y-149351904D01*
X175735714Y-149256666D01*
X176497619Y-149161428D02*
X176497619Y-148399523D01*
X176307142Y-147590000D02*
X176354761Y-147637619D01*
X176402380Y-147780476D01*
X176402380Y-147875714D01*
X176354761Y-148018571D01*
X176259523Y-148113809D01*
X176164285Y-148161428D01*
X175973809Y-148209047D01*
X175830952Y-148209047D01*
X175640476Y-148161428D01*
X175545238Y-148113809D01*
X175450000Y-148018571D01*
X175402380Y-147875714D01*
X175402380Y-147780476D01*
X175450000Y-147637619D01*
X175497619Y-147590000D01*
X175735714Y-146732857D02*
X176402380Y-146732857D01*
X175735714Y-147161428D02*
X176259523Y-147161428D01*
X176354761Y-147113809D01*
X176402380Y-147018571D01*
X176402380Y-146875714D01*
X176354761Y-146780476D01*
X176307142Y-146732857D01*
X175735714Y-146399523D02*
X175735714Y-146018571D01*
X175402380Y-146256666D02*
X176259523Y-146256666D01*
X176354761Y-146209047D01*
X176402380Y-146113809D01*
X176402380Y-146018571D01*
X175735714Y-145828095D02*
X175735714Y-145447142D01*
X175402380Y-145685238D02*
X176259523Y-145685238D01*
X176354761Y-145637619D01*
X176402380Y-145542380D01*
X176402380Y-145447142D01*
X176354761Y-144732857D02*
X176402380Y-144828095D01*
X176402380Y-145018571D01*
X176354761Y-145113809D01*
X176259523Y-145161428D01*
X175878571Y-145161428D01*
X175783333Y-145113809D01*
X175735714Y-145018571D01*
X175735714Y-144828095D01*
X175783333Y-144732857D01*
X175878571Y-144685238D01*
X175973809Y-144685238D01*
X176069047Y-145161428D01*
X176402380Y-144256666D02*
X175735714Y-144256666D01*
X175926190Y-144256666D02*
X175830952Y-144209047D01*
X175783333Y-144161428D01*
X175735714Y-144066190D01*
X175735714Y-143970952D01*
%TO.C,J5*%
X165572380Y-136003333D02*
X166286666Y-136003333D01*
X166429523Y-136050952D01*
X166524761Y-136146190D01*
X166572380Y-136289047D01*
X166572380Y-136384285D01*
X165572380Y-135050952D02*
X165572380Y-135527142D01*
X166048571Y-135574761D01*
X166000952Y-135527142D01*
X165953333Y-135431904D01*
X165953333Y-135193809D01*
X166000952Y-135098571D01*
X166048571Y-135050952D01*
X166143809Y-135003333D01*
X166381904Y-135003333D01*
X166477142Y-135050952D01*
X166524761Y-135098571D01*
X166572380Y-135193809D01*
X166572380Y-135431904D01*
X166524761Y-135527142D01*
X166477142Y-135574761D01*
X176372380Y-139089047D02*
X175372380Y-139089047D01*
X176086666Y-138755714D01*
X175372380Y-138422380D01*
X176372380Y-138422380D01*
X176372380Y-137803333D02*
X176324761Y-137898571D01*
X176277142Y-137946190D01*
X176181904Y-137993809D01*
X175896190Y-137993809D01*
X175800952Y-137946190D01*
X175753333Y-137898571D01*
X175705714Y-137803333D01*
X175705714Y-137660476D01*
X175753333Y-137565238D01*
X175800952Y-137517619D01*
X175896190Y-137470000D01*
X176181904Y-137470000D01*
X176277142Y-137517619D01*
X176324761Y-137565238D01*
X176372380Y-137660476D01*
X176372380Y-137803333D01*
X175705714Y-137184285D02*
X175705714Y-136803333D01*
X175372380Y-137041428D02*
X176229523Y-137041428D01*
X176324761Y-136993809D01*
X176372380Y-136898571D01*
X176372380Y-136803333D01*
X176372380Y-136327142D02*
X176324761Y-136422380D01*
X176277142Y-136470000D01*
X176181904Y-136517619D01*
X175896190Y-136517619D01*
X175800952Y-136470000D01*
X175753333Y-136422380D01*
X175705714Y-136327142D01*
X175705714Y-136184285D01*
X175753333Y-136089047D01*
X175800952Y-136041428D01*
X175896190Y-135993809D01*
X176181904Y-135993809D01*
X176277142Y-136041428D01*
X176324761Y-136089047D01*
X176372380Y-136184285D01*
X176372380Y-136327142D01*
X176372380Y-135565238D02*
X175705714Y-135565238D01*
X175896190Y-135565238D02*
X175800952Y-135517619D01*
X175753333Y-135470000D01*
X175705714Y-135374761D01*
X175705714Y-135279523D01*
X176467619Y-135184285D02*
X176467619Y-134422380D01*
X176372380Y-133708095D02*
X176372380Y-134184285D01*
X175372380Y-134184285D01*
X176324761Y-132993809D02*
X176372380Y-133089047D01*
X176372380Y-133279523D01*
X176324761Y-133374761D01*
X176229523Y-133422380D01*
X175848571Y-133422380D01*
X175753333Y-133374761D01*
X175705714Y-133279523D01*
X175705714Y-133089047D01*
X175753333Y-132993809D01*
X175848571Y-132946190D01*
X175943809Y-132946190D01*
X176039047Y-133422380D01*
X175705714Y-132660476D02*
X175705714Y-132279523D01*
X176372380Y-132517619D02*
X175515238Y-132517619D01*
X175420000Y-132470000D01*
X175372380Y-132374761D01*
X175372380Y-132279523D01*
X175705714Y-132089047D02*
X175705714Y-131708095D01*
X175372380Y-131946190D02*
X176229523Y-131946190D01*
X176324761Y-131898571D01*
X176372380Y-131803333D01*
X176372380Y-131708095D01*
%TO.C,J4*%
X167166666Y-115422380D02*
X167166666Y-116136666D01*
X167119047Y-116279523D01*
X167023809Y-116374761D01*
X166880952Y-116422380D01*
X166785714Y-116422380D01*
X168071428Y-115755714D02*
X168071428Y-116422380D01*
X167833333Y-115374761D02*
X167595238Y-116089047D01*
X168214285Y-116089047D01*
X167086666Y-106007619D02*
X167134285Y-105960000D01*
X167229523Y-105912380D01*
X167467619Y-105912380D01*
X167562857Y-105960000D01*
X167610476Y-106007619D01*
X167658095Y-106102857D01*
X167658095Y-106198095D01*
X167610476Y-106340952D01*
X167039047Y-106912380D01*
X167658095Y-106912380D01*
X168515238Y-106245714D02*
X168515238Y-106912380D01*
X168277142Y-105864761D02*
X168039047Y-106579047D01*
X168658095Y-106579047D01*
X168896190Y-105912380D02*
X169229523Y-106912380D01*
X169562857Y-105912380D01*
X170848571Y-105912380D02*
X171039047Y-105912380D01*
X171134285Y-105960000D01*
X171229523Y-106055238D01*
X171277142Y-106245714D01*
X171277142Y-106579047D01*
X171229523Y-106769523D01*
X171134285Y-106864761D01*
X171039047Y-106912380D01*
X170848571Y-106912380D01*
X170753333Y-106864761D01*
X170658095Y-106769523D01*
X170610476Y-106579047D01*
X170610476Y-106245714D01*
X170658095Y-106055238D01*
X170753333Y-105960000D01*
X170848571Y-105912380D01*
X172134285Y-106245714D02*
X172134285Y-106912380D01*
X171705714Y-106245714D02*
X171705714Y-106769523D01*
X171753333Y-106864761D01*
X171848571Y-106912380D01*
X171991428Y-106912380D01*
X172086666Y-106864761D01*
X172134285Y-106817142D01*
X172467619Y-106245714D02*
X172848571Y-106245714D01*
X172610476Y-105912380D02*
X172610476Y-106769523D01*
X172658095Y-106864761D01*
X172753333Y-106912380D01*
X172848571Y-106912380D01*
%TO.C,J3*%
X142656666Y-115232380D02*
X142656666Y-115946666D01*
X142609047Y-116089523D01*
X142513809Y-116184761D01*
X142370952Y-116232380D01*
X142275714Y-116232380D01*
X143037619Y-115232380D02*
X143656666Y-115232380D01*
X143323333Y-115613333D01*
X143466190Y-115613333D01*
X143561428Y-115660952D01*
X143609047Y-115708571D01*
X143656666Y-115803809D01*
X143656666Y-116041904D01*
X143609047Y-116137142D01*
X143561428Y-116184761D01*
X143466190Y-116232380D01*
X143180476Y-116232380D01*
X143085238Y-116184761D01*
X143037619Y-116137142D01*
X138028095Y-106612380D02*
X138028095Y-105612380D01*
X138409047Y-105612380D01*
X138504285Y-105660000D01*
X138551904Y-105707619D01*
X138599523Y-105802857D01*
X138599523Y-105945714D01*
X138551904Y-106040952D01*
X138504285Y-106088571D01*
X138409047Y-106136190D01*
X138028095Y-106136190D01*
X139170952Y-106612380D02*
X139075714Y-106564761D01*
X139028095Y-106517142D01*
X138980476Y-106421904D01*
X138980476Y-106136190D01*
X139028095Y-106040952D01*
X139075714Y-105993333D01*
X139170952Y-105945714D01*
X139313809Y-105945714D01*
X139409047Y-105993333D01*
X139456666Y-106040952D01*
X139504285Y-106136190D01*
X139504285Y-106421904D01*
X139456666Y-106517142D01*
X139409047Y-106564761D01*
X139313809Y-106612380D01*
X139170952Y-106612380D01*
X139837619Y-105945714D02*
X140028095Y-106612380D01*
X140218571Y-106136190D01*
X140409047Y-106612380D01*
X140599523Y-105945714D01*
X141361428Y-106564761D02*
X141266190Y-106612380D01*
X141075714Y-106612380D01*
X140980476Y-106564761D01*
X140932857Y-106469523D01*
X140932857Y-106088571D01*
X140980476Y-105993333D01*
X141075714Y-105945714D01*
X141266190Y-105945714D01*
X141361428Y-105993333D01*
X141409047Y-106088571D01*
X141409047Y-106183809D01*
X140932857Y-106279047D01*
X141837619Y-106612380D02*
X141837619Y-105945714D01*
X141837619Y-106136190D02*
X141885238Y-106040952D01*
X141932857Y-105993333D01*
X142028095Y-105945714D01*
X142123333Y-105945714D01*
X143170952Y-106564761D02*
X143313809Y-106612380D01*
X143551904Y-106612380D01*
X143647142Y-106564761D01*
X143694761Y-106517142D01*
X143742380Y-106421904D01*
X143742380Y-106326666D01*
X143694761Y-106231428D01*
X143647142Y-106183809D01*
X143551904Y-106136190D01*
X143361428Y-106088571D01*
X143266190Y-106040952D01*
X143218571Y-105993333D01*
X143170952Y-105898095D01*
X143170952Y-105802857D01*
X143218571Y-105707619D01*
X143266190Y-105660000D01*
X143361428Y-105612380D01*
X143599523Y-105612380D01*
X143742380Y-105660000D01*
X144075714Y-105945714D02*
X144266190Y-106612380D01*
X144456666Y-106136190D01*
X144647142Y-106612380D01*
X144837619Y-105945714D01*
X145218571Y-106612380D02*
X145218571Y-105945714D01*
X145218571Y-105612380D02*
X145170952Y-105660000D01*
X145218571Y-105707619D01*
X145266190Y-105660000D01*
X145218571Y-105612380D01*
X145218571Y-105707619D01*
X145551904Y-105945714D02*
X145932857Y-105945714D01*
X145694761Y-105612380D02*
X145694761Y-106469523D01*
X145742380Y-106564761D01*
X145837619Y-106612380D01*
X145932857Y-106612380D01*
X146694761Y-106564761D02*
X146599523Y-106612380D01*
X146409047Y-106612380D01*
X146313809Y-106564761D01*
X146266190Y-106517142D01*
X146218571Y-106421904D01*
X146218571Y-106136190D01*
X146266190Y-106040952D01*
X146313809Y-105993333D01*
X146409047Y-105945714D01*
X146599523Y-105945714D01*
X146694761Y-105993333D01*
X147123333Y-106612380D02*
X147123333Y-105612380D01*
X147551904Y-106612380D02*
X147551904Y-106088571D01*
X147504285Y-105993333D01*
X147409047Y-105945714D01*
X147266190Y-105945714D01*
X147170952Y-105993333D01*
X147123333Y-106040952D01*
%TO.C,J2*%
X155966666Y-115332380D02*
X155966666Y-116046666D01*
X155919047Y-116189523D01*
X155823809Y-116284761D01*
X155680952Y-116332380D01*
X155585714Y-116332380D01*
X156395238Y-115427619D02*
X156442857Y-115380000D01*
X156538095Y-115332380D01*
X156776190Y-115332380D01*
X156871428Y-115380000D01*
X156919047Y-115427619D01*
X156966666Y-115522857D01*
X156966666Y-115618095D01*
X156919047Y-115760952D01*
X156347619Y-116332380D01*
X156966666Y-116332380D01*
X153728571Y-105988571D02*
X153871428Y-106036190D01*
X153919047Y-106083809D01*
X153966666Y-106179047D01*
X153966666Y-106321904D01*
X153919047Y-106417142D01*
X153871428Y-106464761D01*
X153776190Y-106512380D01*
X153395238Y-106512380D01*
X153395238Y-105512380D01*
X153728571Y-105512380D01*
X153823809Y-105560000D01*
X153871428Y-105607619D01*
X153919047Y-105702857D01*
X153919047Y-105798095D01*
X153871428Y-105893333D01*
X153823809Y-105940952D01*
X153728571Y-105988571D01*
X153395238Y-105988571D01*
X154823809Y-106512380D02*
X154823809Y-105988571D01*
X154776190Y-105893333D01*
X154680952Y-105845714D01*
X154490476Y-105845714D01*
X154395238Y-105893333D01*
X154823809Y-106464761D02*
X154728571Y-106512380D01*
X154490476Y-106512380D01*
X154395238Y-106464761D01*
X154347619Y-106369523D01*
X154347619Y-106274285D01*
X154395238Y-106179047D01*
X154490476Y-106131428D01*
X154728571Y-106131428D01*
X154823809Y-106083809D01*
X155157142Y-105845714D02*
X155538095Y-105845714D01*
X155300000Y-105512380D02*
X155300000Y-106369523D01*
X155347619Y-106464761D01*
X155442857Y-106512380D01*
X155538095Y-106512380D01*
X155728571Y-105845714D02*
X156109523Y-105845714D01*
X155871428Y-105512380D02*
X155871428Y-106369523D01*
X155919047Y-106464761D01*
X156014285Y-106512380D01*
X156109523Y-106512380D01*
X156823809Y-106464761D02*
X156728571Y-106512380D01*
X156538095Y-106512380D01*
X156442857Y-106464761D01*
X156395238Y-106369523D01*
X156395238Y-105988571D01*
X156442857Y-105893333D01*
X156538095Y-105845714D01*
X156728571Y-105845714D01*
X156823809Y-105893333D01*
X156871428Y-105988571D01*
X156871428Y-106083809D01*
X156395238Y-106179047D01*
X157300000Y-106512380D02*
X157300000Y-105845714D01*
X157300000Y-106036190D02*
X157347619Y-105940952D01*
X157395238Y-105893333D01*
X157490476Y-105845714D01*
X157585714Y-105845714D01*
X157823809Y-105845714D02*
X158061904Y-106512380D01*
X158300000Y-105845714D02*
X158061904Y-106512380D01*
X157966666Y-106750476D01*
X157919047Y-106798095D01*
X157823809Y-106845714D01*
%TO.C,J1*%
X73066666Y-141102380D02*
X73066666Y-141816666D01*
X73019047Y-141959523D01*
X72923809Y-142054761D01*
X72780952Y-142102380D01*
X72685714Y-142102380D01*
X74066666Y-142102380D02*
X73495238Y-142102380D01*
X73780952Y-142102380D02*
X73780952Y-141102380D01*
X73685714Y-141245238D01*
X73590476Y-141340476D01*
X73495238Y-141388095D01*
X71660952Y-124602380D02*
X71660952Y-123602380D01*
X72041904Y-123602380D01*
X72137142Y-123650000D01*
X72184761Y-123697619D01*
X72232380Y-123792857D01*
X72232380Y-123935714D01*
X72184761Y-124030952D01*
X72137142Y-124078571D01*
X72041904Y-124126190D01*
X71660952Y-124126190D01*
X73232380Y-124507142D02*
X73184761Y-124554761D01*
X73041904Y-124602380D01*
X72946666Y-124602380D01*
X72803809Y-124554761D01*
X72708571Y-124459523D01*
X72660952Y-124364285D01*
X72613333Y-124173809D01*
X72613333Y-124030952D01*
X72660952Y-123840476D01*
X72708571Y-123745238D01*
X72803809Y-123650000D01*
X72946666Y-123602380D01*
X73041904Y-123602380D01*
X73184761Y-123650000D01*
X73232380Y-123697619D01*
X73994285Y-124078571D02*
X74137142Y-124126190D01*
X74184761Y-124173809D01*
X74232380Y-124269047D01*
X74232380Y-124411904D01*
X74184761Y-124507142D01*
X74137142Y-124554761D01*
X74041904Y-124602380D01*
X73660952Y-124602380D01*
X73660952Y-123602380D01*
X73994285Y-123602380D01*
X74089523Y-123650000D01*
X74137142Y-123697619D01*
X74184761Y-123792857D01*
X74184761Y-123888095D01*
X74137142Y-123983333D01*
X74089523Y-124030952D01*
X73994285Y-124078571D01*
X73660952Y-124078571D01*
X74422857Y-124697619D02*
X75184761Y-124697619D01*
X75946666Y-124602380D02*
X75375238Y-124602380D01*
X75660952Y-124602380D02*
X75660952Y-123602380D01*
X75565714Y-123745238D01*
X75470476Y-123840476D01*
X75375238Y-123888095D01*
%TO.C,F2*%
X149666666Y-116808571D02*
X149333333Y-116808571D01*
X149333333Y-117332380D02*
X149333333Y-116332380D01*
X149809523Y-116332380D01*
X150142857Y-116427619D02*
X150190476Y-116380000D01*
X150285714Y-116332380D01*
X150523809Y-116332380D01*
X150619047Y-116380000D01*
X150666666Y-116427619D01*
X150714285Y-116522857D01*
X150714285Y-116618095D01*
X150666666Y-116760952D01*
X150095238Y-117332380D01*
X150714285Y-117332380D01*
%TO.C,F1*%
X98686677Y-106388311D02*
X98353344Y-106388311D01*
X98353344Y-106912120D02*
X98353344Y-105912120D01*
X98829534Y-105912120D01*
X99734296Y-106912120D02*
X99162868Y-106912120D01*
X99448582Y-106912120D02*
X99448582Y-105912120D01*
X99353344Y-106054978D01*
X99258106Y-106150216D01*
X99162868Y-106197835D01*
%TO.C,D5*%
X159161904Y-129612380D02*
X159161904Y-128612380D01*
X159400000Y-128612380D01*
X159542857Y-128660000D01*
X159638095Y-128755238D01*
X159685714Y-128850476D01*
X159733333Y-129040952D01*
X159733333Y-129183809D01*
X159685714Y-129374285D01*
X159638095Y-129469523D01*
X159542857Y-129564761D01*
X159400000Y-129612380D01*
X159161904Y-129612380D01*
X160638095Y-128612380D02*
X160161904Y-128612380D01*
X160114285Y-129088571D01*
X160161904Y-129040952D01*
X160257142Y-128993333D01*
X160495238Y-128993333D01*
X160590476Y-129040952D01*
X160638095Y-129088571D01*
X160685714Y-129183809D01*
X160685714Y-129421904D01*
X160638095Y-129517142D01*
X160590476Y-129564761D01*
X160495238Y-129612380D01*
X160257142Y-129612380D01*
X160161904Y-129564761D01*
X160114285Y-129517142D01*
X164988095Y-134142380D02*
X164988095Y-133142380D01*
X165559523Y-134142380D02*
X165130952Y-133570952D01*
X165559523Y-133142380D02*
X164988095Y-133713809D01*
%TO.C,D4*%
X147021904Y-135762380D02*
X147021904Y-134762380D01*
X147260000Y-134762380D01*
X147402857Y-134810000D01*
X147498095Y-134905238D01*
X147545714Y-135000476D01*
X147593333Y-135190952D01*
X147593333Y-135333809D01*
X147545714Y-135524285D01*
X147498095Y-135619523D01*
X147402857Y-135714761D01*
X147260000Y-135762380D01*
X147021904Y-135762380D01*
X148450476Y-135095714D02*
X148450476Y-135762380D01*
X148212380Y-134714761D02*
X147974285Y-135429047D01*
X148593333Y-135429047D01*
%TO.C,D3*%
X91521904Y-143802380D02*
X91521904Y-142802380D01*
X91760000Y-142802380D01*
X91902857Y-142850000D01*
X91998095Y-142945238D01*
X92045714Y-143040476D01*
X92093333Y-143230952D01*
X92093333Y-143373809D01*
X92045714Y-143564285D01*
X91998095Y-143659523D01*
X91902857Y-143754761D01*
X91760000Y-143802380D01*
X91521904Y-143802380D01*
X92426666Y-142802380D02*
X93045714Y-142802380D01*
X92712380Y-143183333D01*
X92855238Y-143183333D01*
X92950476Y-143230952D01*
X92998095Y-143278571D01*
X93045714Y-143373809D01*
X93045714Y-143611904D01*
X92998095Y-143707142D01*
X92950476Y-143754761D01*
X92855238Y-143802380D01*
X92569523Y-143802380D01*
X92474285Y-143754761D01*
X92426666Y-143707142D01*
X95808095Y-143482380D02*
X95808095Y-142482380D01*
X96379523Y-143482380D02*
X95950952Y-142910952D01*
X96379523Y-142482380D02*
X95808095Y-143053809D01*
%TO.C,D2*%
X98461904Y-118732380D02*
X98461904Y-117732380D01*
X98700000Y-117732380D01*
X98842857Y-117780000D01*
X98938095Y-117875238D01*
X98985714Y-117970476D01*
X99033333Y-118160952D01*
X99033333Y-118303809D01*
X98985714Y-118494285D01*
X98938095Y-118589523D01*
X98842857Y-118684761D01*
X98700000Y-118732380D01*
X98461904Y-118732380D01*
X99414285Y-117827619D02*
X99461904Y-117780000D01*
X99557142Y-117732380D01*
X99795238Y-117732380D01*
X99890476Y-117780000D01*
X99938095Y-117827619D01*
X99985714Y-117922857D01*
X99985714Y-118018095D01*
X99938095Y-118160952D01*
X99366666Y-118732380D01*
X99985714Y-118732380D01*
X93858095Y-119102380D02*
X93858095Y-118102380D01*
X94429523Y-119102380D02*
X94000952Y-118530952D01*
X94429523Y-118102380D02*
X93858095Y-118673809D01*
%TO.C,D1*%
X83581904Y-125442380D02*
X83581904Y-124442380D01*
X83820000Y-124442380D01*
X83962857Y-124490000D01*
X84058095Y-124585238D01*
X84105714Y-124680476D01*
X84153333Y-124870952D01*
X84153333Y-125013809D01*
X84105714Y-125204285D01*
X84058095Y-125299523D01*
X83962857Y-125394761D01*
X83820000Y-125442380D01*
X83581904Y-125442380D01*
X85105714Y-125442380D02*
X84534285Y-125442380D01*
X84820000Y-125442380D02*
X84820000Y-124442380D01*
X84724761Y-124585238D01*
X84629523Y-124680476D01*
X84534285Y-124728095D01*
%TO.C,C1*%
X159113333Y-137022142D02*
X159065714Y-137069761D01*
X158922857Y-137117380D01*
X158827619Y-137117380D01*
X158684761Y-137069761D01*
X158589523Y-136974523D01*
X158541904Y-136879285D01*
X158494285Y-136688809D01*
X158494285Y-136545952D01*
X158541904Y-136355476D01*
X158589523Y-136260238D01*
X158684761Y-136165000D01*
X158827619Y-136117380D01*
X158922857Y-136117380D01*
X159065714Y-136165000D01*
X159113333Y-136212619D01*
X160065714Y-137117380D02*
X159494285Y-137117380D01*
X159780000Y-137117380D02*
X159780000Y-136117380D01*
X159684761Y-136260238D01*
X159589523Y-136355476D01*
X159494285Y-136403095D01*
%TO.C,BT1*%
X85148571Y-112795714D02*
X85196190Y-112652857D01*
X85243809Y-112605238D01*
X85339047Y-112557619D01*
X85481904Y-112557619D01*
X85577142Y-112605238D01*
X85624761Y-112652857D01*
X85672380Y-112748095D01*
X85672380Y-113129047D01*
X84672380Y-113129047D01*
X84672380Y-112795714D01*
X84720000Y-112700476D01*
X84767619Y-112652857D01*
X84862857Y-112605238D01*
X84958095Y-112605238D01*
X85053333Y-112652857D01*
X85100952Y-112700476D01*
X85148571Y-112795714D01*
X85148571Y-113129047D01*
X84672380Y-112271904D02*
X84672380Y-111700476D01*
X85672380Y-111986190D02*
X84672380Y-111986190D01*
X85672380Y-110843333D02*
X85672380Y-111414761D01*
X85672380Y-111129047D02*
X84672380Y-111129047D01*
X84815238Y-111224285D01*
X84910476Y-111319523D01*
X84958095Y-111414761D01*
X75347142Y-115025714D02*
X75394761Y-115073333D01*
X75442380Y-115216190D01*
X75442380Y-115311428D01*
X75394761Y-115454285D01*
X75299523Y-115549523D01*
X75204285Y-115597142D01*
X75013809Y-115644761D01*
X74870952Y-115644761D01*
X74680476Y-115597142D01*
X74585238Y-115549523D01*
X74490000Y-115454285D01*
X74442380Y-115311428D01*
X74442380Y-115216190D01*
X74490000Y-115073333D01*
X74537619Y-115025714D01*
X75442380Y-114597142D02*
X74442380Y-114597142D01*
X75442380Y-114168571D02*
X74918571Y-114168571D01*
X74823333Y-114216190D01*
X74775714Y-114311428D01*
X74775714Y-114454285D01*
X74823333Y-114549523D01*
X74870952Y-114597142D01*
X75442380Y-113263809D02*
X74918571Y-113263809D01*
X74823333Y-113311428D01*
X74775714Y-113406666D01*
X74775714Y-113597142D01*
X74823333Y-113692380D01*
X75394761Y-113263809D02*
X75442380Y-113359047D01*
X75442380Y-113597142D01*
X75394761Y-113692380D01*
X75299523Y-113740000D01*
X75204285Y-113740000D01*
X75109047Y-113692380D01*
X75061428Y-113597142D01*
X75061428Y-113359047D01*
X75013809Y-113263809D01*
X75442380Y-112787619D02*
X74775714Y-112787619D01*
X74966190Y-112787619D02*
X74870952Y-112740000D01*
X74823333Y-112692380D01*
X74775714Y-112597142D01*
X74775714Y-112501904D01*
X74775714Y-111740000D02*
X75585238Y-111740000D01*
X75680476Y-111787619D01*
X75728095Y-111835238D01*
X75775714Y-111930476D01*
X75775714Y-112073333D01*
X75728095Y-112168571D01*
X75394761Y-111740000D02*
X75442380Y-111835238D01*
X75442380Y-112025714D01*
X75394761Y-112120952D01*
X75347142Y-112168571D01*
X75251904Y-112216190D01*
X74966190Y-112216190D01*
X74870952Y-112168571D01*
X74823333Y-112120952D01*
X74775714Y-112025714D01*
X74775714Y-111835238D01*
X74823333Y-111740000D01*
X75394761Y-110882857D02*
X75442380Y-110978095D01*
X75442380Y-111168571D01*
X75394761Y-111263809D01*
X75299523Y-111311428D01*
X74918571Y-111311428D01*
X74823333Y-111263809D01*
X74775714Y-111168571D01*
X74775714Y-110978095D01*
X74823333Y-110882857D01*
X74918571Y-110835238D01*
X75013809Y-110835238D01*
X75109047Y-111311428D01*
%TD*%
M02*
