%TF.GenerationSoftware,KiCad,Pcbnew,(5.1.9)-1*%
%TF.CreationDate,2021-04-11T16:44:48+02:00*%
%TF.ProjectId,charge_pcb,63686172-6765-45f7-9063-622e6b696361,rev?*%
%TF.SameCoordinates,Original*%
%TF.FileFunction,Copper,L2,Bot*%
%TF.FilePolarity,Positive*%
%FSLAX46Y46*%
G04 Gerber Fmt 4.6, Leading zero omitted, Abs format (unit mm)*
G04 Created by KiCad (PCBNEW (5.1.9)-1) date 2021-04-11 16:44:48*
%MOMM*%
%LPD*%
G01*
G04 APERTURE LIST*
%TA.AperFunction,ConnectorPad*%
%ADD10C,5.600000*%
%TD*%
%TA.AperFunction,ComponentPad*%
%ADD11C,3.600000*%
%TD*%
%TA.AperFunction,ComponentPad*%
%ADD12C,1.800000*%
%TD*%
%TA.AperFunction,ComponentPad*%
%ADD13R,1.800000X1.800000*%
%TD*%
%TA.AperFunction,ComponentPad*%
%ADD14O,1.600000X1.600000*%
%TD*%
%TA.AperFunction,ComponentPad*%
%ADD15C,1.600000*%
%TD*%
%TA.AperFunction,ComponentPad*%
%ADD16C,1.524000*%
%TD*%
%TA.AperFunction,ComponentPad*%
%ADD17C,2.000000*%
%TD*%
%TA.AperFunction,ComponentPad*%
%ADD18O,1.800000X1.714500*%
%TD*%
%TA.AperFunction,ComponentPad*%
%ADD19R,1.800000X1.714500*%
%TD*%
%TA.AperFunction,ComponentPad*%
%ADD20R,1.500000X1.500000*%
%TD*%
%TA.AperFunction,ComponentPad*%
%ADD21C,1.500000*%
%TD*%
%TA.AperFunction,ComponentPad*%
%ADD22O,1.714500X1.800000*%
%TD*%
%TA.AperFunction,ComponentPad*%
%ADD23R,1.714500X1.800000*%
%TD*%
%TA.AperFunction,ComponentPad*%
%ADD24C,3.000000*%
%TD*%
%TA.AperFunction,ComponentPad*%
%ADD25R,3.000000X3.000000*%
%TD*%
%TA.AperFunction,ComponentPad*%
%ADD26O,1.700000X1.700000*%
%TD*%
%TA.AperFunction,ComponentPad*%
%ADD27R,1.700000X1.700000*%
%TD*%
%TA.AperFunction,ComponentPad*%
%ADD28C,3.200000*%
%TD*%
%TA.AperFunction,ComponentPad*%
%ADD29O,4.000500X2.499360*%
%TD*%
%TA.AperFunction,ComponentPad*%
%ADD30O,2.200000X2.200000*%
%TD*%
%TA.AperFunction,ComponentPad*%
%ADD31R,2.200000X2.200000*%
%TD*%
%TA.AperFunction,ComponentPad*%
%ADD32O,2.000000X2.000000*%
%TD*%
%TA.AperFunction,ComponentPad*%
%ADD33R,2.000000X2.000000*%
%TD*%
%TA.AperFunction,ComponentPad*%
%ADD34R,1.600000X1.600000*%
%TD*%
%TA.AperFunction,ComponentPad*%
%ADD35C,1.501140*%
%TD*%
%TA.AperFunction,ComponentPad*%
%ADD36C,2.540000*%
%TD*%
%TA.AperFunction,ComponentPad*%
%ADD37R,2.540000X2.540000*%
%TD*%
%TA.AperFunction,Conductor*%
%ADD38C,0.254000*%
%TD*%
%TA.AperFunction,Conductor*%
%ADD39C,2.250000*%
%TD*%
%TA.AperFunction,Conductor*%
%ADD40C,1.550000*%
%TD*%
%TA.AperFunction,Conductor*%
%ADD41C,1.250000*%
%TD*%
%TA.AperFunction,Conductor*%
%ADD42C,2.000000*%
%TD*%
G04 APERTURE END LIST*
D10*
%TO.P,H2,1*%
%TO.N,GND*%
X179610000Y-107830000D03*
D11*
X179610000Y-107830000D03*
%TD*%
D10*
%TO.P,H4,1*%
%TO.N,GND*%
X73250000Y-151030000D03*
D11*
X73250000Y-151030000D03*
%TD*%
D10*
%TO.P,H3,1*%
%TO.N,GND*%
X179680000Y-151210000D03*
D11*
X179680000Y-151210000D03*
%TD*%
D10*
%TO.P,H1,1*%
%TO.N,GND*%
X73080000Y-107940000D03*
D11*
X73080000Y-107940000D03*
%TD*%
D12*
%TO.P,D6,2*%
%TO.N,Net-(D6-Pad2)*%
X91170000Y-129870000D03*
D13*
%TO.P,D6,1*%
%TO.N,GND*%
X88630000Y-129870000D03*
%TD*%
D14*
%TO.P,R9,2*%
%TO.N,Net-(D6-Pad2)*%
X115680000Y-120770000D03*
D15*
%TO.P,R9,1*%
%TO.N,Net-(D2-Pad2)*%
X108060000Y-120770000D03*
%TD*%
D16*
%TO.P,U1,4*%
%TO.N,Net-(J2-Pad1)*%
X126980000Y-122340000D03*
%TO.P,U1,5*%
%TO.N,Net-(D3-Pad1)*%
X124440000Y-122340000D03*
X124440000Y-124880000D03*
%TO.P,U1,4*%
%TO.N,Net-(J2-Pad1)*%
X126980000Y-124880000D03*
D17*
%TO.P,U1,*%
%TO.N,*%
X133330000Y-109132000D03*
X115550000Y-109132000D03*
X133330000Y-124880000D03*
X115550000Y-124880000D03*
D16*
%TO.P,U1,4*%
%TO.N,Net-(J2-Pad1)*%
X125964000Y-110656000D03*
%TO.P,U1,5*%
%TO.N,Net-(D3-Pad1)*%
X122662000Y-110656000D03*
%TO.P,U1,3*%
%TO.N,pinChargeCurrent*%
X129520000Y-124880000D03*
%TO.P,U1,1*%
%TO.N,+3V3*%
X119360000Y-124880000D03*
%TO.P,U1,2*%
%TO.N,GND*%
X121900000Y-124880000D03*
%TD*%
D14*
%TO.P,R8,2*%
%TO.N,GND*%
X120380000Y-152580000D03*
D15*
%TO.P,R8,1*%
%TO.N,pinBatteryVoltage*%
X112760000Y-152580000D03*
%TD*%
D14*
%TO.P,R7,2*%
%TO.N,pinBatteryVoltage*%
X124830000Y-149150000D03*
D15*
%TO.P,R7,1*%
%TO.N,Net-(C1-Pad1)*%
X124830000Y-141530000D03*
%TD*%
D14*
%TO.P,R6,2*%
%TO.N,Net-(Q3-Pad1)*%
X119590000Y-137990000D03*
D15*
%TO.P,R6,1*%
%TO.N,Net-(D5-Pad2)*%
X119590000Y-130370000D03*
%TD*%
D14*
%TO.P,R5,2*%
%TO.N,Net-(Q3-Pad2)*%
X131200000Y-141560000D03*
D15*
%TO.P,R5,1*%
%TO.N,pinBatterySwitch*%
X131200000Y-149180000D03*
%TD*%
D14*
%TO.P,R4,2*%
%TO.N,Net-(Q1-Pad1)*%
X106400000Y-140650000D03*
D15*
%TO.P,R4,1*%
%TO.N,Net-(D2-Pad2)*%
X98780000Y-140650000D03*
%TD*%
D14*
%TO.P,R3,2*%
%TO.N,pinChargeEnable*%
X120360000Y-146290000D03*
D15*
%TO.P,R3,1*%
%TO.N,Net-(Q1-Pad2)*%
X112740000Y-146290000D03*
%TD*%
D14*
%TO.P,R2,2*%
%TO.N,GND*%
X109980000Y-127680000D03*
D15*
%TO.P,R2,1*%
%TO.N,pinChargeVoltage*%
X109980000Y-135300000D03*
%TD*%
D14*
%TO.P,R1,2*%
%TO.N,pinChargeVoltage*%
X103760000Y-127510000D03*
D15*
%TO.P,R1,1*%
%TO.N,Net-(D2-Pad2)*%
X103760000Y-135130000D03*
%TD*%
D18*
%TO.P,Q4,3*%
%TO.N,Net-(D5-Pad2)*%
X151830000Y-137988000D03*
%TO.P,Q4,2*%
%TO.N,Net-(C1-Pad1)*%
X151830000Y-140274000D03*
D19*
%TO.P,Q4,1*%
%TO.N,Net-(Q3-Pad1)*%
X151830000Y-142560000D03*
%TD*%
D20*
%TO.P,Q3,1*%
%TO.N,Net-(Q3-Pad1)*%
X124580000Y-136030000D03*
D21*
%TO.P,Q3,3*%
%TO.N,GND*%
X129780000Y-136030000D03*
%TO.P,Q3,2*%
%TO.N,Net-(Q3-Pad2)*%
X127180000Y-136030000D03*
%TD*%
D22*
%TO.P,Q2,3*%
%TO.N,Net-(D2-Pad2)*%
X98612000Y-135050000D03*
%TO.P,Q2,2*%
%TO.N,Net-(D3-Pad1)*%
X96326000Y-135050000D03*
D23*
%TO.P,Q2,1*%
%TO.N,Net-(Q1-Pad1)*%
X94040000Y-135050000D03*
%TD*%
D20*
%TO.P,Q1,1*%
%TO.N,Net-(Q1-Pad1)*%
X110060000Y-140730000D03*
D21*
%TO.P,Q1,3*%
%TO.N,GND*%
X115260000Y-140730000D03*
%TO.P,Q1,2*%
%TO.N,Net-(Q1-Pad2)*%
X112660000Y-140730000D03*
%TD*%
D24*
%TO.P,J7,2*%
%TO.N,GND*%
X171010000Y-124920000D03*
D25*
%TO.P,J7,1*%
%TO.N,Net-(C1-Pad1)*%
X171010000Y-119840000D03*
%TD*%
D24*
%TO.P,J6,2*%
%TO.N,GND*%
X171010000Y-151010000D03*
D25*
%TO.P,J6,1*%
%TO.N,Net-(C1-Pad1)*%
X171010000Y-145930000D03*
%TD*%
D24*
%TO.P,J5,2*%
%TO.N,GND*%
X171010000Y-138070000D03*
D25*
%TO.P,J5,1*%
%TO.N,Net-(C1-Pad1)*%
X171010000Y-132990000D03*
%TD*%
D24*
%TO.P,J4,2*%
%TO.N,GND*%
X172380000Y-111170000D03*
D25*
%TO.P,J4,1*%
%TO.N,Net-(C1-Pad1)*%
X167300000Y-111170000D03*
%TD*%
D24*
%TO.P,J3,2*%
%TO.N,Net-(F2-Pad1)*%
X145310000Y-111070000D03*
D25*
%TO.P,J3,1*%
%TO.N,Net-(J2-Pad1)*%
X140230000Y-111070000D03*
%TD*%
D24*
%TO.P,J2,2*%
%TO.N,GND*%
X158750000Y-111070000D03*
D25*
%TO.P,J2,1*%
%TO.N,Net-(J2-Pad1)*%
X153670000Y-111070000D03*
%TD*%
D26*
%TO.P,J1,6*%
%TO.N,pinVoltageMeasurement*%
X73400000Y-126620000D03*
%TO.P,J1,5*%
%TO.N,pinChargeEnable*%
X73400000Y-129160000D03*
%TO.P,J1,4*%
%TO.N,pinChargeCurrent*%
X73400000Y-131700000D03*
%TO.P,J1,3*%
%TO.N,pinChargeVoltage*%
X73400000Y-134240000D03*
%TO.P,J1,2*%
%TO.N,pinBatterySwitch*%
X73400000Y-136780000D03*
D27*
%TO.P,J1,1*%
%TO.N,pinBatteryVoltage*%
X73400000Y-139320000D03*
%TD*%
D28*
%TO.P,F2,~*%
%TO.N,N/C*%
X149620000Y-122630000D03*
D29*
%TO.P,F2,1*%
%TO.N,Net-(F2-Pad1)*%
X138619260Y-122630000D03*
%TO.P,F2,2*%
%TO.N,Net-(D4-Pad1)*%
X160620740Y-122630000D03*
%TD*%
D28*
%TO.P,F1,~*%
%TO.N,N/C*%
X99226000Y-112321000D03*
D29*
%TO.P,F1,1*%
%TO.N,Net-(BT1-Pad1)*%
X88225260Y-112321000D03*
%TO.P,F1,2*%
%TO.N,Net-(D1-Pad1)*%
X110226740Y-112321000D03*
%TD*%
D30*
%TO.P,D5,2*%
%TO.N,Net-(D5-Pad2)*%
X155090000Y-131590000D03*
D31*
%TO.P,D5,1*%
%TO.N,Net-(D4-Pad1)*%
X165250000Y-131590000D03*
%TD*%
D32*
%TO.P,D4,2*%
%TO.N,GND*%
X145220000Y-131040000D03*
D33*
%TO.P,D4,1*%
%TO.N,Net-(D4-Pad1)*%
X150300000Y-131040000D03*
%TD*%
D14*
%TO.P,D3,2*%
%TO.N,GND*%
X88450000Y-141230000D03*
D34*
%TO.P,D3,1*%
%TO.N,Net-(D3-Pad1)*%
X96070000Y-141230000D03*
%TD*%
D30*
%TO.P,D2,2*%
%TO.N,Net-(D2-Pad2)*%
X104280000Y-120750000D03*
D31*
%TO.P,D2,1*%
%TO.N,Net-(D1-Pad1)*%
X94120000Y-120750000D03*
%TD*%
D32*
%TO.P,D1,2*%
%TO.N,GND*%
X81780000Y-120720000D03*
D33*
%TO.P,D1,1*%
%TO.N,Net-(D1-Pad1)*%
X86860000Y-120720000D03*
%TD*%
D35*
%TO.P,C1,2*%
%TO.N,GND*%
X159280000Y-139840000D03*
%TO.P,C1,1*%
%TO.N,Net-(C1-Pad1)*%
X159280000Y-142380000D03*
%TD*%
D36*
%TO.P,BT1,2*%
%TO.N,GND*%
X80140000Y-114550000D03*
D37*
%TO.P,BT1,1*%
%TO.N,Net-(BT1-Pad1)*%
X80140000Y-109470000D03*
%TD*%
D38*
%TO.N,GND*%
X88630000Y-129870000D02*
X88630000Y-129540000D01*
D39*
X73530000Y-107940000D02*
X80140000Y-114550000D01*
X73080000Y-107940000D02*
X73530000Y-107940000D01*
X71170999Y-148950999D02*
X73250000Y-151030000D01*
X71170999Y-109849001D02*
X71170999Y-148950999D01*
X73080000Y-107940000D02*
X71170999Y-109849001D01*
X179610000Y-151140000D02*
X179680000Y-151210000D01*
X179610000Y-107830000D02*
X179610000Y-151140000D01*
D38*
%TO.N,Net-(BT1-Pad1)*%
X86799600Y-110895500D02*
X86799800Y-110895500D01*
X86799800Y-110895500D02*
X88225300Y-112321000D01*
D39*
X86799600Y-110895500D02*
X88225200Y-112321000D01*
X80140000Y-109470000D02*
X85374000Y-109470000D01*
X85374000Y-109470000D02*
X86799600Y-110895500D01*
D38*
%TO.N,Net-(C1-Pad1)*%
X154776000Y-140274000D02*
X154776000Y-141926200D01*
X154776000Y-141926200D02*
X152892700Y-143809500D01*
X152892700Y-143809500D02*
X127109500Y-143809500D01*
X127109500Y-143809500D02*
X124830000Y-141530000D01*
D40*
X154776000Y-140274000D02*
X157174000Y-140274000D01*
X152378000Y-140274000D02*
X154776000Y-140274000D01*
X151830000Y-140274000D02*
X152378000Y-140274000D01*
D41*
X157174000Y-140274000D02*
X159280000Y-142380000D01*
D39*
X167764000Y-132324000D02*
X167764000Y-145274000D01*
D41*
X152378000Y-140274000D02*
X151830000Y-140274000D01*
D39*
X159280000Y-142380000D02*
X162788000Y-142380000D01*
X162788000Y-142380000D02*
X167764000Y-147356000D01*
X167764000Y-147356000D02*
X167764000Y-145274000D01*
X167300000Y-111170000D02*
X167764000Y-111634000D01*
X167764000Y-111634000D02*
X167764000Y-120486000D01*
X167764000Y-120486000D02*
X167764000Y-132324000D01*
X171010000Y-119840000D02*
X168410000Y-119840000D01*
X168410000Y-119840000D02*
X167764000Y-120486000D01*
X171010000Y-132990000D02*
X168430000Y-132990000D01*
X168430000Y-132990000D02*
X167764000Y-132324000D01*
X171010000Y-145930000D02*
X168420000Y-145930000D01*
X168420000Y-145930000D02*
X167764000Y-145274000D01*
D38*
%TO.N,Net-(D1-Pad1)*%
X94090000Y-120720000D02*
X94120000Y-120750000D01*
D39*
X94090000Y-120720000D02*
X86860000Y-120720000D01*
X110226700Y-112321000D02*
X105976000Y-112321000D01*
X105976000Y-112321000D02*
X97577700Y-120720000D01*
X97577700Y-120720000D02*
X94090000Y-120720000D01*
X110227000Y-112321000D02*
X110226700Y-112321000D01*
D41*
%TO.N,Net-(D2-Pad2)*%
X98612000Y-135050000D02*
X98612000Y-140482000D01*
X98612000Y-140482000D02*
X98780000Y-140650000D01*
D39*
X103760000Y-135130000D02*
X98692000Y-135130000D01*
X98692000Y-135130000D02*
X98612000Y-135050000D01*
X104280000Y-120750000D02*
X105939000Y-122409000D01*
X105939000Y-122409000D02*
X105939000Y-132951000D01*
X105939000Y-132951000D02*
X103760000Y-135130000D01*
D38*
X106421000Y-122409000D02*
X108060000Y-120770000D01*
X105939000Y-122409000D02*
X106421000Y-122409000D01*
D41*
%TO.N,Net-(D3-Pad1)*%
X96290000Y-135045000D02*
X96290000Y-141220000D01*
X96326000Y-141225000D02*
X96070000Y-141481000D01*
D39*
X124440000Y-124880000D02*
X124440000Y-125958000D01*
X124440000Y-125958000D02*
X122207000Y-128191000D01*
X122207000Y-128191000D02*
X113659000Y-128191000D01*
X113659000Y-128191000D02*
X113659000Y-134846000D01*
X113659000Y-134846000D02*
X110359000Y-138146000D01*
X110359000Y-138146000D02*
X104825000Y-138146000D01*
X104825000Y-138146000D02*
X99817200Y-143154000D01*
D42*
X100110000Y-143150000D02*
X98035600Y-143150000D01*
X97970000Y-143140000D02*
X96297200Y-141467000D01*
D39*
X124440000Y-122340000D02*
X124440000Y-124880000D01*
X122662000Y-110656000D02*
X122662000Y-120562000D01*
X122662000Y-120562000D02*
X124440000Y-122340000D01*
%TO.N,Net-(D4-Pad1)*%
X165185000Y-131655000D02*
X165260000Y-131730000D01*
X160621000Y-127091000D02*
X165185000Y-131655000D01*
D38*
X165250000Y-131590000D02*
X165185000Y-131655000D01*
X160621000Y-124860500D02*
X160620700Y-124860200D01*
X160620700Y-124860200D02*
X160620700Y-122630000D01*
D39*
X160621000Y-124860500D02*
X160621000Y-127091000D01*
X160621000Y-122630000D02*
X160621000Y-124860500D01*
X160621000Y-127091000D02*
X154249000Y-127091000D01*
X154249000Y-127091000D02*
X150300000Y-131040000D01*
D38*
%TO.N,Net-(D5-Pad2)*%
X151830000Y-137988000D02*
X151830000Y-136749400D01*
X151830000Y-136749400D02*
X149979200Y-134898600D01*
X149979200Y-134898600D02*
X124118600Y-134898600D01*
X124118600Y-134898600D02*
X119590000Y-130370000D01*
D39*
X155100000Y-133224000D02*
X155100000Y-134718000D01*
X155100000Y-134718000D02*
X151830000Y-137988000D01*
D38*
X155100000Y-133224000D02*
X155090000Y-133214000D01*
X155090000Y-133214000D02*
X155090000Y-131590000D01*
D39*
X155100000Y-131730000D02*
X155100000Y-133224000D01*
D38*
%TO.N,Net-(F2-Pad1)*%
X138619300Y-122629700D02*
X138619300Y-122630000D01*
D39*
X145310000Y-111070000D02*
X145310000Y-115939000D01*
X145310000Y-115939000D02*
X138619300Y-122629700D01*
X138619300Y-122629700D02*
X138619000Y-122630000D01*
D38*
%TO.N,pinChargeEnable*%
X120360000Y-146290000D02*
X119178700Y-146290000D01*
X73400000Y-129160000D02*
X74631300Y-129160000D01*
X74631300Y-129160000D02*
X92966600Y-147495300D01*
X92966600Y-147495300D02*
X117973400Y-147495300D01*
X117973400Y-147495300D02*
X119178700Y-146290000D01*
%TO.N,pinBatterySwitch*%
X73400000Y-136780000D02*
X74631300Y-136780000D01*
X74631300Y-136780000D02*
X85859300Y-148008000D01*
X85859300Y-148008000D02*
X124216900Y-148008000D01*
X124216900Y-148008000D02*
X124273000Y-147951900D01*
X124273000Y-147951900D02*
X129971900Y-147951900D01*
X129971900Y-147951900D02*
X131200000Y-149180000D01*
%TO.N,pinBatteryVoltage*%
X73400000Y-139320000D02*
X74631300Y-139320000D01*
X74631300Y-139320000D02*
X87891300Y-152580000D01*
X87891300Y-152580000D02*
X112760000Y-152580000D01*
X112760000Y-152580000D02*
X116190000Y-149150000D01*
X116190000Y-149150000D02*
X124830000Y-149150000D01*
D39*
%TO.N,Net-(J2-Pad1)*%
X126980000Y-122340000D02*
X126980000Y-124880000D01*
X126819000Y-111511000D02*
X126980000Y-111672000D01*
X126980000Y-111672000D02*
X126980000Y-122340000D01*
X125964000Y-110656000D02*
X126819000Y-111511000D01*
X125964000Y-110656000D02*
X126819000Y-111511000D01*
X126819000Y-111511000D02*
X139789000Y-111511000D01*
X139789000Y-111511000D02*
X140230000Y-111070000D01*
X153670000Y-111070000D02*
X150791000Y-108191000D01*
X150791000Y-108191000D02*
X143109000Y-108191000D01*
X143109000Y-108191000D02*
X140230000Y-111070000D01*
D41*
%TO.N,Net-(Q1-Pad1)*%
X94040000Y-135050000D02*
X94040000Y-142285000D01*
X94040000Y-142285000D02*
X96912700Y-145158000D01*
X96912700Y-145158000D02*
X101892000Y-145158000D01*
X101892000Y-145158000D02*
X106400000Y-140650000D01*
D39*
X110060000Y-140730000D02*
X106480000Y-140730000D01*
X106480000Y-140730000D02*
X106400000Y-140650000D01*
D38*
%TO.N,Net-(Q1-Pad2)*%
X112660000Y-140730000D02*
X112660000Y-146210000D01*
X112660000Y-146210000D02*
X112740000Y-146290000D01*
D41*
%TO.N,Net-(Q3-Pad1)*%
X124380000Y-137990000D02*
X119590000Y-137990000D01*
X124580000Y-136030000D02*
X124580000Y-137790000D01*
X124580000Y-137790000D02*
X124380000Y-137990000D01*
X151830000Y-142560000D02*
X134685000Y-142560000D01*
X134685000Y-142560000D02*
X130115000Y-137990000D01*
X130115000Y-137990000D02*
X124380000Y-137990000D01*
D38*
%TO.N,Net-(D6-Pad2)*%
X101796008Y-119243992D02*
X91170000Y-129870000D01*
X114153992Y-119243992D02*
X101796008Y-119243992D01*
X115680000Y-120770000D02*
X114153992Y-119243992D01*
%TD*%
M02*
