G04 #@! TF.GenerationSoftware,KiCad,Pcbnew,(5.99.0-10988-gd8b1e827c7)*
G04 #@! TF.CreationDate,2021-06-25T10:47:14+02:00*
G04 #@! TF.ProjectId,charge_pcb,63686172-6765-45f7-9063-622e6b696361,rev?*
G04 #@! TF.SameCoordinates,Original*
G04 #@! TF.FileFunction,Soldermask,Bot*
G04 #@! TF.FilePolarity,Negative*
%FSLAX46Y46*%
G04 Gerber Fmt 4.6, Leading zero omitted, Abs format (unit mm)*
G04 Created by KiCad (PCBNEW (5.99.0-10988-gd8b1e827c7)) date 2021-06-25 10:47:14*
%MOMM*%
%LPD*%
G01*
G04 APERTURE LIST*
G04 Aperture macros list*
%AMRoundRect*
0 Rectangle with rounded corners*
0 $1 Rounding radius*
0 $2 $3 $4 $5 $6 $7 $8 $9 X,Y pos of 4 corners*
0 Add a 4 corners polygon primitive as box body*
4,1,4,$2,$3,$4,$5,$6,$7,$8,$9,$2,$3,0*
0 Add four circle primitives for the rounded corners*
1,1,$1+$1,$2,$3*
1,1,$1+$1,$4,$5*
1,1,$1+$1,$6,$7*
1,1,$1+$1,$8,$9*
0 Add four rect primitives between the rounded corners*
20,1,$1+$1,$2,$3,$4,$5,0*
20,1,$1+$1,$4,$5,$6,$7,0*
20,1,$1+$1,$6,$7,$8,$9,0*
20,1,$1+$1,$8,$9,$2,$3,0*%
G04 Aperture macros list end*
%ADD10C,5.600000*%
%ADD11C,3.600000*%
%ADD12O,1.600000X1.600000*%
%ADD13C,1.600000*%
%ADD14C,3.000000*%
%ADD15R,3.000000X3.000000*%
%ADD16O,2.000000X1.905000*%
%ADD17R,2.000000X1.905000*%
%ADD18O,1.905000X2.000000*%
%ADD19R,1.905000X2.000000*%
%ADD20O,2.200000X2.200000*%
%ADD21R,2.200000X2.200000*%
%ADD22O,1.700000X2.000000*%
%ADD23RoundRect,0.250000X-0.600000X-0.750000X0.600000X-0.750000X0.600000X0.750000X-0.600000X0.750000X0*%
%ADD24O,1.950000X1.700000*%
%ADD25RoundRect,0.250000X0.725000X-0.600000X0.725000X0.600000X-0.725000X0.600000X-0.725000X-0.600000X0*%
%ADD26C,1.800000*%
%ADD27R,1.800000X1.800000*%
%ADD28C,1.524000*%
%ADD29C,2.000000*%
%ADD30R,1.500000X1.500000*%
%ADD31C,1.500000*%
%ADD32C,3.200000*%
%ADD33O,4.000500X2.499360*%
%ADD34O,2.000000X2.000000*%
%ADD35R,2.000000X2.000000*%
%ADD36R,1.600000X1.600000*%
%ADD37C,1.501140*%
%ADD38C,2.540000*%
%ADD39R,2.540000X2.540000*%
G04 APERTURE END LIST*
D10*
X160830000Y-107840000D03*
D11*
X160830000Y-107840000D03*
D10*
X73250000Y-150970000D03*
D11*
X73250000Y-150970000D03*
D10*
X160750000Y-150820000D03*
D11*
X160750000Y-150820000D03*
D10*
X73160000Y-107940000D03*
D11*
X73160000Y-107940000D03*
D12*
X91440000Y-135890000D03*
D13*
X91440000Y-128270000D03*
D14*
X146050000Y-109220000D03*
D15*
X151130000Y-109220000D03*
D14*
X134620000Y-109220000D03*
D15*
X139700000Y-109220000D03*
D14*
X160020000Y-123190000D03*
D15*
X160020000Y-118110000D03*
D14*
X160020000Y-135890000D03*
D15*
X160020000Y-130810000D03*
D14*
X130810000Y-149860000D03*
D15*
X125730000Y-149860000D03*
D14*
X142240000Y-149860000D03*
D15*
X137160000Y-149860000D03*
D14*
X153670000Y-149860000D03*
D15*
X148590000Y-149860000D03*
D16*
X97790000Y-129540000D03*
X97790000Y-132080000D03*
D17*
X97790000Y-134620000D03*
D18*
X139700000Y-121920000D03*
X137160000Y-121920000D03*
D19*
X134620000Y-121920000D03*
D20*
X140970000Y-129540000D03*
D21*
X130810000Y-129540000D03*
D12*
X96520000Y-152400000D03*
D13*
X96520000Y-144780000D03*
D22*
X116800000Y-149860000D03*
D23*
X114300000Y-149860000D03*
D24*
X72390000Y-128470000D03*
X72390000Y-130970000D03*
X72390000Y-133470000D03*
X72390000Y-135970000D03*
X72390000Y-138470000D03*
D25*
X72390000Y-140970000D03*
D26*
X105370000Y-124050000D03*
D27*
X102830000Y-124050000D03*
D12*
X105220000Y-119010000D03*
D13*
X97600000Y-119010000D03*
D28*
X122010000Y-121790000D03*
X119470000Y-121790000D03*
X119470000Y-124330000D03*
X122010000Y-124330000D03*
D29*
X128360000Y-108582000D03*
X110580000Y-108582000D03*
X128360000Y-124330000D03*
X110580000Y-124330000D03*
D28*
X120994000Y-110106000D03*
X117692000Y-110106000D03*
X124550000Y-124330000D03*
X114390000Y-124330000D03*
X116930000Y-124330000D03*
D12*
X100330000Y-140970000D03*
D13*
X92710000Y-140970000D03*
D12*
X100330000Y-151100000D03*
D13*
X107950000Y-151100000D03*
D12*
X123190000Y-142240000D03*
D13*
X115570000Y-142240000D03*
D12*
X107950000Y-145790000D03*
D13*
X100330000Y-145790000D03*
D12*
X80010000Y-140970000D03*
D13*
X87630000Y-140970000D03*
D12*
X80010000Y-136000000D03*
D13*
X87630000Y-136000000D03*
D12*
X123190000Y-129540000D03*
D13*
X115570000Y-129540000D03*
D12*
X104140000Y-137160000D03*
D13*
X104140000Y-129540000D03*
D30*
X146050000Y-120650000D03*
D31*
X151250000Y-120650000D03*
X148650000Y-120650000D03*
D30*
X80010000Y-130810000D03*
D31*
X85210000Y-130810000D03*
X82610000Y-130810000D03*
D32*
X139700000Y-138430000D03*
D33*
X150700740Y-138430000D03*
X128699260Y-138430000D03*
D32*
X93620000Y-110950000D03*
D33*
X82619260Y-110950000D03*
X104620740Y-110950000D03*
D20*
X114300000Y-134620000D03*
D21*
X124460000Y-134620000D03*
D34*
X151130000Y-129540000D03*
D35*
X146050000Y-129540000D03*
D12*
X90570000Y-124090000D03*
D36*
X98190000Y-124090000D03*
D20*
X94040000Y-119010000D03*
D21*
X83880000Y-119010000D03*
D34*
X79330000Y-123970000D03*
D35*
X84410000Y-123970000D03*
D37*
X111760000Y-139700000D03*
X109220000Y-139700000D03*
D38*
X75640000Y-119430000D03*
D39*
X75640000Y-114350000D03*
M02*
