G04 #@! TF.GenerationSoftware,KiCad,Pcbnew,(5.99.0-10988-gd8b1e827c7)*
G04 #@! TF.CreationDate,2021-06-25T10:47:14+02:00*
G04 #@! TF.ProjectId,charge_pcb,63686172-6765-45f7-9063-622e6b696361,rev?*
G04 #@! TF.SameCoordinates,Original*
G04 #@! TF.FileFunction,Copper,L1,Top*
G04 #@! TF.FilePolarity,Positive*
%FSLAX46Y46*%
G04 Gerber Fmt 4.6, Leading zero omitted, Abs format (unit mm)*
G04 Created by KiCad (PCBNEW (5.99.0-10988-gd8b1e827c7)) date 2021-06-25 10:47:14*
%MOMM*%
%LPD*%
G01*
G04 APERTURE LIST*
G04 Aperture macros list*
%AMRoundRect*
0 Rectangle with rounded corners*
0 $1 Rounding radius*
0 $2 $3 $4 $5 $6 $7 $8 $9 X,Y pos of 4 corners*
0 Add a 4 corners polygon primitive as box body*
4,1,4,$2,$3,$4,$5,$6,$7,$8,$9,$2,$3,0*
0 Add four circle primitives for the rounded corners*
1,1,$1+$1,$2,$3*
1,1,$1+$1,$4,$5*
1,1,$1+$1,$6,$7*
1,1,$1+$1,$8,$9*
0 Add four rect primitives between the rounded corners*
20,1,$1+$1,$2,$3,$4,$5,0*
20,1,$1+$1,$4,$5,$6,$7,0*
20,1,$1+$1,$6,$7,$8,$9,0*
20,1,$1+$1,$8,$9,$2,$3,0*%
G04 Aperture macros list end*
G04 #@! TA.AperFunction,EtchedComponent*
%ADD10C,0.150000*%
G04 #@! TD*
G04 #@! TA.AperFunction,ConnectorPad*
%ADD11C,5.600000*%
G04 #@! TD*
G04 #@! TA.AperFunction,ComponentPad*
%ADD12C,3.600000*%
G04 #@! TD*
G04 #@! TA.AperFunction,ComponentPad*
%ADD13O,1.600000X1.600000*%
G04 #@! TD*
G04 #@! TA.AperFunction,ComponentPad*
%ADD14C,1.600000*%
G04 #@! TD*
G04 #@! TA.AperFunction,ComponentPad*
%ADD15C,3.000000*%
G04 #@! TD*
G04 #@! TA.AperFunction,ComponentPad*
%ADD16R,3.000000X3.000000*%
G04 #@! TD*
G04 #@! TA.AperFunction,ComponentPad*
%ADD17O,2.000000X1.905000*%
G04 #@! TD*
G04 #@! TA.AperFunction,ComponentPad*
%ADD18R,2.000000X1.905000*%
G04 #@! TD*
G04 #@! TA.AperFunction,ComponentPad*
%ADD19O,1.905000X2.000000*%
G04 #@! TD*
G04 #@! TA.AperFunction,ComponentPad*
%ADD20R,1.905000X2.000000*%
G04 #@! TD*
G04 #@! TA.AperFunction,ComponentPad*
%ADD21O,2.200000X2.200000*%
G04 #@! TD*
G04 #@! TA.AperFunction,ComponentPad*
%ADD22R,2.200000X2.200000*%
G04 #@! TD*
G04 #@! TA.AperFunction,ComponentPad*
%ADD23O,1.700000X2.000000*%
G04 #@! TD*
G04 #@! TA.AperFunction,ComponentPad*
%ADD24RoundRect,0.250000X-0.600000X-0.750000X0.600000X-0.750000X0.600000X0.750000X-0.600000X0.750000X0*%
G04 #@! TD*
G04 #@! TA.AperFunction,ComponentPad*
%ADD25O,1.950000X1.700000*%
G04 #@! TD*
G04 #@! TA.AperFunction,ComponentPad*
%ADD26RoundRect,0.250000X0.725000X-0.600000X0.725000X0.600000X-0.725000X0.600000X-0.725000X-0.600000X0*%
G04 #@! TD*
G04 #@! TA.AperFunction,ComponentPad*
%ADD27C,1.800000*%
G04 #@! TD*
G04 #@! TA.AperFunction,ComponentPad*
%ADD28R,1.800000X1.800000*%
G04 #@! TD*
G04 #@! TA.AperFunction,ComponentPad*
%ADD29C,1.524000*%
G04 #@! TD*
G04 #@! TA.AperFunction,ComponentPad*
%ADD30C,2.000000*%
G04 #@! TD*
G04 #@! TA.AperFunction,ComponentPad*
%ADD31R,1.500000X1.500000*%
G04 #@! TD*
G04 #@! TA.AperFunction,ComponentPad*
%ADD32C,1.500000*%
G04 #@! TD*
G04 #@! TA.AperFunction,ComponentPad*
%ADD33C,3.200000*%
G04 #@! TD*
G04 #@! TA.AperFunction,ComponentPad*
%ADD34O,4.000500X2.499360*%
G04 #@! TD*
G04 #@! TA.AperFunction,ComponentPad*
%ADD35O,2.000000X2.000000*%
G04 #@! TD*
G04 #@! TA.AperFunction,ComponentPad*
%ADD36R,2.000000X2.000000*%
G04 #@! TD*
G04 #@! TA.AperFunction,ComponentPad*
%ADD37R,1.600000X1.600000*%
G04 #@! TD*
G04 #@! TA.AperFunction,ComponentPad*
%ADD38C,1.501140*%
G04 #@! TD*
G04 #@! TA.AperFunction,ComponentPad*
%ADD39C,2.540000*%
G04 #@! TD*
G04 #@! TA.AperFunction,ComponentPad*
%ADD40R,2.540000X2.540000*%
G04 #@! TD*
G04 #@! TA.AperFunction,ViaPad*
%ADD41C,0.800000*%
G04 #@! TD*
G04 #@! TA.AperFunction,Conductor*
%ADD42C,2.000000*%
G04 #@! TD*
G04 #@! TA.AperFunction,Conductor*
%ADD43C,1.250000*%
G04 #@! TD*
G04 #@! TA.AperFunction,Conductor*
%ADD44C,0.254000*%
G04 #@! TD*
G04 APERTURE END LIST*
D10*
X109489240Y-138399520D02*
X109489240Y-138501120D01*
X109489240Y-138000740D02*
X109489240Y-138399520D01*
X108988860Y-138000740D02*
X109489240Y-138000740D01*
X109489240Y-138000740D02*
X109489240Y-137500360D01*
X109489240Y-138000740D02*
X109989620Y-138000740D01*
D11*
X160830000Y-107840000D03*
D12*
X160830000Y-107840000D03*
D11*
X73250000Y-150970000D03*
D12*
X73250000Y-150970000D03*
D11*
X160750000Y-150820000D03*
D12*
X160750000Y-150820000D03*
D11*
X73160000Y-107940000D03*
D12*
X73160000Y-107940000D03*
D13*
X91440000Y-135890000D03*
D14*
X91440000Y-128270000D03*
D15*
X146050000Y-109220000D03*
D16*
X151130000Y-109220000D03*
D15*
X134620000Y-109220000D03*
D16*
X139700000Y-109220000D03*
D15*
X160020000Y-123190000D03*
D16*
X160020000Y-118110000D03*
D15*
X160020000Y-135890000D03*
D16*
X160020000Y-130810000D03*
D15*
X130810000Y-149860000D03*
D16*
X125730000Y-149860000D03*
D15*
X142240000Y-149860000D03*
D16*
X137160000Y-149860000D03*
D15*
X153670000Y-149860000D03*
D16*
X148590000Y-149860000D03*
D17*
X97790000Y-129540000D03*
X97790000Y-132080000D03*
D18*
X97790000Y-134620000D03*
D19*
X139700000Y-121920000D03*
X137160000Y-121920000D03*
D20*
X134620000Y-121920000D03*
D21*
X140970000Y-129540000D03*
D22*
X130810000Y-129540000D03*
D13*
X96520000Y-152400000D03*
D14*
X96520000Y-144780000D03*
D23*
X116800000Y-149860000D03*
D24*
X114300000Y-149860000D03*
D25*
X72390000Y-128470000D03*
X72390000Y-130970000D03*
X72390000Y-133470000D03*
X72390000Y-135970000D03*
X72390000Y-138470000D03*
D26*
X72390000Y-140970000D03*
D27*
X105370000Y-124050000D03*
D28*
X102830000Y-124050000D03*
D13*
X105220000Y-119010000D03*
D14*
X97600000Y-119010000D03*
D29*
X122010000Y-121790000D03*
X119470000Y-121790000D03*
X119470000Y-124330000D03*
X122010000Y-124330000D03*
D30*
X128360000Y-108582000D03*
X110580000Y-108582000D03*
X128360000Y-124330000D03*
X110580000Y-124330000D03*
D29*
X120994000Y-110106000D03*
X117692000Y-110106000D03*
X124550000Y-124330000D03*
X114390000Y-124330000D03*
X116930000Y-124330000D03*
D13*
X100330000Y-140970000D03*
D14*
X92710000Y-140970000D03*
D13*
X100330000Y-151100000D03*
D14*
X107950000Y-151100000D03*
D13*
X123190000Y-142240000D03*
D14*
X115570000Y-142240000D03*
D13*
X107950000Y-145790000D03*
D14*
X100330000Y-145790000D03*
D13*
X80010000Y-140970000D03*
D14*
X87630000Y-140970000D03*
D13*
X80010000Y-136000000D03*
D14*
X87630000Y-136000000D03*
D13*
X123190000Y-129540000D03*
D14*
X115570000Y-129540000D03*
D13*
X104140000Y-137160000D03*
D14*
X104140000Y-129540000D03*
D31*
X146050000Y-120650000D03*
D32*
X151250000Y-120650000D03*
X148650000Y-120650000D03*
D31*
X80010000Y-130810000D03*
D32*
X85210000Y-130810000D03*
X82610000Y-130810000D03*
D33*
X139700000Y-138430000D03*
D34*
X150700740Y-138430000D03*
X128699260Y-138430000D03*
D33*
X93620000Y-110950000D03*
D34*
X82619260Y-110950000D03*
X104620740Y-110950000D03*
D21*
X114300000Y-134620000D03*
D22*
X124460000Y-134620000D03*
D35*
X151130000Y-129540000D03*
D36*
X146050000Y-129540000D03*
D13*
X90570000Y-124090000D03*
D37*
X98190000Y-124090000D03*
D21*
X94040000Y-119010000D03*
D22*
X83880000Y-119010000D03*
D35*
X79330000Y-123970000D03*
D36*
X84410000Y-123970000D03*
D38*
X111760000Y-139700000D03*
X109220000Y-139700000D03*
D39*
X75640000Y-119430000D03*
D40*
X75640000Y-114350000D03*
D41*
X100790000Y-129540000D03*
D42*
X100790000Y-129707283D02*
X100790000Y-129540000D01*
X98250000Y-132080000D02*
X98417283Y-132080000D01*
X98417283Y-132080000D02*
X100790000Y-129707283D01*
D43*
X97790000Y-132080000D02*
X98250000Y-132080000D01*
X139700000Y-122016953D02*
X139700000Y-121920000D01*
X130174099Y-126209001D02*
X135507952Y-126209001D01*
X128191550Y-128191550D02*
X130174099Y-126209001D01*
X125143799Y-131219001D02*
X128171250Y-128191550D01*
X128171250Y-128191550D02*
X128191550Y-128191550D01*
X135507952Y-126209001D02*
X139700000Y-122016953D01*
X117700999Y-131219001D02*
X125143799Y-131219001D01*
X114300000Y-134620000D02*
X117700999Y-131219001D01*
D44*
X123190000Y-129540000D02*
X122008700Y-129540000D01*
X116930000Y-124330000D02*
X122008700Y-129408700D01*
X122008700Y-129408700D02*
X122008700Y-129540000D01*
X102830000Y-124050000D02*
X101548700Y-124050000D01*
X90570000Y-124090000D02*
X91751300Y-124090000D01*
X91751300Y-124090000D02*
X92932700Y-125271400D01*
X92932700Y-125271400D02*
X100327300Y-125271400D01*
X100327300Y-125271400D02*
X101548700Y-124050000D01*
D43*
X157640999Y-111029001D02*
X160830000Y-107840000D01*
X157640999Y-120810999D02*
X157640999Y-111029001D01*
X160020000Y-123190000D02*
X157640999Y-120810999D01*
X100689571Y-141329571D02*
X100330000Y-140970000D01*
X96520000Y-140970000D02*
X91440000Y-135890000D01*
X100330000Y-140970000D02*
X96520000Y-140970000D01*
D42*
X70360001Y-114150001D02*
X75640000Y-119430000D01*
X70360001Y-110739999D02*
X70360001Y-114150001D01*
X73160000Y-107940000D02*
X70360001Y-110739999D01*
X75640000Y-120280000D02*
X79330000Y-123970000D01*
X75640000Y-119430000D02*
X75640000Y-120280000D01*
X74680000Y-152400000D02*
X73250000Y-150970000D01*
X96520000Y-152400000D02*
X74680000Y-152400000D01*
X151250000Y-119589340D02*
X151250000Y-120650000D01*
X145888671Y-114228011D02*
X151250000Y-119589340D01*
X139628011Y-114228011D02*
X145888671Y-114228011D01*
X134620000Y-109220000D02*
X139628011Y-114228011D01*
X157480000Y-120650000D02*
X160020000Y-123190000D01*
X151250000Y-120650000D02*
X157480000Y-120650000D01*
X157265999Y-120435999D02*
X157480000Y-120650000D01*
X157265999Y-111404001D02*
X157265999Y-120435999D01*
X160830000Y-107840000D02*
X157265999Y-111404001D01*
X157480000Y-135890000D02*
X151130000Y-129540000D01*
X160020000Y-135890000D02*
X157480000Y-135890000D01*
X119554001Y-152614001D02*
X116800000Y-149860000D01*
X128055999Y-152614001D02*
X119554001Y-152614001D01*
X130810000Y-149860000D02*
X128055999Y-152614001D01*
X96347390Y-140970000D02*
X91440000Y-136062610D01*
X100330000Y-140970000D02*
X96347390Y-140970000D01*
D44*
X104620700Y-110950000D02*
X104620700Y-112581000D01*
X104620700Y-112581000D02*
X104029000Y-112581000D01*
X104029000Y-112581000D02*
X97600000Y-119010000D01*
D43*
X104620740Y-110950000D02*
X104620740Y-111989260D01*
D42*
X94574001Y-122035999D02*
X95620999Y-120989001D01*
X86344001Y-122035999D02*
X94574001Y-122035999D01*
X84410000Y-123970000D02*
X86344001Y-122035999D01*
X95620999Y-120989001D02*
X97600000Y-119010000D01*
X97600000Y-119010000D02*
X104620740Y-111989260D01*
X119470000Y-111884000D02*
X119470000Y-121787490D01*
X117692000Y-110106000D02*
X119470000Y-111884000D01*
X140970000Y-134620000D02*
X132509260Y-134620000D01*
X132509260Y-134620000D02*
X128699260Y-138430000D01*
X146050000Y-129540000D02*
X140970000Y-134620000D01*
D44*
X114300000Y-134620000D02*
X115781300Y-134620000D01*
X72390000Y-130970000D02*
X72390000Y-129738700D01*
X72390000Y-129738700D02*
X73621300Y-129738700D01*
X73621300Y-129738700D02*
X75090000Y-128270000D01*
X75090000Y-128270000D02*
X91440000Y-128270000D01*
X124550000Y-124330000D02*
X123388500Y-123168500D01*
X123388500Y-123168500D02*
X116419300Y-123168500D01*
X116419300Y-123168500D02*
X115660000Y-123927800D01*
X115660000Y-123927800D02*
X115660000Y-124700700D01*
X115660000Y-124700700D02*
X112814700Y-127546000D01*
X112814700Y-127546000D02*
X96148900Y-127546000D01*
X96148900Y-127546000D02*
X90224900Y-133470000D01*
X90224900Y-133470000D02*
X72390000Y-133470000D01*
X72390000Y-135970000D02*
X72390000Y-134738700D01*
X72390000Y-134738700D02*
X73621300Y-134738700D01*
X73621300Y-134738700D02*
X73678400Y-134681600D01*
X73678400Y-134681600D02*
X93454300Y-134681600D01*
X93454300Y-134681600D02*
X95932700Y-137160000D01*
X95932700Y-137160000D02*
X104140000Y-137160000D01*
X96520000Y-144780000D02*
X99320000Y-144780000D01*
X99320000Y-144780000D02*
X100330000Y-145790000D01*
X92710000Y-142188900D02*
X92710000Y-142665800D01*
X92710000Y-142665800D02*
X99962900Y-149918700D01*
X99962900Y-149918700D02*
X100330000Y-149918700D01*
X92710000Y-140970000D02*
X92710000Y-142188900D01*
X72390000Y-140970000D02*
X73608900Y-142188900D01*
X73608900Y-142188900D02*
X92710000Y-142188900D01*
X100330000Y-151100000D02*
X100330000Y-149918700D01*
D42*
X148375999Y-111974001D02*
X151130000Y-109220000D01*
X142454001Y-111974001D02*
X148375999Y-111974001D01*
X139700000Y-109220000D02*
X142454001Y-111974001D01*
D44*
X107950000Y-145790000D02*
X109131300Y-145790000D01*
X148650000Y-120650000D02*
X142347900Y-126952100D01*
X142347900Y-126952100D02*
X137120000Y-126952100D01*
X137120000Y-126952100D02*
X124394500Y-139677600D01*
X124394500Y-139677600D02*
X115243700Y-139677600D01*
X115243700Y-139677600D02*
X109131300Y-145790000D01*
X72390000Y-128470000D02*
X72390000Y-127238700D01*
X114390000Y-124330000D02*
X112457000Y-126263000D01*
X112457000Y-126263000D02*
X73365700Y-126263000D01*
X73365700Y-126263000D02*
X72390000Y-127238700D01*
X123190000Y-142240000D02*
X119380000Y-142240000D01*
X114300000Y-147320000D02*
X114300000Y-149860000D01*
X119380000Y-142240000D02*
X114300000Y-147320000D01*
D42*
X156495999Y-127285999D02*
X160020000Y-130810000D01*
X144376681Y-127285999D02*
X156495999Y-127285999D01*
X142122680Y-129540000D02*
X144376681Y-127285999D01*
X140970000Y-129540000D02*
X142122680Y-129540000D01*
M02*
