%FSLAX45Y45*%
G04 Gerber Fmt 4.5, Leading zero omitted, Abs format (unit mm)*
G04 Created by KiCad (PCBNEW (5.99.0-10988-gd8b1e827c7)) date 2021-06-25 10:47:12*
%MOMM*%
%LPD*%
G01*
G04 APERTURE LIST*
%TA.AperFunction,Profile*%
%ADD10C,0.150000*%
%TD*%
%ADD11C,0.200000*%
G04 APERTURE END LIST*
D10*
X16510000Y-10414000D02*
X6858000Y-10414000D01*
X16510000Y-15494000D02*
X16510000Y-10414000D01*
X6858000Y-15494000D02*
X16510000Y-15494000D01*
X6858000Y-10414000D02*
X6858000Y-15494000D01*
D11*
X7108119Y-15811976D02*
X7108119Y-15611976D01*
X7155738Y-15611976D01*
X7184309Y-15621500D01*
X7203357Y-15640548D01*
X7212881Y-15659595D01*
X7222405Y-15697690D01*
X7222405Y-15726262D01*
X7212881Y-15764357D01*
X7203357Y-15783405D01*
X7184309Y-15802452D01*
X7155738Y-15811976D01*
X7108119Y-15811976D01*
X7308119Y-15811976D02*
X7308119Y-15678643D01*
X7308119Y-15716738D02*
X7317643Y-15697690D01*
X7327167Y-15688167D01*
X7346214Y-15678643D01*
X7365262Y-15678643D01*
X7431928Y-15811976D02*
X7431928Y-15678643D01*
X7431928Y-15611976D02*
X7422405Y-15621500D01*
X7431928Y-15631024D01*
X7441452Y-15621500D01*
X7431928Y-15611976D01*
X7431928Y-15631024D01*
X7555738Y-15811976D02*
X7536690Y-15802452D01*
X7527167Y-15783405D01*
X7527167Y-15611976D01*
X7660500Y-15811976D02*
X7641452Y-15802452D01*
X7631928Y-15783405D01*
X7631928Y-15611976D01*
X7889071Y-15811976D02*
X7889071Y-15611976D01*
X7955738Y-15754833D01*
X8022405Y-15611976D01*
X8022405Y-15811976D01*
X8203357Y-15811976D02*
X8203357Y-15707214D01*
X8193833Y-15688167D01*
X8174786Y-15678643D01*
X8136690Y-15678643D01*
X8117643Y-15688167D01*
X8203357Y-15802452D02*
X8184309Y-15811976D01*
X8136690Y-15811976D01*
X8117643Y-15802452D01*
X8108119Y-15783405D01*
X8108119Y-15764357D01*
X8117643Y-15745309D01*
X8136690Y-15735786D01*
X8184309Y-15735786D01*
X8203357Y-15726262D01*
X8298595Y-15678643D02*
X8298595Y-15878643D01*
X8298595Y-15688167D02*
X8317643Y-15678643D01*
X8355738Y-15678643D01*
X8374786Y-15688167D01*
X8384309Y-15697690D01*
X8393833Y-15716738D01*
X8393833Y-15773881D01*
X8384309Y-15792928D01*
X8374786Y-15802452D01*
X8355738Y-15811976D01*
X8317643Y-15811976D01*
X8298595Y-15802452D01*
X8479548Y-15792928D02*
X8489071Y-15802452D01*
X8479548Y-15811976D01*
X8470024Y-15802452D01*
X8479548Y-15792928D01*
X8479548Y-15811976D01*
X8479548Y-15688167D02*
X8489071Y-15697690D01*
X8479548Y-15707214D01*
X8470024Y-15697690D01*
X8479548Y-15688167D01*
X8479548Y-15707214D01*
M02*
