M48
; DRILL file {KiCad (5.1.9)-1} date 05/16/21 20:36:04
; FORMAT={-:-/ absolute / metric / decimal}
; #@! TF.CreationDate,2021-05-16T20:36:04+02:00
; #@! TF.GenerationSoftware,Kicad,Pcbnew,(5.1.9)-1
FMAT,2
METRIC
T1C0.635
T2C0.762
T3C0.800
T4C0.900
T5C1.000
T6C1.001
T7C1.016
T8C1.100
T9C1.520
T10C2.000
T11C2.200
T12C3.200
%
G90
G05
T1
X73.214Y-88.303
X74.516Y-89.605
X102.727Y-93.299
X104.85Y-95.42
X107.465Y-119.023
X124.971Y-121.092
X125.839Y-96.256
X144.53Y-104.222
X146.184Y-105.871
X162.881Y-111.623
X175.1Y-91.544
X178.585Y-115.831
X181.339Y-89.192
T2
X170.974Y-37.03
X170.974Y-39.57
X170.974Y-42.11
X170.974Y-44.65
X170.974Y-47.19
X170.974Y-49.73
X170.974Y-52.27
X170.974Y-54.81
X170.974Y-57.35
X170.974Y-59.89
X170.974Y-62.43
X170.974Y-64.97
X170.974Y-67.51
X170.974Y-70.05
X170.974Y-72.59
X170.974Y-75.13
X170.974Y-77.67
X170.974Y-80.21
X170.974Y-85.32
X170.974Y-87.86
X170.974Y-90.4
X170.974Y-92.94
X170.974Y-95.48
X170.974Y-98.02
X170.974Y-100.56
X170.974Y-103.1
X170.974Y-105.64
X170.974Y-108.18
X170.974Y-110.72
X170.974Y-113.26
X170.974Y-115.8
X170.974Y-118.34
X170.974Y-120.88
X170.974Y-123.42
X170.974Y-125.96
X170.974Y-128.5
X173.514Y-42.11
X173.514Y-44.65
X173.514Y-52.27
X173.514Y-54.81
X173.514Y-57.35
X173.514Y-64.97
X173.514Y-67.51
X173.514Y-90.4
X173.514Y-92.94
X173.514Y-100.56
X173.514Y-103.1
X173.514Y-105.64
X173.514Y-113.26
X173.514Y-115.8
X194.342Y-50.238
X194.342Y-53.794
X194.342Y-57.35
X194.342Y-60.906
X194.342Y-64.462
X194.342Y-68.018
X194.342Y-98.528
X194.342Y-102.084
X194.342Y-105.64
X194.342Y-109.196
X194.342Y-112.752
X194.342Y-116.308
T3
X58.72Y-45.63
X61.26Y-45.63
X64.83Y-45.59
X67.37Y-45.59
X71.02Y-45.68
X72.25Y-53.37
X73.56Y-45.68
X74.75Y-53.37
X85.71Y-45.37
X85.84Y-37.91
X88.25Y-45.37
X88.38Y-37.91
X89.26Y-111.66
X89.26Y-114.2
X89.29Y-117.64
X89.29Y-120.18
X98.82Y-111.85
X98.82Y-114.39
X98.82Y-117.69
X98.82Y-120.23
X104.81Y-37.84
X104.81Y-45.4
X107.35Y-37.84
X107.35Y-45.4
X127.38Y-113.67
X127.38Y-116.21
X127.45Y-119.26
X127.45Y-121.8
X137.69Y-113.74
X137.69Y-116.28
X137.76Y-119.33
X137.76Y-121.87
X147.56Y-113.74
X147.56Y-116.28
X147.63Y-119.33
X147.63Y-121.87
T4
X59.87Y-38.72
X59.87Y-41.26
X66.06Y-38.72
X66.06Y-41.26
X72.21Y-38.81
X72.21Y-41.35
T5
X43.06Y-87.8
X43.06Y-90.34
X43.06Y-92.88
X43.06Y-95.42
X43.06Y-97.96
X43.06Y-100.5
X46.28Y-111.94
X48.82Y-111.94
X51.36Y-111.94
X53.9Y-111.94
X59.48Y-121.15
X59.48Y-123.69
X59.48Y-126.23
X60.66Y-58.02
X60.66Y-60.56
X60.66Y-63.1
X60.7Y-69.76
X60.7Y-72.3
X60.7Y-74.84
X66.08Y-123.74
X66.08Y-126.28
X68.5Y-113.52
X68.5Y-116.06
X73.7Y-113.52
X73.7Y-116.06
X78.91Y-113.52
X78.91Y-116.06
X81.62Y-37.83
X81.62Y-40.37
X81.62Y-42.91
X81.62Y-45.45
X84.27Y-113.52
X84.27Y-116.06
X91.92Y-37.88
X91.92Y-40.42
X91.92Y-42.96
X91.92Y-45.5
X93.86Y-113.65
X93.86Y-116.19
X93.86Y-118.73
X95.9Y-52.96
X98.44Y-52.96
X100.81Y-37.93
X100.81Y-40.47
X100.81Y-43.01
X100.81Y-45.55
X101.29Y-128.25
X103.67Y-113.65
X103.67Y-116.19
X103.67Y-118.73
X103.83Y-128.25
X106.78Y-53.0
X109.06Y-113.7
X109.06Y-116.24
X109.06Y-118.78
X109.32Y-53.0
X111.02Y-37.98
X111.02Y-40.52
X111.02Y-43.06
X111.02Y-45.6
X111.12Y-128.4
X113.66Y-128.4
X115.26Y-113.7
X115.26Y-116.24
X115.26Y-118.78
X119.11Y-37.91
X119.11Y-40.45
X119.11Y-42.99
X119.11Y-45.53
X122.52Y-113.88
X122.52Y-116.42
X122.52Y-118.96
X122.52Y-121.5
X125.66Y-37.89
X125.66Y-40.43
X125.66Y-42.97
X125.66Y-45.51
X132.2Y-37.89
X132.2Y-40.43
X132.2Y-42.97
X132.2Y-45.51
X132.82Y-113.88
X132.82Y-116.42
X132.82Y-118.96
X132.82Y-121.5
X138.64Y-37.89
X138.64Y-40.43
X138.64Y-42.97
X138.64Y-45.51
X142.7Y-113.96
X142.7Y-116.5
X142.7Y-119.04
X142.7Y-121.58
X147.52Y-37.83
X147.52Y-40.37
X147.52Y-42.91
X147.52Y-45.45
X147.52Y-47.99
X152.57Y-37.91
X152.57Y-40.45
X152.57Y-42.99
X152.57Y-45.53
X152.57Y-48.07
X155.75Y-122.55
X155.75Y-125.09
X155.75Y-127.63
X155.8Y-112.51
X155.8Y-115.05
X155.8Y-117.59
X157.71Y-37.91
X157.71Y-40.45
X157.71Y-42.99
X157.71Y-45.53
X157.71Y-48.07
X162.77Y-37.99
X162.77Y-40.53
X162.77Y-43.07
X162.77Y-45.61
X162.77Y-48.15
X163.42Y-113.86
X163.42Y-116.4
X163.42Y-118.94
X179.7Y-103.89
X179.7Y-106.43
X179.7Y-108.97
X179.7Y-111.51
X179.7Y-114.05
X180.16Y-51.39
X180.16Y-53.93
X180.16Y-56.47
X187.2Y-49.45
X187.2Y-51.99
X187.2Y-54.53
X187.2Y-57.07
X187.2Y-59.61
X188.54Y-103.81
X188.54Y-106.35
X188.54Y-108.89
X188.54Y-111.43
X188.54Y-113.97
T6
X49.82Y-119.72
X49.82Y-127.32
T7
X85.846Y-59.25
X88.386Y-59.25
X90.926Y-59.25
X93.466Y-59.25
X94.99Y-107.51
X96.006Y-59.25
X97.53Y-107.51
X98.546Y-59.25
X100.07Y-107.51
X101.086Y-59.25
X102.61Y-107.51
X103.626Y-59.25
X105.15Y-107.51
X106.166Y-59.25
X107.69Y-107.51
X108.706Y-59.25
X110.23Y-107.51
X112.77Y-59.25
X112.77Y-107.51
X115.31Y-59.25
X117.85Y-59.25
X117.85Y-107.51
X120.39Y-59.25
X120.39Y-107.51
X122.93Y-59.25
X122.93Y-107.51
X125.47Y-59.25
X125.47Y-107.51
X128.01Y-59.25
X128.01Y-107.51
X130.55Y-59.25
X130.55Y-107.51
X130.677Y-79.57
X130.677Y-82.11
X130.677Y-84.65
X133.09Y-107.51
X133.217Y-79.57
X133.217Y-82.11
X133.217Y-84.65
X135.63Y-59.25
X135.63Y-107.51
X138.17Y-59.25
X140.71Y-59.25
X140.71Y-107.51
X143.25Y-59.25
X143.25Y-107.51
X145.79Y-59.25
X145.79Y-107.51
X148.33Y-59.25
X148.33Y-107.51
X150.87Y-59.25
X150.87Y-107.51
X153.41Y-59.25
X153.41Y-107.51
X155.95Y-107.51
X158.49Y-107.51
X161.03Y-59.25
X161.03Y-61.79
X161.03Y-64.33
X161.03Y-66.87
X161.03Y-69.41
X161.03Y-71.95
X161.03Y-74.49
X161.03Y-77.03
X161.03Y-79.57
X161.03Y-82.11
X161.03Y-84.65
X161.03Y-87.19
X161.03Y-89.73
X161.03Y-92.27
X161.03Y-94.81
X161.03Y-97.35
X161.03Y-99.89
X161.03Y-102.43
X163.57Y-59.25
X163.57Y-61.79
X163.57Y-64.33
X163.57Y-66.87
X163.57Y-69.41
X163.57Y-71.95
X163.57Y-74.49
X163.57Y-77.03
X163.57Y-79.57
X163.57Y-82.11
X163.57Y-84.65
X163.57Y-87.19
X163.57Y-89.73
X163.57Y-92.27
X163.57Y-94.81
X163.57Y-97.35
X163.57Y-99.89
X163.57Y-102.43
T8
X53.69Y-43.88
X53.69Y-54.04
X53.69Y-57.05
X53.69Y-67.21
X53.69Y-70.22
X53.69Y-80.38
X176.16Y-119.57
X176.16Y-129.73
X178.64Y-87.46
X178.65Y-82.57
X178.72Y-92.52
X179.54Y-37.85
X179.54Y-42.82
X180.96Y-119.65
X180.96Y-129.81
X188.8Y-87.46
X188.81Y-82.57
X188.88Y-92.52
X189.7Y-37.85
X189.7Y-42.82
T9
X44.88Y-46.87
X44.88Y-51.95
X44.89Y-58.21
X44.89Y-63.29
X44.99Y-69.5
X44.99Y-74.58
X202.46Y-48.73
X202.46Y-53.81
X202.46Y-80.26
X202.46Y-85.34
X202.47Y-96.49
X202.47Y-101.57
X202.48Y-111.21
X202.48Y-116.29
T10
X195.421Y-38.236
X195.421Y-79.004
X195.421Y-86.526
X195.421Y-127.293
T11
X41.81Y-38.44
X41.88Y-128.37
X205.6Y-128.21
X205.75Y-38.27
T12
X81.02Y-107.51
X82.29Y-59.25
X133.09Y-74.49
X133.09Y-102.43
X157.22Y-59.25
X163.57Y-107.51
T0
M30
