%TF.GenerationSoftware,KiCad,Pcbnew,(5.1.9)-1*%
%TF.CreationDate,2021-05-16T20:36:29+02:00*%
%TF.ProjectId,Ardumower,41726475-6d6f-4776-9572-2e6b69636164,rev?*%
%TF.SameCoordinates,Original*%
%TF.FileFunction,Copper,L2,Bot*%
%TF.FilePolarity,Positive*%
%FSLAX46Y46*%
G04 Gerber Fmt 4.6, Leading zero omitted, Abs format (unit mm)*
G04 Created by KiCad (PCBNEW (5.1.9)-1) date 2021-05-16 20:36:29*
%MOMM*%
%LPD*%
G01*
G04 APERTURE LIST*
%TA.AperFunction,ComponentPad*%
%ADD10O,1.700000X1.700000*%
%TD*%
%TA.AperFunction,ComponentPad*%
%ADD11R,1.700000X1.700000*%
%TD*%
%TA.AperFunction,ComponentPad*%
%ADD12O,1.600000X1.600000*%
%TD*%
%TA.AperFunction,ComponentPad*%
%ADD13C,1.600000*%
%TD*%
%TA.AperFunction,ComponentPad*%
%ADD14O,2.200000X2.200000*%
%TD*%
%TA.AperFunction,ComponentPad*%
%ADD15R,2.200000X2.200000*%
%TD*%
%TA.AperFunction,ComponentPad*%
%ADD16C,3.000000*%
%TD*%
%TA.AperFunction,ComponentPad*%
%ADD17R,3.000000X3.000000*%
%TD*%
%TA.AperFunction,ConnectorPad*%
%ADD18C,4.400000*%
%TD*%
%TA.AperFunction,ComponentPad*%
%ADD19C,2.600000*%
%TD*%
%TA.AperFunction,ComponentPad*%
%ADD20C,2.000000*%
%TD*%
%TA.AperFunction,ComponentPad*%
%ADD21C,1.524000*%
%TD*%
%TA.AperFunction,ComponentPad*%
%ADD22C,1.800000*%
%TD*%
%TA.AperFunction,ComponentPad*%
%ADD23R,1.800000X1.800000*%
%TD*%
%TA.AperFunction,ComponentPad*%
%ADD24O,1.727200X1.727200*%
%TD*%
%TA.AperFunction,ComponentPad*%
%ADD25R,1.600000X1.600000*%
%TD*%
%TA.AperFunction,ViaPad*%
%ADD26C,0.889000*%
%TD*%
%TA.AperFunction,Conductor*%
%ADD27C,0.254000*%
%TD*%
%TA.AperFunction,Conductor*%
%ADD28C,0.500000*%
%TD*%
%TA.AperFunction,Conductor*%
%ADD29C,1.270000*%
%TD*%
%TA.AperFunction,Conductor*%
%ADD30C,0.508000*%
%TD*%
%TA.AperFunction,Conductor*%
%ADD31C,0.354000*%
%TD*%
G04 APERTURE END LIST*
D10*
%TO.P,JP5,3*%
%TO.N,+3V3*%
X180160000Y-56470000D03*
%TO.P,JP5,2*%
%TO.N,Net-(J42-Pad1)*%
X180160000Y-53930000D03*
D11*
%TO.P,JP5,1*%
%TO.N,+5V*%
X180160000Y-51390000D03*
%TD*%
D10*
%TO.P,JP4,3*%
%TO.N,+3V3*%
X163420000Y-118940000D03*
%TO.P,JP4,2*%
%TO.N,Net-(J40-Pad1)*%
X163420000Y-116400000D03*
D11*
%TO.P,JP4,1*%
%TO.N,+5V*%
X163420000Y-113860000D03*
%TD*%
D10*
%TO.P,J42,5*%
%TO.N,pinMotorMowEnable*%
X187200000Y-59610000D03*
%TO.P,J42,4*%
%TO.N,pinMotorMowDir*%
X187200000Y-57070000D03*
%TO.P,J42,3*%
%TO.N,pinMotorMowPWM*%
X187200000Y-54530000D03*
%TO.P,J42,2*%
%TO.N,GND*%
X187200000Y-51990000D03*
D11*
%TO.P,J42,1*%
%TO.N,Net-(J42-Pad1)*%
X187200000Y-49450000D03*
%TD*%
D10*
%TO.P,J41,5*%
%TO.N,pinMotorEnable*%
X188540000Y-113970000D03*
%TO.P,J41,4*%
%TO.N,pinMotorLeftDir*%
X188540000Y-111430000D03*
%TO.P,J41,3*%
%TO.N,pinMotorLeftPWM*%
X188540000Y-108890000D03*
%TO.P,J41,2*%
%TO.N,GND*%
X188540000Y-106350000D03*
D11*
%TO.P,J41,1*%
%TO.N,Net-(J40-Pad1)*%
X188540000Y-103810000D03*
%TD*%
D10*
%TO.P,J40,5*%
%TO.N,pinMotorEnable*%
X179700000Y-114050000D03*
%TO.P,J40,4*%
%TO.N,pinMotorRightDir*%
X179700000Y-111510000D03*
%TO.P,J40,3*%
%TO.N,pinMotorRightPWM*%
X179700000Y-108970000D03*
%TO.P,J40,2*%
%TO.N,GND*%
X179700000Y-106430000D03*
D11*
%TO.P,J40,1*%
%TO.N,Net-(J40-Pad1)*%
X179700000Y-103890000D03*
%TD*%
D12*
%TO.P,R17,2*%
%TO.N,GND*%
X147560000Y-116280000D03*
D13*
%TO.P,R17,1*%
%TO.N,Net-(J39-Pad1)*%
X147560000Y-113740000D03*
%TD*%
D12*
%TO.P,R16,2*%
%TO.N,GND*%
X137690000Y-116280000D03*
D13*
%TO.P,R16,1*%
%TO.N,Net-(J38-Pad1)*%
X137690000Y-113740000D03*
%TD*%
D12*
%TO.P,R15,2*%
%TO.N,GND*%
X127380000Y-116210000D03*
D13*
%TO.P,R15,1*%
%TO.N,Net-(J37-Pad1)*%
X127380000Y-113670000D03*
%TD*%
D12*
%TO.P,R14,2*%
%TO.N,pinOdometryLeft*%
X147630000Y-121870000D03*
D13*
%TO.P,R14,1*%
%TO.N,Net-(J39-Pad1)*%
X147630000Y-119330000D03*
%TD*%
D12*
%TO.P,R6,2*%
%TO.N,pinOdometryRight*%
X137760000Y-121870000D03*
D13*
%TO.P,R6,1*%
%TO.N,Net-(J38-Pad1)*%
X137760000Y-119330000D03*
%TD*%
D12*
%TO.P,R5,2*%
%TO.N,pinMotorMowRpm*%
X127450000Y-121800000D03*
D13*
%TO.P,R5,1*%
%TO.N,Net-(J37-Pad1)*%
X127450000Y-119260000D03*
%TD*%
D10*
%TO.P,J39,4*%
%TO.N,+3V3*%
X142700000Y-121580000D03*
%TO.P,J39,3*%
%TO.N,+5V*%
X142700000Y-119040000D03*
%TO.P,J39,2*%
%TO.N,GND*%
X142700000Y-116500000D03*
D11*
%TO.P,J39,1*%
%TO.N,Net-(J39-Pad1)*%
X142700000Y-113960000D03*
%TD*%
D10*
%TO.P,J38,4*%
%TO.N,+3V3*%
X132820000Y-121500000D03*
%TO.P,J38,3*%
%TO.N,+5V*%
X132820000Y-118960000D03*
%TO.P,J38,2*%
%TO.N,GND*%
X132820000Y-116420000D03*
D11*
%TO.P,J38,1*%
%TO.N,Net-(J38-Pad1)*%
X132820000Y-113880000D03*
%TD*%
D10*
%TO.P,J37,4*%
%TO.N,+3V3*%
X122520000Y-121500000D03*
%TO.P,J37,3*%
%TO.N,+5V*%
X122520000Y-118960000D03*
%TO.P,J37,2*%
%TO.N,GND*%
X122520000Y-116420000D03*
D11*
%TO.P,J37,1*%
%TO.N,Net-(J37-Pad1)*%
X122520000Y-113880000D03*
%TD*%
D14*
%TO.P,D13,2*%
%TO.N,Net-(D13-Pad2)*%
X176160000Y-129730000D03*
D15*
%TO.P,D13,1*%
%TO.N,pinMotorLeftFault*%
X176160000Y-119570000D03*
%TD*%
D14*
%TO.P,D12,2*%
%TO.N,Net-(D12-Pad2)*%
X180960000Y-119650000D03*
D15*
%TO.P,D12,1*%
%TO.N,pinMotorLeftSense*%
X180960000Y-129810000D03*
%TD*%
D14*
%TO.P,D11,2*%
%TO.N,Net-(D11-Pad2)*%
X178720000Y-92520000D03*
D15*
%TO.P,D11,1*%
%TO.N,pinMotorRightFault*%
X188880000Y-92520000D03*
%TD*%
D14*
%TO.P,D10,2*%
%TO.N,Net-(D10-Pad2)*%
X178640000Y-87460000D03*
D15*
%TO.P,D10,1*%
%TO.N,pinMotorRightSense*%
X188800000Y-87460000D03*
%TD*%
D14*
%TO.P,D9,2*%
%TO.N,Net-(D9-Pad2)*%
X179540000Y-42820000D03*
D15*
%TO.P,D9,1*%
%TO.N,pinMotorMowFault*%
X189700000Y-42820000D03*
%TD*%
D14*
%TO.P,D6,2*%
%TO.N,Net-(D6-Pad2)*%
X179540000Y-37850000D03*
D15*
%TO.P,D6,1*%
%TO.N,pinMotorMowSense*%
X189700000Y-37850000D03*
%TD*%
D10*
%TO.P,J36,2*%
%TO.N,pinReserveA10*%
X101290000Y-128250000D03*
D11*
%TO.P,J36,1*%
%TO.N,GND*%
X103830000Y-128250000D03*
%TD*%
%TO.P,J35,1*%
%TO.N,GND*%
X113660000Y-128400000D03*
D10*
%TO.P,J35,2*%
%TO.N,pinReserveD49*%
X111120000Y-128400000D03*
%TD*%
%TO.P,J34,2*%
%TO.N,pinReserveD9*%
X98440000Y-52960000D03*
D11*
%TO.P,J34,1*%
%TO.N,GND*%
X95900000Y-52960000D03*
%TD*%
D10*
%TO.P,J33,2*%
%TO.N,pinReserveD8*%
X109320000Y-53000000D03*
D11*
%TO.P,J33,1*%
%TO.N,GND*%
X106780000Y-53000000D03*
%TD*%
D16*
%TO.P,J28,2*%
%TO.N,Net-(J28-Pad2)*%
X202480000Y-116290000D03*
D17*
%TO.P,J28,1*%
%TO.N,Net-(J28-Pad1)*%
X202480000Y-111210000D03*
%TD*%
D16*
%TO.P,J27,2*%
%TO.N,Net-(J27-Pad2)*%
X202470000Y-101570000D03*
D17*
%TO.P,J27,1*%
%TO.N,Net-(J27-Pad1)*%
X202470000Y-96490000D03*
%TD*%
D16*
%TO.P,J26,2*%
%TO.N,Net-(J26-Pad2)*%
X202460000Y-53810000D03*
D17*
%TO.P,J26,1*%
%TO.N,Net-(J26-Pad1)*%
X202460000Y-48730000D03*
%TD*%
D16*
%TO.P,J32,2*%
%TO.N,Net-(D5-Pad2)*%
X202460000Y-80260000D03*
D17*
%TO.P,J32,1*%
%TO.N,GND*%
X202460000Y-85340000D03*
%TD*%
D14*
%TO.P,D5,2*%
%TO.N,Net-(D5-Pad2)*%
X188810000Y-82570000D03*
D15*
%TO.P,D5,1*%
%TO.N,+24V*%
X178650000Y-82570000D03*
%TD*%
D10*
%TO.P,J31,5*%
%TO.N,RX3*%
X147520000Y-47990000D03*
%TO.P,J31,4*%
%TO.N,TX3*%
X147520000Y-45450000D03*
%TO.P,J31,3*%
%TO.N,GND*%
X147520000Y-42910000D03*
%TO.P,J31,2*%
%TO.N,+3V3*%
X147520000Y-40370000D03*
D11*
%TO.P,J31,1*%
%TO.N,+5V*%
X147520000Y-37830000D03*
%TD*%
D10*
%TO.P,J24,5*%
%TO.N,RX2*%
X152570000Y-48070000D03*
%TO.P,J24,4*%
%TO.N,TX2*%
X152570000Y-45530000D03*
%TO.P,J24,3*%
%TO.N,GND*%
X152570000Y-42990000D03*
%TO.P,J24,2*%
%TO.N,+3V3*%
X152570000Y-40450000D03*
D11*
%TO.P,J24,1*%
%TO.N,+5V*%
X152570000Y-37910000D03*
%TD*%
D10*
%TO.P,J23,5*%
%TO.N,RX1*%
X157710000Y-48070000D03*
%TO.P,J23,4*%
%TO.N,TX1*%
X157710000Y-45530000D03*
%TO.P,J23,3*%
%TO.N,GND*%
X157710000Y-42990000D03*
%TO.P,J23,2*%
%TO.N,+3V3*%
X157710000Y-40450000D03*
D11*
%TO.P,J23,1*%
%TO.N,+5V*%
X157710000Y-37910000D03*
%TD*%
D10*
%TO.P,J22,5*%
%TO.N,RX0*%
X162770000Y-48150000D03*
%TO.P,J22,4*%
%TO.N,TX0*%
X162770000Y-45610000D03*
%TO.P,J22,3*%
%TO.N,GND*%
X162770000Y-43070000D03*
%TO.P,J22,2*%
%TO.N,+3V3*%
X162770000Y-40530000D03*
D11*
%TO.P,J22,1*%
%TO.N,+5V*%
X162770000Y-37990000D03*
%TD*%
D10*
%TO.P,J18,2*%
%TO.N,pinUserSwitch3*%
X84270000Y-116060000D03*
D11*
%TO.P,J18,1*%
%TO.N,GND*%
X84270000Y-113520000D03*
%TD*%
D10*
%TO.P,J17,2*%
%TO.N,pinUserSwitch2*%
X78910000Y-116060000D03*
D11*
%TO.P,J17,1*%
%TO.N,GND*%
X78910000Y-113520000D03*
%TD*%
D10*
%TO.P,J16,2*%
%TO.N,pinUserSwitch1*%
X73700000Y-116060000D03*
D11*
%TO.P,J16,1*%
%TO.N,GND*%
X73700000Y-113520000D03*
%TD*%
D10*
%TO.P,J15,2*%
%TO.N,pinButton*%
X68500000Y-116060000D03*
D11*
%TO.P,J15,1*%
%TO.N,GND*%
X68500000Y-113520000D03*
%TD*%
D18*
%TO.P,H4,1*%
%TO.N,GND*%
X41880000Y-128370000D03*
D19*
X41880000Y-128370000D03*
%TD*%
D18*
%TO.P,H3,1*%
%TO.N,GND*%
X205600000Y-128210000D03*
D19*
X205600000Y-128210000D03*
%TD*%
D18*
%TO.P,H2,1*%
%TO.N,GND*%
X205750000Y-38270000D03*
D19*
X205750000Y-38270000D03*
%TD*%
D18*
%TO.P,H1,1*%
%TO.N,GND*%
X41810000Y-38440000D03*
D19*
X41810000Y-38440000D03*
%TD*%
D10*
%TO.P,J14,3*%
%TO.N,pinBuzzer*%
X59480000Y-126230000D03*
%TO.P,J14,2*%
%TO.N,GND*%
X59480000Y-123690000D03*
D11*
%TO.P,J14,1*%
%TO.N,+5V*%
X59480000Y-121150000D03*
%TD*%
D20*
%TO.P,U2,~*%
%TO.N,N/C*%
X195421500Y-86526500D03*
X195421500Y-127293500D03*
D21*
%TO.P,U2,31*%
X173514000Y-90400000D03*
%TO.P,U2,30*%
X173514000Y-92940000D03*
%TO.P,U2,29*%
X173514000Y-100560000D03*
%TO.P,U2,28*%
X173514000Y-103100000D03*
%TO.P,U2,27*%
X173514000Y-105640000D03*
%TO.P,U2,26*%
X173514000Y-113260000D03*
%TO.P,U2,25*%
X173514000Y-115800000D03*
%TO.P,U2,24*%
%TO.N,Net-(J27-Pad1)*%
X194342000Y-98528000D03*
%TO.P,U2,23*%
%TO.N,Net-(J27-Pad2)*%
X194342000Y-102084000D03*
%TO.P,U2,22*%
%TO.N,+24V*%
X194342000Y-105640000D03*
%TO.P,U2,21*%
%TO.N,GND*%
X194342000Y-109196000D03*
%TO.P,U2,20*%
%TO.N,Net-(J28-Pad1)*%
X194342000Y-112752000D03*
%TO.P,U2,19*%
%TO.N,Net-(J28-Pad2)*%
X194342000Y-116308000D03*
%TO.P,U2,18*%
%TO.N,Net-(D10-Pad2)*%
X170974000Y-85320000D03*
%TO.P,U2,17*%
%TO.N,Net-(D11-Pad2)*%
X170974000Y-87860000D03*
%TO.P,U2,16*%
%TO.N,GND*%
X170974000Y-90400000D03*
%TO.P,U2,15*%
%TO.N,IOREV*%
X170974000Y-92940000D03*
%TO.P,U2,14*%
%TO.N,pinMotorRightPWM*%
X170974000Y-95480000D03*
%TO.P,U2,13*%
%TO.N,pinMotorRightDir*%
X170974000Y-98020000D03*
%TO.P,U2,12*%
%TO.N,N/C*%
X170974000Y-100560000D03*
%TO.P,U2,11*%
X170974000Y-103100000D03*
%TO.P,U2,10*%
%TO.N,pinMotorEnable*%
X170974000Y-105640000D03*
%TO.P,U2,9*%
%TO.N,Net-(D12-Pad2)*%
X170974000Y-108180000D03*
%TO.P,U2,8*%
%TO.N,Net-(D13-Pad2)*%
X170974000Y-110720000D03*
%TO.P,U2,7*%
%TO.N,GND*%
X170974000Y-113260000D03*
%TO.P,U2,6*%
%TO.N,IOREV*%
X170974000Y-115800000D03*
%TO.P,U2,5*%
%TO.N,pinMotorLeftPWM*%
X170974000Y-118340000D03*
%TO.P,U2,4*%
%TO.N,pinMotorLeftDir*%
X170974000Y-120880000D03*
%TO.P,U2,3*%
%TO.N,IOREV*%
X170974000Y-123420000D03*
%TO.P,U2,2*%
%TO.N,GND*%
X170974000Y-125960000D03*
%TO.P,U2,1*%
%TO.N,N/C*%
X170974000Y-128500000D03*
%TD*%
D12*
%TO.P,R4,2*%
%TO.N,+3V3*%
X107350000Y-37840000D03*
D13*
%TO.P,R4,1*%
%TO.N,SDA1*%
X104810000Y-37840000D03*
%TD*%
D12*
%TO.P,R3,2*%
%TO.N,+3V3*%
X88380000Y-37910000D03*
D13*
%TO.P,R3,1*%
%TO.N,SDA0*%
X85840000Y-37910000D03*
%TD*%
D12*
%TO.P,R2,2*%
%TO.N,+3V3*%
X107350000Y-45400000D03*
D13*
%TO.P,R2,1*%
%TO.N,SCL1*%
X104810000Y-45400000D03*
%TD*%
D12*
%TO.P,R1,2*%
%TO.N,+3V3*%
X88250000Y-45370000D03*
D13*
%TO.P,R1,1*%
%TO.N,SCL0*%
X85710000Y-45370000D03*
%TD*%
D10*
%TO.P,JP3,3*%
%TO.N,DUE_3.3V*%
X60700000Y-74840000D03*
%TO.P,JP3,2*%
%TO.N,+3V3*%
X60700000Y-72300000D03*
D11*
%TO.P,JP3,1*%
%TO.N,Net-(D8-Pad1)*%
X60700000Y-69760000D03*
%TD*%
D10*
%TO.P,JP2,2*%
%TO.N,Net-(JP2-Pad2)*%
X66080000Y-126280000D03*
D11*
%TO.P,JP2,1*%
%TO.N,pinBuzzer*%
X66080000Y-123740000D03*
%TD*%
D10*
%TO.P,JP1,3*%
%TO.N,DUE_5V*%
X60660000Y-63100000D03*
%TO.P,JP1,2*%
%TO.N,+5V*%
X60660000Y-60560000D03*
D11*
%TO.P,JP1,1*%
%TO.N,Net-(D7-Pad1)*%
X60660000Y-58020000D03*
%TD*%
D10*
%TO.P,J30,4*%
%TO.N,SCL1*%
X100810000Y-45550000D03*
%TO.P,J30,3*%
%TO.N,SDA1*%
X100810000Y-43010000D03*
%TO.P,J30,2*%
%TO.N,GND*%
X100810000Y-40470000D03*
D11*
%TO.P,J30,1*%
%TO.N,+3V3*%
X100810000Y-37930000D03*
%TD*%
D16*
%TO.P,J29,2*%
%TO.N,Net-(D8-Pad2)*%
X44990000Y-74580000D03*
D17*
%TO.P,J29,1*%
%TO.N,GND*%
X44990000Y-69500000D03*
%TD*%
D16*
%TO.P,J25,2*%
%TO.N,Net-(D7-Pad2)*%
X44890000Y-63290000D03*
D17*
%TO.P,J25,1*%
%TO.N,GND*%
X44890000Y-58210000D03*
%TD*%
D14*
%TO.P,D8,2*%
%TO.N,Net-(D8-Pad2)*%
X53690000Y-80380000D03*
D15*
%TO.P,D8,1*%
%TO.N,Net-(D8-Pad1)*%
X53690000Y-70220000D03*
%TD*%
D14*
%TO.P,D7,2*%
%TO.N,Net-(D7-Pad2)*%
X53690000Y-67210000D03*
D15*
%TO.P,D7,1*%
%TO.N,Net-(D7-Pad1)*%
X53690000Y-57050000D03*
%TD*%
D10*
%TO.P,J19,3*%
%TO.N,Net-(J19-Pad3)*%
X103670000Y-118730000D03*
%TO.P,J19,2*%
%TO.N,GND*%
X103670000Y-116190000D03*
D11*
%TO.P,J19,1*%
%TO.N,+5V*%
X103670000Y-113650000D03*
%TD*%
D20*
%TO.P,U1,~*%
%TO.N,N/C*%
X195421500Y-38236500D03*
X195421500Y-79003500D03*
D21*
%TO.P,U1,31*%
X173514000Y-42110000D03*
%TO.P,U1,30*%
X173514000Y-44650000D03*
%TO.P,U1,29*%
X173514000Y-52270000D03*
%TO.P,U1,28*%
X173514000Y-54810000D03*
%TO.P,U1,27*%
X173514000Y-57350000D03*
%TO.P,U1,26*%
X173514000Y-64970000D03*
%TO.P,U1,25*%
X173514000Y-67510000D03*
%TO.P,U1,24*%
%TO.N,Net-(J26-Pad1)*%
X194342000Y-50238000D03*
%TO.P,U1,23*%
%TO.N,Net-(J26-Pad2)*%
X194342000Y-53794000D03*
%TO.P,U1,22*%
%TO.N,+24V*%
X194342000Y-57350000D03*
%TO.P,U1,21*%
%TO.N,GND*%
X194342000Y-60906000D03*
%TO.P,U1,20*%
%TO.N,N/C*%
X194342000Y-64462000D03*
%TO.P,U1,19*%
X194342000Y-68018000D03*
%TO.P,U1,18*%
%TO.N,Net-(D6-Pad2)*%
X170974000Y-37030000D03*
%TO.P,U1,17*%
%TO.N,Net-(D9-Pad2)*%
X170974000Y-39570000D03*
%TO.P,U1,16*%
%TO.N,GND*%
X170974000Y-42110000D03*
%TO.P,U1,15*%
%TO.N,IOREV*%
X170974000Y-44650000D03*
%TO.P,U1,14*%
%TO.N,pinMotorMowPWM*%
X170974000Y-47190000D03*
%TO.P,U1,13*%
%TO.N,pinMotorMowDir*%
X170974000Y-49730000D03*
%TO.P,U1,12*%
%TO.N,N/C*%
X170974000Y-52270000D03*
%TO.P,U1,11*%
X170974000Y-54810000D03*
%TO.P,U1,10*%
%TO.N,pinMotorMowEnable*%
X170974000Y-57350000D03*
%TO.P,U1,9*%
%TO.N,IOREV*%
X170974000Y-59890000D03*
%TO.P,U1,8*%
%TO.N,Net-(D9-Pad2)*%
X170974000Y-62430000D03*
%TO.P,U1,7*%
%TO.N,GND*%
X170974000Y-64970000D03*
%TO.P,U1,6*%
%TO.N,IOREV*%
X170974000Y-67510000D03*
%TO.P,U1,5*%
%TO.N,pinMotorMowPWM*%
X170974000Y-70050000D03*
%TO.P,U1,4*%
%TO.N,pinMotorMowDir*%
X170974000Y-72590000D03*
%TO.P,U1,3*%
%TO.N,IOREV*%
X170974000Y-75130000D03*
%TO.P,U1,2*%
%TO.N,GND*%
X170974000Y-77670000D03*
%TO.P,U1,1*%
%TO.N,N/C*%
X170974000Y-80210000D03*
%TD*%
D22*
%TO.P,D4,2*%
%TO.N,Net-(D4-Pad2)*%
X72210000Y-41350000D03*
D23*
%TO.P,D4,1*%
%TO.N,GND*%
X72210000Y-38810000D03*
%TD*%
D22*
%TO.P,D2,2*%
%TO.N,Net-(D2-Pad2)*%
X59870000Y-41260000D03*
D23*
%TO.P,D2,1*%
%TO.N,GND*%
X59870000Y-38720000D03*
%TD*%
D10*
%TO.P,J21,6*%
%TO.N,pinVoltageMeasurement*%
X43060000Y-100500000D03*
%TO.P,J21,5*%
%TO.N,pinChargeRelay*%
X43060000Y-97960000D03*
%TO.P,J21,4*%
%TO.N,pinChargeCurrent*%
X43060000Y-95420000D03*
%TO.P,J21,3*%
%TO.N,pinChargeVoltage*%
X43060000Y-92880000D03*
%TO.P,J21,2*%
%TO.N,pinBatterySwitch*%
X43060000Y-90340000D03*
D11*
%TO.P,J21,1*%
%TO.N,pinBatteryVoltage*%
X43060000Y-87800000D03*
%TD*%
D10*
%TO.P,J20,4*%
%TO.N,pinRemoteSwitch*%
X46280000Y-111940000D03*
%TO.P,J20,3*%
%TO.N,pinRemoteMow*%
X48820000Y-111940000D03*
%TO.P,J20,2*%
%TO.N,pinRemoteSteer*%
X51360000Y-111940000D03*
D11*
%TO.P,J20,1*%
%TO.N,pinRemoteSpeed*%
X53900000Y-111940000D03*
%TD*%
D10*
%TO.P,J12,4*%
%TO.N,pinSonarLeftEcho*%
X125660000Y-45510000D03*
%TO.P,J12,3*%
%TO.N,pinSonarLeftTrigger*%
X125660000Y-42970000D03*
%TO.P,J12,2*%
%TO.N,GND*%
X125660000Y-40430000D03*
D11*
%TO.P,J12,1*%
%TO.N,+3V3*%
X125660000Y-37890000D03*
%TD*%
D10*
%TO.P,J11,4*%
%TO.N,pinSonarCenterEcho*%
X132200000Y-45510000D03*
%TO.P,J11,3*%
%TO.N,pinSonarCenterTrigger*%
X132200000Y-42970000D03*
%TO.P,J11,2*%
%TO.N,GND*%
X132200000Y-40430000D03*
D11*
%TO.P,J11,1*%
%TO.N,+3V3*%
X132200000Y-37890000D03*
%TD*%
D10*
%TO.P,J10,4*%
%TO.N,pinSonarRightEcho*%
X138640000Y-45510000D03*
%TO.P,J10,3*%
%TO.N,pinSonarRightTrigger*%
X138640000Y-42970000D03*
%TO.P,J10,2*%
%TO.N,GND*%
X138640000Y-40430000D03*
D11*
%TO.P,J10,1*%
%TO.N,+3V3*%
X138640000Y-37890000D03*
%TD*%
D10*
%TO.P,J5,4*%
%TO.N,pinBumperLeft*%
X119110000Y-45530000D03*
%TO.P,J5,3*%
%TO.N,GND*%
X119110000Y-42990000D03*
%TO.P,J5,2*%
%TO.N,pinBumperRight*%
X119110000Y-40450000D03*
D11*
%TO.P,J5,1*%
%TO.N,GND*%
X119110000Y-37910000D03*
%TD*%
D10*
%TO.P,J4,4*%
%TO.N,SCL1*%
X111020000Y-45600000D03*
%TO.P,J4,3*%
%TO.N,SDA1*%
X111020000Y-43060000D03*
%TO.P,J4,2*%
%TO.N,GND*%
X111020000Y-40520000D03*
D11*
%TO.P,J4,1*%
%TO.N,+3V3*%
X111020000Y-37980000D03*
%TD*%
D10*
%TO.P,J3,4*%
%TO.N,SCL0*%
X91920000Y-45500000D03*
%TO.P,J3,3*%
%TO.N,SDA0*%
X91920000Y-42960000D03*
%TO.P,J3,2*%
%TO.N,GND*%
X91920000Y-40420000D03*
D11*
%TO.P,J3,1*%
%TO.N,+3V3*%
X91920000Y-37880000D03*
%TD*%
D10*
%TO.P,J2,4*%
%TO.N,SCL0*%
X81620000Y-45450000D03*
%TO.P,J2,3*%
%TO.N,SDA0*%
X81620000Y-42910000D03*
%TO.P,J2,2*%
%TO.N,GND*%
X81620000Y-40370000D03*
D11*
%TO.P,J2,1*%
%TO.N,+3V3*%
X81620000Y-37830000D03*
%TD*%
D24*
%TO.P,XA1,MISO*%
%TO.N,N/C*%
X130677000Y-79570000D03*
%TO.P,XA1,GND6*%
%TO.N,GND*%
X163570000Y-102430000D03*
%TO.P,XA1,GND5*%
X161030000Y-102430000D03*
%TO.P,XA1,D53*%
%TO.N,pinBuzzer*%
X163570000Y-99890000D03*
%TO.P,XA1,D52*%
%TO.N,pinRemoteSwitch*%
X161030000Y-99890000D03*
%TO.P,XA1,D51*%
%TO.N,pinButton*%
X163570000Y-97350000D03*
%TO.P,XA1,D50*%
%TO.N,pinChargeRelay*%
X161030000Y-97350000D03*
%TO.P,XA1,D49*%
%TO.N,pinReserveD49*%
X163570000Y-94810000D03*
%TO.P,XA1,D48*%
%TO.N,pinUserSwitch3*%
X161030000Y-94810000D03*
%TO.P,XA1,D47*%
%TO.N,pinUserSwitch2*%
X163570000Y-92270000D03*
%TO.P,XA1,D46*%
%TO.N,pinUserSwitch1*%
X161030000Y-92270000D03*
%TO.P,XA1,D45*%
%TO.N,pinDropLeft*%
X163570000Y-89730000D03*
%TO.P,XA1,D44*%
%TO.N,pinRain*%
X161030000Y-89730000D03*
%TO.P,XA1,D43*%
%TO.N,N/C*%
X163570000Y-87190000D03*
%TO.P,XA1,D42*%
X161030000Y-87190000D03*
%TO.P,XA1,D41*%
X163570000Y-84650000D03*
%TO.P,XA1,D40*%
X161030000Y-84650000D03*
%TO.P,XA1,D39*%
%TO.N,pinBumperLeft*%
X163570000Y-82110000D03*
%TO.P,XA1,D38*%
%TO.N,pinBumperRight*%
X161030000Y-82110000D03*
%TO.P,XA1,D37*%
%TO.N,pinMotorEnable*%
X163570000Y-79570000D03*
%TO.P,XA1,D36*%
%TO.N,pinSonarLeftEcho*%
X161030000Y-79570000D03*
%TO.P,XA1,D35*%
%TO.N,pinTilt*%
X163570000Y-77030000D03*
%TO.P,XA1,D34*%
%TO.N,pinSonarLeftTrigger*%
X161030000Y-77030000D03*
%TO.P,XA1,D33*%
%TO.N,pinMotorRightDir*%
X163570000Y-74490000D03*
%TO.P,XA1,D32*%
%TO.N,pinSonarRightEcho*%
X161030000Y-74490000D03*
%TO.P,XA1,D31*%
%TO.N,pinMotorLeftDir*%
X163570000Y-71950000D03*
%TO.P,XA1,D30*%
%TO.N,pinSonarRightTrigger*%
X161030000Y-71950000D03*
%TO.P,XA1,D29*%
%TO.N,pinMotorMowDir*%
X163570000Y-69410000D03*
%TO.P,XA1,D28*%
%TO.N,pinMotorMowEnable*%
X161030000Y-69410000D03*
%TO.P,XA1,D27*%
%TO.N,pinMotorRightFault*%
X163570000Y-66870000D03*
%TO.P,XA1,D26*%
%TO.N,pinMotorMowFault*%
X161030000Y-66870000D03*
%TO.P,XA1,D25*%
%TO.N,pinMotorLeftFault*%
X163570000Y-64330000D03*
%TO.P,XA1,D24*%
%TO.N,pinSonarCenterTrigger*%
X161030000Y-64330000D03*
%TO.P,XA1,D23*%
%TO.N,pinDropRight*%
X163570000Y-61790000D03*
%TO.P,XA1,D22*%
%TO.N,pinSonarCenterEcho*%
X161030000Y-61790000D03*
%TO.P,XA1,5V4*%
%TO.N,N/C*%
X163570000Y-59250000D03*
%TO.P,XA1,5V3*%
X161030000Y-59250000D03*
%TO.P,XA1,CANT*%
X158490000Y-107510000D03*
%TO.P,XA1,CANR*%
%TO.N,pinOdometryRight*%
X155950000Y-107510000D03*
%TO.P,XA1,DAC1*%
%TO.N,N/C*%
X153410000Y-107510000D03*
%TO.P,XA1,DAC0*%
%TO.N,pinOdometryLeft*%
X150870000Y-107510000D03*
%TO.P,XA1,A11*%
%TO.N,pinMotorMowRpm*%
X148330000Y-107510000D03*
%TO.P,XA1,A10*%
%TO.N,pinReserveA10*%
X145790000Y-107510000D03*
%TO.P,XA1,A9*%
%TO.N,pinChargeVoltage*%
X143250000Y-107510000D03*
%TO.P,XA1,A8*%
%TO.N,pinChargeCurrent*%
X140710000Y-107510000D03*
%TO.P,XA1,A7*%
%TO.N,pinVoltageMeasurement*%
X135630000Y-107510000D03*
%TO.P,XA1,A6*%
%TO.N,N/C*%
X133090000Y-107510000D03*
%TO.P,XA1,A5*%
%TO.N,pinPerimeterLeft*%
X130550000Y-107510000D03*
%TO.P,XA1,A4*%
%TO.N,pinPerimeterRight*%
X128010000Y-107510000D03*
%TO.P,XA1,A3*%
%TO.N,pinMotorMowSense*%
X125470000Y-107510000D03*
%TO.P,XA1,A2*%
%TO.N,pinBatteryVoltage*%
X122930000Y-107510000D03*
%TO.P,XA1,A1*%
%TO.N,pinMotorLeftSense*%
X120390000Y-107510000D03*
%TO.P,XA1,*%
%TO.N,*%
X94990000Y-107510000D03*
%TO.P,XA1,D11*%
%TO.N,pinRemoteSteer*%
X101086000Y-59250000D03*
%TO.P,XA1,D12*%
%TO.N,pinRemoteMow*%
X98546000Y-59250000D03*
%TO.P,XA1,D13*%
%TO.N,pinLED*%
X96006000Y-59250000D03*
%TO.P,XA1,AREF*%
%TO.N,Net-(C1-Pad2)*%
X90926000Y-59250000D03*
%TO.P,XA1,SDA1*%
%TO.N,SDA1*%
X88386000Y-59250000D03*
%TO.P,XA1,SCL1*%
%TO.N,SCL1*%
X85846000Y-59250000D03*
%TO.P,XA1,D10*%
%TO.N,pinRemoteSpeed*%
X103626000Y-59250000D03*
%TO.P,XA1,D9*%
%TO.N,pinReserveD9*%
X106166000Y-59250000D03*
%TO.P,XA1,D8*%
%TO.N,pinReserveD8*%
X108706000Y-59250000D03*
%TO.P,XA1,GND1*%
%TO.N,GND*%
X93466000Y-59250000D03*
%TO.P,XA1,D7*%
%TO.N,N/C*%
X112770000Y-59250000D03*
%TO.P,XA1,D6*%
X115310000Y-59250000D03*
%TO.P,XA1,D5*%
%TO.N,pinMotorLeftPWM*%
X117850000Y-59250000D03*
%TO.P,XA1,D4*%
%TO.N,pinBatterySwitch*%
X120390000Y-59250000D03*
%TO.P,XA1,D3*%
%TO.N,pinMotorRightPWM*%
X122930000Y-59250000D03*
%TO.P,XA1,D2*%
%TO.N,pinMotorMowPWM*%
X125470000Y-59250000D03*
%TO.P,XA1,D1*%
%TO.N,TX0*%
X128010000Y-59250000D03*
%TO.P,XA1,D0*%
%TO.N,RX0*%
X130550000Y-59250000D03*
%TO.P,XA1,D14*%
%TO.N,RX3*%
X135630000Y-59250000D03*
%TO.P,XA1,D15*%
%TO.N,TX3*%
X138170000Y-59250000D03*
%TO.P,XA1,D16*%
%TO.N,TX2*%
X140710000Y-59250000D03*
%TO.P,XA1,D17*%
%TO.N,RX2*%
X143250000Y-59250000D03*
%TO.P,XA1,D18*%
%TO.N,TX1*%
X145790000Y-59250000D03*
%TO.P,XA1,D19*%
%TO.N,RX1*%
X148330000Y-59250000D03*
%TO.P,XA1,D20*%
%TO.N,SDA0*%
X150870000Y-59250000D03*
%TO.P,XA1,D21*%
%TO.N,SCL0*%
X153410000Y-59250000D03*
%TO.P,XA1,IORF*%
%TO.N,IOREV*%
X97530000Y-107510000D03*
%TO.P,XA1,RST1*%
%TO.N,N/C*%
X100070000Y-107510000D03*
%TO.P,XA1,3V3*%
%TO.N,DUE_3.3V*%
X102610000Y-107510000D03*
%TO.P,XA1,5V1*%
%TO.N,DUE_5V*%
X105150000Y-107510000D03*
%TO.P,XA1,GND2*%
%TO.N,GND*%
X107690000Y-107510000D03*
%TO.P,XA1,GND3*%
X110230000Y-107510000D03*
%TO.P,XA1,VIN*%
%TO.N,+9V*%
X112770000Y-107510000D03*
%TO.P,XA1,A0*%
%TO.N,pinMotorRightSense*%
X117850000Y-107510000D03*
%TO.P,XA1,5V2*%
%TO.N,N/C*%
X133217000Y-79570000D03*
%TO.P,XA1,SCK*%
X130677000Y-82110000D03*
%TO.P,XA1,MOSI*%
X133217000Y-82110000D03*
%TO.P,XA1,GND4*%
X133217000Y-84650000D03*
%TO.P,XA1,RST2*%
X130677000Y-84650000D03*
%TD*%
D20*
%TO.P,SP1,1*%
%TO.N,GND*%
X49820000Y-119720160D03*
%TO.P,SP1,2*%
%TO.N,Net-(JP2-Pad2)*%
X49820000Y-127319840D03*
%TD*%
D12*
%TO.P,R13,2*%
%TO.N,Net-(D4-Pad2)*%
X73560000Y-45680000D03*
D13*
%TO.P,R13,1*%
%TO.N,pinLED*%
X71020000Y-45680000D03*
%TD*%
D12*
%TO.P,R12,2*%
%TO.N,+5V*%
X67370000Y-45590000D03*
D13*
%TO.P,R12,1*%
%TO.N,Net-(D3-Pad2)*%
X64830000Y-45590000D03*
%TD*%
D12*
%TO.P,R11,2*%
%TO.N,+3V3*%
X61260000Y-45630000D03*
D13*
%TO.P,R11,1*%
%TO.N,Net-(D2-Pad2)*%
X58720000Y-45630000D03*
%TD*%
D12*
%TO.P,R10,2*%
%TO.N,GND*%
X89260000Y-111660000D03*
D13*
%TO.P,R10,1*%
%TO.N,Net-(J19-Pad3)*%
X89260000Y-114200000D03*
%TD*%
D12*
%TO.P,R9,2*%
%TO.N,pinPerimeterLeft*%
X89290000Y-117640000D03*
D13*
%TO.P,R9,1*%
%TO.N,Net-(J19-Pad3)*%
X89290000Y-120180000D03*
%TD*%
D12*
%TO.P,R8,2*%
%TO.N,GND*%
X98820000Y-111850000D03*
D13*
%TO.P,R8,1*%
%TO.N,Net-(J13-Pad3)*%
X98820000Y-114390000D03*
%TD*%
D12*
%TO.P,R7,2*%
%TO.N,pinPerimeterRight*%
X98820000Y-117690000D03*
D13*
%TO.P,R7,1*%
%TO.N,Net-(J13-Pad3)*%
X98820000Y-120230000D03*
%TD*%
D10*
%TO.P,J13,3*%
%TO.N,Net-(J13-Pad3)*%
X93860000Y-118730000D03*
%TO.P,J13,2*%
%TO.N,GND*%
X93860000Y-116190000D03*
D11*
%TO.P,J13,1*%
%TO.N,+5V*%
X93860000Y-113650000D03*
%TD*%
D10*
%TO.P,J9,3*%
%TO.N,pinRain*%
X115260000Y-118780000D03*
%TO.P,J9,2*%
%TO.N,GND*%
X115260000Y-116240000D03*
D11*
%TO.P,J9,1*%
%TO.N,+3V3*%
X115260000Y-113700000D03*
%TD*%
D10*
%TO.P,J8,3*%
%TO.N,pinTilt*%
X109060000Y-118780000D03*
%TO.P,J8,2*%
%TO.N,GND*%
X109060000Y-116240000D03*
D11*
%TO.P,J8,1*%
%TO.N,+3V3*%
X109060000Y-113700000D03*
%TD*%
D10*
%TO.P,J7,3*%
%TO.N,pinDropRight*%
X155750000Y-127630000D03*
%TO.P,J7,2*%
%TO.N,GND*%
X155750000Y-125090000D03*
D11*
%TO.P,J7,1*%
%TO.N,+3V3*%
X155750000Y-122550000D03*
%TD*%
D10*
%TO.P,J6,3*%
%TO.N,pinDropLeft*%
X155800000Y-117590000D03*
%TO.P,J6,2*%
%TO.N,GND*%
X155800000Y-115050000D03*
D11*
%TO.P,J6,1*%
%TO.N,+3V3*%
X155800000Y-112510000D03*
%TD*%
D16*
%TO.P,J1,2*%
%TO.N,Net-(D1-Pad2)*%
X44880000Y-51950000D03*
D17*
%TO.P,J1,1*%
%TO.N,GND*%
X44880000Y-46870000D03*
%TD*%
D22*
%TO.P,D3,2*%
%TO.N,Net-(D3-Pad2)*%
X66060000Y-41260000D03*
D23*
%TO.P,D3,1*%
%TO.N,GND*%
X66060000Y-38720000D03*
%TD*%
D14*
%TO.P,D1,2*%
%TO.N,Net-(D1-Pad2)*%
X53690000Y-54040000D03*
D15*
%TO.P,D1,1*%
%TO.N,+9V*%
X53690000Y-43880000D03*
%TD*%
D13*
%TO.P,C1,2*%
%TO.N,Net-(C1-Pad2)*%
X74750000Y-53370000D03*
D25*
%TO.P,C1,1*%
%TO.N,GND*%
X72250000Y-53370000D03*
%TD*%
D26*
%TO.N,pinMotorRightSense*%
X181339500Y-89191600D03*
%TO.N,pinMotorLeftSense*%
X124971200Y-121092000D03*
%TO.N,pinMotorMowSense*%
X175099900Y-91544000D03*
%TO.N,pinDropLeft*%
X162880600Y-111623000D03*
%TO.N,pinUserSwitch2*%
X144530200Y-104222300D03*
%TO.N,pinUserSwitch1*%
X146184300Y-105870800D03*
%TO.N,pinTilt*%
X125838700Y-96256100D03*
%TO.N,pinChargeVoltage*%
X102726800Y-93299400D03*
%TO.N,pinChargeCurrent*%
X104850400Y-95420000D03*
%TO.N,pinRemoteSteer*%
X73213700Y-88302600D03*
%TO.N,pinRemoteSpeed*%
X74516000Y-89604900D03*
%TO.N,+5V*%
X107464800Y-119023300D03*
%TO.N,Net-(D12-Pad2)*%
X178585300Y-115830900D03*
%TD*%
D27*
%TO.N,SCL1*%
X100810000Y-45550000D02*
X99578700Y-45550000D01*
X85846000Y-59250000D02*
X87090900Y-59250000D01*
X87090900Y-59250000D02*
X87090900Y-58037800D01*
X87090900Y-58037800D02*
X99578700Y-45550000D01*
%TO.N,SDA1*%
X88386000Y-59250000D02*
X88386000Y-58005100D01*
X88386000Y-58005100D02*
X98847800Y-47543300D01*
X98847800Y-47543300D02*
X100622200Y-47543300D01*
X100622200Y-47543300D02*
X102047100Y-46118400D01*
X102047100Y-46118400D02*
X102047100Y-44826200D01*
X102047100Y-44826200D02*
X100810000Y-43589100D01*
X100810000Y-43589100D02*
X104810000Y-39589100D01*
X104810000Y-39589100D02*
X104810000Y-37840000D01*
X100810000Y-43010000D02*
X100810000Y-43589100D01*
D28*
%TO.N,GND*%
X170974000Y-77670000D02*
X172256100Y-78952100D01*
X172256100Y-78952100D02*
X172256100Y-89117900D01*
X172256100Y-89117900D02*
X170974000Y-90400000D01*
X170974000Y-64970000D02*
X172244000Y-66240000D01*
X172244000Y-66240000D02*
X172244000Y-76400000D01*
X172244000Y-76400000D02*
X170974000Y-77670000D01*
X103830000Y-128250000D02*
X105184300Y-128250000D01*
X113660000Y-127025400D02*
X113660000Y-128400000D01*
X115260000Y-116240000D02*
X113660000Y-117840000D01*
X113660000Y-117840000D02*
X113660000Y-127025400D01*
X113660000Y-127025400D02*
X106408900Y-127025400D01*
X106408900Y-127025400D02*
X105184300Y-128250000D01*
X84270000Y-113520000D02*
X85624300Y-113520000D01*
X89260000Y-111660000D02*
X87484300Y-111660000D01*
X87484300Y-111660000D02*
X85624300Y-113520000D01*
X194342000Y-109196000D02*
X196925900Y-111779900D01*
X196925900Y-111779900D02*
X196925900Y-119535900D01*
X196925900Y-119535900D02*
X205600000Y-128210000D01*
X179700000Y-106430000D02*
X181054300Y-106430000D01*
X188540000Y-106350000D02*
X181134300Y-106350000D01*
X181134300Y-106350000D02*
X181054300Y-106430000D01*
X170974000Y-42110000D02*
X172244000Y-43380000D01*
X172244000Y-43380000D02*
X175711700Y-43380000D01*
X175711700Y-43380000D02*
X184321700Y-51990000D01*
X184321700Y-51990000D02*
X187200000Y-51990000D01*
X110230000Y-108877900D02*
X110414300Y-109062200D01*
X110414300Y-109062200D02*
X110414300Y-114885700D01*
X110414300Y-114885700D02*
X109060000Y-116240000D01*
X49820000Y-121221600D02*
X49028400Y-121221600D01*
D29*
X49028400Y-121221600D02*
X41880000Y-128370000D01*
D28*
X59480000Y-123690000D02*
X52288400Y-123690000D01*
X52288400Y-123690000D02*
X49820000Y-121221600D01*
D29*
X49820000Y-121221600D02*
X49820000Y-119720200D01*
D28*
X202460000Y-85340000D02*
X202460000Y-83335700D01*
X194342000Y-60906000D02*
X200455700Y-67019700D01*
X200455700Y-67019700D02*
X200455700Y-81331400D01*
X200455700Y-81331400D02*
X202460000Y-83335700D01*
X155750000Y-125090000D02*
X157104300Y-125090000D01*
X157154300Y-124699500D02*
X169713500Y-124699500D01*
X169713500Y-124699500D02*
X170974000Y-125960000D01*
X157104300Y-125090000D02*
X157104300Y-124749500D01*
X157104300Y-124749500D02*
X157154300Y-124699500D01*
X157154300Y-115050000D02*
X157154300Y-124699500D01*
X161030000Y-102430000D02*
X161030000Y-111174300D01*
X161030000Y-111174300D02*
X157154300Y-115050000D01*
X155800000Y-115050000D02*
X157154300Y-115050000D01*
X110230000Y-107510000D02*
X110230000Y-108877900D01*
X93860000Y-116190000D02*
X95214300Y-116190000D01*
X95214300Y-116190000D02*
X95214300Y-115455700D01*
X95214300Y-115455700D02*
X98820000Y-111850000D01*
X102315700Y-116190000D02*
X102315700Y-115345700D01*
X102315700Y-115345700D02*
X98820000Y-111850000D01*
X93466000Y-59250000D02*
X93466000Y-57882100D01*
X95900000Y-52960000D02*
X95900000Y-55448100D01*
X95900000Y-55448100D02*
X93466000Y-57882100D01*
X81620000Y-40370000D02*
X80265700Y-40370000D01*
X72210000Y-38810000D02*
X78705700Y-38810000D01*
X78705700Y-38810000D02*
X80265700Y-40370000D01*
X103670000Y-116190000D02*
X102315700Y-116190000D01*
X111020000Y-40520000D02*
X112374300Y-40520000D01*
X114542000Y-44041900D02*
X112374300Y-41874300D01*
X112374300Y-41874300D02*
X112374300Y-40520000D01*
X117755700Y-42990000D02*
X116701100Y-42990000D01*
X116701100Y-42990000D02*
X115649100Y-44042000D01*
X115649100Y-44042000D02*
X114542000Y-44042000D01*
X114542000Y-44042000D02*
X114542000Y-44041900D01*
X106780000Y-51645700D02*
X106938200Y-51645700D01*
X106938200Y-51645700D02*
X114542000Y-44041900D01*
X106780000Y-53000000D02*
X106780000Y-51645700D01*
X119110000Y-42990000D02*
X117755700Y-42990000D01*
X44990000Y-68497800D02*
X44990000Y-69500000D01*
X132820000Y-116420000D02*
X131465700Y-116420000D01*
X127380000Y-116210000D02*
X131255700Y-116210000D01*
X131255700Y-116210000D02*
X131465700Y-116420000D01*
X142700000Y-116500000D02*
X144054300Y-116500000D01*
X144054300Y-116500000D02*
X144274300Y-116280000D01*
X144274300Y-116280000D02*
X147560000Y-116280000D01*
X157710000Y-42990000D02*
X152570000Y-42990000D01*
X44890000Y-59212100D02*
X44890000Y-58210000D01*
D30*
%TO.N,+9V*%
X53690000Y-45411300D02*
X53690000Y-47135100D01*
X53650000Y-47190000D02*
X112730000Y-106270000D01*
D31*
X112770000Y-107510000D02*
X112770000Y-106215100D01*
D30*
X53690000Y-43880000D02*
X53690000Y-45411300D01*
D27*
%TO.N,pinMotorRightSense*%
X188800000Y-87460000D02*
X187318700Y-87460000D01*
X181339500Y-89191600D02*
X185587100Y-89191600D01*
X185587100Y-89191600D02*
X187318700Y-87460000D01*
%TO.N,IOREV*%
X170974000Y-67510000D02*
X169830600Y-66366600D01*
X169830600Y-66366600D02*
X169830600Y-61033400D01*
X169830600Y-61033400D02*
X170974000Y-59890000D01*
X170974000Y-75130000D02*
X169830600Y-73986600D01*
X169830600Y-73986600D02*
X169830600Y-68653400D01*
X169830600Y-68653400D02*
X170974000Y-67510000D01*
X170974000Y-92940000D02*
X169828900Y-91794900D01*
X169828900Y-91794900D02*
X169828900Y-76275100D01*
X169828900Y-76275100D02*
X170974000Y-75130000D01*
%TO.N,pinMotorRightPWM*%
X179700000Y-107738700D02*
X179238200Y-107738700D01*
X179238200Y-107738700D02*
X177835900Y-106336400D01*
X177835900Y-106336400D02*
X177835900Y-102341900D01*
X177835900Y-102341900D02*
X170974000Y-95480000D01*
X179700000Y-108970000D02*
X179700000Y-107738700D01*
%TO.N,pinMotorEnable*%
X163570000Y-79570000D02*
X163570000Y-80814900D01*
X163570000Y-80814900D02*
X164036800Y-80814900D01*
X164036800Y-80814900D02*
X166593900Y-83372000D01*
X166593900Y-83372000D02*
X166593900Y-94731400D01*
X166593900Y-94731400D02*
X168159600Y-96297100D01*
X168159600Y-96297100D02*
X168159600Y-102825600D01*
X168159600Y-102825600D02*
X170974000Y-105640000D01*
X179700000Y-114050000D02*
X178468700Y-114050000D01*
X178468700Y-114050000D02*
X178468700Y-113134700D01*
X178468700Y-113134700D02*
X170974000Y-105640000D01*
%TO.N,pinMotorRightDir*%
X170974000Y-98020000D02*
X167356400Y-94402400D01*
X167356400Y-94402400D02*
X167356400Y-79054600D01*
X167356400Y-79054600D02*
X164036700Y-75734900D01*
X164036700Y-75734900D02*
X163570000Y-75734900D01*
X179700000Y-111510000D02*
X175025700Y-106835700D01*
X175025700Y-106835700D02*
X175025700Y-102945300D01*
X175025700Y-102945300D02*
X173783800Y-101703400D01*
X173783800Y-101703400D02*
X173040600Y-101703400D01*
X173040600Y-101703400D02*
X172370600Y-101033400D01*
X172370600Y-101033400D02*
X172370600Y-99416600D01*
X172370600Y-99416600D02*
X170974000Y-98020000D01*
X163570000Y-74490000D02*
X163570000Y-75734900D01*
%TO.N,pinMotorLeftSense*%
X120390000Y-107510000D02*
X120390000Y-108754900D01*
X120390000Y-108754900D02*
X124971200Y-113336100D01*
X124971200Y-113336100D02*
X124971200Y-121092000D01*
%TO.N,pinMotorLeftFault*%
X176160000Y-118088700D02*
X177495400Y-118088700D01*
X177495400Y-118088700D02*
X180961300Y-114622800D01*
X180961300Y-114622800D02*
X180961300Y-111023000D01*
X180961300Y-111023000D02*
X180178300Y-110240000D01*
X180178300Y-110240000D02*
X179214900Y-110240000D01*
X179214900Y-110240000D02*
X177327500Y-108352600D01*
X177327500Y-108352600D02*
X177327500Y-102749300D01*
X177327500Y-102749300D02*
X171328200Y-96750000D01*
X171328200Y-96750000D02*
X170616100Y-96750000D01*
X170616100Y-96750000D02*
X167864700Y-93998600D01*
X167864700Y-93998600D02*
X167864700Y-69402800D01*
X167864700Y-69402800D02*
X164036800Y-65574900D01*
X164036800Y-65574900D02*
X163570000Y-65574900D01*
X176160000Y-119570000D02*
X176160000Y-118088700D01*
X163570000Y-64330000D02*
X163570000Y-65574900D01*
%TO.N,pinMotorLeftPWM*%
X117850000Y-59250000D02*
X129902000Y-71302000D01*
X129902000Y-71302000D02*
X132704000Y-71302000D01*
X132704000Y-71302000D02*
X149862000Y-88460000D01*
X149862000Y-88460000D02*
X164064500Y-88460000D01*
X164064500Y-88460000D02*
X165831500Y-90227000D01*
X165831500Y-90227000D02*
X165831500Y-94942300D01*
X165831500Y-94942300D02*
X166339800Y-95450600D01*
X166339800Y-95450600D02*
X166339800Y-113705800D01*
X166339800Y-113705800D02*
X170974000Y-118340000D01*
X188540000Y-108890000D02*
X187308700Y-108890000D01*
X170974000Y-118340000D02*
X173685400Y-121051400D01*
X173685400Y-121051400D02*
X177426700Y-121051400D01*
X177426700Y-121051400D02*
X178005200Y-120472900D01*
X178005200Y-120472900D02*
X178005200Y-118885500D01*
X178005200Y-118885500D02*
X187308700Y-109582000D01*
X187308700Y-109582000D02*
X187308700Y-108890000D01*
%TO.N,pinMotorLeftDir*%
X170974000Y-120880000D02*
X172187300Y-122093300D01*
X172187300Y-122093300D02*
X177899100Y-122093300D01*
X177899100Y-122093300D02*
X179275900Y-120716500D01*
X179275900Y-120716500D02*
X179275900Y-119170900D01*
X179275900Y-119170900D02*
X187016800Y-111430000D01*
X187016800Y-111430000D02*
X188540000Y-111430000D01*
%TO.N,pinMotorMowSense*%
X189700000Y-37850000D02*
X189700000Y-39331300D01*
X175099900Y-91544000D02*
X175099900Y-75699200D01*
X175099900Y-75699200D02*
X191181300Y-59617800D01*
X191181300Y-59617800D02*
X191181300Y-40812600D01*
X191181300Y-40812600D02*
X189700000Y-39331300D01*
%TO.N,pinMotorMowFault*%
X161030000Y-66870000D02*
X161030000Y-65625100D01*
X161030000Y-65625100D02*
X161496900Y-65625100D01*
X161496900Y-65625100D02*
X162274900Y-64847100D01*
X162274900Y-64847100D02*
X162274900Y-61263700D01*
X162274900Y-61263700D02*
X163018500Y-60520100D01*
X163018500Y-60520100D02*
X168522900Y-60520100D01*
X168522900Y-60520100D02*
X170337100Y-58705900D01*
X170337100Y-58705900D02*
X171610900Y-58705900D01*
X171610900Y-58705900D02*
X173783900Y-60878900D01*
X173783900Y-60878900D02*
X187685400Y-60878900D01*
X187685400Y-60878900D02*
X189700000Y-58864300D01*
X189700000Y-58864300D02*
X189700000Y-42820000D01*
%TO.N,pinMotorMowPWM*%
X187200000Y-54530000D02*
X185968700Y-54530000D01*
X170974000Y-47190000D02*
X176405400Y-52621400D01*
X176405400Y-52621400D02*
X184060100Y-52621400D01*
X184060100Y-52621400D02*
X185968700Y-54530000D01*
%TO.N,pinMotorMowDir*%
X187200000Y-57070000D02*
X185968700Y-57070000D01*
X185968700Y-57070000D02*
X185314500Y-57724200D01*
X185314500Y-57724200D02*
X178829000Y-57724200D01*
X178829000Y-57724200D02*
X174518200Y-53413400D01*
X174518200Y-53413400D02*
X173040600Y-53413400D01*
X173040600Y-53413400D02*
X172244000Y-52616800D01*
X172244000Y-52616800D02*
X172244000Y-51000000D01*
X172244000Y-51000000D02*
X170974000Y-49730000D01*
%TO.N,pinMotorMowEnable*%
X161030000Y-69410000D02*
X161030000Y-68165100D01*
X161030000Y-68165100D02*
X160563200Y-68165100D01*
X160563200Y-68165100D02*
X159717000Y-67318900D01*
X159717000Y-67318900D02*
X159717000Y-61316200D01*
X159717000Y-61316200D02*
X160512900Y-60520300D01*
X160512900Y-60520300D02*
X161609600Y-60520300D01*
X161609600Y-60520300D02*
X162300000Y-59829900D01*
X162300000Y-59829900D02*
X162300000Y-58748800D01*
X162300000Y-58748800D02*
X163698800Y-57350000D01*
X163698800Y-57350000D02*
X170974000Y-57350000D01*
X187200000Y-59610000D02*
X173234000Y-59610000D01*
X173234000Y-59610000D02*
X170974000Y-57350000D01*
D28*
%TO.N,+24V*%
X178650000Y-82570000D02*
X178650000Y-84174300D01*
X178650000Y-84174300D02*
X180250300Y-85774600D01*
X180250300Y-85774600D02*
X180250300Y-91548300D01*
X180250300Y-91548300D02*
X194342000Y-105640000D01*
X194342000Y-57350000D02*
X178650000Y-73042000D01*
X178650000Y-73042000D02*
X178650000Y-82570000D01*
D27*
%TO.N,pinDropLeft*%
X163570000Y-90974900D02*
X164036800Y-90974900D01*
X164036800Y-90974900D02*
X165323200Y-92261300D01*
X165323200Y-92261300D02*
X165323200Y-95152800D01*
X165323200Y-95152800D02*
X165575400Y-95405000D01*
X165575400Y-95405000D02*
X165575400Y-108928200D01*
X165575400Y-108928200D02*
X162880600Y-111623000D01*
X163570000Y-89730000D02*
X163570000Y-90974900D01*
%TO.N,pinBumperLeft*%
X119110000Y-45530000D02*
X119110000Y-46761300D01*
X163570000Y-82110000D02*
X162325100Y-82110000D01*
X162325100Y-82110000D02*
X162325100Y-81643100D01*
X162325100Y-81643100D02*
X161547100Y-80865100D01*
X161547100Y-80865100D02*
X144605500Y-80865100D01*
X144605500Y-80865100D02*
X124645800Y-60905400D01*
X124645800Y-60905400D02*
X122782600Y-60905400D01*
X122782600Y-60905400D02*
X121660000Y-59782800D01*
X121660000Y-59782800D02*
X121660000Y-49311300D01*
X121660000Y-49311300D02*
X119110000Y-46761300D01*
%TO.N,pinBumperRight*%
X161030000Y-82110000D02*
X145094300Y-82110000D01*
X145094300Y-82110000D02*
X131829500Y-68845200D01*
X131829500Y-68845200D02*
X128224600Y-68845200D01*
X128224600Y-68845200D02*
X119110200Y-59730800D01*
X119110200Y-59730800D02*
X119110200Y-47484400D01*
X119110200Y-47484400D02*
X117813700Y-46187900D01*
X117813700Y-46187900D02*
X117813700Y-45014400D01*
X117813700Y-45014400D02*
X118568100Y-44260000D01*
X118568100Y-44260000D02*
X119636400Y-44260000D01*
X119636400Y-44260000D02*
X120418600Y-43477800D01*
X120418600Y-43477800D02*
X120418600Y-42479700D01*
X120418600Y-42479700D02*
X119620200Y-41681300D01*
X119620200Y-41681300D02*
X119110000Y-41681300D01*
X119110000Y-40450000D02*
X119110000Y-41681300D01*
%TO.N,pinDropRight*%
X155750000Y-127630000D02*
X156981300Y-127630000D01*
X163570000Y-61790000D02*
X163570000Y-63034900D01*
X163570000Y-63034900D02*
X164036800Y-63034900D01*
X164036800Y-63034900D02*
X169047000Y-68045100D01*
X169047000Y-68045100D02*
X169047000Y-92640900D01*
X169047000Y-92640900D02*
X170616100Y-94210000D01*
X170616100Y-94210000D02*
X181186700Y-94210000D01*
X181186700Y-94210000D02*
X190365000Y-103388300D01*
X190365000Y-103388300D02*
X190365000Y-111404400D01*
X190365000Y-111404400D02*
X189069400Y-112700000D01*
X189069400Y-112700000D02*
X188010400Y-112700000D01*
X188010400Y-112700000D02*
X183973500Y-116736900D01*
X183973500Y-116736900D02*
X183973500Y-118753000D01*
X183973500Y-118753000D02*
X175496500Y-127230000D01*
X175496500Y-127230000D02*
X157381300Y-127230000D01*
X157381300Y-127230000D02*
X156981300Y-127630000D01*
%TO.N,pinBuzzer*%
X67311300Y-123740000D02*
X74762900Y-131191600D01*
X74762900Y-131191600D02*
X142148900Y-131191600D01*
X142148900Y-131191600D02*
X153831300Y-119509200D01*
X153831300Y-119509200D02*
X153831300Y-112222300D01*
X153831300Y-112222300D02*
X155166500Y-110887100D01*
X155166500Y-110887100D02*
X156874200Y-110887100D01*
X156874200Y-110887100D02*
X159785100Y-107976200D01*
X159785100Y-107976200D02*
X159785100Y-101906100D01*
X159785100Y-101906100D02*
X160556300Y-101134900D01*
X160556300Y-101134900D02*
X161547100Y-101134900D01*
X161547100Y-101134900D02*
X162325100Y-100356900D01*
X162325100Y-100356900D02*
X162325100Y-99890000D01*
X66080000Y-123740000D02*
X67311300Y-123740000D01*
X163570000Y-99890000D02*
X162325100Y-99890000D01*
%TO.N,pinButton*%
X69731300Y-116060000D02*
X84354600Y-130683300D01*
X84354600Y-130683300D02*
X127274900Y-130683300D01*
X127274900Y-130683300D02*
X137301000Y-120657200D01*
X137301000Y-120657200D02*
X140018300Y-120657200D01*
X140018300Y-120657200D02*
X142922800Y-123561700D01*
X142922800Y-123561700D02*
X148341200Y-123561700D01*
X148341200Y-123561700D02*
X152814600Y-119088300D01*
X152814600Y-119088300D02*
X152814600Y-110620400D01*
X152814600Y-110620400D02*
X154680000Y-108755000D01*
X154680000Y-108755000D02*
X154680000Y-104440000D01*
X154680000Y-104440000D02*
X160525100Y-98594900D01*
X160525100Y-98594900D02*
X161547100Y-98594900D01*
X161547100Y-98594900D02*
X162325100Y-97816900D01*
X162325100Y-97816900D02*
X162325100Y-97350000D01*
X68500000Y-116060000D02*
X69731300Y-116060000D01*
X163570000Y-97350000D02*
X162325100Y-97350000D01*
%TO.N,pinUserSwitch3*%
X84270000Y-116060000D02*
X84270000Y-117291300D01*
X161030000Y-94810000D02*
X161030000Y-96054900D01*
X161030000Y-96054900D02*
X160563200Y-96054900D01*
X160563200Y-96054900D02*
X152140000Y-104478100D01*
X152140000Y-104478100D02*
X152140000Y-119044100D01*
X152140000Y-119044100D02*
X148130700Y-123053400D01*
X148130700Y-123053400D02*
X147081900Y-123053400D01*
X147081900Y-123053400D02*
X144945000Y-120916500D01*
X144945000Y-120916500D02*
X144945000Y-119541200D01*
X144945000Y-119541200D02*
X143173800Y-117770000D01*
X143173800Y-117770000D02*
X142214600Y-117770000D01*
X142214600Y-117770000D02*
X140394200Y-115949600D01*
X140394200Y-115949600D02*
X140394200Y-114732300D01*
X140394200Y-114732300D02*
X138172100Y-112510200D01*
X138172100Y-112510200D02*
X137168300Y-112510200D01*
X137168300Y-112510200D02*
X136410400Y-113268100D01*
X136410400Y-113268100D02*
X136410400Y-119729600D01*
X136410400Y-119729600D02*
X125965000Y-130175000D01*
X125965000Y-130175000D02*
X97153700Y-130175000D01*
X97153700Y-130175000D02*
X84270000Y-117291300D01*
%TO.N,pinUserSwitch2*%
X163570000Y-92270000D02*
X162325100Y-92270000D01*
X162325100Y-92270000D02*
X162325100Y-91803200D01*
X162325100Y-91803200D02*
X161521900Y-91000000D01*
X161521900Y-91000000D02*
X157752500Y-91000000D01*
X157752500Y-91000000D02*
X144530200Y-104222300D01*
%TO.N,pinUserSwitch1*%
X159785100Y-92270000D02*
X146184300Y-105870800D01*
X161030000Y-92270000D02*
X159785100Y-92270000D01*
%TO.N,pinRain*%
X116491300Y-118780000D02*
X120455200Y-122743900D01*
X120455200Y-122743900D02*
X124536200Y-122743900D01*
X124536200Y-122743900D02*
X125821400Y-121458700D01*
X125821400Y-121458700D02*
X125821400Y-120774300D01*
X125821400Y-120774300D02*
X125686900Y-120639800D01*
X125686900Y-120639800D02*
X125686900Y-113683100D01*
X125686900Y-113683100D02*
X130615000Y-108755000D01*
X130615000Y-108755000D02*
X143839000Y-108755000D01*
X143839000Y-108755000D02*
X144520000Y-108074000D01*
X144520000Y-108074000D02*
X144520000Y-105965200D01*
X144520000Y-105965200D02*
X143695600Y-105140800D01*
X143695600Y-105140800D02*
X143695600Y-103881900D01*
X143695600Y-103881900D02*
X157847500Y-89730000D01*
X157847500Y-89730000D02*
X161030000Y-89730000D01*
X115260000Y-118780000D02*
X116491300Y-118780000D01*
%TO.N,pinSonarLeftEcho*%
X161030000Y-79570000D02*
X144029400Y-79570000D01*
X144029400Y-79570000D02*
X124200000Y-59740600D01*
X124200000Y-59740600D02*
X124200000Y-48201300D01*
X124200000Y-48201300D02*
X125660000Y-46741300D01*
X125660000Y-45510000D02*
X125660000Y-46741300D01*
%TO.N,pinTilt*%
X125838700Y-96256100D02*
X111252400Y-110842400D01*
X111252400Y-110842400D02*
X111252400Y-115789000D01*
X111252400Y-115789000D02*
X109492700Y-117548700D01*
X109492700Y-117548700D02*
X109060000Y-117548700D01*
X109060000Y-118780000D02*
X109060000Y-117548700D01*
%TO.N,pinSonarLeftTrigger*%
X161030000Y-77030000D02*
X144021500Y-77030000D01*
X144021500Y-77030000D02*
X126740000Y-59748500D01*
X126740000Y-59748500D02*
X126740000Y-46468600D01*
X126740000Y-46468600D02*
X126911400Y-46297200D01*
X126911400Y-46297200D02*
X126911400Y-44942500D01*
X126911400Y-44942500D02*
X126170200Y-44201300D01*
X126170200Y-44201300D02*
X125660000Y-44201300D01*
X125660000Y-42970000D02*
X125660000Y-44201300D01*
%TO.N,pinSonarRightEcho*%
X138640000Y-45510000D02*
X138640000Y-46741300D01*
X161030000Y-74490000D02*
X149099400Y-74490000D01*
X149099400Y-74490000D02*
X134371800Y-59762400D01*
X134371800Y-59762400D02*
X134371800Y-51009500D01*
X134371800Y-51009500D02*
X138640000Y-46741300D01*
%TO.N,pinSonarRightTrigger*%
X161030000Y-71950000D02*
X161030000Y-73194900D01*
X161030000Y-73194900D02*
X161496800Y-73194900D01*
X161496800Y-73194900D02*
X162275000Y-73973100D01*
X162275000Y-73973100D02*
X162275000Y-75066400D01*
X162275000Y-75066400D02*
X161581400Y-75760000D01*
X161581400Y-75760000D02*
X145255500Y-75760000D01*
X145255500Y-75760000D02*
X129280000Y-59784500D01*
X129280000Y-59784500D02*
X129280000Y-52330000D01*
X129280000Y-52330000D02*
X138640000Y-42970000D01*
%TO.N,pinChargeVoltage*%
X102726800Y-93299400D02*
X128261300Y-93299400D01*
X128261300Y-93299400D02*
X142005100Y-107043200D01*
X142005100Y-107043200D02*
X142005100Y-107510000D01*
X143250000Y-107510000D02*
X142005100Y-107510000D01*
%TO.N,pinChargeCurrent*%
X104850400Y-95420000D02*
X128918900Y-95420000D01*
X128918900Y-95420000D02*
X140710000Y-107211100D01*
X140710000Y-107211100D02*
X140710000Y-107510000D01*
%TO.N,pinPerimeterLeft*%
X90471300Y-117640000D02*
X94251800Y-121420500D01*
X94251800Y-121420500D02*
X108925700Y-121420500D01*
X108925700Y-121420500D02*
X112283000Y-118063200D01*
X112283000Y-118063200D02*
X112283000Y-111275300D01*
X112283000Y-111275300D02*
X117344200Y-106214100D01*
X117344200Y-106214100D02*
X125948800Y-106214100D01*
X125948800Y-106214100D02*
X126740100Y-107005400D01*
X126740100Y-107005400D02*
X126740100Y-108056200D01*
X126740100Y-108056200D02*
X127452200Y-108768300D01*
X127452200Y-108768300D02*
X128513600Y-108768300D01*
X128513600Y-108768300D02*
X129305100Y-107976800D01*
X129305100Y-107976800D02*
X129305100Y-107510000D01*
X89290000Y-117640000D02*
X90471300Y-117640000D01*
X130550000Y-107510000D02*
X129305100Y-107510000D01*
%TO.N,pinPerimeterRight*%
X98820000Y-117690000D02*
X100001300Y-117690000D01*
X128010000Y-107510000D02*
X126205000Y-105705000D01*
X126205000Y-105705000D02*
X117134300Y-105705000D01*
X117134300Y-105705000D02*
X111774600Y-111064700D01*
X111774600Y-111064700D02*
X111774600Y-117852600D01*
X111774600Y-117852600D02*
X109611700Y-120015500D01*
X109611700Y-120015500D02*
X102326800Y-120015500D01*
X102326800Y-120015500D02*
X100001300Y-117690000D01*
%TO.N,pinRemoteSteer*%
X51360000Y-111940000D02*
X51360000Y-110156300D01*
X51360000Y-110156300D02*
X73213700Y-88302600D01*
%TO.N,pinRemoteSpeed*%
X53900000Y-110708700D02*
X53900000Y-110220900D01*
X53900000Y-110220900D02*
X74516000Y-89604900D01*
X53900000Y-111940000D02*
X53900000Y-110708700D01*
%TO.N,SCL0*%
X91920000Y-45500000D02*
X90688700Y-45500000D01*
X90688700Y-45500000D02*
X89599100Y-46589600D01*
X89599100Y-46589600D02*
X86929600Y-46589600D01*
X86929600Y-46589600D02*
X85710000Y-45370000D01*
%TO.N,SDA0*%
X81620000Y-42910000D02*
X81620000Y-41678700D01*
X81620000Y-41678700D02*
X82071300Y-41678700D01*
X82071300Y-41678700D02*
X85840000Y-37910000D01*
%TO.N,TX0*%
X162770000Y-45610000D02*
X161538700Y-45610000D01*
X128010000Y-59250000D02*
X128010000Y-51858600D01*
X128010000Y-51858600D02*
X138190000Y-41678600D01*
X138190000Y-41678600D02*
X148030000Y-41678600D01*
X148030000Y-41678600D02*
X148071400Y-41720000D01*
X148071400Y-41720000D02*
X158249000Y-41720000D01*
X158249000Y-41720000D02*
X161538700Y-45009700D01*
X161538700Y-45009700D02*
X161538700Y-45610000D01*
%TO.N,RX0*%
X130550000Y-59250000D02*
X130550000Y-51839200D01*
X130550000Y-51839200D02*
X138170600Y-44218600D01*
X138170600Y-44218600D02*
X148030000Y-44218600D01*
X148030000Y-44218600D02*
X148071400Y-44260000D01*
X148071400Y-44260000D02*
X158249000Y-44260000D01*
X158249000Y-44260000D02*
X161538700Y-47549700D01*
X161538700Y-47549700D02*
X161538700Y-48150000D01*
X162770000Y-48150000D02*
X161538700Y-48150000D01*
%TO.N,TX2*%
X152570000Y-45530000D02*
X152570000Y-46761300D01*
X140710000Y-59250000D02*
X140710000Y-58005100D01*
X140710000Y-58005100D02*
X151953800Y-46761300D01*
X151953800Y-46761300D02*
X152570000Y-46761300D01*
%TO.N,RX2*%
X143250000Y-59250000D02*
X143250000Y-58005100D01*
X152570000Y-48070000D02*
X152570000Y-49301300D01*
X143250000Y-58005100D02*
X143866200Y-58005100D01*
X143866200Y-58005100D02*
X152570000Y-49301300D01*
%TO.N,TX1*%
X145790000Y-59250000D02*
X145790000Y-58005100D01*
X157710000Y-45530000D02*
X157710000Y-46761300D01*
X145790000Y-58005100D02*
X157033800Y-46761300D01*
X157033800Y-46761300D02*
X157710000Y-46761300D01*
%TO.N,RX1*%
X157710000Y-48070000D02*
X157710000Y-49301300D01*
X148330000Y-59250000D02*
X148330000Y-58005100D01*
X148330000Y-58005100D02*
X157033800Y-49301300D01*
X157033800Y-49301300D02*
X157710000Y-49301300D01*
D31*
%TO.N,+5V*%
X103670000Y-113650000D02*
X107464800Y-117444800D01*
X107464800Y-117444800D02*
X107464800Y-119023300D01*
X59480000Y-121150000D02*
X59480000Y-119868700D01*
X80581100Y-99089800D02*
X59802200Y-119868700D01*
X59802200Y-119868700D02*
X59480000Y-119868700D01*
X60660000Y-60560000D02*
X58762100Y-62457900D01*
X58762100Y-62457900D02*
X58762100Y-75622700D01*
X58762100Y-75622700D02*
X68716000Y-85576600D01*
X68716000Y-85576600D02*
X71728800Y-85576600D01*
X71728800Y-85576600D02*
X80581100Y-94428900D01*
X80581100Y-94428900D02*
X80581100Y-99089800D01*
X80581100Y-99089800D02*
X93860000Y-112368700D01*
X93860000Y-113650000D02*
X93860000Y-112368700D01*
X180160000Y-51390000D02*
X178878700Y-51390000D01*
X162770000Y-37990000D02*
X162770000Y-38147500D01*
X162770000Y-38147500D02*
X170542500Y-45920000D01*
X170542500Y-45920000D02*
X173408700Y-45920000D01*
X173408700Y-45920000D02*
X178878700Y-51390000D01*
X67370000Y-45590000D02*
X68601300Y-45590000D01*
X147520000Y-37830000D02*
X146238700Y-37830000D01*
X68601300Y-45590000D02*
X70180900Y-47169600D01*
X70180900Y-47169600D02*
X92113600Y-47169600D01*
X92113600Y-47169600D02*
X97419500Y-41863700D01*
X97419500Y-41863700D02*
X97419500Y-38968800D01*
X97419500Y-38968800D02*
X100446900Y-35941400D01*
X100446900Y-35941400D02*
X144350100Y-35941400D01*
X144350100Y-35941400D02*
X146238700Y-37830000D01*
%TO.N,+3V3*%
X155750000Y-122550000D02*
X155750000Y-121268700D01*
X155750000Y-121268700D02*
X154518600Y-120037300D01*
X154518600Y-120037300D02*
X154518600Y-113791400D01*
X154518600Y-113791400D02*
X155800000Y-112510000D01*
X109060000Y-113700000D02*
X107778700Y-113700000D01*
X60700000Y-72300000D02*
X59397800Y-73602200D01*
X59397800Y-73602200D02*
X59397800Y-75349900D01*
X59397800Y-75349900D02*
X60700000Y-76652100D01*
X60700000Y-76652100D02*
X63666900Y-76652100D01*
X63666900Y-76652100D02*
X93558800Y-106544000D01*
X93558800Y-106544000D02*
X93558800Y-107931500D01*
X93558800Y-107931500D02*
X96202600Y-110575300D01*
X96202600Y-110575300D02*
X104654000Y-110575300D01*
X104654000Y-110575300D02*
X107778700Y-113700000D01*
X180160000Y-56470000D02*
X178878700Y-56470000D01*
X162770000Y-40530000D02*
X162770000Y-40673500D01*
X162770000Y-40673500D02*
X170479900Y-48383400D01*
X170479900Y-48383400D02*
X171323100Y-48383400D01*
X171323100Y-48383400D02*
X178878700Y-55939000D01*
X178878700Y-55939000D02*
X178878700Y-56470000D01*
X88250000Y-45370000D02*
X88250000Y-44138700D01*
X88380000Y-37910000D02*
X88380000Y-44008700D01*
X88380000Y-44008700D02*
X88250000Y-44138700D01*
X80338700Y-37830000D02*
X79897300Y-37388600D01*
X79897300Y-37388600D02*
X64952500Y-37388600D01*
X64952500Y-37388600D02*
X61260000Y-41081100D01*
X61260000Y-41081100D02*
X61260000Y-45630000D01*
X81620000Y-37830000D02*
X80338700Y-37830000D01*
X115260000Y-113700000D02*
X122520000Y-120960000D01*
X122520000Y-120960000D02*
X122520000Y-121500000D01*
X107350000Y-37980000D02*
X107350000Y-37840000D01*
X107350000Y-45400000D02*
X107350000Y-37980000D01*
X107350000Y-37980000D02*
X109738700Y-37980000D01*
X111020000Y-37980000D02*
X109738700Y-37980000D01*
X107350000Y-37840000D02*
X106118700Y-37840000D01*
X100810000Y-37930000D02*
X102091300Y-37930000D01*
X102091300Y-37930000D02*
X103420100Y-36601200D01*
X103420100Y-36601200D02*
X105390200Y-36601200D01*
X105390200Y-36601200D02*
X106118700Y-37329700D01*
X106118700Y-37329700D02*
X106118700Y-37840000D01*
D27*
%TO.N,Net-(J13-Pad3)*%
X97600500Y-118730000D02*
X97600500Y-115609500D01*
X97600500Y-115609500D02*
X98820000Y-114390000D01*
X98820000Y-120230000D02*
X97600500Y-119010500D01*
X97600500Y-119010500D02*
X97600500Y-118730000D01*
X97600500Y-118730000D02*
X95091300Y-118730000D01*
X93860000Y-118730000D02*
X95091300Y-118730000D01*
%TO.N,Net-(D3-Pad2)*%
X66060000Y-41260000D02*
X64830000Y-42490000D01*
X64830000Y-42490000D02*
X64830000Y-45590000D01*
D30*
%TO.N,Net-(D8-Pad2)*%
X53690000Y-80380000D02*
X52208700Y-80380000D01*
X44990000Y-74580000D02*
X46408700Y-74580000D01*
X46408700Y-74580000D02*
X52208700Y-80380000D01*
D31*
%TO.N,DUE_5V*%
X105150000Y-107510000D02*
X105150000Y-106215100D01*
X60660000Y-63100000D02*
X61941300Y-63100000D01*
X105150000Y-106215100D02*
X105056400Y-106215100D01*
X105056400Y-106215100D02*
X61941300Y-63100000D01*
%TO.N,DUE_3.3V*%
X102610000Y-107510000D02*
X69940000Y-74840000D01*
X69940000Y-74840000D02*
X60700000Y-74840000D01*
D27*
%TO.N,RX3*%
X147520000Y-47990000D02*
X147520000Y-49221300D01*
X135630000Y-59250000D02*
X136874900Y-59250000D01*
X136874900Y-59250000D02*
X136874900Y-58712000D01*
X136874900Y-58712000D02*
X146365600Y-49221300D01*
X146365600Y-49221300D02*
X147520000Y-49221300D01*
%TO.N,TX3*%
X147520000Y-45450000D02*
X147520000Y-46681300D01*
X138170000Y-59250000D02*
X139414900Y-59250000D01*
X139414900Y-59250000D02*
X139414900Y-58045400D01*
X139414900Y-58045400D02*
X148828600Y-48631700D01*
X148828600Y-48631700D02*
X148828600Y-47479700D01*
X148828600Y-47479700D02*
X148030200Y-46681300D01*
X148030200Y-46681300D02*
X147520000Y-46681300D01*
%TO.N,pinReserveD49*%
X162325100Y-94810000D02*
X162325100Y-94343200D01*
X162325100Y-94343200D02*
X161521900Y-93540000D01*
X161521900Y-93540000D02*
X160492300Y-93540000D01*
X160492300Y-93540000D02*
X149600000Y-104432300D01*
X149600000Y-104432300D02*
X149600000Y-108012300D01*
X149600000Y-108012300D02*
X145963500Y-111648800D01*
X145963500Y-111648800D02*
X137310900Y-111648800D01*
X137310900Y-111648800D02*
X135823400Y-113136300D01*
X135823400Y-113136300D02*
X135823400Y-117701800D01*
X135823400Y-117701800D02*
X133295200Y-120230000D01*
X133295200Y-120230000D02*
X132289300Y-120230000D01*
X132289300Y-120230000D02*
X122852700Y-129666600D01*
X122852700Y-129666600D02*
X112657000Y-129666600D01*
X112657000Y-129666600D02*
X112351300Y-129360900D01*
X112351300Y-129360900D02*
X112351300Y-128400000D01*
X111120000Y-128400000D02*
X112351300Y-128400000D01*
X163570000Y-94810000D02*
X162325100Y-94810000D01*
%TO.N,pinReserveD9*%
X98440000Y-52960000D02*
X99671300Y-52960000D01*
X106166000Y-59250000D02*
X104921100Y-59250000D01*
X104921100Y-59250000D02*
X104921100Y-58209800D01*
X104921100Y-58209800D02*
X99671300Y-52960000D01*
%TO.N,Net-(D12-Pad2)*%
X170974000Y-108180000D02*
X178585300Y-115791300D01*
X178585300Y-115791300D02*
X178585300Y-115830900D01*
%TO.N,Net-(J37-Pad1)*%
X127380000Y-113670000D02*
X126195300Y-114854700D01*
X126195300Y-114854700D02*
X126195300Y-118005300D01*
X126195300Y-118005300D02*
X127450000Y-119260000D01*
%TO.N,Net-(J38-Pad1)*%
X137690000Y-113740000D02*
X138908200Y-114958200D01*
X138908200Y-114958200D02*
X138908200Y-118181800D01*
X138908200Y-118181800D02*
X137760000Y-119330000D01*
%TO.N,Net-(J39-Pad1)*%
X147560000Y-113740000D02*
X148753100Y-114933100D01*
X148753100Y-114933100D02*
X148753100Y-118206900D01*
X148753100Y-118206900D02*
X147630000Y-119330000D01*
%TO.N,pinMotorMowRpm*%
X147085100Y-107510000D02*
X147085100Y-107976800D01*
X147085100Y-107976800D02*
X144070200Y-110991700D01*
X144070200Y-110991700D02*
X137249200Y-110991700D01*
X137249200Y-110991700D02*
X135225400Y-113015500D01*
X135225400Y-113015500D02*
X135225400Y-115768800D01*
X135225400Y-115768800D02*
X133304200Y-117690000D01*
X133304200Y-117690000D02*
X132251800Y-117690000D01*
X132251800Y-117690000D02*
X128631300Y-121310500D01*
X128631300Y-121310500D02*
X128631300Y-121800000D01*
X127450000Y-121800000D02*
X128631300Y-121800000D01*
X148330000Y-107510000D02*
X147085100Y-107510000D01*
%TO.N,pinOdometryRight*%
X138941300Y-121870000D02*
X141141300Y-124070000D01*
X141141300Y-124070000D02*
X148551700Y-124070000D01*
X148551700Y-124070000D02*
X153323000Y-119298700D01*
X153323000Y-119298700D02*
X153323000Y-111381900D01*
X153323000Y-111381900D02*
X155950000Y-108754900D01*
X155950000Y-107510000D02*
X155950000Y-108754900D01*
X137760000Y-121870000D02*
X138941300Y-121870000D01*
%TO.N,pinOdometryLeft*%
X150870000Y-108754900D02*
X150870000Y-117815800D01*
X150870000Y-117815800D02*
X147997100Y-120688700D01*
X147997100Y-120688700D02*
X147630000Y-120688700D01*
X147630000Y-121870000D02*
X147630000Y-120688700D01*
X150870000Y-107510000D02*
X150870000Y-108754900D01*
%TO.N,Net-(J40-Pad1)*%
X164651300Y-116400000D02*
X167861300Y-119610000D01*
X167861300Y-119610000D02*
X171525000Y-119610000D01*
X171525000Y-119610000D02*
X173500000Y-121585000D01*
X173500000Y-121585000D02*
X177686100Y-121585000D01*
X177686100Y-121585000D02*
X178767600Y-120503500D01*
X178767600Y-120503500D02*
X178767600Y-118960400D01*
X178767600Y-118960400D02*
X187568000Y-110160000D01*
X187568000Y-110160000D02*
X189028200Y-110160000D01*
X189028200Y-110160000D02*
X189809000Y-109379200D01*
X189809000Y-109379200D02*
X189809000Y-105848600D01*
X189809000Y-105848600D02*
X189001700Y-105041300D01*
X189001700Y-105041300D02*
X188540000Y-105041300D01*
X163420000Y-116400000D02*
X164651300Y-116400000D01*
X188540000Y-103810000D02*
X188540000Y-105041300D01*
%TD*%
M02*
