%FSLAX45Y45*%
G04 Gerber Fmt 4.5, Leading zero omitted, Abs format (unit mm)*
G04 Created by KiCad (PCBNEW (5.1.9)-1) date 2021-05-16 20:36:05*
%MOMM*%
%LPD*%
G01*
G04 APERTURE LIST*
%TA.AperFunction,Profile*%
%ADD10C,0.050000*%
%TD*%
%ADD11C,0.200000*%
%ADD12C,0.300000*%
G04 APERTURE END LIST*
D10*
X20857000Y-3461000D02*
X3880000Y-3462000D01*
X20857000Y-13162000D02*
X20857000Y-3461000D01*
X3884000Y-13162000D02*
X20857000Y-13162000D01*
X3880000Y-3462000D02*
X3884000Y-13162000D01*
D11*
X7289620Y-8798510D02*
X7353120Y-8862010D01*
X7353120Y-8798510D02*
X7289620Y-8862010D01*
X7419850Y-8928740D02*
X7483350Y-8992240D01*
X7483350Y-8928740D02*
X7419850Y-8992240D01*
X10240930Y-9298190D02*
X10304430Y-9361690D01*
X10304430Y-9298190D02*
X10240930Y-9361690D01*
X10453290Y-9510250D02*
X10516790Y-9573750D01*
X10516790Y-9510250D02*
X10453290Y-9573750D01*
X10714730Y-11870580D02*
X10778230Y-11934080D01*
X10778230Y-11870580D02*
X10714730Y-11934080D01*
X12465370Y-12077450D02*
X12528870Y-12140950D01*
X12528870Y-12077450D02*
X12465370Y-12140950D01*
X12552120Y-9593860D02*
X12615620Y-9657360D01*
X12615620Y-9593860D02*
X12552120Y-9657360D01*
X14421270Y-10390480D02*
X14484770Y-10453980D01*
X14484770Y-10390480D02*
X14421270Y-10453980D01*
X14586680Y-10555330D02*
X14650180Y-10618830D01*
X14650180Y-10555330D02*
X14586680Y-10618830D01*
X16256310Y-11130550D02*
X16319810Y-11194050D01*
X16319810Y-11130550D02*
X16256310Y-11194050D01*
X17478240Y-9122650D02*
X17541740Y-9186150D01*
X17541740Y-9122650D02*
X17478240Y-9186150D01*
X17826780Y-11551340D02*
X17890280Y-11614840D01*
X17890280Y-11551340D02*
X17826780Y-11614840D01*
X18102200Y-8887410D02*
X18165700Y-8950910D01*
X18165700Y-8887410D02*
X18102200Y-8950910D01*
X17135500Y-3703000D02*
G75*
G03*
X17135500Y-3703000I-38100J0D01*
G01*
X17135500Y-3957000D02*
G75*
G03*
X17135500Y-3957000I-38100J0D01*
G01*
X17135500Y-4211000D02*
G75*
G03*
X17135500Y-4211000I-38100J0D01*
G01*
X17135500Y-4465000D02*
G75*
G03*
X17135500Y-4465000I-38100J0D01*
G01*
X17135500Y-4719000D02*
G75*
G03*
X17135500Y-4719000I-38100J0D01*
G01*
X17135500Y-4973000D02*
G75*
G03*
X17135500Y-4973000I-38100J0D01*
G01*
X17135500Y-5227000D02*
G75*
G03*
X17135500Y-5227000I-38100J0D01*
G01*
X17135500Y-5481000D02*
G75*
G03*
X17135500Y-5481000I-38100J0D01*
G01*
X17135500Y-5735000D02*
G75*
G03*
X17135500Y-5735000I-38100J0D01*
G01*
X17135500Y-5989000D02*
G75*
G03*
X17135500Y-5989000I-38100J0D01*
G01*
X17135500Y-6243000D02*
G75*
G03*
X17135500Y-6243000I-38100J0D01*
G01*
X17135500Y-6497000D02*
G75*
G03*
X17135500Y-6497000I-38100J0D01*
G01*
X17135500Y-6751000D02*
G75*
G03*
X17135500Y-6751000I-38100J0D01*
G01*
X17135500Y-7005000D02*
G75*
G03*
X17135500Y-7005000I-38100J0D01*
G01*
X17135500Y-7259000D02*
G75*
G03*
X17135500Y-7259000I-38100J0D01*
G01*
X17135500Y-7513000D02*
G75*
G03*
X17135500Y-7513000I-38100J0D01*
G01*
X17135500Y-7767000D02*
G75*
G03*
X17135500Y-7767000I-38100J0D01*
G01*
X17135500Y-8021000D02*
G75*
G03*
X17135500Y-8021000I-38100J0D01*
G01*
X17135500Y-8532000D02*
G75*
G03*
X17135500Y-8532000I-38100J0D01*
G01*
X17135500Y-8786000D02*
G75*
G03*
X17135500Y-8786000I-38100J0D01*
G01*
X17135500Y-9040000D02*
G75*
G03*
X17135500Y-9040000I-38100J0D01*
G01*
X17135500Y-9294000D02*
G75*
G03*
X17135500Y-9294000I-38100J0D01*
G01*
X17135500Y-9548000D02*
G75*
G03*
X17135500Y-9548000I-38100J0D01*
G01*
X17135500Y-9802000D02*
G75*
G03*
X17135500Y-9802000I-38100J0D01*
G01*
X17135500Y-10056000D02*
G75*
G03*
X17135500Y-10056000I-38100J0D01*
G01*
X17135500Y-10310000D02*
G75*
G03*
X17135500Y-10310000I-38100J0D01*
G01*
X17135500Y-10564000D02*
G75*
G03*
X17135500Y-10564000I-38100J0D01*
G01*
X17135500Y-10818000D02*
G75*
G03*
X17135500Y-10818000I-38100J0D01*
G01*
X17135500Y-11072000D02*
G75*
G03*
X17135500Y-11072000I-38100J0D01*
G01*
X17135500Y-11326000D02*
G75*
G03*
X17135500Y-11326000I-38100J0D01*
G01*
X17135500Y-11580000D02*
G75*
G03*
X17135500Y-11580000I-38100J0D01*
G01*
X17135500Y-11834000D02*
G75*
G03*
X17135500Y-11834000I-38100J0D01*
G01*
X17135500Y-12088000D02*
G75*
G03*
X17135500Y-12088000I-38100J0D01*
G01*
X17135500Y-12342000D02*
G75*
G03*
X17135500Y-12342000I-38100J0D01*
G01*
X17135500Y-12596000D02*
G75*
G03*
X17135500Y-12596000I-38100J0D01*
G01*
X17135500Y-12850000D02*
G75*
G03*
X17135500Y-12850000I-38100J0D01*
G01*
X17389500Y-4211000D02*
G75*
G03*
X17389500Y-4211000I-38100J0D01*
G01*
X17389500Y-4465000D02*
G75*
G03*
X17389500Y-4465000I-38100J0D01*
G01*
X17389500Y-5227000D02*
G75*
G03*
X17389500Y-5227000I-38100J0D01*
G01*
X17389500Y-5481000D02*
G75*
G03*
X17389500Y-5481000I-38100J0D01*
G01*
X17389500Y-5735000D02*
G75*
G03*
X17389500Y-5735000I-38100J0D01*
G01*
X17389500Y-6497000D02*
G75*
G03*
X17389500Y-6497000I-38100J0D01*
G01*
X17389500Y-6751000D02*
G75*
G03*
X17389500Y-6751000I-38100J0D01*
G01*
X17389500Y-9040000D02*
G75*
G03*
X17389500Y-9040000I-38100J0D01*
G01*
X17389500Y-9294000D02*
G75*
G03*
X17389500Y-9294000I-38100J0D01*
G01*
X17389500Y-10056000D02*
G75*
G03*
X17389500Y-10056000I-38100J0D01*
G01*
X17389500Y-10310000D02*
G75*
G03*
X17389500Y-10310000I-38100J0D01*
G01*
X17389500Y-10564000D02*
G75*
G03*
X17389500Y-10564000I-38100J0D01*
G01*
X17389500Y-11326000D02*
G75*
G03*
X17389500Y-11326000I-38100J0D01*
G01*
X17389500Y-11580000D02*
G75*
G03*
X17389500Y-11580000I-38100J0D01*
G01*
X19472300Y-5023800D02*
G75*
G03*
X19472300Y-5023800I-38100J0D01*
G01*
X19472300Y-5379400D02*
G75*
G03*
X19472300Y-5379400I-38100J0D01*
G01*
X19472300Y-5735000D02*
G75*
G03*
X19472300Y-5735000I-38100J0D01*
G01*
X19472300Y-6090600D02*
G75*
G03*
X19472300Y-6090600I-38100J0D01*
G01*
X19472300Y-6446200D02*
G75*
G03*
X19472300Y-6446200I-38100J0D01*
G01*
X19472300Y-6801800D02*
G75*
G03*
X19472300Y-6801800I-38100J0D01*
G01*
X19472300Y-9852800D02*
G75*
G03*
X19472300Y-9852800I-38100J0D01*
G01*
X19472300Y-10208400D02*
G75*
G03*
X19472300Y-10208400I-38100J0D01*
G01*
X19472300Y-10564000D02*
G75*
G03*
X19472300Y-10564000I-38100J0D01*
G01*
X19472300Y-10919600D02*
G75*
G03*
X19472300Y-10919600I-38100J0D01*
G01*
X19472300Y-11275200D02*
G75*
G03*
X19472300Y-11275200I-38100J0D01*
G01*
X19472300Y-11630800D02*
G75*
G03*
X19472300Y-11630800I-38100J0D01*
G01*
X5872000Y-4523000D02*
X5872000Y-4603000D01*
X5832000Y-4563000D02*
X5912000Y-4563000D01*
X6126000Y-4523000D02*
X6126000Y-4603000D01*
X6086000Y-4563000D02*
X6166000Y-4563000D01*
X6483000Y-4519000D02*
X6483000Y-4599000D01*
X6443000Y-4559000D02*
X6523000Y-4559000D01*
X6737000Y-4519000D02*
X6737000Y-4599000D01*
X6697000Y-4559000D02*
X6777000Y-4559000D01*
X7102000Y-4528000D02*
X7102000Y-4608000D01*
X7062000Y-4568000D02*
X7142000Y-4568000D01*
X7225000Y-5297000D02*
X7225000Y-5377000D01*
X7185000Y-5337000D02*
X7265000Y-5337000D01*
X7356000Y-4528000D02*
X7356000Y-4608000D01*
X7316000Y-4568000D02*
X7396000Y-4568000D01*
X7475000Y-5297000D02*
X7475000Y-5377000D01*
X7435000Y-5337000D02*
X7515000Y-5337000D01*
X8571000Y-4497000D02*
X8571000Y-4577000D01*
X8531000Y-4537000D02*
X8611000Y-4537000D01*
X8584000Y-3751000D02*
X8584000Y-3831000D01*
X8544000Y-3791000D02*
X8624000Y-3791000D01*
X8825000Y-4497000D02*
X8825000Y-4577000D01*
X8785000Y-4537000D02*
X8865000Y-4537000D01*
X8838000Y-3751000D02*
X8838000Y-3831000D01*
X8798000Y-3791000D02*
X8878000Y-3791000D01*
X8926000Y-11126000D02*
X8926000Y-11206000D01*
X8886000Y-11166000D02*
X8966000Y-11166000D01*
X8926000Y-11380000D02*
X8926000Y-11460000D01*
X8886000Y-11420000D02*
X8966000Y-11420000D01*
X8929000Y-11724000D02*
X8929000Y-11804000D01*
X8889000Y-11764000D02*
X8969000Y-11764000D01*
X8929000Y-11978000D02*
X8929000Y-12058000D01*
X8889000Y-12018000D02*
X8969000Y-12018000D01*
X9882000Y-11145000D02*
X9882000Y-11225000D01*
X9842000Y-11185000D02*
X9922000Y-11185000D01*
X9882000Y-11399000D02*
X9882000Y-11479000D01*
X9842000Y-11439000D02*
X9922000Y-11439000D01*
X9882000Y-11729000D02*
X9882000Y-11809000D01*
X9842000Y-11769000D02*
X9922000Y-11769000D01*
X9882000Y-11983000D02*
X9882000Y-12063000D01*
X9842000Y-12023000D02*
X9922000Y-12023000D01*
X10481000Y-3744000D02*
X10481000Y-3824000D01*
X10441000Y-3784000D02*
X10521000Y-3784000D01*
X10481000Y-4500000D02*
X10481000Y-4580000D01*
X10441000Y-4540000D02*
X10521000Y-4540000D01*
X10735000Y-3744000D02*
X10735000Y-3824000D01*
X10695000Y-3784000D02*
X10775000Y-3784000D01*
X10735000Y-4500000D02*
X10735000Y-4580000D01*
X10695000Y-4540000D02*
X10775000Y-4540000D01*
X12738000Y-11327000D02*
X12738000Y-11407000D01*
X12698000Y-11367000D02*
X12778000Y-11367000D01*
X12738000Y-11581000D02*
X12738000Y-11661000D01*
X12698000Y-11621000D02*
X12778000Y-11621000D01*
X12745000Y-11886000D02*
X12745000Y-11966000D01*
X12705000Y-11926000D02*
X12785000Y-11926000D01*
X12745000Y-12140000D02*
X12745000Y-12220000D01*
X12705000Y-12180000D02*
X12785000Y-12180000D01*
X13769000Y-11334000D02*
X13769000Y-11414000D01*
X13729000Y-11374000D02*
X13809000Y-11374000D01*
X13769000Y-11588000D02*
X13769000Y-11668000D01*
X13729000Y-11628000D02*
X13809000Y-11628000D01*
X13776000Y-11893000D02*
X13776000Y-11973000D01*
X13736000Y-11933000D02*
X13816000Y-11933000D01*
X13776000Y-12147000D02*
X13776000Y-12227000D01*
X13736000Y-12187000D02*
X13816000Y-12187000D01*
X14756000Y-11334000D02*
X14756000Y-11414000D01*
X14716000Y-11374000D02*
X14796000Y-11374000D01*
X14756000Y-11588000D02*
X14756000Y-11668000D01*
X14716000Y-11628000D02*
X14796000Y-11628000D01*
X14763000Y-11893000D02*
X14763000Y-11973000D01*
X14723000Y-11933000D02*
X14803000Y-11933000D01*
X14763000Y-12147000D02*
X14763000Y-12227000D01*
X14723000Y-12187000D02*
X14803000Y-12187000D01*
X6018820Y-3903820D02*
X6018820Y-3840180D01*
X5955180Y-3840180D01*
X5955180Y-3903820D01*
X6018820Y-3903820D01*
X6018820Y-4157820D02*
X6018820Y-4094180D01*
X5955180Y-4094180D01*
X5955180Y-4157820D01*
X6018820Y-4157820D01*
X6637820Y-3903820D02*
X6637820Y-3840180D01*
X6574180Y-3840180D01*
X6574180Y-3903820D01*
X6637820Y-3903820D01*
X6637820Y-4157820D02*
X6637820Y-4094180D01*
X6574180Y-4094180D01*
X6574180Y-4157820D01*
X6637820Y-4157820D01*
X7252820Y-3912820D02*
X7252820Y-3849180D01*
X7189180Y-3849180D01*
X7189180Y-3912820D01*
X7252820Y-3912820D01*
X7252820Y-4166820D02*
X7252820Y-4103180D01*
X7189180Y-4103180D01*
X7189180Y-4166820D01*
X7252820Y-4166820D01*
X4306000Y-8830000D02*
X4356000Y-8780000D01*
X4306000Y-8730000D01*
X4256000Y-8780000D01*
X4306000Y-8830000D01*
X4306000Y-9084000D02*
X4356000Y-9034000D01*
X4306000Y-8984000D01*
X4256000Y-9034000D01*
X4306000Y-9084000D01*
X4306000Y-9338000D02*
X4356000Y-9288000D01*
X4306000Y-9238000D01*
X4256000Y-9288000D01*
X4306000Y-9338000D01*
X4306000Y-9592000D02*
X4356000Y-9542000D01*
X4306000Y-9492000D01*
X4256000Y-9542000D01*
X4306000Y-9592000D01*
X4306000Y-9846000D02*
X4356000Y-9796000D01*
X4306000Y-9746000D01*
X4256000Y-9796000D01*
X4306000Y-9846000D01*
X4306000Y-10100000D02*
X4356000Y-10050000D01*
X4306000Y-10000000D01*
X4256000Y-10050000D01*
X4306000Y-10100000D01*
X4628000Y-11244000D02*
X4678000Y-11194000D01*
X4628000Y-11144000D01*
X4578000Y-11194000D01*
X4628000Y-11244000D01*
X4882000Y-11244000D02*
X4932000Y-11194000D01*
X4882000Y-11144000D01*
X4832000Y-11194000D01*
X4882000Y-11244000D01*
X5136000Y-11244000D02*
X5186000Y-11194000D01*
X5136000Y-11144000D01*
X5086000Y-11194000D01*
X5136000Y-11244000D01*
X5390000Y-11244000D02*
X5440000Y-11194000D01*
X5390000Y-11144000D01*
X5340000Y-11194000D01*
X5390000Y-11244000D01*
X5948000Y-12165000D02*
X5998000Y-12115000D01*
X5948000Y-12065000D01*
X5898000Y-12115000D01*
X5948000Y-12165000D01*
X5948000Y-12419000D02*
X5998000Y-12369000D01*
X5948000Y-12319000D01*
X5898000Y-12369000D01*
X5948000Y-12419000D01*
X5948000Y-12673000D02*
X5998000Y-12623000D01*
X5948000Y-12573000D01*
X5898000Y-12623000D01*
X5948000Y-12673000D01*
X6066000Y-5852000D02*
X6116000Y-5802000D01*
X6066000Y-5752000D01*
X6016000Y-5802000D01*
X6066000Y-5852000D01*
X6066000Y-6106000D02*
X6116000Y-6056000D01*
X6066000Y-6006000D01*
X6016000Y-6056000D01*
X6066000Y-6106000D01*
X6066000Y-6360000D02*
X6116000Y-6310000D01*
X6066000Y-6260000D01*
X6016000Y-6310000D01*
X6066000Y-6360000D01*
X6070000Y-7026000D02*
X6120000Y-6976000D01*
X6070000Y-6926000D01*
X6020000Y-6976000D01*
X6070000Y-7026000D01*
X6070000Y-7280000D02*
X6120000Y-7230000D01*
X6070000Y-7180000D01*
X6020000Y-7230000D01*
X6070000Y-7280000D01*
X6070000Y-7534000D02*
X6120000Y-7484000D01*
X6070000Y-7434000D01*
X6020000Y-7484000D01*
X6070000Y-7534000D01*
X6608000Y-12424000D02*
X6658000Y-12374000D01*
X6608000Y-12324000D01*
X6558000Y-12374000D01*
X6608000Y-12424000D01*
X6608000Y-12678000D02*
X6658000Y-12628000D01*
X6608000Y-12578000D01*
X6558000Y-12628000D01*
X6608000Y-12678000D01*
X6850000Y-11402000D02*
X6900000Y-11352000D01*
X6850000Y-11302000D01*
X6800000Y-11352000D01*
X6850000Y-11402000D01*
X6850000Y-11656000D02*
X6900000Y-11606000D01*
X6850000Y-11556000D01*
X6800000Y-11606000D01*
X6850000Y-11656000D01*
X7370000Y-11402000D02*
X7420000Y-11352000D01*
X7370000Y-11302000D01*
X7320000Y-11352000D01*
X7370000Y-11402000D01*
X7370000Y-11656000D02*
X7420000Y-11606000D01*
X7370000Y-11556000D01*
X7320000Y-11606000D01*
X7370000Y-11656000D01*
X7891000Y-11402000D02*
X7941000Y-11352000D01*
X7891000Y-11302000D01*
X7841000Y-11352000D01*
X7891000Y-11402000D01*
X7891000Y-11656000D02*
X7941000Y-11606000D01*
X7891000Y-11556000D01*
X7841000Y-11606000D01*
X7891000Y-11656000D01*
X8162000Y-3833000D02*
X8212000Y-3783000D01*
X8162000Y-3733000D01*
X8112000Y-3783000D01*
X8162000Y-3833000D01*
X8162000Y-4087000D02*
X8212000Y-4037000D01*
X8162000Y-3987000D01*
X8112000Y-4037000D01*
X8162000Y-4087000D01*
X8162000Y-4341000D02*
X8212000Y-4291000D01*
X8162000Y-4241000D01*
X8112000Y-4291000D01*
X8162000Y-4341000D01*
X8162000Y-4595000D02*
X8212000Y-4545000D01*
X8162000Y-4495000D01*
X8112000Y-4545000D01*
X8162000Y-4595000D01*
X8427000Y-11402000D02*
X8477000Y-11352000D01*
X8427000Y-11302000D01*
X8377000Y-11352000D01*
X8427000Y-11402000D01*
X8427000Y-11656000D02*
X8477000Y-11606000D01*
X8427000Y-11556000D01*
X8377000Y-11606000D01*
X8427000Y-11656000D01*
X9192000Y-3838000D02*
X9242000Y-3788000D01*
X9192000Y-3738000D01*
X9142000Y-3788000D01*
X9192000Y-3838000D01*
X9192000Y-4092000D02*
X9242000Y-4042000D01*
X9192000Y-3992000D01*
X9142000Y-4042000D01*
X9192000Y-4092000D01*
X9192000Y-4346000D02*
X9242000Y-4296000D01*
X9192000Y-4246000D01*
X9142000Y-4296000D01*
X9192000Y-4346000D01*
X9192000Y-4600000D02*
X9242000Y-4550000D01*
X9192000Y-4500000D01*
X9142000Y-4550000D01*
X9192000Y-4600000D01*
X9386000Y-11415000D02*
X9436000Y-11365000D01*
X9386000Y-11315000D01*
X9336000Y-11365000D01*
X9386000Y-11415000D01*
X9386000Y-11669000D02*
X9436000Y-11619000D01*
X9386000Y-11569000D01*
X9336000Y-11619000D01*
X9386000Y-11669000D01*
X9386000Y-11923000D02*
X9436000Y-11873000D01*
X9386000Y-11823000D01*
X9336000Y-11873000D01*
X9386000Y-11923000D01*
X9590000Y-5346000D02*
X9640000Y-5296000D01*
X9590000Y-5246000D01*
X9540000Y-5296000D01*
X9590000Y-5346000D01*
X9844000Y-5346000D02*
X9894000Y-5296000D01*
X9844000Y-5246000D01*
X9794000Y-5296000D01*
X9844000Y-5346000D01*
X10081000Y-3843000D02*
X10131000Y-3793000D01*
X10081000Y-3743000D01*
X10031000Y-3793000D01*
X10081000Y-3843000D01*
X10081000Y-4097000D02*
X10131000Y-4047000D01*
X10081000Y-3997000D01*
X10031000Y-4047000D01*
X10081000Y-4097000D01*
X10081000Y-4351000D02*
X10131000Y-4301000D01*
X10081000Y-4251000D01*
X10031000Y-4301000D01*
X10081000Y-4351000D01*
X10081000Y-4605000D02*
X10131000Y-4555000D01*
X10081000Y-4505000D01*
X10031000Y-4555000D01*
X10081000Y-4605000D01*
X10129000Y-12875000D02*
X10179000Y-12825000D01*
X10129000Y-12775000D01*
X10079000Y-12825000D01*
X10129000Y-12875000D01*
X10367000Y-11415000D02*
X10417000Y-11365000D01*
X10367000Y-11315000D01*
X10317000Y-11365000D01*
X10367000Y-11415000D01*
X10367000Y-11669000D02*
X10417000Y-11619000D01*
X10367000Y-11569000D01*
X10317000Y-11619000D01*
X10367000Y-11669000D01*
X10367000Y-11923000D02*
X10417000Y-11873000D01*
X10367000Y-11823000D01*
X10317000Y-11873000D01*
X10367000Y-11923000D01*
X10383000Y-12875000D02*
X10433000Y-12825000D01*
X10383000Y-12775000D01*
X10333000Y-12825000D01*
X10383000Y-12875000D01*
X10678000Y-5350000D02*
X10728000Y-5300000D01*
X10678000Y-5250000D01*
X10628000Y-5300000D01*
X10678000Y-5350000D01*
X10906000Y-11420000D02*
X10956000Y-11370000D01*
X10906000Y-11320000D01*
X10856000Y-11370000D01*
X10906000Y-11420000D01*
X10906000Y-11674000D02*
X10956000Y-11624000D01*
X10906000Y-11574000D01*
X10856000Y-11624000D01*
X10906000Y-11674000D01*
X10906000Y-11928000D02*
X10956000Y-11878000D01*
X10906000Y-11828000D01*
X10856000Y-11878000D01*
X10906000Y-11928000D01*
X10932000Y-5350000D02*
X10982000Y-5300000D01*
X10932000Y-5250000D01*
X10882000Y-5300000D01*
X10932000Y-5350000D01*
X11102000Y-3848000D02*
X11152000Y-3798000D01*
X11102000Y-3748000D01*
X11052000Y-3798000D01*
X11102000Y-3848000D01*
X11102000Y-4102000D02*
X11152000Y-4052000D01*
X11102000Y-4002000D01*
X11052000Y-4052000D01*
X11102000Y-4102000D01*
X11102000Y-4356000D02*
X11152000Y-4306000D01*
X11102000Y-4256000D01*
X11052000Y-4306000D01*
X11102000Y-4356000D01*
X11102000Y-4610000D02*
X11152000Y-4560000D01*
X11102000Y-4510000D01*
X11052000Y-4560000D01*
X11102000Y-4610000D01*
X11112000Y-12890000D02*
X11162000Y-12840000D01*
X11112000Y-12790000D01*
X11062000Y-12840000D01*
X11112000Y-12890000D01*
X11366000Y-12890000D02*
X11416000Y-12840000D01*
X11366000Y-12790000D01*
X11316000Y-12840000D01*
X11366000Y-12890000D01*
X11526000Y-11420000D02*
X11576000Y-11370000D01*
X11526000Y-11320000D01*
X11476000Y-11370000D01*
X11526000Y-11420000D01*
X11526000Y-11674000D02*
X11576000Y-11624000D01*
X11526000Y-11574000D01*
X11476000Y-11624000D01*
X11526000Y-11674000D01*
X11526000Y-11928000D02*
X11576000Y-11878000D01*
X11526000Y-11828000D01*
X11476000Y-11878000D01*
X11526000Y-11928000D01*
X11911000Y-3841000D02*
X11961000Y-3791000D01*
X11911000Y-3741000D01*
X11861000Y-3791000D01*
X11911000Y-3841000D01*
X11911000Y-4095000D02*
X11961000Y-4045000D01*
X11911000Y-3995000D01*
X11861000Y-4045000D01*
X11911000Y-4095000D01*
X11911000Y-4349000D02*
X11961000Y-4299000D01*
X11911000Y-4249000D01*
X11861000Y-4299000D01*
X11911000Y-4349000D01*
X11911000Y-4603000D02*
X11961000Y-4553000D01*
X11911000Y-4503000D01*
X11861000Y-4553000D01*
X11911000Y-4603000D01*
X12252000Y-11438000D02*
X12302000Y-11388000D01*
X12252000Y-11338000D01*
X12202000Y-11388000D01*
X12252000Y-11438000D01*
X12252000Y-11692000D02*
X12302000Y-11642000D01*
X12252000Y-11592000D01*
X12202000Y-11642000D01*
X12252000Y-11692000D01*
X12252000Y-11946000D02*
X12302000Y-11896000D01*
X12252000Y-11846000D01*
X12202000Y-11896000D01*
X12252000Y-11946000D01*
X12252000Y-12200000D02*
X12302000Y-12150000D01*
X12252000Y-12100000D01*
X12202000Y-12150000D01*
X12252000Y-12200000D01*
X12566000Y-3839000D02*
X12616000Y-3789000D01*
X12566000Y-3739000D01*
X12516000Y-3789000D01*
X12566000Y-3839000D01*
X12566000Y-4093000D02*
X12616000Y-4043000D01*
X12566000Y-3993000D01*
X12516000Y-4043000D01*
X12566000Y-4093000D01*
X12566000Y-4347000D02*
X12616000Y-4297000D01*
X12566000Y-4247000D01*
X12516000Y-4297000D01*
X12566000Y-4347000D01*
X12566000Y-4601000D02*
X12616000Y-4551000D01*
X12566000Y-4501000D01*
X12516000Y-4551000D01*
X12566000Y-4601000D01*
X13220000Y-3839000D02*
X13270000Y-3789000D01*
X13220000Y-3739000D01*
X13170000Y-3789000D01*
X13220000Y-3839000D01*
X13220000Y-4093000D02*
X13270000Y-4043000D01*
X13220000Y-3993000D01*
X13170000Y-4043000D01*
X13220000Y-4093000D01*
X13220000Y-4347000D02*
X13270000Y-4297000D01*
X13220000Y-4247000D01*
X13170000Y-4297000D01*
X13220000Y-4347000D01*
X13220000Y-4601000D02*
X13270000Y-4551000D01*
X13220000Y-4501000D01*
X13170000Y-4551000D01*
X13220000Y-4601000D01*
X13282000Y-11438000D02*
X13332000Y-11388000D01*
X13282000Y-11338000D01*
X13232000Y-11388000D01*
X13282000Y-11438000D01*
X13282000Y-11692000D02*
X13332000Y-11642000D01*
X13282000Y-11592000D01*
X13232000Y-11642000D01*
X13282000Y-11692000D01*
X13282000Y-11946000D02*
X13332000Y-11896000D01*
X13282000Y-11846000D01*
X13232000Y-11896000D01*
X13282000Y-11946000D01*
X13282000Y-12200000D02*
X13332000Y-12150000D01*
X13282000Y-12100000D01*
X13232000Y-12150000D01*
X13282000Y-12200000D01*
X13864000Y-3839000D02*
X13914000Y-3789000D01*
X13864000Y-3739000D01*
X13814000Y-3789000D01*
X13864000Y-3839000D01*
X13864000Y-4093000D02*
X13914000Y-4043000D01*
X13864000Y-3993000D01*
X13814000Y-4043000D01*
X13864000Y-4093000D01*
X13864000Y-4347000D02*
X13914000Y-4297000D01*
X13864000Y-4247000D01*
X13814000Y-4297000D01*
X13864000Y-4347000D01*
X13864000Y-4601000D02*
X13914000Y-4551000D01*
X13864000Y-4501000D01*
X13814000Y-4551000D01*
X13864000Y-4601000D01*
X14270000Y-11446000D02*
X14320000Y-11396000D01*
X14270000Y-11346000D01*
X14220000Y-11396000D01*
X14270000Y-11446000D01*
X14270000Y-11700000D02*
X14320000Y-11650000D01*
X14270000Y-11600000D01*
X14220000Y-11650000D01*
X14270000Y-11700000D01*
X14270000Y-11954000D02*
X14320000Y-11904000D01*
X14270000Y-11854000D01*
X14220000Y-11904000D01*
X14270000Y-11954000D01*
X14270000Y-12208000D02*
X14320000Y-12158000D01*
X14270000Y-12108000D01*
X14220000Y-12158000D01*
X14270000Y-12208000D01*
X14752000Y-3833000D02*
X14802000Y-3783000D01*
X14752000Y-3733000D01*
X14702000Y-3783000D01*
X14752000Y-3833000D01*
X14752000Y-4087000D02*
X14802000Y-4037000D01*
X14752000Y-3987000D01*
X14702000Y-4037000D01*
X14752000Y-4087000D01*
X14752000Y-4341000D02*
X14802000Y-4291000D01*
X14752000Y-4241000D01*
X14702000Y-4291000D01*
X14752000Y-4341000D01*
X14752000Y-4595000D02*
X14802000Y-4545000D01*
X14752000Y-4495000D01*
X14702000Y-4545000D01*
X14752000Y-4595000D01*
X14752000Y-4849000D02*
X14802000Y-4799000D01*
X14752000Y-4749000D01*
X14702000Y-4799000D01*
X14752000Y-4849000D01*
X15257000Y-3841000D02*
X15307000Y-3791000D01*
X15257000Y-3741000D01*
X15207000Y-3791000D01*
X15257000Y-3841000D01*
X15257000Y-4095000D02*
X15307000Y-4045000D01*
X15257000Y-3995000D01*
X15207000Y-4045000D01*
X15257000Y-4095000D01*
X15257000Y-4349000D02*
X15307000Y-4299000D01*
X15257000Y-4249000D01*
X15207000Y-4299000D01*
X15257000Y-4349000D01*
X15257000Y-4603000D02*
X15307000Y-4553000D01*
X15257000Y-4503000D01*
X15207000Y-4553000D01*
X15257000Y-4603000D01*
X15257000Y-4857000D02*
X15307000Y-4807000D01*
X15257000Y-4757000D01*
X15207000Y-4807000D01*
X15257000Y-4857000D01*
X15575000Y-12305000D02*
X15625000Y-12255000D01*
X15575000Y-12205000D01*
X15525000Y-12255000D01*
X15575000Y-12305000D01*
X15575000Y-12559000D02*
X15625000Y-12509000D01*
X15575000Y-12459000D01*
X15525000Y-12509000D01*
X15575000Y-12559000D01*
X15575000Y-12813000D02*
X15625000Y-12763000D01*
X15575000Y-12713000D01*
X15525000Y-12763000D01*
X15575000Y-12813000D01*
X15580000Y-11301000D02*
X15630000Y-11251000D01*
X15580000Y-11201000D01*
X15530000Y-11251000D01*
X15580000Y-11301000D01*
X15580000Y-11555000D02*
X15630000Y-11505000D01*
X15580000Y-11455000D01*
X15530000Y-11505000D01*
X15580000Y-11555000D01*
X15580000Y-11809000D02*
X15630000Y-11759000D01*
X15580000Y-11709000D01*
X15530000Y-11759000D01*
X15580000Y-11809000D01*
X15771000Y-3841000D02*
X15821000Y-3791000D01*
X15771000Y-3741000D01*
X15721000Y-3791000D01*
X15771000Y-3841000D01*
X15771000Y-4095000D02*
X15821000Y-4045000D01*
X15771000Y-3995000D01*
X15721000Y-4045000D01*
X15771000Y-4095000D01*
X15771000Y-4349000D02*
X15821000Y-4299000D01*
X15771000Y-4249000D01*
X15721000Y-4299000D01*
X15771000Y-4349000D01*
X15771000Y-4603000D02*
X15821000Y-4553000D01*
X15771000Y-4503000D01*
X15721000Y-4553000D01*
X15771000Y-4603000D01*
X15771000Y-4857000D02*
X15821000Y-4807000D01*
X15771000Y-4757000D01*
X15721000Y-4807000D01*
X15771000Y-4857000D01*
X16277000Y-3849000D02*
X16327000Y-3799000D01*
X16277000Y-3749000D01*
X16227000Y-3799000D01*
X16277000Y-3849000D01*
X16277000Y-4103000D02*
X16327000Y-4053000D01*
X16277000Y-4003000D01*
X16227000Y-4053000D01*
X16277000Y-4103000D01*
X16277000Y-4357000D02*
X16327000Y-4307000D01*
X16277000Y-4257000D01*
X16227000Y-4307000D01*
X16277000Y-4357000D01*
X16277000Y-4611000D02*
X16327000Y-4561000D01*
X16277000Y-4511000D01*
X16227000Y-4561000D01*
X16277000Y-4611000D01*
X16277000Y-4865000D02*
X16327000Y-4815000D01*
X16277000Y-4765000D01*
X16227000Y-4815000D01*
X16277000Y-4865000D01*
X16342000Y-11436000D02*
X16392000Y-11386000D01*
X16342000Y-11336000D01*
X16292000Y-11386000D01*
X16342000Y-11436000D01*
X16342000Y-11690000D02*
X16392000Y-11640000D01*
X16342000Y-11590000D01*
X16292000Y-11640000D01*
X16342000Y-11690000D01*
X16342000Y-11944000D02*
X16392000Y-11894000D01*
X16342000Y-11844000D01*
X16292000Y-11894000D01*
X16342000Y-11944000D01*
X17970000Y-10439000D02*
X18020000Y-10389000D01*
X17970000Y-10339000D01*
X17920000Y-10389000D01*
X17970000Y-10439000D01*
X17970000Y-10693000D02*
X18020000Y-10643000D01*
X17970000Y-10593000D01*
X17920000Y-10643000D01*
X17970000Y-10693000D01*
X17970000Y-10947000D02*
X18020000Y-10897000D01*
X17970000Y-10847000D01*
X17920000Y-10897000D01*
X17970000Y-10947000D01*
X17970000Y-11201000D02*
X18020000Y-11151000D01*
X17970000Y-11101000D01*
X17920000Y-11151000D01*
X17970000Y-11201000D01*
X17970000Y-11455000D02*
X18020000Y-11405000D01*
X17970000Y-11355000D01*
X17920000Y-11405000D01*
X17970000Y-11455000D01*
X18016000Y-5189000D02*
X18066000Y-5139000D01*
X18016000Y-5089000D01*
X17966000Y-5139000D01*
X18016000Y-5189000D01*
X18016000Y-5443000D02*
X18066000Y-5393000D01*
X18016000Y-5343000D01*
X17966000Y-5393000D01*
X18016000Y-5443000D01*
X18016000Y-5697000D02*
X18066000Y-5647000D01*
X18016000Y-5597000D01*
X17966000Y-5647000D01*
X18016000Y-5697000D01*
X18720000Y-4995000D02*
X18770000Y-4945000D01*
X18720000Y-4895000D01*
X18670000Y-4945000D01*
X18720000Y-4995000D01*
X18720000Y-5249000D02*
X18770000Y-5199000D01*
X18720000Y-5149000D01*
X18670000Y-5199000D01*
X18720000Y-5249000D01*
X18720000Y-5503000D02*
X18770000Y-5453000D01*
X18720000Y-5403000D01*
X18670000Y-5453000D01*
X18720000Y-5503000D01*
X18720000Y-5757000D02*
X18770000Y-5707000D01*
X18720000Y-5657000D01*
X18670000Y-5707000D01*
X18720000Y-5757000D01*
X18720000Y-6011000D02*
X18770000Y-5961000D01*
X18720000Y-5911000D01*
X18670000Y-5961000D01*
X18720000Y-6011000D01*
X18854000Y-10431000D02*
X18904000Y-10381000D01*
X18854000Y-10331000D01*
X18804000Y-10381000D01*
X18854000Y-10431000D01*
X18854000Y-10685000D02*
X18904000Y-10635000D01*
X18854000Y-10585000D01*
X18804000Y-10635000D01*
X18854000Y-10685000D01*
X18854000Y-10939000D02*
X18904000Y-10889000D01*
X18854000Y-10839000D01*
X18804000Y-10889000D01*
X18854000Y-10939000D01*
X18854000Y-11193000D02*
X18904000Y-11143000D01*
X18854000Y-11093000D01*
X18804000Y-11143000D01*
X18854000Y-11193000D01*
X18854000Y-11447000D02*
X18904000Y-11397000D01*
X18854000Y-11347000D01*
X18804000Y-11397000D01*
X18854000Y-11447000D01*
X4931962Y-11921978D02*
X5032038Y-12022054D01*
X5032038Y-11921978D02*
X4931962Y-12022054D01*
X5032038Y-11972016D02*
G75*
G03*
X5032038Y-11972016I-50038J0D01*
G01*
X4931962Y-12681946D02*
X5032038Y-12782022D01*
X5032038Y-12681946D02*
X4931962Y-12782022D01*
X5032038Y-12731984D02*
G75*
G03*
X5032038Y-12731984I-50038J0D01*
G01*
X8533800Y-5874200D02*
X8635400Y-5975800D01*
X8635400Y-5874200D02*
X8533800Y-5975800D01*
X8584600Y-5874200D02*
X8584600Y-5975800D01*
X8533800Y-5925000D02*
X8635400Y-5925000D01*
X8787800Y-5874200D02*
X8889400Y-5975800D01*
X8889400Y-5874200D02*
X8787800Y-5975800D01*
X8838600Y-5874200D02*
X8838600Y-5975800D01*
X8787800Y-5925000D02*
X8889400Y-5925000D01*
X9041800Y-5874200D02*
X9143400Y-5975800D01*
X9143400Y-5874200D02*
X9041800Y-5975800D01*
X9092600Y-5874200D02*
X9092600Y-5975800D01*
X9041800Y-5925000D02*
X9143400Y-5925000D01*
X9295800Y-5874200D02*
X9397400Y-5975800D01*
X9397400Y-5874200D02*
X9295800Y-5975800D01*
X9346600Y-5874200D02*
X9346600Y-5975800D01*
X9295800Y-5925000D02*
X9397400Y-5925000D01*
X9448200Y-10700200D02*
X9549800Y-10801800D01*
X9549800Y-10700200D02*
X9448200Y-10801800D01*
X9499000Y-10700200D02*
X9499000Y-10801800D01*
X9448200Y-10751000D02*
X9549800Y-10751000D01*
X9549800Y-5874200D02*
X9651400Y-5975800D01*
X9651400Y-5874200D02*
X9549800Y-5975800D01*
X9600600Y-5874200D02*
X9600600Y-5975800D01*
X9549800Y-5925000D02*
X9651400Y-5925000D01*
X9702200Y-10700200D02*
X9803800Y-10801800D01*
X9803800Y-10700200D02*
X9702200Y-10801800D01*
X9753000Y-10700200D02*
X9753000Y-10801800D01*
X9702200Y-10751000D02*
X9803800Y-10751000D01*
X9803800Y-5874200D02*
X9905400Y-5975800D01*
X9905400Y-5874200D02*
X9803800Y-5975800D01*
X9854600Y-5874200D02*
X9854600Y-5975800D01*
X9803800Y-5925000D02*
X9905400Y-5925000D01*
X9956200Y-10700200D02*
X10057800Y-10801800D01*
X10057800Y-10700200D02*
X9956200Y-10801800D01*
X10007000Y-10700200D02*
X10007000Y-10801800D01*
X9956200Y-10751000D02*
X10057800Y-10751000D01*
X10057800Y-5874200D02*
X10159400Y-5975800D01*
X10159400Y-5874200D02*
X10057800Y-5975800D01*
X10108600Y-5874200D02*
X10108600Y-5975800D01*
X10057800Y-5925000D02*
X10159400Y-5925000D01*
X10210200Y-10700200D02*
X10311800Y-10801800D01*
X10311800Y-10700200D02*
X10210200Y-10801800D01*
X10261000Y-10700200D02*
X10261000Y-10801800D01*
X10210200Y-10751000D02*
X10311800Y-10751000D01*
X10311800Y-5874200D02*
X10413400Y-5975800D01*
X10413400Y-5874200D02*
X10311800Y-5975800D01*
X10362600Y-5874200D02*
X10362600Y-5975800D01*
X10311800Y-5925000D02*
X10413400Y-5925000D01*
X10464200Y-10700200D02*
X10565800Y-10801800D01*
X10565800Y-10700200D02*
X10464200Y-10801800D01*
X10515000Y-10700200D02*
X10515000Y-10801800D01*
X10464200Y-10751000D02*
X10565800Y-10751000D01*
X10565800Y-5874200D02*
X10667400Y-5975800D01*
X10667400Y-5874200D02*
X10565800Y-5975800D01*
X10616600Y-5874200D02*
X10616600Y-5975800D01*
X10565800Y-5925000D02*
X10667400Y-5925000D01*
X10718200Y-10700200D02*
X10819800Y-10801800D01*
X10819800Y-10700200D02*
X10718200Y-10801800D01*
X10769000Y-10700200D02*
X10769000Y-10801800D01*
X10718200Y-10751000D02*
X10819800Y-10751000D01*
X10819800Y-5874200D02*
X10921400Y-5975800D01*
X10921400Y-5874200D02*
X10819800Y-5975800D01*
X10870600Y-5874200D02*
X10870600Y-5975800D01*
X10819800Y-5925000D02*
X10921400Y-5925000D01*
X10972200Y-10700200D02*
X11073800Y-10801800D01*
X11073800Y-10700200D02*
X10972200Y-10801800D01*
X11023000Y-10700200D02*
X11023000Y-10801800D01*
X10972200Y-10751000D02*
X11073800Y-10751000D01*
X11226200Y-5874200D02*
X11327800Y-5975800D01*
X11327800Y-5874200D02*
X11226200Y-5975800D01*
X11277000Y-5874200D02*
X11277000Y-5975800D01*
X11226200Y-5925000D02*
X11327800Y-5925000D01*
X11226200Y-10700200D02*
X11327800Y-10801800D01*
X11327800Y-10700200D02*
X11226200Y-10801800D01*
X11277000Y-10700200D02*
X11277000Y-10801800D01*
X11226200Y-10751000D02*
X11327800Y-10751000D01*
X11480200Y-5874200D02*
X11581800Y-5975800D01*
X11581800Y-5874200D02*
X11480200Y-5975800D01*
X11531000Y-5874200D02*
X11531000Y-5975800D01*
X11480200Y-5925000D02*
X11581800Y-5925000D01*
X11734200Y-5874200D02*
X11835800Y-5975800D01*
X11835800Y-5874200D02*
X11734200Y-5975800D01*
X11785000Y-5874200D02*
X11785000Y-5975800D01*
X11734200Y-5925000D02*
X11835800Y-5925000D01*
X11734200Y-10700200D02*
X11835800Y-10801800D01*
X11835800Y-10700200D02*
X11734200Y-10801800D01*
X11785000Y-10700200D02*
X11785000Y-10801800D01*
X11734200Y-10751000D02*
X11835800Y-10751000D01*
X11988200Y-5874200D02*
X12089800Y-5975800D01*
X12089800Y-5874200D02*
X11988200Y-5975800D01*
X12039000Y-5874200D02*
X12039000Y-5975800D01*
X11988200Y-5925000D02*
X12089800Y-5925000D01*
X11988200Y-10700200D02*
X12089800Y-10801800D01*
X12089800Y-10700200D02*
X11988200Y-10801800D01*
X12039000Y-10700200D02*
X12039000Y-10801800D01*
X11988200Y-10751000D02*
X12089800Y-10751000D01*
X12242200Y-5874200D02*
X12343800Y-5975800D01*
X12343800Y-5874200D02*
X12242200Y-5975800D01*
X12293000Y-5874200D02*
X12293000Y-5975800D01*
X12242200Y-5925000D02*
X12343800Y-5925000D01*
X12242200Y-10700200D02*
X12343800Y-10801800D01*
X12343800Y-10700200D02*
X12242200Y-10801800D01*
X12293000Y-10700200D02*
X12293000Y-10801800D01*
X12242200Y-10751000D02*
X12343800Y-10751000D01*
X12496200Y-5874200D02*
X12597800Y-5975800D01*
X12597800Y-5874200D02*
X12496200Y-5975800D01*
X12547000Y-5874200D02*
X12547000Y-5975800D01*
X12496200Y-5925000D02*
X12597800Y-5925000D01*
X12496200Y-10700200D02*
X12597800Y-10801800D01*
X12597800Y-10700200D02*
X12496200Y-10801800D01*
X12547000Y-10700200D02*
X12547000Y-10801800D01*
X12496200Y-10751000D02*
X12597800Y-10751000D01*
X12750200Y-5874200D02*
X12851800Y-5975800D01*
X12851800Y-5874200D02*
X12750200Y-5975800D01*
X12801000Y-5874200D02*
X12801000Y-5975800D01*
X12750200Y-5925000D02*
X12851800Y-5925000D01*
X12750200Y-10700200D02*
X12851800Y-10801800D01*
X12851800Y-10700200D02*
X12750200Y-10801800D01*
X12801000Y-10700200D02*
X12801000Y-10801800D01*
X12750200Y-10751000D02*
X12851800Y-10751000D01*
X13004200Y-5874200D02*
X13105800Y-5975800D01*
X13105800Y-5874200D02*
X13004200Y-5975800D01*
X13055000Y-5874200D02*
X13055000Y-5975800D01*
X13004200Y-5925000D02*
X13105800Y-5925000D01*
X13004200Y-10700200D02*
X13105800Y-10801800D01*
X13105800Y-10700200D02*
X13004200Y-10801800D01*
X13055000Y-10700200D02*
X13055000Y-10801800D01*
X13004200Y-10751000D02*
X13105800Y-10751000D01*
X13016900Y-7906200D02*
X13118500Y-8007800D01*
X13118500Y-7906200D02*
X13016900Y-8007800D01*
X13067700Y-7906200D02*
X13067700Y-8007800D01*
X13016900Y-7957000D02*
X13118500Y-7957000D01*
X13016900Y-8160200D02*
X13118500Y-8261800D01*
X13118500Y-8160200D02*
X13016900Y-8261800D01*
X13067700Y-8160200D02*
X13067700Y-8261800D01*
X13016900Y-8211000D02*
X13118500Y-8211000D01*
X13016900Y-8414200D02*
X13118500Y-8515800D01*
X13118500Y-8414200D02*
X13016900Y-8515800D01*
X13067700Y-8414200D02*
X13067700Y-8515800D01*
X13016900Y-8465000D02*
X13118500Y-8465000D01*
X13258200Y-10700200D02*
X13359800Y-10801800D01*
X13359800Y-10700200D02*
X13258200Y-10801800D01*
X13309000Y-10700200D02*
X13309000Y-10801800D01*
X13258200Y-10751000D02*
X13359800Y-10751000D01*
X13270900Y-7906200D02*
X13372500Y-8007800D01*
X13372500Y-7906200D02*
X13270900Y-8007800D01*
X13321700Y-7906200D02*
X13321700Y-8007800D01*
X13270900Y-7957000D02*
X13372500Y-7957000D01*
X13270900Y-8160200D02*
X13372500Y-8261800D01*
X13372500Y-8160200D02*
X13270900Y-8261800D01*
X13321700Y-8160200D02*
X13321700Y-8261800D01*
X13270900Y-8211000D02*
X13372500Y-8211000D01*
X13270900Y-8414200D02*
X13372500Y-8515800D01*
X13372500Y-8414200D02*
X13270900Y-8515800D01*
X13321700Y-8414200D02*
X13321700Y-8515800D01*
X13270900Y-8465000D02*
X13372500Y-8465000D01*
X13512200Y-5874200D02*
X13613800Y-5975800D01*
X13613800Y-5874200D02*
X13512200Y-5975800D01*
X13563000Y-5874200D02*
X13563000Y-5975800D01*
X13512200Y-5925000D02*
X13613800Y-5925000D01*
X13512200Y-10700200D02*
X13613800Y-10801800D01*
X13613800Y-10700200D02*
X13512200Y-10801800D01*
X13563000Y-10700200D02*
X13563000Y-10801800D01*
X13512200Y-10751000D02*
X13613800Y-10751000D01*
X13766200Y-5874200D02*
X13867800Y-5975800D01*
X13867800Y-5874200D02*
X13766200Y-5975800D01*
X13817000Y-5874200D02*
X13817000Y-5975800D01*
X13766200Y-5925000D02*
X13867800Y-5925000D01*
X14020200Y-5874200D02*
X14121800Y-5975800D01*
X14121800Y-5874200D02*
X14020200Y-5975800D01*
X14071000Y-5874200D02*
X14071000Y-5975800D01*
X14020200Y-5925000D02*
X14121800Y-5925000D01*
X14020200Y-10700200D02*
X14121800Y-10801800D01*
X14121800Y-10700200D02*
X14020200Y-10801800D01*
X14071000Y-10700200D02*
X14071000Y-10801800D01*
X14020200Y-10751000D02*
X14121800Y-10751000D01*
X14274200Y-5874200D02*
X14375800Y-5975800D01*
X14375800Y-5874200D02*
X14274200Y-5975800D01*
X14325000Y-5874200D02*
X14325000Y-5975800D01*
X14274200Y-5925000D02*
X14375800Y-5925000D01*
X14274200Y-10700200D02*
X14375800Y-10801800D01*
X14375800Y-10700200D02*
X14274200Y-10801800D01*
X14325000Y-10700200D02*
X14325000Y-10801800D01*
X14274200Y-10751000D02*
X14375800Y-10751000D01*
X14528200Y-5874200D02*
X14629800Y-5975800D01*
X14629800Y-5874200D02*
X14528200Y-5975800D01*
X14579000Y-5874200D02*
X14579000Y-5975800D01*
X14528200Y-5925000D02*
X14629800Y-5925000D01*
X14528200Y-10700200D02*
X14629800Y-10801800D01*
X14629800Y-10700200D02*
X14528200Y-10801800D01*
X14579000Y-10700200D02*
X14579000Y-10801800D01*
X14528200Y-10751000D02*
X14629800Y-10751000D01*
X14782200Y-5874200D02*
X14883800Y-5975800D01*
X14883800Y-5874200D02*
X14782200Y-5975800D01*
X14833000Y-5874200D02*
X14833000Y-5975800D01*
X14782200Y-5925000D02*
X14883800Y-5925000D01*
X14782200Y-10700200D02*
X14883800Y-10801800D01*
X14883800Y-10700200D02*
X14782200Y-10801800D01*
X14833000Y-10700200D02*
X14833000Y-10801800D01*
X14782200Y-10751000D02*
X14883800Y-10751000D01*
X15036200Y-5874200D02*
X15137800Y-5975800D01*
X15137800Y-5874200D02*
X15036200Y-5975800D01*
X15087000Y-5874200D02*
X15087000Y-5975800D01*
X15036200Y-5925000D02*
X15137800Y-5925000D01*
X15036200Y-10700200D02*
X15137800Y-10801800D01*
X15137800Y-10700200D02*
X15036200Y-10801800D01*
X15087000Y-10700200D02*
X15087000Y-10801800D01*
X15036200Y-10751000D02*
X15137800Y-10751000D01*
X15290200Y-5874200D02*
X15391800Y-5975800D01*
X15391800Y-5874200D02*
X15290200Y-5975800D01*
X15341000Y-5874200D02*
X15341000Y-5975800D01*
X15290200Y-5925000D02*
X15391800Y-5925000D01*
X15290200Y-10700200D02*
X15391800Y-10801800D01*
X15391800Y-10700200D02*
X15290200Y-10801800D01*
X15341000Y-10700200D02*
X15341000Y-10801800D01*
X15290200Y-10751000D02*
X15391800Y-10751000D01*
X15544200Y-10700200D02*
X15645800Y-10801800D01*
X15645800Y-10700200D02*
X15544200Y-10801800D01*
X15595000Y-10700200D02*
X15595000Y-10801800D01*
X15544200Y-10751000D02*
X15645800Y-10751000D01*
X15798200Y-10700200D02*
X15899800Y-10801800D01*
X15899800Y-10700200D02*
X15798200Y-10801800D01*
X15849000Y-10700200D02*
X15849000Y-10801800D01*
X15798200Y-10751000D02*
X15899800Y-10751000D01*
X16052200Y-5874200D02*
X16153800Y-5975800D01*
X16153800Y-5874200D02*
X16052200Y-5975800D01*
X16103000Y-5874200D02*
X16103000Y-5975800D01*
X16052200Y-5925000D02*
X16153800Y-5925000D01*
X16052200Y-6128200D02*
X16153800Y-6229800D01*
X16153800Y-6128200D02*
X16052200Y-6229800D01*
X16103000Y-6128200D02*
X16103000Y-6229800D01*
X16052200Y-6179000D02*
X16153800Y-6179000D01*
X16052200Y-6382200D02*
X16153800Y-6483800D01*
X16153800Y-6382200D02*
X16052200Y-6483800D01*
X16103000Y-6382200D02*
X16103000Y-6483800D01*
X16052200Y-6433000D02*
X16153800Y-6433000D01*
X16052200Y-6636200D02*
X16153800Y-6737800D01*
X16153800Y-6636200D02*
X16052200Y-6737800D01*
X16103000Y-6636200D02*
X16103000Y-6737800D01*
X16052200Y-6687000D02*
X16153800Y-6687000D01*
X16052200Y-6890200D02*
X16153800Y-6991800D01*
X16153800Y-6890200D02*
X16052200Y-6991800D01*
X16103000Y-6890200D02*
X16103000Y-6991800D01*
X16052200Y-6941000D02*
X16153800Y-6941000D01*
X16052200Y-7144200D02*
X16153800Y-7245800D01*
X16153800Y-7144200D02*
X16052200Y-7245800D01*
X16103000Y-7144200D02*
X16103000Y-7245800D01*
X16052200Y-7195000D02*
X16153800Y-7195000D01*
X16052200Y-7398200D02*
X16153800Y-7499800D01*
X16153800Y-7398200D02*
X16052200Y-7499800D01*
X16103000Y-7398200D02*
X16103000Y-7499800D01*
X16052200Y-7449000D02*
X16153800Y-7449000D01*
X16052200Y-7652200D02*
X16153800Y-7753800D01*
X16153800Y-7652200D02*
X16052200Y-7753800D01*
X16103000Y-7652200D02*
X16103000Y-7753800D01*
X16052200Y-7703000D02*
X16153800Y-7703000D01*
X16052200Y-7906200D02*
X16153800Y-8007800D01*
X16153800Y-7906200D02*
X16052200Y-8007800D01*
X16103000Y-7906200D02*
X16103000Y-8007800D01*
X16052200Y-7957000D02*
X16153800Y-7957000D01*
X16052200Y-8160200D02*
X16153800Y-8261800D01*
X16153800Y-8160200D02*
X16052200Y-8261800D01*
X16103000Y-8160200D02*
X16103000Y-8261800D01*
X16052200Y-8211000D02*
X16153800Y-8211000D01*
X16052200Y-8414200D02*
X16153800Y-8515800D01*
X16153800Y-8414200D02*
X16052200Y-8515800D01*
X16103000Y-8414200D02*
X16103000Y-8515800D01*
X16052200Y-8465000D02*
X16153800Y-8465000D01*
X16052200Y-8668200D02*
X16153800Y-8769800D01*
X16153800Y-8668200D02*
X16052200Y-8769800D01*
X16103000Y-8668200D02*
X16103000Y-8769800D01*
X16052200Y-8719000D02*
X16153800Y-8719000D01*
X16052200Y-8922200D02*
X16153800Y-9023800D01*
X16153800Y-8922200D02*
X16052200Y-9023800D01*
X16103000Y-8922200D02*
X16103000Y-9023800D01*
X16052200Y-8973000D02*
X16153800Y-8973000D01*
X16052200Y-9176200D02*
X16153800Y-9277800D01*
X16153800Y-9176200D02*
X16052200Y-9277800D01*
X16103000Y-9176200D02*
X16103000Y-9277800D01*
X16052200Y-9227000D02*
X16153800Y-9227000D01*
X16052200Y-9430200D02*
X16153800Y-9531800D01*
X16153800Y-9430200D02*
X16052200Y-9531800D01*
X16103000Y-9430200D02*
X16103000Y-9531800D01*
X16052200Y-9481000D02*
X16153800Y-9481000D01*
X16052200Y-9684200D02*
X16153800Y-9785800D01*
X16153800Y-9684200D02*
X16052200Y-9785800D01*
X16103000Y-9684200D02*
X16103000Y-9785800D01*
X16052200Y-9735000D02*
X16153800Y-9735000D01*
X16052200Y-9938200D02*
X16153800Y-10039800D01*
X16153800Y-9938200D02*
X16052200Y-10039800D01*
X16103000Y-9938200D02*
X16103000Y-10039800D01*
X16052200Y-9989000D02*
X16153800Y-9989000D01*
X16052200Y-10192200D02*
X16153800Y-10293800D01*
X16153800Y-10192200D02*
X16052200Y-10293800D01*
X16103000Y-10192200D02*
X16103000Y-10293800D01*
X16052200Y-10243000D02*
X16153800Y-10243000D01*
X16306200Y-5874200D02*
X16407800Y-5975800D01*
X16407800Y-5874200D02*
X16306200Y-5975800D01*
X16357000Y-5874200D02*
X16357000Y-5975800D01*
X16306200Y-5925000D02*
X16407800Y-5925000D01*
X16306200Y-6128200D02*
X16407800Y-6229800D01*
X16407800Y-6128200D02*
X16306200Y-6229800D01*
X16357000Y-6128200D02*
X16357000Y-6229800D01*
X16306200Y-6179000D02*
X16407800Y-6179000D01*
X16306200Y-6382200D02*
X16407800Y-6483800D01*
X16407800Y-6382200D02*
X16306200Y-6483800D01*
X16357000Y-6382200D02*
X16357000Y-6483800D01*
X16306200Y-6433000D02*
X16407800Y-6433000D01*
X16306200Y-6636200D02*
X16407800Y-6737800D01*
X16407800Y-6636200D02*
X16306200Y-6737800D01*
X16357000Y-6636200D02*
X16357000Y-6737800D01*
X16306200Y-6687000D02*
X16407800Y-6687000D01*
X16306200Y-6890200D02*
X16407800Y-6991800D01*
X16407800Y-6890200D02*
X16306200Y-6991800D01*
X16357000Y-6890200D02*
X16357000Y-6991800D01*
X16306200Y-6941000D02*
X16407800Y-6941000D01*
X16306200Y-7144200D02*
X16407800Y-7245800D01*
X16407800Y-7144200D02*
X16306200Y-7245800D01*
X16357000Y-7144200D02*
X16357000Y-7245800D01*
X16306200Y-7195000D02*
X16407800Y-7195000D01*
X16306200Y-7398200D02*
X16407800Y-7499800D01*
X16407800Y-7398200D02*
X16306200Y-7499800D01*
X16357000Y-7398200D02*
X16357000Y-7499800D01*
X16306200Y-7449000D02*
X16407800Y-7449000D01*
X16306200Y-7652200D02*
X16407800Y-7753800D01*
X16407800Y-7652200D02*
X16306200Y-7753800D01*
X16357000Y-7652200D02*
X16357000Y-7753800D01*
X16306200Y-7703000D02*
X16407800Y-7703000D01*
X16306200Y-7906200D02*
X16407800Y-8007800D01*
X16407800Y-7906200D02*
X16306200Y-8007800D01*
X16357000Y-7906200D02*
X16357000Y-8007800D01*
X16306200Y-7957000D02*
X16407800Y-7957000D01*
X16306200Y-8160200D02*
X16407800Y-8261800D01*
X16407800Y-8160200D02*
X16306200Y-8261800D01*
X16357000Y-8160200D02*
X16357000Y-8261800D01*
X16306200Y-8211000D02*
X16407800Y-8211000D01*
X16306200Y-8414200D02*
X16407800Y-8515800D01*
X16407800Y-8414200D02*
X16306200Y-8515800D01*
X16357000Y-8414200D02*
X16357000Y-8515800D01*
X16306200Y-8465000D02*
X16407800Y-8465000D01*
X16306200Y-8668200D02*
X16407800Y-8769800D01*
X16407800Y-8668200D02*
X16306200Y-8769800D01*
X16357000Y-8668200D02*
X16357000Y-8769800D01*
X16306200Y-8719000D02*
X16407800Y-8719000D01*
X16306200Y-8922200D02*
X16407800Y-9023800D01*
X16407800Y-8922200D02*
X16306200Y-9023800D01*
X16357000Y-8922200D02*
X16357000Y-9023800D01*
X16306200Y-8973000D02*
X16407800Y-8973000D01*
X16306200Y-9176200D02*
X16407800Y-9277800D01*
X16407800Y-9176200D02*
X16306200Y-9277800D01*
X16357000Y-9176200D02*
X16357000Y-9277800D01*
X16306200Y-9227000D02*
X16407800Y-9227000D01*
X16306200Y-9430200D02*
X16407800Y-9531800D01*
X16407800Y-9430200D02*
X16306200Y-9531800D01*
X16357000Y-9430200D02*
X16357000Y-9531800D01*
X16306200Y-9481000D02*
X16407800Y-9481000D01*
X16306200Y-9684200D02*
X16407800Y-9785800D01*
X16407800Y-9684200D02*
X16306200Y-9785800D01*
X16357000Y-9684200D02*
X16357000Y-9785800D01*
X16306200Y-9735000D02*
X16407800Y-9735000D01*
X16306200Y-9938200D02*
X16407800Y-10039800D01*
X16407800Y-9938200D02*
X16306200Y-10039800D01*
X16357000Y-9938200D02*
X16357000Y-10039800D01*
X16306200Y-9989000D02*
X16407800Y-9989000D01*
X16306200Y-10192200D02*
X16407800Y-10293800D01*
X16407800Y-10192200D02*
X16306200Y-10293800D01*
X16357000Y-10192200D02*
X16357000Y-10293800D01*
X16306200Y-10243000D02*
X16407800Y-10243000D01*
X5314000Y-4333000D02*
X5424000Y-4443000D01*
X5424000Y-4333000D02*
X5314000Y-4443000D01*
X5407891Y-4426891D02*
X5407891Y-4349109D01*
X5330109Y-4349109D01*
X5330109Y-4426891D01*
X5407891Y-4426891D01*
X5314000Y-5349000D02*
X5424000Y-5459000D01*
X5424000Y-5349000D02*
X5314000Y-5459000D01*
X5407891Y-5442891D02*
X5407891Y-5365109D01*
X5330109Y-5365109D01*
X5330109Y-5442891D01*
X5407891Y-5442891D01*
X5314000Y-5650000D02*
X5424000Y-5760000D01*
X5424000Y-5650000D02*
X5314000Y-5760000D01*
X5407891Y-5743891D02*
X5407891Y-5666109D01*
X5330109Y-5666109D01*
X5330109Y-5743891D01*
X5407891Y-5743891D01*
X5314000Y-6666000D02*
X5424000Y-6776000D01*
X5424000Y-6666000D02*
X5314000Y-6776000D01*
X5407891Y-6759891D02*
X5407891Y-6682109D01*
X5330109Y-6682109D01*
X5330109Y-6759891D01*
X5407891Y-6759891D01*
X5314000Y-6967000D02*
X5424000Y-7077000D01*
X5424000Y-6967000D02*
X5314000Y-7077000D01*
X5407891Y-7060891D02*
X5407891Y-6983109D01*
X5330109Y-6983109D01*
X5330109Y-7060891D01*
X5407891Y-7060891D01*
X5314000Y-7983000D02*
X5424000Y-8093000D01*
X5424000Y-7983000D02*
X5314000Y-8093000D01*
X5407891Y-8076891D02*
X5407891Y-7999109D01*
X5330109Y-7999109D01*
X5330109Y-8076891D01*
X5407891Y-8076891D01*
X17561000Y-11902000D02*
X17671000Y-12012000D01*
X17671000Y-11902000D02*
X17561000Y-12012000D01*
X17654891Y-11995891D02*
X17654891Y-11918109D01*
X17577109Y-11918109D01*
X17577109Y-11995891D01*
X17654891Y-11995891D01*
X17561000Y-12918000D02*
X17671000Y-13028000D01*
X17671000Y-12918000D02*
X17561000Y-13028000D01*
X17654891Y-13011891D02*
X17654891Y-12934109D01*
X17577109Y-12934109D01*
X17577109Y-13011891D01*
X17654891Y-13011891D01*
X17809000Y-8691000D02*
X17919000Y-8801000D01*
X17919000Y-8691000D02*
X17809000Y-8801000D01*
X17902891Y-8784891D02*
X17902891Y-8707109D01*
X17825109Y-8707109D01*
X17825109Y-8784891D01*
X17902891Y-8784891D01*
X17810000Y-8202000D02*
X17920000Y-8312000D01*
X17920000Y-8202000D02*
X17810000Y-8312000D01*
X17903891Y-8295891D02*
X17903891Y-8218109D01*
X17826109Y-8218109D01*
X17826109Y-8295891D01*
X17903891Y-8295891D01*
X17817000Y-9197000D02*
X17927000Y-9307000D01*
X17927000Y-9197000D02*
X17817000Y-9307000D01*
X17910891Y-9290891D02*
X17910891Y-9213109D01*
X17833109Y-9213109D01*
X17833109Y-9290891D01*
X17910891Y-9290891D01*
X17899000Y-3730000D02*
X18009000Y-3840000D01*
X18009000Y-3730000D02*
X17899000Y-3840000D01*
X17992891Y-3823891D02*
X17992891Y-3746109D01*
X17915109Y-3746109D01*
X17915109Y-3823891D01*
X17992891Y-3823891D01*
X17899000Y-4227000D02*
X18009000Y-4337000D01*
X18009000Y-4227000D02*
X17899000Y-4337000D01*
X17992891Y-4320891D02*
X17992891Y-4243109D01*
X17915109Y-4243109D01*
X17915109Y-4320891D01*
X17992891Y-4320891D01*
X18041000Y-11910000D02*
X18151000Y-12020000D01*
X18151000Y-11910000D02*
X18041000Y-12020000D01*
X18134891Y-12003891D02*
X18134891Y-11926109D01*
X18057109Y-11926109D01*
X18057109Y-12003891D01*
X18134891Y-12003891D01*
X18041000Y-12926000D02*
X18151000Y-13036000D01*
X18151000Y-12926000D02*
X18041000Y-13036000D01*
X18134891Y-13019891D02*
X18134891Y-12942109D01*
X18057109Y-12942109D01*
X18057109Y-13019891D01*
X18134891Y-13019891D01*
X18825000Y-8691000D02*
X18935000Y-8801000D01*
X18935000Y-8691000D02*
X18825000Y-8801000D01*
X18918891Y-8784891D02*
X18918891Y-8707109D01*
X18841109Y-8707109D01*
X18841109Y-8784891D01*
X18918891Y-8784891D01*
X18826000Y-8202000D02*
X18936000Y-8312000D01*
X18936000Y-8202000D02*
X18826000Y-8312000D01*
X18919891Y-8295891D02*
X18919891Y-8218109D01*
X18842109Y-8218109D01*
X18842109Y-8295891D01*
X18919891Y-8295891D01*
X18833000Y-9197000D02*
X18943000Y-9307000D01*
X18943000Y-9197000D02*
X18833000Y-9307000D01*
X18926891Y-9290891D02*
X18926891Y-9213109D01*
X18849109Y-9213109D01*
X18849109Y-9290891D01*
X18926891Y-9290891D01*
X18915000Y-3730000D02*
X19025000Y-3840000D01*
X19025000Y-3730000D02*
X18915000Y-3840000D01*
X19008891Y-3823891D02*
X19008891Y-3746109D01*
X18931109Y-3746109D01*
X18931109Y-3823891D01*
X19008891Y-3823891D01*
X18915000Y-4227000D02*
X19025000Y-4337000D01*
X19025000Y-4227000D02*
X18915000Y-4337000D01*
X19008891Y-4320891D02*
X19008891Y-4243109D01*
X18931109Y-4243109D01*
X18931109Y-4320891D01*
X19008891Y-4320891D01*
X4412000Y-4611000D02*
X4564000Y-4763000D01*
X4564000Y-4611000D02*
X4412000Y-4763000D01*
X4488000Y-4763000D02*
X4564000Y-4687000D01*
X4488000Y-4611000D01*
X4412000Y-4687000D01*
X4488000Y-4763000D01*
X4412000Y-5119000D02*
X4564000Y-5271000D01*
X4564000Y-5119000D02*
X4412000Y-5271000D01*
X4488000Y-5271000D02*
X4564000Y-5195000D01*
X4488000Y-5119000D01*
X4412000Y-5195000D01*
X4488000Y-5271000D01*
X4413000Y-5745000D02*
X4565000Y-5897000D01*
X4565000Y-5745000D02*
X4413000Y-5897000D01*
X4489000Y-5897000D02*
X4565000Y-5821000D01*
X4489000Y-5745000D01*
X4413000Y-5821000D01*
X4489000Y-5897000D01*
X4413000Y-6253000D02*
X4565000Y-6405000D01*
X4565000Y-6253000D02*
X4413000Y-6405000D01*
X4489000Y-6405000D02*
X4565000Y-6329000D01*
X4489000Y-6253000D01*
X4413000Y-6329000D01*
X4489000Y-6405000D01*
X4423000Y-6874000D02*
X4575000Y-7026000D01*
X4575000Y-6874000D02*
X4423000Y-7026000D01*
X4499000Y-7026000D02*
X4575000Y-6950000D01*
X4499000Y-6874000D01*
X4423000Y-6950000D01*
X4499000Y-7026000D01*
X4423000Y-7382000D02*
X4575000Y-7534000D01*
X4575000Y-7382000D02*
X4423000Y-7534000D01*
X4499000Y-7534000D02*
X4575000Y-7458000D01*
X4499000Y-7382000D01*
X4423000Y-7458000D01*
X4499000Y-7534000D01*
X20170000Y-4797000D02*
X20322000Y-4949000D01*
X20322000Y-4797000D02*
X20170000Y-4949000D01*
X20246000Y-4949000D02*
X20322000Y-4873000D01*
X20246000Y-4797000D01*
X20170000Y-4873000D01*
X20246000Y-4949000D01*
X20170000Y-5305000D02*
X20322000Y-5457000D01*
X20322000Y-5305000D02*
X20170000Y-5457000D01*
X20246000Y-5457000D02*
X20322000Y-5381000D01*
X20246000Y-5305000D01*
X20170000Y-5381000D01*
X20246000Y-5457000D01*
X20170000Y-7950000D02*
X20322000Y-8102000D01*
X20322000Y-7950000D02*
X20170000Y-8102000D01*
X20246000Y-8102000D02*
X20322000Y-8026000D01*
X20246000Y-7950000D01*
X20170000Y-8026000D01*
X20246000Y-8102000D01*
X20170000Y-8458000D02*
X20322000Y-8610000D01*
X20322000Y-8458000D02*
X20170000Y-8610000D01*
X20246000Y-8610000D02*
X20322000Y-8534000D01*
X20246000Y-8458000D01*
X20170000Y-8534000D01*
X20246000Y-8610000D01*
X20171000Y-9573000D02*
X20323000Y-9725000D01*
X20323000Y-9573000D02*
X20171000Y-9725000D01*
X20247000Y-9725000D02*
X20323000Y-9649000D01*
X20247000Y-9573000D01*
X20171000Y-9649000D01*
X20247000Y-9725000D01*
X20171000Y-10081000D02*
X20323000Y-10233000D01*
X20323000Y-10081000D02*
X20171000Y-10233000D01*
X20247000Y-10233000D02*
X20323000Y-10157000D01*
X20247000Y-10081000D01*
X20171000Y-10157000D01*
X20247000Y-10233000D01*
X20172000Y-11045000D02*
X20324000Y-11197000D01*
X20324000Y-11045000D02*
X20172000Y-11197000D01*
X20248000Y-11197000D02*
X20324000Y-11121000D01*
X20248000Y-11045000D01*
X20172000Y-11121000D01*
X20248000Y-11197000D01*
X20172000Y-11553000D02*
X20324000Y-11705000D01*
X20324000Y-11553000D02*
X20172000Y-11705000D01*
X20248000Y-11705000D02*
X20324000Y-11629000D01*
X20248000Y-11553000D01*
X20172000Y-11629000D01*
X20248000Y-11705000D01*
X19542150Y-3723650D02*
X19542150Y-3923650D01*
X19442150Y-3823650D02*
X19642150Y-3823650D01*
X19642150Y-3823650D02*
G75*
G03*
X19642150Y-3823650I-100000J0D01*
G01*
X19542150Y-7800350D02*
X19542150Y-8000350D01*
X19442150Y-7900350D02*
X19642150Y-7900350D01*
X19642150Y-7900350D02*
G75*
G03*
X19642150Y-7900350I-100000J0D01*
G01*
X19542150Y-8552650D02*
X19542150Y-8752650D01*
X19442150Y-8652650D02*
X19642150Y-8652650D01*
X19642150Y-8652650D02*
G75*
G03*
X19642150Y-8652650I-100000J0D01*
G01*
X19542150Y-12629350D02*
X19542150Y-12829350D01*
X19442150Y-12729350D02*
X19642150Y-12729350D01*
X19642150Y-12729350D02*
G75*
G03*
X19642150Y-12729350I-100000J0D01*
G01*
X4258783Y-3921782D02*
X4258783Y-3766217D01*
X4103217Y-3766217D01*
X4103217Y-3921782D01*
X4258783Y-3921782D01*
X4291000Y-3844000D02*
G75*
G03*
X4291000Y-3844000I-110000J0D01*
G01*
X4265783Y-12914782D02*
X4265783Y-12759217D01*
X4110217Y-12759217D01*
X4110217Y-12914782D01*
X4265783Y-12914782D01*
X4298000Y-12837000D02*
G75*
G03*
X4298000Y-12837000I-110000J0D01*
G01*
X20637783Y-12898782D02*
X20637783Y-12743217D01*
X20482218Y-12743217D01*
X20482218Y-12898782D01*
X20637783Y-12898782D01*
X20670000Y-12821000D02*
G75*
G03*
X20670000Y-12821000I-110000J0D01*
G01*
X20652783Y-3904782D02*
X20652783Y-3749217D01*
X20497218Y-3749217D01*
X20497218Y-3904782D01*
X20652783Y-3904782D01*
X20685000Y-3827000D02*
G75*
G03*
X20685000Y-3827000I-110000J0D01*
G01*
X8102000Y-10911000D02*
X8262000Y-10751000D01*
X8102000Y-10591000D01*
X7942000Y-10751000D01*
X8102000Y-10911000D01*
X8262000Y-10751000D02*
G75*
G03*
X8262000Y-10751000I-160000J0D01*
G01*
X8229000Y-6085000D02*
X8389000Y-5925000D01*
X8229000Y-5765000D01*
X8069000Y-5925000D01*
X8229000Y-6085000D01*
X8389000Y-5925000D02*
G75*
G03*
X8389000Y-5925000I-160000J0D01*
G01*
X13309000Y-7609000D02*
X13469000Y-7449000D01*
X13309000Y-7289000D01*
X13149000Y-7449000D01*
X13309000Y-7609000D01*
X13469000Y-7449000D02*
G75*
G03*
X13469000Y-7449000I-160000J0D01*
G01*
X13309000Y-10403000D02*
X13469000Y-10243000D01*
X13309000Y-10083000D01*
X13149000Y-10243000D01*
X13309000Y-10403000D01*
X13469000Y-10243000D02*
G75*
G03*
X13469000Y-10243000I-160000J0D01*
G01*
X15722000Y-6085000D02*
X15882000Y-5925000D01*
X15722000Y-5765000D01*
X15562000Y-5925000D01*
X15722000Y-6085000D01*
X15882000Y-5925000D02*
G75*
G03*
X15882000Y-5925000I-160000J0D01*
G01*
X16357000Y-10911000D02*
X16517000Y-10751000D01*
X16357000Y-10591000D01*
X16197000Y-10751000D01*
X16357000Y-10911000D01*
X16517000Y-10751000D02*
G75*
G03*
X16517000Y-10751000I-160000J0D01*
G01*
D12*
X4163928Y-13630214D02*
X4163928Y-13330214D01*
X4235357Y-13330214D01*
X4278214Y-13344500D01*
X4306786Y-13373071D01*
X4321071Y-13401643D01*
X4335357Y-13458786D01*
X4335357Y-13501643D01*
X4321071Y-13558786D01*
X4306786Y-13587357D01*
X4278214Y-13615929D01*
X4235357Y-13630214D01*
X4163928Y-13630214D01*
X4463928Y-13630214D02*
X4463928Y-13430214D01*
X4463928Y-13487357D02*
X4478214Y-13458786D01*
X4492500Y-13444500D01*
X4521071Y-13430214D01*
X4549643Y-13430214D01*
X4649643Y-13630214D02*
X4649643Y-13430214D01*
X4649643Y-13330214D02*
X4635357Y-13344500D01*
X4649643Y-13358786D01*
X4663928Y-13344500D01*
X4649643Y-13330214D01*
X4649643Y-13358786D01*
X4835357Y-13630214D02*
X4806786Y-13615929D01*
X4792500Y-13587357D01*
X4792500Y-13330214D01*
X4992500Y-13630214D02*
X4963928Y-13615929D01*
X4949643Y-13587357D01*
X4949643Y-13330214D01*
X5335357Y-13630214D02*
X5335357Y-13330214D01*
X5435357Y-13544500D01*
X5535357Y-13330214D01*
X5535357Y-13630214D01*
X5806786Y-13630214D02*
X5806786Y-13473071D01*
X5792500Y-13444500D01*
X5763928Y-13430214D01*
X5706786Y-13430214D01*
X5678214Y-13444500D01*
X5806786Y-13615929D02*
X5778214Y-13630214D01*
X5706786Y-13630214D01*
X5678214Y-13615929D01*
X5663928Y-13587357D01*
X5663928Y-13558786D01*
X5678214Y-13530214D01*
X5706786Y-13515929D01*
X5778214Y-13515929D01*
X5806786Y-13501643D01*
X5949643Y-13430214D02*
X5949643Y-13730214D01*
X5949643Y-13444500D02*
X5978214Y-13430214D01*
X6035357Y-13430214D01*
X6063928Y-13444500D01*
X6078214Y-13458786D01*
X6092500Y-13487357D01*
X6092500Y-13573071D01*
X6078214Y-13601643D01*
X6063928Y-13615929D01*
X6035357Y-13630214D01*
X5978214Y-13630214D01*
X5949643Y-13615929D01*
X6221071Y-13601643D02*
X6235357Y-13615929D01*
X6221071Y-13630214D01*
X6206786Y-13615929D01*
X6221071Y-13601643D01*
X6221071Y-13630214D01*
X6221071Y-13444500D02*
X6235357Y-13458786D01*
X6221071Y-13473071D01*
X6206786Y-13458786D01*
X6221071Y-13444500D01*
X6221071Y-13473071D01*
X3814000Y-14092750D02*
X3877500Y-14156250D01*
X3877500Y-14092750D02*
X3814000Y-14156250D01*
X4221071Y-13960214D02*
X4249643Y-13960214D01*
X4278214Y-13974500D01*
X4292500Y-13988786D01*
X4306786Y-14017357D01*
X4321071Y-14074500D01*
X4321071Y-14145929D01*
X4306786Y-14203071D01*
X4292500Y-14231643D01*
X4278214Y-14245929D01*
X4249643Y-14260214D01*
X4221071Y-14260214D01*
X4192500Y-14245929D01*
X4178214Y-14231643D01*
X4163928Y-14203071D01*
X4149643Y-14145929D01*
X4149643Y-14074500D01*
X4163928Y-14017357D01*
X4178214Y-13988786D01*
X4192500Y-13974500D01*
X4221071Y-13960214D01*
X4449643Y-14231643D02*
X4463928Y-14245929D01*
X4449643Y-14260214D01*
X4435357Y-14245929D01*
X4449643Y-14231643D01*
X4449643Y-14260214D01*
X4721071Y-13960214D02*
X4663928Y-13960214D01*
X4635357Y-13974500D01*
X4621071Y-13988786D01*
X4592500Y-14031643D01*
X4578214Y-14088786D01*
X4578214Y-14203071D01*
X4592500Y-14231643D01*
X4606786Y-14245929D01*
X4635357Y-14260214D01*
X4692500Y-14260214D01*
X4721071Y-14245929D01*
X4735357Y-14231643D01*
X4749643Y-14203071D01*
X4749643Y-14131643D01*
X4735357Y-14103071D01*
X4721071Y-14088786D01*
X4692500Y-14074500D01*
X4635357Y-14074500D01*
X4606786Y-14088786D01*
X4592500Y-14103071D01*
X4578214Y-14131643D01*
X5006786Y-14060214D02*
X5006786Y-14260214D01*
X4935357Y-13945929D02*
X4863928Y-14160214D01*
X5049643Y-14160214D01*
X5163928Y-14260214D02*
X5163928Y-14060214D01*
X5163928Y-14088786D02*
X5178214Y-14074500D01*
X5206786Y-14060214D01*
X5249643Y-14060214D01*
X5278214Y-14074500D01*
X5292500Y-14103071D01*
X5292500Y-14260214D01*
X5292500Y-14103071D02*
X5306786Y-14074500D01*
X5335357Y-14060214D01*
X5378214Y-14060214D01*
X5406786Y-14074500D01*
X5421071Y-14103071D01*
X5421071Y-14260214D01*
X5563928Y-14260214D02*
X5563928Y-14060214D01*
X5563928Y-14088786D02*
X5578214Y-14074500D01*
X5606786Y-14060214D01*
X5649643Y-14060214D01*
X5678214Y-14074500D01*
X5692500Y-14103071D01*
X5692500Y-14260214D01*
X5692500Y-14103071D02*
X5706786Y-14074500D01*
X5735357Y-14060214D01*
X5778214Y-14060214D01*
X5806786Y-14074500D01*
X5821071Y-14103071D01*
X5821071Y-14260214D01*
X6406786Y-13945929D02*
X6149643Y-14331643D01*
X6792500Y-13960214D02*
X6821071Y-13960214D01*
X6849643Y-13974500D01*
X6863928Y-13988786D01*
X6878214Y-14017357D01*
X6892500Y-14074500D01*
X6892500Y-14145929D01*
X6878214Y-14203071D01*
X6863928Y-14231643D01*
X6849643Y-14245929D01*
X6821071Y-14260214D01*
X6792500Y-14260214D01*
X6763928Y-14245929D01*
X6749643Y-14231643D01*
X6735357Y-14203071D01*
X6721071Y-14145929D01*
X6721071Y-14074500D01*
X6735357Y-14017357D01*
X6749643Y-13988786D01*
X6763928Y-13974500D01*
X6792500Y-13960214D01*
X7021071Y-14231643D02*
X7035357Y-14245929D01*
X7021071Y-14260214D01*
X7006786Y-14245929D01*
X7021071Y-14231643D01*
X7021071Y-14260214D01*
X7221071Y-13960214D02*
X7249643Y-13960214D01*
X7278214Y-13974500D01*
X7292500Y-13988786D01*
X7306786Y-14017357D01*
X7321071Y-14074500D01*
X7321071Y-14145929D01*
X7306786Y-14203071D01*
X7292500Y-14231643D01*
X7278214Y-14245929D01*
X7249643Y-14260214D01*
X7221071Y-14260214D01*
X7192500Y-14245929D01*
X7178214Y-14231643D01*
X7163928Y-14203071D01*
X7149643Y-14145929D01*
X7149643Y-14074500D01*
X7163928Y-14017357D01*
X7178214Y-13988786D01*
X7192500Y-13974500D01*
X7221071Y-13960214D01*
X7435357Y-13988786D02*
X7449643Y-13974500D01*
X7478214Y-13960214D01*
X7549643Y-13960214D01*
X7578214Y-13974500D01*
X7592500Y-13988786D01*
X7606786Y-14017357D01*
X7606786Y-14045929D01*
X7592500Y-14088786D01*
X7421071Y-14260214D01*
X7606786Y-14260214D01*
X7878214Y-13960214D02*
X7735357Y-13960214D01*
X7721071Y-14103071D01*
X7735357Y-14088786D01*
X7763928Y-14074500D01*
X7835357Y-14074500D01*
X7863928Y-14088786D01*
X7878214Y-14103071D01*
X7892500Y-14131643D01*
X7892500Y-14203071D01*
X7878214Y-14231643D01*
X7863928Y-14245929D01*
X7835357Y-14260214D01*
X7763928Y-14260214D01*
X7735357Y-14245929D01*
X7721071Y-14231643D01*
X8006786Y-13960214D02*
X8006786Y-14017357D01*
X8121071Y-13960214D02*
X8121071Y-14017357D01*
X8563928Y-14374500D02*
X8549643Y-14360214D01*
X8521071Y-14317357D01*
X8506786Y-14288786D01*
X8492500Y-14245929D01*
X8478214Y-14174500D01*
X8478214Y-14117357D01*
X8492500Y-14045929D01*
X8506786Y-14003071D01*
X8521071Y-13974500D01*
X8549643Y-13931643D01*
X8563928Y-13917357D01*
X8835357Y-14260214D02*
X8663928Y-14260214D01*
X8749643Y-14260214D02*
X8749643Y-13960214D01*
X8721071Y-14003071D01*
X8692500Y-14031643D01*
X8663928Y-14045929D01*
X8935357Y-13960214D02*
X9121071Y-13960214D01*
X9021071Y-14074500D01*
X9063928Y-14074500D01*
X9092500Y-14088786D01*
X9106786Y-14103071D01*
X9121071Y-14131643D01*
X9121071Y-14203071D01*
X9106786Y-14231643D01*
X9092500Y-14245929D01*
X9063928Y-14260214D01*
X8978214Y-14260214D01*
X8949643Y-14245929D01*
X8935357Y-14231643D01*
X9478214Y-14260214D02*
X9478214Y-13960214D01*
X9606786Y-14260214D02*
X9606786Y-14103071D01*
X9592500Y-14074500D01*
X9563928Y-14060214D01*
X9521071Y-14060214D01*
X9492500Y-14074500D01*
X9478214Y-14088786D01*
X9792500Y-14260214D02*
X9763928Y-14245929D01*
X9749643Y-14231643D01*
X9735357Y-14203071D01*
X9735357Y-14117357D01*
X9749643Y-14088786D01*
X9763928Y-14074500D01*
X9792500Y-14060214D01*
X9835357Y-14060214D01*
X9863928Y-14074500D01*
X9878214Y-14088786D01*
X9892500Y-14117357D01*
X9892500Y-14203071D01*
X9878214Y-14231643D01*
X9863928Y-14245929D01*
X9835357Y-14260214D01*
X9792500Y-14260214D01*
X10063928Y-14260214D02*
X10035357Y-14245929D01*
X10021071Y-14217357D01*
X10021071Y-13960214D01*
X10292500Y-14245929D02*
X10263928Y-14260214D01*
X10206786Y-14260214D01*
X10178214Y-14245929D01*
X10163928Y-14217357D01*
X10163928Y-14103071D01*
X10178214Y-14074500D01*
X10206786Y-14060214D01*
X10263928Y-14060214D01*
X10292500Y-14074500D01*
X10306786Y-14103071D01*
X10306786Y-14131643D01*
X10163928Y-14160214D01*
X10421071Y-14245929D02*
X10449643Y-14260214D01*
X10506786Y-14260214D01*
X10535357Y-14245929D01*
X10549643Y-14217357D01*
X10549643Y-14203071D01*
X10535357Y-14174500D01*
X10506786Y-14160214D01*
X10463928Y-14160214D01*
X10435357Y-14145929D01*
X10421071Y-14117357D01*
X10421071Y-14103071D01*
X10435357Y-14074500D01*
X10463928Y-14060214D01*
X10506786Y-14060214D01*
X10535357Y-14074500D01*
X10649643Y-14374500D02*
X10663928Y-14360214D01*
X10692500Y-14317357D01*
X10706786Y-14288786D01*
X10721071Y-14245929D01*
X10735357Y-14174500D01*
X10735357Y-14117357D01*
X10721071Y-14045929D01*
X10706786Y-14003071D01*
X10692500Y-13974500D01*
X10663928Y-13931643D01*
X10649643Y-13917357D01*
X3877500Y-14520500D02*
G75*
G03*
X3877500Y-14520500I-38100J0D01*
G01*
X4221071Y-14356214D02*
X4249643Y-14356214D01*
X4278214Y-14370500D01*
X4292500Y-14384786D01*
X4306786Y-14413357D01*
X4321071Y-14470500D01*
X4321071Y-14541929D01*
X4306786Y-14599071D01*
X4292500Y-14627643D01*
X4278214Y-14641929D01*
X4249643Y-14656214D01*
X4221071Y-14656214D01*
X4192500Y-14641929D01*
X4178214Y-14627643D01*
X4163928Y-14599071D01*
X4149643Y-14541929D01*
X4149643Y-14470500D01*
X4163928Y-14413357D01*
X4178214Y-14384786D01*
X4192500Y-14370500D01*
X4221071Y-14356214D01*
X4449643Y-14627643D02*
X4463928Y-14641929D01*
X4449643Y-14656214D01*
X4435357Y-14641929D01*
X4449643Y-14627643D01*
X4449643Y-14656214D01*
X4563928Y-14356214D02*
X4763928Y-14356214D01*
X4635357Y-14656214D01*
X5006786Y-14356214D02*
X4949643Y-14356214D01*
X4921071Y-14370500D01*
X4906786Y-14384786D01*
X4878214Y-14427643D01*
X4863928Y-14484786D01*
X4863928Y-14599071D01*
X4878214Y-14627643D01*
X4892500Y-14641929D01*
X4921071Y-14656214D01*
X4978214Y-14656214D01*
X5006786Y-14641929D01*
X5021071Y-14627643D01*
X5035357Y-14599071D01*
X5035357Y-14527643D01*
X5021071Y-14499071D01*
X5006786Y-14484786D01*
X4978214Y-14470500D01*
X4921071Y-14470500D01*
X4892500Y-14484786D01*
X4878214Y-14499071D01*
X4863928Y-14527643D01*
X5163928Y-14656214D02*
X5163928Y-14456214D01*
X5163928Y-14484786D02*
X5178214Y-14470500D01*
X5206786Y-14456214D01*
X5249643Y-14456214D01*
X5278214Y-14470500D01*
X5292500Y-14499071D01*
X5292500Y-14656214D01*
X5292500Y-14499071D02*
X5306786Y-14470500D01*
X5335357Y-14456214D01*
X5378214Y-14456214D01*
X5406786Y-14470500D01*
X5421071Y-14499071D01*
X5421071Y-14656214D01*
X5563928Y-14656214D02*
X5563928Y-14456214D01*
X5563928Y-14484786D02*
X5578214Y-14470500D01*
X5606786Y-14456214D01*
X5649643Y-14456214D01*
X5678214Y-14470500D01*
X5692500Y-14499071D01*
X5692500Y-14656214D01*
X5692500Y-14499071D02*
X5706786Y-14470500D01*
X5735357Y-14456214D01*
X5778214Y-14456214D01*
X5806786Y-14470500D01*
X5821071Y-14499071D01*
X5821071Y-14656214D01*
X6406786Y-14341929D02*
X6149643Y-14727643D01*
X6792500Y-14356214D02*
X6821071Y-14356214D01*
X6849643Y-14370500D01*
X6863928Y-14384786D01*
X6878214Y-14413357D01*
X6892500Y-14470500D01*
X6892500Y-14541929D01*
X6878214Y-14599071D01*
X6863928Y-14627643D01*
X6849643Y-14641929D01*
X6821071Y-14656214D01*
X6792500Y-14656214D01*
X6763928Y-14641929D01*
X6749643Y-14627643D01*
X6735357Y-14599071D01*
X6721071Y-14541929D01*
X6721071Y-14470500D01*
X6735357Y-14413357D01*
X6749643Y-14384786D01*
X6763928Y-14370500D01*
X6792500Y-14356214D01*
X7021071Y-14627643D02*
X7035357Y-14641929D01*
X7021071Y-14656214D01*
X7006786Y-14641929D01*
X7021071Y-14627643D01*
X7021071Y-14656214D01*
X7221071Y-14356214D02*
X7249643Y-14356214D01*
X7278214Y-14370500D01*
X7292500Y-14384786D01*
X7306786Y-14413357D01*
X7321071Y-14470500D01*
X7321071Y-14541929D01*
X7306786Y-14599071D01*
X7292500Y-14627643D01*
X7278214Y-14641929D01*
X7249643Y-14656214D01*
X7221071Y-14656214D01*
X7192500Y-14641929D01*
X7178214Y-14627643D01*
X7163928Y-14599071D01*
X7149643Y-14541929D01*
X7149643Y-14470500D01*
X7163928Y-14413357D01*
X7178214Y-14384786D01*
X7192500Y-14370500D01*
X7221071Y-14356214D01*
X7421071Y-14356214D02*
X7606786Y-14356214D01*
X7506786Y-14470500D01*
X7549643Y-14470500D01*
X7578214Y-14484786D01*
X7592500Y-14499071D01*
X7606786Y-14527643D01*
X7606786Y-14599071D01*
X7592500Y-14627643D01*
X7578214Y-14641929D01*
X7549643Y-14656214D01*
X7463928Y-14656214D01*
X7435357Y-14641929D01*
X7421071Y-14627643D01*
X7792500Y-14356214D02*
X7821071Y-14356214D01*
X7849643Y-14370500D01*
X7863928Y-14384786D01*
X7878214Y-14413357D01*
X7892500Y-14470500D01*
X7892500Y-14541929D01*
X7878214Y-14599071D01*
X7863928Y-14627643D01*
X7849643Y-14641929D01*
X7821071Y-14656214D01*
X7792500Y-14656214D01*
X7763928Y-14641929D01*
X7749643Y-14627643D01*
X7735357Y-14599071D01*
X7721071Y-14541929D01*
X7721071Y-14470500D01*
X7735357Y-14413357D01*
X7749643Y-14384786D01*
X7763928Y-14370500D01*
X7792500Y-14356214D01*
X8006786Y-14356214D02*
X8006786Y-14413357D01*
X8121071Y-14356214D02*
X8121071Y-14413357D01*
X8563928Y-14770500D02*
X8549643Y-14756214D01*
X8521071Y-14713357D01*
X8506786Y-14684786D01*
X8492500Y-14641929D01*
X8478214Y-14570500D01*
X8478214Y-14513357D01*
X8492500Y-14441929D01*
X8506786Y-14399071D01*
X8521071Y-14370500D01*
X8549643Y-14327643D01*
X8563928Y-14313357D01*
X8806786Y-14356214D02*
X8749643Y-14356214D01*
X8721071Y-14370500D01*
X8706786Y-14384786D01*
X8678214Y-14427643D01*
X8663928Y-14484786D01*
X8663928Y-14599071D01*
X8678214Y-14627643D01*
X8692500Y-14641929D01*
X8721071Y-14656214D01*
X8778214Y-14656214D01*
X8806786Y-14641929D01*
X8821071Y-14627643D01*
X8835357Y-14599071D01*
X8835357Y-14527643D01*
X8821071Y-14499071D01*
X8806786Y-14484786D01*
X8778214Y-14470500D01*
X8721071Y-14470500D01*
X8692500Y-14484786D01*
X8678214Y-14499071D01*
X8663928Y-14527643D01*
X8949643Y-14384786D02*
X8963928Y-14370500D01*
X8992500Y-14356214D01*
X9063928Y-14356214D01*
X9092500Y-14370500D01*
X9106786Y-14384786D01*
X9121071Y-14413357D01*
X9121071Y-14441929D01*
X9106786Y-14484786D01*
X8935357Y-14656214D01*
X9121071Y-14656214D01*
X9478214Y-14656214D02*
X9478214Y-14356214D01*
X9606786Y-14656214D02*
X9606786Y-14499071D01*
X9592500Y-14470500D01*
X9563928Y-14456214D01*
X9521071Y-14456214D01*
X9492500Y-14470500D01*
X9478214Y-14484786D01*
X9792500Y-14656214D02*
X9763928Y-14641929D01*
X9749643Y-14627643D01*
X9735357Y-14599071D01*
X9735357Y-14513357D01*
X9749643Y-14484786D01*
X9763928Y-14470500D01*
X9792500Y-14456214D01*
X9835357Y-14456214D01*
X9863928Y-14470500D01*
X9878214Y-14484786D01*
X9892500Y-14513357D01*
X9892500Y-14599071D01*
X9878214Y-14627643D01*
X9863928Y-14641929D01*
X9835357Y-14656214D01*
X9792500Y-14656214D01*
X10063928Y-14656214D02*
X10035357Y-14641929D01*
X10021071Y-14613357D01*
X10021071Y-14356214D01*
X10292500Y-14641929D02*
X10263928Y-14656214D01*
X10206786Y-14656214D01*
X10178214Y-14641929D01*
X10163928Y-14613357D01*
X10163928Y-14499071D01*
X10178214Y-14470500D01*
X10206786Y-14456214D01*
X10263928Y-14456214D01*
X10292500Y-14470500D01*
X10306786Y-14499071D01*
X10306786Y-14527643D01*
X10163928Y-14556214D01*
X10421071Y-14641929D02*
X10449643Y-14656214D01*
X10506786Y-14656214D01*
X10535357Y-14641929D01*
X10549643Y-14613357D01*
X10549643Y-14599071D01*
X10535357Y-14570500D01*
X10506786Y-14556214D01*
X10463928Y-14556214D01*
X10435357Y-14541929D01*
X10421071Y-14513357D01*
X10421071Y-14499071D01*
X10435357Y-14470500D01*
X10463928Y-14456214D01*
X10506786Y-14456214D01*
X10535357Y-14470500D01*
X10649643Y-14770500D02*
X10663928Y-14756214D01*
X10692500Y-14713357D01*
X10706786Y-14684786D01*
X10721071Y-14641929D01*
X10735357Y-14570500D01*
X10735357Y-14513357D01*
X10721071Y-14441929D01*
X10706786Y-14399071D01*
X10692500Y-14370500D01*
X10663928Y-14327643D01*
X10649643Y-14313357D01*
X3837500Y-14876500D02*
X3837500Y-14956500D01*
X3797500Y-14916500D02*
X3877500Y-14916500D01*
X4221071Y-14752214D02*
X4249643Y-14752214D01*
X4278214Y-14766500D01*
X4292500Y-14780786D01*
X4306786Y-14809357D01*
X4321071Y-14866500D01*
X4321071Y-14937929D01*
X4306786Y-14995071D01*
X4292500Y-15023643D01*
X4278214Y-15037929D01*
X4249643Y-15052214D01*
X4221071Y-15052214D01*
X4192500Y-15037929D01*
X4178214Y-15023643D01*
X4163928Y-14995071D01*
X4149643Y-14937929D01*
X4149643Y-14866500D01*
X4163928Y-14809357D01*
X4178214Y-14780786D01*
X4192500Y-14766500D01*
X4221071Y-14752214D01*
X4449643Y-15023643D02*
X4463928Y-15037929D01*
X4449643Y-15052214D01*
X4435357Y-15037929D01*
X4449643Y-15023643D01*
X4449643Y-15052214D01*
X4635357Y-14880786D02*
X4606786Y-14866500D01*
X4592500Y-14852214D01*
X4578214Y-14823643D01*
X4578214Y-14809357D01*
X4592500Y-14780786D01*
X4606786Y-14766500D01*
X4635357Y-14752214D01*
X4692500Y-14752214D01*
X4721071Y-14766500D01*
X4735357Y-14780786D01*
X4749643Y-14809357D01*
X4749643Y-14823643D01*
X4735357Y-14852214D01*
X4721071Y-14866500D01*
X4692500Y-14880786D01*
X4635357Y-14880786D01*
X4606786Y-14895071D01*
X4592500Y-14909357D01*
X4578214Y-14937929D01*
X4578214Y-14995071D01*
X4592500Y-15023643D01*
X4606786Y-15037929D01*
X4635357Y-15052214D01*
X4692500Y-15052214D01*
X4721071Y-15037929D01*
X4735357Y-15023643D01*
X4749643Y-14995071D01*
X4749643Y-14937929D01*
X4735357Y-14909357D01*
X4721071Y-14895071D01*
X4692500Y-14880786D01*
X4935357Y-14752214D02*
X4963928Y-14752214D01*
X4992500Y-14766500D01*
X5006786Y-14780786D01*
X5021071Y-14809357D01*
X5035357Y-14866500D01*
X5035357Y-14937929D01*
X5021071Y-14995071D01*
X5006786Y-15023643D01*
X4992500Y-15037929D01*
X4963928Y-15052214D01*
X4935357Y-15052214D01*
X4906786Y-15037929D01*
X4892500Y-15023643D01*
X4878214Y-14995071D01*
X4863928Y-14937929D01*
X4863928Y-14866500D01*
X4878214Y-14809357D01*
X4892500Y-14780786D01*
X4906786Y-14766500D01*
X4935357Y-14752214D01*
X5163928Y-15052214D02*
X5163928Y-14852214D01*
X5163928Y-14880786D02*
X5178214Y-14866500D01*
X5206786Y-14852214D01*
X5249643Y-14852214D01*
X5278214Y-14866500D01*
X5292500Y-14895071D01*
X5292500Y-15052214D01*
X5292500Y-14895071D02*
X5306786Y-14866500D01*
X5335357Y-14852214D01*
X5378214Y-14852214D01*
X5406786Y-14866500D01*
X5421071Y-14895071D01*
X5421071Y-15052214D01*
X5563928Y-15052214D02*
X5563928Y-14852214D01*
X5563928Y-14880786D02*
X5578214Y-14866500D01*
X5606786Y-14852214D01*
X5649643Y-14852214D01*
X5678214Y-14866500D01*
X5692500Y-14895071D01*
X5692500Y-15052214D01*
X5692500Y-14895071D02*
X5706786Y-14866500D01*
X5735357Y-14852214D01*
X5778214Y-14852214D01*
X5806786Y-14866500D01*
X5821071Y-14895071D01*
X5821071Y-15052214D01*
X6406786Y-14737929D02*
X6149643Y-15123643D01*
X6792500Y-14752214D02*
X6821071Y-14752214D01*
X6849643Y-14766500D01*
X6863928Y-14780786D01*
X6878214Y-14809357D01*
X6892500Y-14866500D01*
X6892500Y-14937929D01*
X6878214Y-14995071D01*
X6863928Y-15023643D01*
X6849643Y-15037929D01*
X6821071Y-15052214D01*
X6792500Y-15052214D01*
X6763928Y-15037929D01*
X6749643Y-15023643D01*
X6735357Y-14995071D01*
X6721071Y-14937929D01*
X6721071Y-14866500D01*
X6735357Y-14809357D01*
X6749643Y-14780786D01*
X6763928Y-14766500D01*
X6792500Y-14752214D01*
X7021071Y-15023643D02*
X7035357Y-15037929D01*
X7021071Y-15052214D01*
X7006786Y-15037929D01*
X7021071Y-15023643D01*
X7021071Y-15052214D01*
X7221071Y-14752214D02*
X7249643Y-14752214D01*
X7278214Y-14766500D01*
X7292500Y-14780786D01*
X7306786Y-14809357D01*
X7321071Y-14866500D01*
X7321071Y-14937929D01*
X7306786Y-14995071D01*
X7292500Y-15023643D01*
X7278214Y-15037929D01*
X7249643Y-15052214D01*
X7221071Y-15052214D01*
X7192500Y-15037929D01*
X7178214Y-15023643D01*
X7163928Y-14995071D01*
X7149643Y-14937929D01*
X7149643Y-14866500D01*
X7163928Y-14809357D01*
X7178214Y-14780786D01*
X7192500Y-14766500D01*
X7221071Y-14752214D01*
X7421071Y-14752214D02*
X7606786Y-14752214D01*
X7506786Y-14866500D01*
X7549643Y-14866500D01*
X7578214Y-14880786D01*
X7592500Y-14895071D01*
X7606786Y-14923643D01*
X7606786Y-14995071D01*
X7592500Y-15023643D01*
X7578214Y-15037929D01*
X7549643Y-15052214D01*
X7463928Y-15052214D01*
X7435357Y-15037929D01*
X7421071Y-15023643D01*
X7892500Y-15052214D02*
X7721071Y-15052214D01*
X7806786Y-15052214D02*
X7806786Y-14752214D01*
X7778214Y-14795071D01*
X7749643Y-14823643D01*
X7721071Y-14837929D01*
X8006786Y-14752214D02*
X8006786Y-14809357D01*
X8121071Y-14752214D02*
X8121071Y-14809357D01*
X8563928Y-15166500D02*
X8549643Y-15152214D01*
X8521071Y-15109357D01*
X8506786Y-15080786D01*
X8492500Y-15037929D01*
X8478214Y-14966500D01*
X8478214Y-14909357D01*
X8492500Y-14837929D01*
X8506786Y-14795071D01*
X8521071Y-14766500D01*
X8549643Y-14723643D01*
X8563928Y-14709357D01*
X8649643Y-14752214D02*
X8835357Y-14752214D01*
X8735357Y-14866500D01*
X8778214Y-14866500D01*
X8806786Y-14880786D01*
X8821071Y-14895071D01*
X8835357Y-14923643D01*
X8835357Y-14995071D01*
X8821071Y-15023643D01*
X8806786Y-15037929D01*
X8778214Y-15052214D01*
X8692500Y-15052214D01*
X8663928Y-15037929D01*
X8649643Y-15023643D01*
X9092500Y-14752214D02*
X9035357Y-14752214D01*
X9006786Y-14766500D01*
X8992500Y-14780786D01*
X8963928Y-14823643D01*
X8949643Y-14880786D01*
X8949643Y-14995071D01*
X8963928Y-15023643D01*
X8978214Y-15037929D01*
X9006786Y-15052214D01*
X9063928Y-15052214D01*
X9092500Y-15037929D01*
X9106786Y-15023643D01*
X9121071Y-14995071D01*
X9121071Y-14923643D01*
X9106786Y-14895071D01*
X9092500Y-14880786D01*
X9063928Y-14866500D01*
X9006786Y-14866500D01*
X8978214Y-14880786D01*
X8963928Y-14895071D01*
X8949643Y-14923643D01*
X9478214Y-15052214D02*
X9478214Y-14752214D01*
X9606786Y-15052214D02*
X9606786Y-14895071D01*
X9592500Y-14866500D01*
X9563928Y-14852214D01*
X9521071Y-14852214D01*
X9492500Y-14866500D01*
X9478214Y-14880786D01*
X9792500Y-15052214D02*
X9763928Y-15037929D01*
X9749643Y-15023643D01*
X9735357Y-14995071D01*
X9735357Y-14909357D01*
X9749643Y-14880786D01*
X9763928Y-14866500D01*
X9792500Y-14852214D01*
X9835357Y-14852214D01*
X9863928Y-14866500D01*
X9878214Y-14880786D01*
X9892500Y-14909357D01*
X9892500Y-14995071D01*
X9878214Y-15023643D01*
X9863928Y-15037929D01*
X9835357Y-15052214D01*
X9792500Y-15052214D01*
X10063928Y-15052214D02*
X10035357Y-15037929D01*
X10021071Y-15009357D01*
X10021071Y-14752214D01*
X10292500Y-15037929D02*
X10263928Y-15052214D01*
X10206786Y-15052214D01*
X10178214Y-15037929D01*
X10163928Y-15009357D01*
X10163928Y-14895071D01*
X10178214Y-14866500D01*
X10206786Y-14852214D01*
X10263928Y-14852214D01*
X10292500Y-14866500D01*
X10306786Y-14895071D01*
X10306786Y-14923643D01*
X10163928Y-14952214D01*
X10421071Y-15037929D02*
X10449643Y-15052214D01*
X10506786Y-15052214D01*
X10535357Y-15037929D01*
X10549643Y-15009357D01*
X10549643Y-14995071D01*
X10535357Y-14966500D01*
X10506786Y-14952214D01*
X10463928Y-14952214D01*
X10435357Y-14937929D01*
X10421071Y-14909357D01*
X10421071Y-14895071D01*
X10435357Y-14866500D01*
X10463928Y-14852214D01*
X10506786Y-14852214D01*
X10535357Y-14866500D01*
X10649643Y-15166500D02*
X10663928Y-15152214D01*
X10692500Y-15109357D01*
X10706786Y-15080786D01*
X10721071Y-15037929D01*
X10735357Y-14966500D01*
X10735357Y-14909357D01*
X10721071Y-14837929D01*
X10706786Y-14795071D01*
X10692500Y-14766500D01*
X10663928Y-14723643D01*
X10649643Y-14709357D01*
X3864320Y-15344320D02*
X3864320Y-15280680D01*
X3800680Y-15280680D01*
X3800680Y-15344320D01*
X3864320Y-15344320D01*
X4221071Y-15148214D02*
X4249643Y-15148214D01*
X4278214Y-15162500D01*
X4292500Y-15176786D01*
X4306786Y-15205357D01*
X4321071Y-15262500D01*
X4321071Y-15333929D01*
X4306786Y-15391071D01*
X4292500Y-15419643D01*
X4278214Y-15433929D01*
X4249643Y-15448214D01*
X4221071Y-15448214D01*
X4192500Y-15433929D01*
X4178214Y-15419643D01*
X4163928Y-15391071D01*
X4149643Y-15333929D01*
X4149643Y-15262500D01*
X4163928Y-15205357D01*
X4178214Y-15176786D01*
X4192500Y-15162500D01*
X4221071Y-15148214D01*
X4449643Y-15419643D02*
X4463928Y-15433929D01*
X4449643Y-15448214D01*
X4435357Y-15433929D01*
X4449643Y-15419643D01*
X4449643Y-15448214D01*
X4606786Y-15448214D02*
X4663928Y-15448214D01*
X4692500Y-15433929D01*
X4706786Y-15419643D01*
X4735357Y-15376786D01*
X4749643Y-15319643D01*
X4749643Y-15205357D01*
X4735357Y-15176786D01*
X4721071Y-15162500D01*
X4692500Y-15148214D01*
X4635357Y-15148214D01*
X4606786Y-15162500D01*
X4592500Y-15176786D01*
X4578214Y-15205357D01*
X4578214Y-15276786D01*
X4592500Y-15305357D01*
X4606786Y-15319643D01*
X4635357Y-15333929D01*
X4692500Y-15333929D01*
X4721071Y-15319643D01*
X4735357Y-15305357D01*
X4749643Y-15276786D01*
X4935357Y-15148214D02*
X4963928Y-15148214D01*
X4992500Y-15162500D01*
X5006786Y-15176786D01*
X5021071Y-15205357D01*
X5035357Y-15262500D01*
X5035357Y-15333929D01*
X5021071Y-15391071D01*
X5006786Y-15419643D01*
X4992500Y-15433929D01*
X4963928Y-15448214D01*
X4935357Y-15448214D01*
X4906786Y-15433929D01*
X4892500Y-15419643D01*
X4878214Y-15391071D01*
X4863928Y-15333929D01*
X4863928Y-15262500D01*
X4878214Y-15205357D01*
X4892500Y-15176786D01*
X4906786Y-15162500D01*
X4935357Y-15148214D01*
X5163928Y-15448214D02*
X5163928Y-15248214D01*
X5163928Y-15276786D02*
X5178214Y-15262500D01*
X5206786Y-15248214D01*
X5249643Y-15248214D01*
X5278214Y-15262500D01*
X5292500Y-15291071D01*
X5292500Y-15448214D01*
X5292500Y-15291071D02*
X5306786Y-15262500D01*
X5335357Y-15248214D01*
X5378214Y-15248214D01*
X5406786Y-15262500D01*
X5421071Y-15291071D01*
X5421071Y-15448214D01*
X5563928Y-15448214D02*
X5563928Y-15248214D01*
X5563928Y-15276786D02*
X5578214Y-15262500D01*
X5606786Y-15248214D01*
X5649643Y-15248214D01*
X5678214Y-15262500D01*
X5692500Y-15291071D01*
X5692500Y-15448214D01*
X5692500Y-15291071D02*
X5706786Y-15262500D01*
X5735357Y-15248214D01*
X5778214Y-15248214D01*
X5806786Y-15262500D01*
X5821071Y-15291071D01*
X5821071Y-15448214D01*
X6406786Y-15133929D02*
X6149643Y-15519643D01*
X6792500Y-15148214D02*
X6821071Y-15148214D01*
X6849643Y-15162500D01*
X6863928Y-15176786D01*
X6878214Y-15205357D01*
X6892500Y-15262500D01*
X6892500Y-15333929D01*
X6878214Y-15391071D01*
X6863928Y-15419643D01*
X6849643Y-15433929D01*
X6821071Y-15448214D01*
X6792500Y-15448214D01*
X6763928Y-15433929D01*
X6749643Y-15419643D01*
X6735357Y-15391071D01*
X6721071Y-15333929D01*
X6721071Y-15262500D01*
X6735357Y-15205357D01*
X6749643Y-15176786D01*
X6763928Y-15162500D01*
X6792500Y-15148214D01*
X7021071Y-15419643D02*
X7035357Y-15433929D01*
X7021071Y-15448214D01*
X7006786Y-15433929D01*
X7021071Y-15419643D01*
X7021071Y-15448214D01*
X7221071Y-15148214D02*
X7249643Y-15148214D01*
X7278214Y-15162500D01*
X7292500Y-15176786D01*
X7306786Y-15205357D01*
X7321071Y-15262500D01*
X7321071Y-15333929D01*
X7306786Y-15391071D01*
X7292500Y-15419643D01*
X7278214Y-15433929D01*
X7249643Y-15448214D01*
X7221071Y-15448214D01*
X7192500Y-15433929D01*
X7178214Y-15419643D01*
X7163928Y-15391071D01*
X7149643Y-15333929D01*
X7149643Y-15262500D01*
X7163928Y-15205357D01*
X7178214Y-15176786D01*
X7192500Y-15162500D01*
X7221071Y-15148214D01*
X7421071Y-15148214D02*
X7606786Y-15148214D01*
X7506786Y-15262500D01*
X7549643Y-15262500D01*
X7578214Y-15276786D01*
X7592500Y-15291071D01*
X7606786Y-15319643D01*
X7606786Y-15391071D01*
X7592500Y-15419643D01*
X7578214Y-15433929D01*
X7549643Y-15448214D01*
X7463928Y-15448214D01*
X7435357Y-15433929D01*
X7421071Y-15419643D01*
X7878214Y-15148214D02*
X7735357Y-15148214D01*
X7721071Y-15291071D01*
X7735357Y-15276786D01*
X7763928Y-15262500D01*
X7835357Y-15262500D01*
X7863928Y-15276786D01*
X7878214Y-15291071D01*
X7892500Y-15319643D01*
X7892500Y-15391071D01*
X7878214Y-15419643D01*
X7863928Y-15433929D01*
X7835357Y-15448214D01*
X7763928Y-15448214D01*
X7735357Y-15433929D01*
X7721071Y-15419643D01*
X8006786Y-15148214D02*
X8006786Y-15205357D01*
X8121071Y-15148214D02*
X8121071Y-15205357D01*
X8563928Y-15562500D02*
X8549643Y-15548214D01*
X8521071Y-15505357D01*
X8506786Y-15476786D01*
X8492500Y-15433929D01*
X8478214Y-15362500D01*
X8478214Y-15305357D01*
X8492500Y-15233929D01*
X8506786Y-15191071D01*
X8521071Y-15162500D01*
X8549643Y-15119643D01*
X8563928Y-15105357D01*
X8806786Y-15148214D02*
X8749643Y-15148214D01*
X8721071Y-15162500D01*
X8706786Y-15176786D01*
X8678214Y-15219643D01*
X8663928Y-15276786D01*
X8663928Y-15391071D01*
X8678214Y-15419643D01*
X8692500Y-15433929D01*
X8721071Y-15448214D01*
X8778214Y-15448214D01*
X8806786Y-15433929D01*
X8821071Y-15419643D01*
X8835357Y-15391071D01*
X8835357Y-15319643D01*
X8821071Y-15291071D01*
X8806786Y-15276786D01*
X8778214Y-15262500D01*
X8721071Y-15262500D01*
X8692500Y-15276786D01*
X8678214Y-15291071D01*
X8663928Y-15319643D01*
X9192500Y-15448214D02*
X9192500Y-15148214D01*
X9321071Y-15448214D02*
X9321071Y-15291071D01*
X9306786Y-15262500D01*
X9278214Y-15248214D01*
X9235357Y-15248214D01*
X9206786Y-15262500D01*
X9192500Y-15276786D01*
X9506786Y-15448214D02*
X9478214Y-15433929D01*
X9463928Y-15419643D01*
X9449643Y-15391071D01*
X9449643Y-15305357D01*
X9463928Y-15276786D01*
X9478214Y-15262500D01*
X9506786Y-15248214D01*
X9549643Y-15248214D01*
X9578214Y-15262500D01*
X9592500Y-15276786D01*
X9606786Y-15305357D01*
X9606786Y-15391071D01*
X9592500Y-15419643D01*
X9578214Y-15433929D01*
X9549643Y-15448214D01*
X9506786Y-15448214D01*
X9778214Y-15448214D02*
X9749643Y-15433929D01*
X9735357Y-15405357D01*
X9735357Y-15148214D01*
X10006786Y-15433929D02*
X9978214Y-15448214D01*
X9921071Y-15448214D01*
X9892500Y-15433929D01*
X9878214Y-15405357D01*
X9878214Y-15291071D01*
X9892500Y-15262500D01*
X9921071Y-15248214D01*
X9978214Y-15248214D01*
X10006786Y-15262500D01*
X10021071Y-15291071D01*
X10021071Y-15319643D01*
X9878214Y-15348214D01*
X10135357Y-15433929D02*
X10163928Y-15448214D01*
X10221071Y-15448214D01*
X10249643Y-15433929D01*
X10263928Y-15405357D01*
X10263928Y-15391071D01*
X10249643Y-15362500D01*
X10221071Y-15348214D01*
X10178214Y-15348214D01*
X10149643Y-15333929D01*
X10135357Y-15305357D01*
X10135357Y-15291071D01*
X10149643Y-15262500D01*
X10178214Y-15248214D01*
X10221071Y-15248214D01*
X10249643Y-15262500D01*
X10363928Y-15562500D02*
X10378214Y-15548214D01*
X10406786Y-15505357D01*
X10421071Y-15476786D01*
X10435357Y-15433929D01*
X10449643Y-15362500D01*
X10449643Y-15305357D01*
X10435357Y-15233929D01*
X10421071Y-15191071D01*
X10406786Y-15162500D01*
X10378214Y-15119643D01*
X10363928Y-15105357D01*
X3827500Y-15758500D02*
X3877500Y-15708500D01*
X3827500Y-15658500D01*
X3777500Y-15708500D01*
X3827500Y-15758500D01*
X4321071Y-15844214D02*
X4149643Y-15844214D01*
X4235357Y-15844214D02*
X4235357Y-15544214D01*
X4206786Y-15587071D01*
X4178214Y-15615643D01*
X4149643Y-15629929D01*
X4449643Y-15815643D02*
X4463928Y-15829929D01*
X4449643Y-15844214D01*
X4435357Y-15829929D01*
X4449643Y-15815643D01*
X4449643Y-15844214D01*
X4649643Y-15544214D02*
X4678214Y-15544214D01*
X4706786Y-15558500D01*
X4721071Y-15572786D01*
X4735357Y-15601357D01*
X4749643Y-15658500D01*
X4749643Y-15729929D01*
X4735357Y-15787071D01*
X4721071Y-15815643D01*
X4706786Y-15829929D01*
X4678214Y-15844214D01*
X4649643Y-15844214D01*
X4621071Y-15829929D01*
X4606786Y-15815643D01*
X4592500Y-15787071D01*
X4578214Y-15729929D01*
X4578214Y-15658500D01*
X4592500Y-15601357D01*
X4606786Y-15572786D01*
X4621071Y-15558500D01*
X4649643Y-15544214D01*
X4935357Y-15544214D02*
X4963928Y-15544214D01*
X4992500Y-15558500D01*
X5006786Y-15572786D01*
X5021071Y-15601357D01*
X5035357Y-15658500D01*
X5035357Y-15729929D01*
X5021071Y-15787071D01*
X5006786Y-15815643D01*
X4992500Y-15829929D01*
X4963928Y-15844214D01*
X4935357Y-15844214D01*
X4906786Y-15829929D01*
X4892500Y-15815643D01*
X4878214Y-15787071D01*
X4863928Y-15729929D01*
X4863928Y-15658500D01*
X4878214Y-15601357D01*
X4892500Y-15572786D01*
X4906786Y-15558500D01*
X4935357Y-15544214D01*
X5163928Y-15844214D02*
X5163928Y-15644214D01*
X5163928Y-15672786D02*
X5178214Y-15658500D01*
X5206786Y-15644214D01*
X5249643Y-15644214D01*
X5278214Y-15658500D01*
X5292500Y-15687071D01*
X5292500Y-15844214D01*
X5292500Y-15687071D02*
X5306786Y-15658500D01*
X5335357Y-15644214D01*
X5378214Y-15644214D01*
X5406786Y-15658500D01*
X5421071Y-15687071D01*
X5421071Y-15844214D01*
X5563928Y-15844214D02*
X5563928Y-15644214D01*
X5563928Y-15672786D02*
X5578214Y-15658500D01*
X5606786Y-15644214D01*
X5649643Y-15644214D01*
X5678214Y-15658500D01*
X5692500Y-15687071D01*
X5692500Y-15844214D01*
X5692500Y-15687071D02*
X5706786Y-15658500D01*
X5735357Y-15644214D01*
X5778214Y-15644214D01*
X5806786Y-15658500D01*
X5821071Y-15687071D01*
X5821071Y-15844214D01*
X6406786Y-15529929D02*
X6149643Y-15915643D01*
X6792500Y-15544214D02*
X6821071Y-15544214D01*
X6849643Y-15558500D01*
X6863928Y-15572786D01*
X6878214Y-15601357D01*
X6892500Y-15658500D01*
X6892500Y-15729929D01*
X6878214Y-15787071D01*
X6863928Y-15815643D01*
X6849643Y-15829929D01*
X6821071Y-15844214D01*
X6792500Y-15844214D01*
X6763928Y-15829929D01*
X6749643Y-15815643D01*
X6735357Y-15787071D01*
X6721071Y-15729929D01*
X6721071Y-15658500D01*
X6735357Y-15601357D01*
X6749643Y-15572786D01*
X6763928Y-15558500D01*
X6792500Y-15544214D01*
X7021071Y-15815643D02*
X7035357Y-15829929D01*
X7021071Y-15844214D01*
X7006786Y-15829929D01*
X7021071Y-15815643D01*
X7021071Y-15844214D01*
X7221071Y-15544214D02*
X7249643Y-15544214D01*
X7278214Y-15558500D01*
X7292500Y-15572786D01*
X7306786Y-15601357D01*
X7321071Y-15658500D01*
X7321071Y-15729929D01*
X7306786Y-15787071D01*
X7292500Y-15815643D01*
X7278214Y-15829929D01*
X7249643Y-15844214D01*
X7221071Y-15844214D01*
X7192500Y-15829929D01*
X7178214Y-15815643D01*
X7163928Y-15787071D01*
X7149643Y-15729929D01*
X7149643Y-15658500D01*
X7163928Y-15601357D01*
X7178214Y-15572786D01*
X7192500Y-15558500D01*
X7221071Y-15544214D01*
X7421071Y-15544214D02*
X7606786Y-15544214D01*
X7506786Y-15658500D01*
X7549643Y-15658500D01*
X7578214Y-15672786D01*
X7592500Y-15687071D01*
X7606786Y-15715643D01*
X7606786Y-15787071D01*
X7592500Y-15815643D01*
X7578214Y-15829929D01*
X7549643Y-15844214D01*
X7463928Y-15844214D01*
X7435357Y-15829929D01*
X7421071Y-15815643D01*
X7749643Y-15844214D02*
X7806786Y-15844214D01*
X7835357Y-15829929D01*
X7849643Y-15815643D01*
X7878214Y-15772786D01*
X7892500Y-15715643D01*
X7892500Y-15601357D01*
X7878214Y-15572786D01*
X7863928Y-15558500D01*
X7835357Y-15544214D01*
X7778214Y-15544214D01*
X7749643Y-15558500D01*
X7735357Y-15572786D01*
X7721071Y-15601357D01*
X7721071Y-15672786D01*
X7735357Y-15701357D01*
X7749643Y-15715643D01*
X7778214Y-15729929D01*
X7835357Y-15729929D01*
X7863928Y-15715643D01*
X7878214Y-15701357D01*
X7892500Y-15672786D01*
X8006786Y-15544214D02*
X8006786Y-15601357D01*
X8121071Y-15544214D02*
X8121071Y-15601357D01*
X8563928Y-15958500D02*
X8549643Y-15944214D01*
X8521071Y-15901357D01*
X8506786Y-15872786D01*
X8492500Y-15829929D01*
X8478214Y-15758500D01*
X8478214Y-15701357D01*
X8492500Y-15629929D01*
X8506786Y-15587071D01*
X8521071Y-15558500D01*
X8549643Y-15515643D01*
X8563928Y-15501357D01*
X8835357Y-15844214D02*
X8663928Y-15844214D01*
X8749643Y-15844214D02*
X8749643Y-15544214D01*
X8721071Y-15587071D01*
X8692500Y-15615643D01*
X8663928Y-15629929D01*
X9092500Y-15644214D02*
X9092500Y-15844214D01*
X9021071Y-15529929D02*
X8949643Y-15744214D01*
X9135357Y-15744214D01*
X9306786Y-15544214D02*
X9335357Y-15544214D01*
X9363928Y-15558500D01*
X9378214Y-15572786D01*
X9392500Y-15601357D01*
X9406786Y-15658500D01*
X9406786Y-15729929D01*
X9392500Y-15787071D01*
X9378214Y-15815643D01*
X9363928Y-15829929D01*
X9335357Y-15844214D01*
X9306786Y-15844214D01*
X9278214Y-15829929D01*
X9263928Y-15815643D01*
X9249643Y-15787071D01*
X9235357Y-15729929D01*
X9235357Y-15658500D01*
X9249643Y-15601357D01*
X9263928Y-15572786D01*
X9278214Y-15558500D01*
X9306786Y-15544214D01*
X9763928Y-15844214D02*
X9763928Y-15544214D01*
X9892500Y-15844214D02*
X9892500Y-15687071D01*
X9878214Y-15658500D01*
X9849643Y-15644214D01*
X9806786Y-15644214D01*
X9778214Y-15658500D01*
X9763928Y-15672786D01*
X10078214Y-15844214D02*
X10049643Y-15829929D01*
X10035357Y-15815643D01*
X10021071Y-15787071D01*
X10021071Y-15701357D01*
X10035357Y-15672786D01*
X10049643Y-15658500D01*
X10078214Y-15644214D01*
X10121071Y-15644214D01*
X10149643Y-15658500D01*
X10163928Y-15672786D01*
X10178214Y-15701357D01*
X10178214Y-15787071D01*
X10163928Y-15815643D01*
X10149643Y-15829929D01*
X10121071Y-15844214D01*
X10078214Y-15844214D01*
X10349643Y-15844214D02*
X10321071Y-15829929D01*
X10306786Y-15801357D01*
X10306786Y-15544214D01*
X10578214Y-15829929D02*
X10549643Y-15844214D01*
X10492500Y-15844214D01*
X10463928Y-15829929D01*
X10449643Y-15801357D01*
X10449643Y-15687071D01*
X10463928Y-15658500D01*
X10492500Y-15644214D01*
X10549643Y-15644214D01*
X10578214Y-15658500D01*
X10592500Y-15687071D01*
X10592500Y-15715643D01*
X10449643Y-15744214D01*
X10706786Y-15829929D02*
X10735357Y-15844214D01*
X10792500Y-15844214D01*
X10821071Y-15829929D01*
X10835357Y-15801357D01*
X10835357Y-15787071D01*
X10821071Y-15758500D01*
X10792500Y-15744214D01*
X10749643Y-15744214D01*
X10721071Y-15729929D01*
X10706786Y-15701357D01*
X10706786Y-15687071D01*
X10721071Y-15658500D01*
X10749643Y-15644214D01*
X10792500Y-15644214D01*
X10821071Y-15658500D01*
X10935357Y-15958500D02*
X10949643Y-15944214D01*
X10978214Y-15901357D01*
X10992500Y-15872786D01*
X11006786Y-15829929D01*
X11021071Y-15758500D01*
X11021071Y-15701357D01*
X11006786Y-15629929D01*
X10992500Y-15587071D01*
X10978214Y-15558500D01*
X10949643Y-15515643D01*
X10935357Y-15501357D01*
X3777424Y-16054462D02*
X3877500Y-16154538D01*
X3877500Y-16054462D02*
X3777424Y-16154538D01*
X3877500Y-16104500D02*
G75*
G03*
X3877500Y-16104500I-50038J0D01*
G01*
X4321071Y-16240214D02*
X4149643Y-16240214D01*
X4235357Y-16240214D02*
X4235357Y-15940214D01*
X4206786Y-15983071D01*
X4178214Y-16011643D01*
X4149643Y-16025929D01*
X4449643Y-16211643D02*
X4463928Y-16225929D01*
X4449643Y-16240214D01*
X4435357Y-16225929D01*
X4449643Y-16211643D01*
X4449643Y-16240214D01*
X4649643Y-15940214D02*
X4678214Y-15940214D01*
X4706786Y-15954500D01*
X4721071Y-15968786D01*
X4735357Y-15997357D01*
X4749643Y-16054500D01*
X4749643Y-16125929D01*
X4735357Y-16183071D01*
X4721071Y-16211643D01*
X4706786Y-16225929D01*
X4678214Y-16240214D01*
X4649643Y-16240214D01*
X4621071Y-16225929D01*
X4606786Y-16211643D01*
X4592500Y-16183071D01*
X4578214Y-16125929D01*
X4578214Y-16054500D01*
X4592500Y-15997357D01*
X4606786Y-15968786D01*
X4621071Y-15954500D01*
X4649643Y-15940214D01*
X4935357Y-15940214D02*
X4963928Y-15940214D01*
X4992500Y-15954500D01*
X5006786Y-15968786D01*
X5021071Y-15997357D01*
X5035357Y-16054500D01*
X5035357Y-16125929D01*
X5021071Y-16183071D01*
X5006786Y-16211643D01*
X4992500Y-16225929D01*
X4963928Y-16240214D01*
X4935357Y-16240214D01*
X4906786Y-16225929D01*
X4892500Y-16211643D01*
X4878214Y-16183071D01*
X4863928Y-16125929D01*
X4863928Y-16054500D01*
X4878214Y-15997357D01*
X4892500Y-15968786D01*
X4906786Y-15954500D01*
X4935357Y-15940214D01*
X5163928Y-16240214D02*
X5163928Y-16040214D01*
X5163928Y-16068786D02*
X5178214Y-16054500D01*
X5206786Y-16040214D01*
X5249643Y-16040214D01*
X5278214Y-16054500D01*
X5292500Y-16083071D01*
X5292500Y-16240214D01*
X5292500Y-16083071D02*
X5306786Y-16054500D01*
X5335357Y-16040214D01*
X5378214Y-16040214D01*
X5406786Y-16054500D01*
X5421071Y-16083071D01*
X5421071Y-16240214D01*
X5563928Y-16240214D02*
X5563928Y-16040214D01*
X5563928Y-16068786D02*
X5578214Y-16054500D01*
X5606786Y-16040214D01*
X5649643Y-16040214D01*
X5678214Y-16054500D01*
X5692500Y-16083071D01*
X5692500Y-16240214D01*
X5692500Y-16083071D02*
X5706786Y-16054500D01*
X5735357Y-16040214D01*
X5778214Y-16040214D01*
X5806786Y-16054500D01*
X5821071Y-16083071D01*
X5821071Y-16240214D01*
X6406786Y-15925929D02*
X6149643Y-16311643D01*
X6792500Y-15940214D02*
X6821071Y-15940214D01*
X6849643Y-15954500D01*
X6863928Y-15968786D01*
X6878214Y-15997357D01*
X6892500Y-16054500D01*
X6892500Y-16125929D01*
X6878214Y-16183071D01*
X6863928Y-16211643D01*
X6849643Y-16225929D01*
X6821071Y-16240214D01*
X6792500Y-16240214D01*
X6763928Y-16225929D01*
X6749643Y-16211643D01*
X6735357Y-16183071D01*
X6721071Y-16125929D01*
X6721071Y-16054500D01*
X6735357Y-15997357D01*
X6749643Y-15968786D01*
X6763928Y-15954500D01*
X6792500Y-15940214D01*
X7021071Y-16211643D02*
X7035357Y-16225929D01*
X7021071Y-16240214D01*
X7006786Y-16225929D01*
X7021071Y-16211643D01*
X7021071Y-16240214D01*
X7221071Y-15940214D02*
X7249643Y-15940214D01*
X7278214Y-15954500D01*
X7292500Y-15968786D01*
X7306786Y-15997357D01*
X7321071Y-16054500D01*
X7321071Y-16125929D01*
X7306786Y-16183071D01*
X7292500Y-16211643D01*
X7278214Y-16225929D01*
X7249643Y-16240214D01*
X7221071Y-16240214D01*
X7192500Y-16225929D01*
X7178214Y-16211643D01*
X7163928Y-16183071D01*
X7149643Y-16125929D01*
X7149643Y-16054500D01*
X7163928Y-15997357D01*
X7178214Y-15968786D01*
X7192500Y-15954500D01*
X7221071Y-15940214D01*
X7421071Y-15940214D02*
X7606786Y-15940214D01*
X7506786Y-16054500D01*
X7549643Y-16054500D01*
X7578214Y-16068786D01*
X7592500Y-16083071D01*
X7606786Y-16111643D01*
X7606786Y-16183071D01*
X7592500Y-16211643D01*
X7578214Y-16225929D01*
X7549643Y-16240214D01*
X7463928Y-16240214D01*
X7435357Y-16225929D01*
X7421071Y-16211643D01*
X7749643Y-16240214D02*
X7806786Y-16240214D01*
X7835357Y-16225929D01*
X7849643Y-16211643D01*
X7878214Y-16168786D01*
X7892500Y-16111643D01*
X7892500Y-15997357D01*
X7878214Y-15968786D01*
X7863928Y-15954500D01*
X7835357Y-15940214D01*
X7778214Y-15940214D01*
X7749643Y-15954500D01*
X7735357Y-15968786D01*
X7721071Y-15997357D01*
X7721071Y-16068786D01*
X7735357Y-16097357D01*
X7749643Y-16111643D01*
X7778214Y-16125929D01*
X7835357Y-16125929D01*
X7863928Y-16111643D01*
X7878214Y-16097357D01*
X7892500Y-16068786D01*
X8006786Y-15940214D02*
X8006786Y-15997357D01*
X8121071Y-15940214D02*
X8121071Y-15997357D01*
X8563928Y-16354500D02*
X8549643Y-16340214D01*
X8521071Y-16297357D01*
X8506786Y-16268786D01*
X8492500Y-16225929D01*
X8478214Y-16154500D01*
X8478214Y-16097357D01*
X8492500Y-16025929D01*
X8506786Y-15983071D01*
X8521071Y-15954500D01*
X8549643Y-15911643D01*
X8563928Y-15897357D01*
X8663928Y-15968786D02*
X8678214Y-15954500D01*
X8706786Y-15940214D01*
X8778214Y-15940214D01*
X8806786Y-15954500D01*
X8821071Y-15968786D01*
X8835357Y-15997357D01*
X8835357Y-16025929D01*
X8821071Y-16068786D01*
X8649643Y-16240214D01*
X8835357Y-16240214D01*
X9192500Y-16240214D02*
X9192500Y-15940214D01*
X9321071Y-16240214D02*
X9321071Y-16083071D01*
X9306786Y-16054500D01*
X9278214Y-16040214D01*
X9235357Y-16040214D01*
X9206786Y-16054500D01*
X9192500Y-16068786D01*
X9506786Y-16240214D02*
X9478214Y-16225929D01*
X9463928Y-16211643D01*
X9449643Y-16183071D01*
X9449643Y-16097357D01*
X9463928Y-16068786D01*
X9478214Y-16054500D01*
X9506786Y-16040214D01*
X9549643Y-16040214D01*
X9578214Y-16054500D01*
X9592500Y-16068786D01*
X9606786Y-16097357D01*
X9606786Y-16183071D01*
X9592500Y-16211643D01*
X9578214Y-16225929D01*
X9549643Y-16240214D01*
X9506786Y-16240214D01*
X9778214Y-16240214D02*
X9749643Y-16225929D01*
X9735357Y-16197357D01*
X9735357Y-15940214D01*
X10006786Y-16225929D02*
X9978214Y-16240214D01*
X9921071Y-16240214D01*
X9892500Y-16225929D01*
X9878214Y-16197357D01*
X9878214Y-16083071D01*
X9892500Y-16054500D01*
X9921071Y-16040214D01*
X9978214Y-16040214D01*
X10006786Y-16054500D01*
X10021071Y-16083071D01*
X10021071Y-16111643D01*
X9878214Y-16140214D01*
X10135357Y-16225929D02*
X10163928Y-16240214D01*
X10221071Y-16240214D01*
X10249643Y-16225929D01*
X10263928Y-16197357D01*
X10263928Y-16183071D01*
X10249643Y-16154500D01*
X10221071Y-16140214D01*
X10178214Y-16140214D01*
X10149643Y-16125929D01*
X10135357Y-16097357D01*
X10135357Y-16083071D01*
X10149643Y-16054500D01*
X10178214Y-16040214D01*
X10221071Y-16040214D01*
X10249643Y-16054500D01*
X10363928Y-16354500D02*
X10378214Y-16340214D01*
X10406786Y-16297357D01*
X10421071Y-16268786D01*
X10435357Y-16225929D01*
X10449643Y-16154500D01*
X10449643Y-16097357D01*
X10435357Y-16025929D01*
X10421071Y-15983071D01*
X10406786Y-15954500D01*
X10378214Y-15911643D01*
X10363928Y-15897357D01*
X3775900Y-16449700D02*
X3877500Y-16551300D01*
X3877500Y-16449700D02*
X3775900Y-16551300D01*
X3826700Y-16449700D02*
X3826700Y-16551300D01*
X3775900Y-16500500D02*
X3877500Y-16500500D01*
X4321071Y-16636214D02*
X4149643Y-16636214D01*
X4235357Y-16636214D02*
X4235357Y-16336214D01*
X4206786Y-16379071D01*
X4178214Y-16407643D01*
X4149643Y-16421929D01*
X4449643Y-16607643D02*
X4463928Y-16621929D01*
X4449643Y-16636214D01*
X4435357Y-16621929D01*
X4449643Y-16607643D01*
X4449643Y-16636214D01*
X4649643Y-16336214D02*
X4678214Y-16336214D01*
X4706786Y-16350500D01*
X4721071Y-16364786D01*
X4735357Y-16393357D01*
X4749643Y-16450500D01*
X4749643Y-16521929D01*
X4735357Y-16579071D01*
X4721071Y-16607643D01*
X4706786Y-16621929D01*
X4678214Y-16636214D01*
X4649643Y-16636214D01*
X4621071Y-16621929D01*
X4606786Y-16607643D01*
X4592500Y-16579071D01*
X4578214Y-16521929D01*
X4578214Y-16450500D01*
X4592500Y-16393357D01*
X4606786Y-16364786D01*
X4621071Y-16350500D01*
X4649643Y-16336214D01*
X4863928Y-16364786D02*
X4878214Y-16350500D01*
X4906786Y-16336214D01*
X4978214Y-16336214D01*
X5006786Y-16350500D01*
X5021071Y-16364786D01*
X5035357Y-16393357D01*
X5035357Y-16421929D01*
X5021071Y-16464786D01*
X4849643Y-16636214D01*
X5035357Y-16636214D01*
X5163928Y-16636214D02*
X5163928Y-16436214D01*
X5163928Y-16464786D02*
X5178214Y-16450500D01*
X5206786Y-16436214D01*
X5249643Y-16436214D01*
X5278214Y-16450500D01*
X5292500Y-16479071D01*
X5292500Y-16636214D01*
X5292500Y-16479071D02*
X5306786Y-16450500D01*
X5335357Y-16436214D01*
X5378214Y-16436214D01*
X5406786Y-16450500D01*
X5421071Y-16479071D01*
X5421071Y-16636214D01*
X5563928Y-16636214D02*
X5563928Y-16436214D01*
X5563928Y-16464786D02*
X5578214Y-16450500D01*
X5606786Y-16436214D01*
X5649643Y-16436214D01*
X5678214Y-16450500D01*
X5692500Y-16479071D01*
X5692500Y-16636214D01*
X5692500Y-16479071D02*
X5706786Y-16450500D01*
X5735357Y-16436214D01*
X5778214Y-16436214D01*
X5806786Y-16450500D01*
X5821071Y-16479071D01*
X5821071Y-16636214D01*
X6406786Y-16321929D02*
X6149643Y-16707643D01*
X6792500Y-16336214D02*
X6821071Y-16336214D01*
X6849643Y-16350500D01*
X6863928Y-16364786D01*
X6878214Y-16393357D01*
X6892500Y-16450500D01*
X6892500Y-16521929D01*
X6878214Y-16579071D01*
X6863928Y-16607643D01*
X6849643Y-16621929D01*
X6821071Y-16636214D01*
X6792500Y-16636214D01*
X6763928Y-16621929D01*
X6749643Y-16607643D01*
X6735357Y-16579071D01*
X6721071Y-16521929D01*
X6721071Y-16450500D01*
X6735357Y-16393357D01*
X6749643Y-16364786D01*
X6763928Y-16350500D01*
X6792500Y-16336214D01*
X7021071Y-16607643D02*
X7035357Y-16621929D01*
X7021071Y-16636214D01*
X7006786Y-16621929D01*
X7021071Y-16607643D01*
X7021071Y-16636214D01*
X7221071Y-16336214D02*
X7249643Y-16336214D01*
X7278214Y-16350500D01*
X7292500Y-16364786D01*
X7306786Y-16393357D01*
X7321071Y-16450500D01*
X7321071Y-16521929D01*
X7306786Y-16579071D01*
X7292500Y-16607643D01*
X7278214Y-16621929D01*
X7249643Y-16636214D01*
X7221071Y-16636214D01*
X7192500Y-16621929D01*
X7178214Y-16607643D01*
X7163928Y-16579071D01*
X7149643Y-16521929D01*
X7149643Y-16450500D01*
X7163928Y-16393357D01*
X7178214Y-16364786D01*
X7192500Y-16350500D01*
X7221071Y-16336214D01*
X7578214Y-16436214D02*
X7578214Y-16636214D01*
X7506786Y-16321929D02*
X7435357Y-16536214D01*
X7621071Y-16536214D01*
X7792500Y-16336214D02*
X7821071Y-16336214D01*
X7849643Y-16350500D01*
X7863928Y-16364786D01*
X7878214Y-16393357D01*
X7892500Y-16450500D01*
X7892500Y-16521929D01*
X7878214Y-16579071D01*
X7863928Y-16607643D01*
X7849643Y-16621929D01*
X7821071Y-16636214D01*
X7792500Y-16636214D01*
X7763928Y-16621929D01*
X7749643Y-16607643D01*
X7735357Y-16579071D01*
X7721071Y-16521929D01*
X7721071Y-16450500D01*
X7735357Y-16393357D01*
X7749643Y-16364786D01*
X7763928Y-16350500D01*
X7792500Y-16336214D01*
X8006786Y-16336214D02*
X8006786Y-16393357D01*
X8121071Y-16336214D02*
X8121071Y-16393357D01*
X8563928Y-16750500D02*
X8549643Y-16736214D01*
X8521071Y-16693357D01*
X8506786Y-16664786D01*
X8492500Y-16621929D01*
X8478214Y-16550500D01*
X8478214Y-16493357D01*
X8492500Y-16421929D01*
X8506786Y-16379071D01*
X8521071Y-16350500D01*
X8549643Y-16307643D01*
X8563928Y-16293357D01*
X8692500Y-16636214D02*
X8749643Y-16636214D01*
X8778214Y-16621929D01*
X8792500Y-16607643D01*
X8821071Y-16564786D01*
X8835357Y-16507643D01*
X8835357Y-16393357D01*
X8821071Y-16364786D01*
X8806786Y-16350500D01*
X8778214Y-16336214D01*
X8721071Y-16336214D01*
X8692500Y-16350500D01*
X8678214Y-16364786D01*
X8663928Y-16393357D01*
X8663928Y-16464786D01*
X8678214Y-16493357D01*
X8692500Y-16507643D01*
X8721071Y-16521929D01*
X8778214Y-16521929D01*
X8806786Y-16507643D01*
X8821071Y-16493357D01*
X8835357Y-16464786D01*
X8949643Y-16364786D02*
X8963928Y-16350500D01*
X8992500Y-16336214D01*
X9063928Y-16336214D01*
X9092500Y-16350500D01*
X9106786Y-16364786D01*
X9121071Y-16393357D01*
X9121071Y-16421929D01*
X9106786Y-16464786D01*
X8935357Y-16636214D01*
X9121071Y-16636214D01*
X9478214Y-16636214D02*
X9478214Y-16336214D01*
X9606786Y-16636214D02*
X9606786Y-16479071D01*
X9592500Y-16450500D01*
X9563928Y-16436214D01*
X9521071Y-16436214D01*
X9492500Y-16450500D01*
X9478214Y-16464786D01*
X9792500Y-16636214D02*
X9763928Y-16621929D01*
X9749643Y-16607643D01*
X9735357Y-16579071D01*
X9735357Y-16493357D01*
X9749643Y-16464786D01*
X9763928Y-16450500D01*
X9792500Y-16436214D01*
X9835357Y-16436214D01*
X9863928Y-16450500D01*
X9878214Y-16464786D01*
X9892500Y-16493357D01*
X9892500Y-16579071D01*
X9878214Y-16607643D01*
X9863928Y-16621929D01*
X9835357Y-16636214D01*
X9792500Y-16636214D01*
X10063928Y-16636214D02*
X10035357Y-16621929D01*
X10021071Y-16593357D01*
X10021071Y-16336214D01*
X10292500Y-16621929D02*
X10263928Y-16636214D01*
X10206786Y-16636214D01*
X10178214Y-16621929D01*
X10163928Y-16593357D01*
X10163928Y-16479071D01*
X10178214Y-16450500D01*
X10206786Y-16436214D01*
X10263928Y-16436214D01*
X10292500Y-16450500D01*
X10306786Y-16479071D01*
X10306786Y-16507643D01*
X10163928Y-16536214D01*
X10421071Y-16621929D02*
X10449643Y-16636214D01*
X10506786Y-16636214D01*
X10535357Y-16621929D01*
X10549643Y-16593357D01*
X10549643Y-16579071D01*
X10535357Y-16550500D01*
X10506786Y-16536214D01*
X10463928Y-16536214D01*
X10435357Y-16521929D01*
X10421071Y-16493357D01*
X10421071Y-16479071D01*
X10435357Y-16450500D01*
X10463928Y-16436214D01*
X10506786Y-16436214D01*
X10535357Y-16450500D01*
X10649643Y-16750500D02*
X10663928Y-16736214D01*
X10692500Y-16693357D01*
X10706786Y-16664786D01*
X10721071Y-16621929D01*
X10735357Y-16550500D01*
X10735357Y-16493357D01*
X10721071Y-16421929D01*
X10706786Y-16379071D01*
X10692500Y-16350500D01*
X10663928Y-16307643D01*
X10649643Y-16293357D01*
X3767500Y-16841500D02*
X3877500Y-16951500D01*
X3877500Y-16841500D02*
X3767500Y-16951500D01*
X3861391Y-16935391D02*
X3861391Y-16857609D01*
X3783609Y-16857609D01*
X3783609Y-16935391D01*
X3861391Y-16935391D01*
X4321071Y-17032214D02*
X4149643Y-17032214D01*
X4235357Y-17032214D02*
X4235357Y-16732214D01*
X4206786Y-16775071D01*
X4178214Y-16803643D01*
X4149643Y-16817929D01*
X4449643Y-17003643D02*
X4463928Y-17017929D01*
X4449643Y-17032214D01*
X4435357Y-17017929D01*
X4449643Y-17003643D01*
X4449643Y-17032214D01*
X4749643Y-17032214D02*
X4578214Y-17032214D01*
X4663928Y-17032214D02*
X4663928Y-16732214D01*
X4635357Y-16775071D01*
X4606786Y-16803643D01*
X4578214Y-16817929D01*
X4935357Y-16732214D02*
X4963928Y-16732214D01*
X4992500Y-16746500D01*
X5006786Y-16760786D01*
X5021071Y-16789357D01*
X5035357Y-16846500D01*
X5035357Y-16917929D01*
X5021071Y-16975072D01*
X5006786Y-17003643D01*
X4992500Y-17017929D01*
X4963928Y-17032214D01*
X4935357Y-17032214D01*
X4906786Y-17017929D01*
X4892500Y-17003643D01*
X4878214Y-16975072D01*
X4863928Y-16917929D01*
X4863928Y-16846500D01*
X4878214Y-16789357D01*
X4892500Y-16760786D01*
X4906786Y-16746500D01*
X4935357Y-16732214D01*
X5163928Y-17032214D02*
X5163928Y-16832214D01*
X5163928Y-16860786D02*
X5178214Y-16846500D01*
X5206786Y-16832214D01*
X5249643Y-16832214D01*
X5278214Y-16846500D01*
X5292500Y-16875072D01*
X5292500Y-17032214D01*
X5292500Y-16875072D02*
X5306786Y-16846500D01*
X5335357Y-16832214D01*
X5378214Y-16832214D01*
X5406786Y-16846500D01*
X5421071Y-16875072D01*
X5421071Y-17032214D01*
X5563928Y-17032214D02*
X5563928Y-16832214D01*
X5563928Y-16860786D02*
X5578214Y-16846500D01*
X5606786Y-16832214D01*
X5649643Y-16832214D01*
X5678214Y-16846500D01*
X5692500Y-16875072D01*
X5692500Y-17032214D01*
X5692500Y-16875072D02*
X5706786Y-16846500D01*
X5735357Y-16832214D01*
X5778214Y-16832214D01*
X5806786Y-16846500D01*
X5821071Y-16875072D01*
X5821071Y-17032214D01*
X6406786Y-16717929D02*
X6149643Y-17103643D01*
X6792500Y-16732214D02*
X6821071Y-16732214D01*
X6849643Y-16746500D01*
X6863928Y-16760786D01*
X6878214Y-16789357D01*
X6892500Y-16846500D01*
X6892500Y-16917929D01*
X6878214Y-16975072D01*
X6863928Y-17003643D01*
X6849643Y-17017929D01*
X6821071Y-17032214D01*
X6792500Y-17032214D01*
X6763928Y-17017929D01*
X6749643Y-17003643D01*
X6735357Y-16975072D01*
X6721071Y-16917929D01*
X6721071Y-16846500D01*
X6735357Y-16789357D01*
X6749643Y-16760786D01*
X6763928Y-16746500D01*
X6792500Y-16732214D01*
X7021071Y-17003643D02*
X7035357Y-17017929D01*
X7021071Y-17032214D01*
X7006786Y-17017929D01*
X7021071Y-17003643D01*
X7021071Y-17032214D01*
X7221071Y-16732214D02*
X7249643Y-16732214D01*
X7278214Y-16746500D01*
X7292500Y-16760786D01*
X7306786Y-16789357D01*
X7321071Y-16846500D01*
X7321071Y-16917929D01*
X7306786Y-16975072D01*
X7292500Y-17003643D01*
X7278214Y-17017929D01*
X7249643Y-17032214D01*
X7221071Y-17032214D01*
X7192500Y-17017929D01*
X7178214Y-17003643D01*
X7163928Y-16975072D01*
X7149643Y-16917929D01*
X7149643Y-16846500D01*
X7163928Y-16789357D01*
X7178214Y-16760786D01*
X7192500Y-16746500D01*
X7221071Y-16732214D01*
X7578214Y-16832214D02*
X7578214Y-17032214D01*
X7506786Y-16717929D02*
X7435357Y-16932214D01*
X7621071Y-16932214D01*
X7706786Y-16732214D02*
X7892500Y-16732214D01*
X7792500Y-16846500D01*
X7835357Y-16846500D01*
X7863928Y-16860786D01*
X7878214Y-16875072D01*
X7892500Y-16903643D01*
X7892500Y-16975072D01*
X7878214Y-17003643D01*
X7863928Y-17017929D01*
X7835357Y-17032214D01*
X7749643Y-17032214D01*
X7721071Y-17017929D01*
X7706786Y-17003643D01*
X8006786Y-16732214D02*
X8006786Y-16789357D01*
X8121071Y-16732214D02*
X8121071Y-16789357D01*
X8563928Y-17146500D02*
X8549643Y-17132214D01*
X8521071Y-17089357D01*
X8506786Y-17060786D01*
X8492500Y-17017929D01*
X8478214Y-16946500D01*
X8478214Y-16889357D01*
X8492500Y-16817929D01*
X8506786Y-16775071D01*
X8521071Y-16746500D01*
X8549643Y-16703643D01*
X8563928Y-16689357D01*
X8663928Y-16760786D02*
X8678214Y-16746500D01*
X8706786Y-16732214D01*
X8778214Y-16732214D01*
X8806786Y-16746500D01*
X8821071Y-16760786D01*
X8835357Y-16789357D01*
X8835357Y-16817929D01*
X8821071Y-16860786D01*
X8649643Y-17032214D01*
X8835357Y-17032214D01*
X9021071Y-16732214D02*
X9049643Y-16732214D01*
X9078214Y-16746500D01*
X9092500Y-16760786D01*
X9106786Y-16789357D01*
X9121071Y-16846500D01*
X9121071Y-16917929D01*
X9106786Y-16975072D01*
X9092500Y-17003643D01*
X9078214Y-17017929D01*
X9049643Y-17032214D01*
X9021071Y-17032214D01*
X8992500Y-17017929D01*
X8978214Y-17003643D01*
X8963928Y-16975072D01*
X8949643Y-16917929D01*
X8949643Y-16846500D01*
X8963928Y-16789357D01*
X8978214Y-16760786D01*
X8992500Y-16746500D01*
X9021071Y-16732214D01*
X9478214Y-17032214D02*
X9478214Y-16732214D01*
X9606786Y-17032214D02*
X9606786Y-16875072D01*
X9592500Y-16846500D01*
X9563928Y-16832214D01*
X9521071Y-16832214D01*
X9492500Y-16846500D01*
X9478214Y-16860786D01*
X9792500Y-17032214D02*
X9763928Y-17017929D01*
X9749643Y-17003643D01*
X9735357Y-16975072D01*
X9735357Y-16889357D01*
X9749643Y-16860786D01*
X9763928Y-16846500D01*
X9792500Y-16832214D01*
X9835357Y-16832214D01*
X9863928Y-16846500D01*
X9878214Y-16860786D01*
X9892500Y-16889357D01*
X9892500Y-16975072D01*
X9878214Y-17003643D01*
X9863928Y-17017929D01*
X9835357Y-17032214D01*
X9792500Y-17032214D01*
X10063928Y-17032214D02*
X10035357Y-17017929D01*
X10021071Y-16989357D01*
X10021071Y-16732214D01*
X10292500Y-17017929D02*
X10263928Y-17032214D01*
X10206786Y-17032214D01*
X10178214Y-17017929D01*
X10163928Y-16989357D01*
X10163928Y-16875072D01*
X10178214Y-16846500D01*
X10206786Y-16832214D01*
X10263928Y-16832214D01*
X10292500Y-16846500D01*
X10306786Y-16875072D01*
X10306786Y-16903643D01*
X10163928Y-16932214D01*
X10421071Y-17017929D02*
X10449643Y-17032214D01*
X10506786Y-17032214D01*
X10535357Y-17017929D01*
X10549643Y-16989357D01*
X10549643Y-16975072D01*
X10535357Y-16946500D01*
X10506786Y-16932214D01*
X10463928Y-16932214D01*
X10435357Y-16917929D01*
X10421071Y-16889357D01*
X10421071Y-16875072D01*
X10435357Y-16846500D01*
X10463928Y-16832214D01*
X10506786Y-16832214D01*
X10535357Y-16846500D01*
X10649643Y-17146500D02*
X10663928Y-17132214D01*
X10692500Y-17089357D01*
X10706786Y-17060786D01*
X10721071Y-17017929D01*
X10735357Y-16946500D01*
X10735357Y-16889357D01*
X10721071Y-16817929D01*
X10706786Y-16775071D01*
X10692500Y-16746500D01*
X10663928Y-16703643D01*
X10649643Y-16689357D01*
X3725500Y-17216500D02*
X3877500Y-17368500D01*
X3877500Y-17216500D02*
X3725500Y-17368500D01*
X3801500Y-17368500D02*
X3877500Y-17292500D01*
X3801500Y-17216500D01*
X3725500Y-17292500D01*
X3801500Y-17368500D01*
X4321071Y-17428214D02*
X4149643Y-17428214D01*
X4235357Y-17428214D02*
X4235357Y-17128214D01*
X4206786Y-17171072D01*
X4178214Y-17199643D01*
X4149643Y-17213929D01*
X4449643Y-17399643D02*
X4463928Y-17413929D01*
X4449643Y-17428214D01*
X4435357Y-17413929D01*
X4449643Y-17399643D01*
X4449643Y-17428214D01*
X4735357Y-17128214D02*
X4592500Y-17128214D01*
X4578214Y-17271072D01*
X4592500Y-17256786D01*
X4621071Y-17242500D01*
X4692500Y-17242500D01*
X4721071Y-17256786D01*
X4735357Y-17271072D01*
X4749643Y-17299643D01*
X4749643Y-17371072D01*
X4735357Y-17399643D01*
X4721071Y-17413929D01*
X4692500Y-17428214D01*
X4621071Y-17428214D01*
X4592500Y-17413929D01*
X4578214Y-17399643D01*
X4863928Y-17156786D02*
X4878214Y-17142500D01*
X4906786Y-17128214D01*
X4978214Y-17128214D01*
X5006786Y-17142500D01*
X5021071Y-17156786D01*
X5035357Y-17185357D01*
X5035357Y-17213929D01*
X5021071Y-17256786D01*
X4849643Y-17428214D01*
X5035357Y-17428214D01*
X5163928Y-17428214D02*
X5163928Y-17228214D01*
X5163928Y-17256786D02*
X5178214Y-17242500D01*
X5206786Y-17228214D01*
X5249643Y-17228214D01*
X5278214Y-17242500D01*
X5292500Y-17271072D01*
X5292500Y-17428214D01*
X5292500Y-17271072D02*
X5306786Y-17242500D01*
X5335357Y-17228214D01*
X5378214Y-17228214D01*
X5406786Y-17242500D01*
X5421071Y-17271072D01*
X5421071Y-17428214D01*
X5563928Y-17428214D02*
X5563928Y-17228214D01*
X5563928Y-17256786D02*
X5578214Y-17242500D01*
X5606786Y-17228214D01*
X5649643Y-17228214D01*
X5678214Y-17242500D01*
X5692500Y-17271072D01*
X5692500Y-17428214D01*
X5692500Y-17271072D02*
X5706786Y-17242500D01*
X5735357Y-17228214D01*
X5778214Y-17228214D01*
X5806786Y-17242500D01*
X5821071Y-17271072D01*
X5821071Y-17428214D01*
X6406786Y-17113929D02*
X6149643Y-17499643D01*
X6792500Y-17128214D02*
X6821071Y-17128214D01*
X6849643Y-17142500D01*
X6863928Y-17156786D01*
X6878214Y-17185357D01*
X6892500Y-17242500D01*
X6892500Y-17313929D01*
X6878214Y-17371072D01*
X6863928Y-17399643D01*
X6849643Y-17413929D01*
X6821071Y-17428214D01*
X6792500Y-17428214D01*
X6763928Y-17413929D01*
X6749643Y-17399643D01*
X6735357Y-17371072D01*
X6721071Y-17313929D01*
X6721071Y-17242500D01*
X6735357Y-17185357D01*
X6749643Y-17156786D01*
X6763928Y-17142500D01*
X6792500Y-17128214D01*
X7021071Y-17399643D02*
X7035357Y-17413929D01*
X7021071Y-17428214D01*
X7006786Y-17413929D01*
X7021071Y-17399643D01*
X7021071Y-17428214D01*
X7221071Y-17128214D02*
X7249643Y-17128214D01*
X7278214Y-17142500D01*
X7292500Y-17156786D01*
X7306786Y-17185357D01*
X7321071Y-17242500D01*
X7321071Y-17313929D01*
X7306786Y-17371072D01*
X7292500Y-17399643D01*
X7278214Y-17413929D01*
X7249643Y-17428214D01*
X7221071Y-17428214D01*
X7192500Y-17413929D01*
X7178214Y-17399643D01*
X7163928Y-17371072D01*
X7149643Y-17313929D01*
X7149643Y-17242500D01*
X7163928Y-17185357D01*
X7178214Y-17156786D01*
X7192500Y-17142500D01*
X7221071Y-17128214D01*
X7578214Y-17128214D02*
X7521071Y-17128214D01*
X7492500Y-17142500D01*
X7478214Y-17156786D01*
X7449643Y-17199643D01*
X7435357Y-17256786D01*
X7435357Y-17371072D01*
X7449643Y-17399643D01*
X7463928Y-17413929D01*
X7492500Y-17428214D01*
X7549643Y-17428214D01*
X7578214Y-17413929D01*
X7592500Y-17399643D01*
X7606786Y-17371072D01*
X7606786Y-17299643D01*
X7592500Y-17271072D01*
X7578214Y-17256786D01*
X7549643Y-17242500D01*
X7492500Y-17242500D01*
X7463928Y-17256786D01*
X7449643Y-17271072D01*
X7435357Y-17299643D01*
X7792500Y-17128214D02*
X7821071Y-17128214D01*
X7849643Y-17142500D01*
X7863928Y-17156786D01*
X7878214Y-17185357D01*
X7892500Y-17242500D01*
X7892500Y-17313929D01*
X7878214Y-17371072D01*
X7863928Y-17399643D01*
X7849643Y-17413929D01*
X7821071Y-17428214D01*
X7792500Y-17428214D01*
X7763928Y-17413929D01*
X7749643Y-17399643D01*
X7735357Y-17371072D01*
X7721071Y-17313929D01*
X7721071Y-17242500D01*
X7735357Y-17185357D01*
X7749643Y-17156786D01*
X7763928Y-17142500D01*
X7792500Y-17128214D01*
X8006786Y-17128214D02*
X8006786Y-17185357D01*
X8121071Y-17128214D02*
X8121071Y-17185357D01*
X8563928Y-17542500D02*
X8549643Y-17528214D01*
X8521071Y-17485357D01*
X8506786Y-17456786D01*
X8492500Y-17413929D01*
X8478214Y-17342500D01*
X8478214Y-17285357D01*
X8492500Y-17213929D01*
X8506786Y-17171072D01*
X8521071Y-17142500D01*
X8549643Y-17099643D01*
X8563928Y-17085357D01*
X8835357Y-17428214D02*
X8663928Y-17428214D01*
X8749643Y-17428214D02*
X8749643Y-17128214D01*
X8721071Y-17171072D01*
X8692500Y-17199643D01*
X8663928Y-17213929D01*
X9092500Y-17228214D02*
X9092500Y-17428214D01*
X9021071Y-17113929D02*
X8949643Y-17328214D01*
X9135357Y-17328214D01*
X9478214Y-17428214D02*
X9478214Y-17128214D01*
X9606786Y-17428214D02*
X9606786Y-17271072D01*
X9592500Y-17242500D01*
X9563928Y-17228214D01*
X9521071Y-17228214D01*
X9492500Y-17242500D01*
X9478214Y-17256786D01*
X9792500Y-17428214D02*
X9763928Y-17413929D01*
X9749643Y-17399643D01*
X9735357Y-17371072D01*
X9735357Y-17285357D01*
X9749643Y-17256786D01*
X9763928Y-17242500D01*
X9792500Y-17228214D01*
X9835357Y-17228214D01*
X9863928Y-17242500D01*
X9878214Y-17256786D01*
X9892500Y-17285357D01*
X9892500Y-17371072D01*
X9878214Y-17399643D01*
X9863928Y-17413929D01*
X9835357Y-17428214D01*
X9792500Y-17428214D01*
X10063928Y-17428214D02*
X10035357Y-17413929D01*
X10021071Y-17385357D01*
X10021071Y-17128214D01*
X10292500Y-17413929D02*
X10263928Y-17428214D01*
X10206786Y-17428214D01*
X10178214Y-17413929D01*
X10163928Y-17385357D01*
X10163928Y-17271072D01*
X10178214Y-17242500D01*
X10206786Y-17228214D01*
X10263928Y-17228214D01*
X10292500Y-17242500D01*
X10306786Y-17271072D01*
X10306786Y-17299643D01*
X10163928Y-17328214D01*
X10421071Y-17413929D02*
X10449643Y-17428214D01*
X10506786Y-17428214D01*
X10535357Y-17413929D01*
X10549643Y-17385357D01*
X10549643Y-17371072D01*
X10535357Y-17342500D01*
X10506786Y-17328214D01*
X10463928Y-17328214D01*
X10435357Y-17313929D01*
X10421071Y-17285357D01*
X10421071Y-17271072D01*
X10435357Y-17242500D01*
X10463928Y-17228214D01*
X10506786Y-17228214D01*
X10535357Y-17242500D01*
X10649643Y-17542500D02*
X10663928Y-17528214D01*
X10692500Y-17485357D01*
X10706786Y-17456786D01*
X10721071Y-17413929D01*
X10735357Y-17342500D01*
X10735357Y-17285357D01*
X10721071Y-17213929D01*
X10706786Y-17171072D01*
X10692500Y-17142500D01*
X10663928Y-17099643D01*
X10649643Y-17085357D01*
X3777500Y-17588500D02*
X3777500Y-17788500D01*
X3677500Y-17688500D02*
X3877500Y-17688500D01*
X3877500Y-17688500D02*
G75*
G03*
X3877500Y-17688500I-100000J0D01*
G01*
X4149643Y-17552786D02*
X4163928Y-17538500D01*
X4192500Y-17524214D01*
X4263928Y-17524214D01*
X4292500Y-17538500D01*
X4306786Y-17552786D01*
X4321071Y-17581357D01*
X4321071Y-17609929D01*
X4306786Y-17652786D01*
X4135357Y-17824214D01*
X4321071Y-17824214D01*
X4449643Y-17795643D02*
X4463928Y-17809929D01*
X4449643Y-17824214D01*
X4435357Y-17809929D01*
X4449643Y-17795643D01*
X4449643Y-17824214D01*
X4649643Y-17524214D02*
X4678214Y-17524214D01*
X4706786Y-17538500D01*
X4721071Y-17552786D01*
X4735357Y-17581357D01*
X4749643Y-17638500D01*
X4749643Y-17709929D01*
X4735357Y-17767072D01*
X4721071Y-17795643D01*
X4706786Y-17809929D01*
X4678214Y-17824214D01*
X4649643Y-17824214D01*
X4621071Y-17809929D01*
X4606786Y-17795643D01*
X4592500Y-17767072D01*
X4578214Y-17709929D01*
X4578214Y-17638500D01*
X4592500Y-17581357D01*
X4606786Y-17552786D01*
X4621071Y-17538500D01*
X4649643Y-17524214D01*
X4935357Y-17524214D02*
X4963928Y-17524214D01*
X4992500Y-17538500D01*
X5006786Y-17552786D01*
X5021071Y-17581357D01*
X5035357Y-17638500D01*
X5035357Y-17709929D01*
X5021071Y-17767072D01*
X5006786Y-17795643D01*
X4992500Y-17809929D01*
X4963928Y-17824214D01*
X4935357Y-17824214D01*
X4906786Y-17809929D01*
X4892500Y-17795643D01*
X4878214Y-17767072D01*
X4863928Y-17709929D01*
X4863928Y-17638500D01*
X4878214Y-17581357D01*
X4892500Y-17552786D01*
X4906786Y-17538500D01*
X4935357Y-17524214D01*
X5163928Y-17824214D02*
X5163928Y-17624214D01*
X5163928Y-17652786D02*
X5178214Y-17638500D01*
X5206786Y-17624214D01*
X5249643Y-17624214D01*
X5278214Y-17638500D01*
X5292500Y-17667072D01*
X5292500Y-17824214D01*
X5292500Y-17667072D02*
X5306786Y-17638500D01*
X5335357Y-17624214D01*
X5378214Y-17624214D01*
X5406786Y-17638500D01*
X5421071Y-17667072D01*
X5421071Y-17824214D01*
X5563928Y-17824214D02*
X5563928Y-17624214D01*
X5563928Y-17652786D02*
X5578214Y-17638500D01*
X5606786Y-17624214D01*
X5649643Y-17624214D01*
X5678214Y-17638500D01*
X5692500Y-17667072D01*
X5692500Y-17824214D01*
X5692500Y-17667072D02*
X5706786Y-17638500D01*
X5735357Y-17624214D01*
X5778214Y-17624214D01*
X5806786Y-17638500D01*
X5821071Y-17667072D01*
X5821071Y-17824214D01*
X6406786Y-17509929D02*
X6149643Y-17895643D01*
X6792500Y-17524214D02*
X6821071Y-17524214D01*
X6849643Y-17538500D01*
X6863928Y-17552786D01*
X6878214Y-17581357D01*
X6892500Y-17638500D01*
X6892500Y-17709929D01*
X6878214Y-17767072D01*
X6863928Y-17795643D01*
X6849643Y-17809929D01*
X6821071Y-17824214D01*
X6792500Y-17824214D01*
X6763928Y-17809929D01*
X6749643Y-17795643D01*
X6735357Y-17767072D01*
X6721071Y-17709929D01*
X6721071Y-17638500D01*
X6735357Y-17581357D01*
X6749643Y-17552786D01*
X6763928Y-17538500D01*
X6792500Y-17524214D01*
X7021071Y-17795643D02*
X7035357Y-17809929D01*
X7021071Y-17824214D01*
X7006786Y-17809929D01*
X7021071Y-17795643D01*
X7021071Y-17824214D01*
X7221071Y-17524214D02*
X7249643Y-17524214D01*
X7278214Y-17538500D01*
X7292500Y-17552786D01*
X7306786Y-17581357D01*
X7321071Y-17638500D01*
X7321071Y-17709929D01*
X7306786Y-17767072D01*
X7292500Y-17795643D01*
X7278214Y-17809929D01*
X7249643Y-17824214D01*
X7221071Y-17824214D01*
X7192500Y-17809929D01*
X7178214Y-17795643D01*
X7163928Y-17767072D01*
X7149643Y-17709929D01*
X7149643Y-17638500D01*
X7163928Y-17581357D01*
X7178214Y-17552786D01*
X7192500Y-17538500D01*
X7221071Y-17524214D01*
X7421071Y-17524214D02*
X7621071Y-17524214D01*
X7492500Y-17824214D01*
X7749643Y-17824214D02*
X7806786Y-17824214D01*
X7835357Y-17809929D01*
X7849643Y-17795643D01*
X7878214Y-17752786D01*
X7892500Y-17695643D01*
X7892500Y-17581357D01*
X7878214Y-17552786D01*
X7863928Y-17538500D01*
X7835357Y-17524214D01*
X7778214Y-17524214D01*
X7749643Y-17538500D01*
X7735357Y-17552786D01*
X7721071Y-17581357D01*
X7721071Y-17652786D01*
X7735357Y-17681357D01*
X7749643Y-17695643D01*
X7778214Y-17709929D01*
X7835357Y-17709929D01*
X7863928Y-17695643D01*
X7878214Y-17681357D01*
X7892500Y-17652786D01*
X8006786Y-17524214D02*
X8006786Y-17581357D01*
X8121071Y-17524214D02*
X8121071Y-17581357D01*
X8563928Y-17938500D02*
X8549643Y-17924214D01*
X8521071Y-17881357D01*
X8506786Y-17852786D01*
X8492500Y-17809929D01*
X8478214Y-17738500D01*
X8478214Y-17681357D01*
X8492500Y-17609929D01*
X8506786Y-17567072D01*
X8521071Y-17538500D01*
X8549643Y-17495643D01*
X8563928Y-17481357D01*
X8806786Y-17624214D02*
X8806786Y-17824214D01*
X8735357Y-17509929D02*
X8663928Y-17724214D01*
X8849643Y-17724214D01*
X9192500Y-17824214D02*
X9192500Y-17524214D01*
X9321071Y-17824214D02*
X9321071Y-17667072D01*
X9306786Y-17638500D01*
X9278214Y-17624214D01*
X9235357Y-17624214D01*
X9206786Y-17638500D01*
X9192500Y-17652786D01*
X9506786Y-17824214D02*
X9478214Y-17809929D01*
X9463928Y-17795643D01*
X9449643Y-17767072D01*
X9449643Y-17681357D01*
X9463928Y-17652786D01*
X9478214Y-17638500D01*
X9506786Y-17624214D01*
X9549643Y-17624214D01*
X9578214Y-17638500D01*
X9592500Y-17652786D01*
X9606786Y-17681357D01*
X9606786Y-17767072D01*
X9592500Y-17795643D01*
X9578214Y-17809929D01*
X9549643Y-17824214D01*
X9506786Y-17824214D01*
X9778214Y-17824214D02*
X9749643Y-17809929D01*
X9735357Y-17781357D01*
X9735357Y-17524214D01*
X10006786Y-17809929D02*
X9978214Y-17824214D01*
X9921071Y-17824214D01*
X9892500Y-17809929D01*
X9878214Y-17781357D01*
X9878214Y-17667072D01*
X9892500Y-17638500D01*
X9921071Y-17624214D01*
X9978214Y-17624214D01*
X10006786Y-17638500D01*
X10021071Y-17667072D01*
X10021071Y-17695643D01*
X9878214Y-17724214D01*
X10135357Y-17809929D02*
X10163928Y-17824214D01*
X10221071Y-17824214D01*
X10249643Y-17809929D01*
X10263928Y-17781357D01*
X10263928Y-17767072D01*
X10249643Y-17738500D01*
X10221071Y-17724214D01*
X10178214Y-17724214D01*
X10149643Y-17709929D01*
X10135357Y-17681357D01*
X10135357Y-17667072D01*
X10149643Y-17638500D01*
X10178214Y-17624214D01*
X10221071Y-17624214D01*
X10249643Y-17638500D01*
X10363928Y-17938500D02*
X10378214Y-17924214D01*
X10406786Y-17881357D01*
X10421071Y-17852786D01*
X10435357Y-17809929D01*
X10449643Y-17738500D01*
X10449643Y-17681357D01*
X10435357Y-17609929D01*
X10421071Y-17567072D01*
X10406786Y-17538500D01*
X10378214Y-17495643D01*
X10363928Y-17481357D01*
X3845282Y-18162283D02*
X3845282Y-18006718D01*
X3689717Y-18006718D01*
X3689717Y-18162283D01*
X3845282Y-18162283D01*
X3877500Y-18084500D02*
G75*
G03*
X3877500Y-18084500I-110000J0D01*
G01*
X4149643Y-17948786D02*
X4163928Y-17934500D01*
X4192500Y-17920214D01*
X4263928Y-17920214D01*
X4292500Y-17934500D01*
X4306786Y-17948786D01*
X4321071Y-17977357D01*
X4321071Y-18005929D01*
X4306786Y-18048786D01*
X4135357Y-18220214D01*
X4321071Y-18220214D01*
X4449643Y-18191643D02*
X4463928Y-18205929D01*
X4449643Y-18220214D01*
X4435357Y-18205929D01*
X4449643Y-18191643D01*
X4449643Y-18220214D01*
X4578214Y-17948786D02*
X4592500Y-17934500D01*
X4621071Y-17920214D01*
X4692500Y-17920214D01*
X4721071Y-17934500D01*
X4735357Y-17948786D01*
X4749643Y-17977357D01*
X4749643Y-18005929D01*
X4735357Y-18048786D01*
X4563928Y-18220214D01*
X4749643Y-18220214D01*
X4935357Y-17920214D02*
X4963928Y-17920214D01*
X4992500Y-17934500D01*
X5006786Y-17948786D01*
X5021071Y-17977357D01*
X5035357Y-18034500D01*
X5035357Y-18105929D01*
X5021071Y-18163072D01*
X5006786Y-18191643D01*
X4992500Y-18205929D01*
X4963928Y-18220214D01*
X4935357Y-18220214D01*
X4906786Y-18205929D01*
X4892500Y-18191643D01*
X4878214Y-18163072D01*
X4863928Y-18105929D01*
X4863928Y-18034500D01*
X4878214Y-17977357D01*
X4892500Y-17948786D01*
X4906786Y-17934500D01*
X4935357Y-17920214D01*
X5163928Y-18220214D02*
X5163928Y-18020214D01*
X5163928Y-18048786D02*
X5178214Y-18034500D01*
X5206786Y-18020214D01*
X5249643Y-18020214D01*
X5278214Y-18034500D01*
X5292500Y-18063072D01*
X5292500Y-18220214D01*
X5292500Y-18063072D02*
X5306786Y-18034500D01*
X5335357Y-18020214D01*
X5378214Y-18020214D01*
X5406786Y-18034500D01*
X5421071Y-18063072D01*
X5421071Y-18220214D01*
X5563928Y-18220214D02*
X5563928Y-18020214D01*
X5563928Y-18048786D02*
X5578214Y-18034500D01*
X5606786Y-18020214D01*
X5649643Y-18020214D01*
X5678214Y-18034500D01*
X5692500Y-18063072D01*
X5692500Y-18220214D01*
X5692500Y-18063072D02*
X5706786Y-18034500D01*
X5735357Y-18020214D01*
X5778214Y-18020214D01*
X5806786Y-18034500D01*
X5821071Y-18063072D01*
X5821071Y-18220214D01*
X6406786Y-17905929D02*
X6149643Y-18291643D01*
X6792500Y-17920214D02*
X6821071Y-17920214D01*
X6849643Y-17934500D01*
X6863928Y-17948786D01*
X6878214Y-17977357D01*
X6892500Y-18034500D01*
X6892500Y-18105929D01*
X6878214Y-18163072D01*
X6863928Y-18191643D01*
X6849643Y-18205929D01*
X6821071Y-18220214D01*
X6792500Y-18220214D01*
X6763928Y-18205929D01*
X6749643Y-18191643D01*
X6735357Y-18163072D01*
X6721071Y-18105929D01*
X6721071Y-18034500D01*
X6735357Y-17977357D01*
X6749643Y-17948786D01*
X6763928Y-17934500D01*
X6792500Y-17920214D01*
X7021071Y-18191643D02*
X7035357Y-18205929D01*
X7021071Y-18220214D01*
X7006786Y-18205929D01*
X7021071Y-18191643D01*
X7021071Y-18220214D01*
X7221071Y-17920214D02*
X7249643Y-17920214D01*
X7278214Y-17934500D01*
X7292500Y-17948786D01*
X7306786Y-17977357D01*
X7321071Y-18034500D01*
X7321071Y-18105929D01*
X7306786Y-18163072D01*
X7292500Y-18191643D01*
X7278214Y-18205929D01*
X7249643Y-18220214D01*
X7221071Y-18220214D01*
X7192500Y-18205929D01*
X7178214Y-18191643D01*
X7163928Y-18163072D01*
X7149643Y-18105929D01*
X7149643Y-18034500D01*
X7163928Y-17977357D01*
X7178214Y-17948786D01*
X7192500Y-17934500D01*
X7221071Y-17920214D01*
X7492500Y-18048786D02*
X7463928Y-18034500D01*
X7449643Y-18020214D01*
X7435357Y-17991643D01*
X7435357Y-17977357D01*
X7449643Y-17948786D01*
X7463928Y-17934500D01*
X7492500Y-17920214D01*
X7549643Y-17920214D01*
X7578214Y-17934500D01*
X7592500Y-17948786D01*
X7606786Y-17977357D01*
X7606786Y-17991643D01*
X7592500Y-18020214D01*
X7578214Y-18034500D01*
X7549643Y-18048786D01*
X7492500Y-18048786D01*
X7463928Y-18063072D01*
X7449643Y-18077357D01*
X7435357Y-18105929D01*
X7435357Y-18163072D01*
X7449643Y-18191643D01*
X7463928Y-18205929D01*
X7492500Y-18220214D01*
X7549643Y-18220214D01*
X7578214Y-18205929D01*
X7592500Y-18191643D01*
X7606786Y-18163072D01*
X7606786Y-18105929D01*
X7592500Y-18077357D01*
X7578214Y-18063072D01*
X7549643Y-18048786D01*
X7706786Y-17920214D02*
X7906786Y-17920214D01*
X7778214Y-18220214D01*
X8006786Y-17920214D02*
X8006786Y-17977357D01*
X8121071Y-17920214D02*
X8121071Y-17977357D01*
X8563928Y-18334500D02*
X8549643Y-18320214D01*
X8521071Y-18277357D01*
X8506786Y-18248786D01*
X8492500Y-18205929D01*
X8478214Y-18134500D01*
X8478214Y-18077357D01*
X8492500Y-18005929D01*
X8506786Y-17963072D01*
X8521071Y-17934500D01*
X8549643Y-17891643D01*
X8563928Y-17877357D01*
X8806786Y-18020214D02*
X8806786Y-18220214D01*
X8735357Y-17905929D02*
X8663928Y-18120214D01*
X8849643Y-18120214D01*
X9192500Y-18220214D02*
X9192500Y-17920214D01*
X9321071Y-18220214D02*
X9321071Y-18063072D01*
X9306786Y-18034500D01*
X9278214Y-18020214D01*
X9235357Y-18020214D01*
X9206786Y-18034500D01*
X9192500Y-18048786D01*
X9506786Y-18220214D02*
X9478214Y-18205929D01*
X9463928Y-18191643D01*
X9449643Y-18163072D01*
X9449643Y-18077357D01*
X9463928Y-18048786D01*
X9478214Y-18034500D01*
X9506786Y-18020214D01*
X9549643Y-18020214D01*
X9578214Y-18034500D01*
X9592500Y-18048786D01*
X9606786Y-18077357D01*
X9606786Y-18163072D01*
X9592500Y-18191643D01*
X9578214Y-18205929D01*
X9549643Y-18220214D01*
X9506786Y-18220214D01*
X9778214Y-18220214D02*
X9749643Y-18205929D01*
X9735357Y-18177357D01*
X9735357Y-17920214D01*
X10006786Y-18205929D02*
X9978214Y-18220214D01*
X9921071Y-18220214D01*
X9892500Y-18205929D01*
X9878214Y-18177357D01*
X9878214Y-18063072D01*
X9892500Y-18034500D01*
X9921071Y-18020214D01*
X9978214Y-18020214D01*
X10006786Y-18034500D01*
X10021071Y-18063072D01*
X10021071Y-18091643D01*
X9878214Y-18120214D01*
X10135357Y-18205929D02*
X10163928Y-18220214D01*
X10221071Y-18220214D01*
X10249643Y-18205929D01*
X10263928Y-18177357D01*
X10263928Y-18163072D01*
X10249643Y-18134500D01*
X10221071Y-18120214D01*
X10178214Y-18120214D01*
X10149643Y-18105929D01*
X10135357Y-18077357D01*
X10135357Y-18063072D01*
X10149643Y-18034500D01*
X10178214Y-18020214D01*
X10221071Y-18020214D01*
X10249643Y-18034500D01*
X10363928Y-18334500D02*
X10378214Y-18320214D01*
X10406786Y-18277357D01*
X10421071Y-18248786D01*
X10435357Y-18205929D01*
X10449643Y-18134500D01*
X10449643Y-18077357D01*
X10435357Y-18005929D01*
X10421071Y-17963072D01*
X10406786Y-17934500D01*
X10378214Y-17891643D01*
X10363928Y-17877357D01*
X3717500Y-18640500D02*
X3877500Y-18480500D01*
X3717500Y-18320500D01*
X3557500Y-18480500D01*
X3717500Y-18640500D01*
X3877500Y-18480500D02*
G75*
G03*
X3877500Y-18480500I-160000J0D01*
G01*
X4135357Y-18316214D02*
X4321071Y-18316214D01*
X4221071Y-18430500D01*
X4263928Y-18430500D01*
X4292500Y-18444786D01*
X4306786Y-18459072D01*
X4321071Y-18487643D01*
X4321071Y-18559072D01*
X4306786Y-18587643D01*
X4292500Y-18601929D01*
X4263928Y-18616214D01*
X4178214Y-18616214D01*
X4149643Y-18601929D01*
X4135357Y-18587643D01*
X4449643Y-18587643D02*
X4463928Y-18601929D01*
X4449643Y-18616214D01*
X4435357Y-18601929D01*
X4449643Y-18587643D01*
X4449643Y-18616214D01*
X4578214Y-18344786D02*
X4592500Y-18330500D01*
X4621071Y-18316214D01*
X4692500Y-18316214D01*
X4721071Y-18330500D01*
X4735357Y-18344786D01*
X4749643Y-18373357D01*
X4749643Y-18401929D01*
X4735357Y-18444786D01*
X4563928Y-18616214D01*
X4749643Y-18616214D01*
X4935357Y-18316214D02*
X4963928Y-18316214D01*
X4992500Y-18330500D01*
X5006786Y-18344786D01*
X5021071Y-18373357D01*
X5035357Y-18430500D01*
X5035357Y-18501929D01*
X5021071Y-18559072D01*
X5006786Y-18587643D01*
X4992500Y-18601929D01*
X4963928Y-18616214D01*
X4935357Y-18616214D01*
X4906786Y-18601929D01*
X4892500Y-18587643D01*
X4878214Y-18559072D01*
X4863928Y-18501929D01*
X4863928Y-18430500D01*
X4878214Y-18373357D01*
X4892500Y-18344786D01*
X4906786Y-18330500D01*
X4935357Y-18316214D01*
X5163928Y-18616214D02*
X5163928Y-18416214D01*
X5163928Y-18444786D02*
X5178214Y-18430500D01*
X5206786Y-18416214D01*
X5249643Y-18416214D01*
X5278214Y-18430500D01*
X5292500Y-18459072D01*
X5292500Y-18616214D01*
X5292500Y-18459072D02*
X5306786Y-18430500D01*
X5335357Y-18416214D01*
X5378214Y-18416214D01*
X5406786Y-18430500D01*
X5421071Y-18459072D01*
X5421071Y-18616214D01*
X5563928Y-18616214D02*
X5563928Y-18416214D01*
X5563928Y-18444786D02*
X5578214Y-18430500D01*
X5606786Y-18416214D01*
X5649643Y-18416214D01*
X5678214Y-18430500D01*
X5692500Y-18459072D01*
X5692500Y-18616214D01*
X5692500Y-18459072D02*
X5706786Y-18430500D01*
X5735357Y-18416214D01*
X5778214Y-18416214D01*
X5806786Y-18430500D01*
X5821071Y-18459072D01*
X5821071Y-18616214D01*
X6406786Y-18301929D02*
X6149643Y-18687643D01*
X6792500Y-18316214D02*
X6821071Y-18316214D01*
X6849643Y-18330500D01*
X6863928Y-18344786D01*
X6878214Y-18373357D01*
X6892500Y-18430500D01*
X6892500Y-18501929D01*
X6878214Y-18559072D01*
X6863928Y-18587643D01*
X6849643Y-18601929D01*
X6821071Y-18616214D01*
X6792500Y-18616214D01*
X6763928Y-18601929D01*
X6749643Y-18587643D01*
X6735357Y-18559072D01*
X6721071Y-18501929D01*
X6721071Y-18430500D01*
X6735357Y-18373357D01*
X6749643Y-18344786D01*
X6763928Y-18330500D01*
X6792500Y-18316214D01*
X7021071Y-18587643D02*
X7035357Y-18601929D01*
X7021071Y-18616214D01*
X7006786Y-18601929D01*
X7021071Y-18587643D01*
X7021071Y-18616214D01*
X7321071Y-18616214D02*
X7149643Y-18616214D01*
X7235357Y-18616214D02*
X7235357Y-18316214D01*
X7206786Y-18359072D01*
X7178214Y-18387643D01*
X7149643Y-18401929D01*
X7435357Y-18344786D02*
X7449643Y-18330500D01*
X7478214Y-18316214D01*
X7549643Y-18316214D01*
X7578214Y-18330500D01*
X7592500Y-18344786D01*
X7606786Y-18373357D01*
X7606786Y-18401929D01*
X7592500Y-18444786D01*
X7421071Y-18616214D01*
X7606786Y-18616214D01*
X7863928Y-18316214D02*
X7806786Y-18316214D01*
X7778214Y-18330500D01*
X7763928Y-18344786D01*
X7735357Y-18387643D01*
X7721071Y-18444786D01*
X7721071Y-18559072D01*
X7735357Y-18587643D01*
X7749643Y-18601929D01*
X7778214Y-18616214D01*
X7835357Y-18616214D01*
X7863928Y-18601929D01*
X7878214Y-18587643D01*
X7892500Y-18559072D01*
X7892500Y-18487643D01*
X7878214Y-18459072D01*
X7863928Y-18444786D01*
X7835357Y-18430500D01*
X7778214Y-18430500D01*
X7749643Y-18444786D01*
X7735357Y-18459072D01*
X7721071Y-18487643D01*
X8006786Y-18316214D02*
X8006786Y-18373357D01*
X8121071Y-18316214D02*
X8121071Y-18373357D01*
X8563928Y-18730500D02*
X8549643Y-18716214D01*
X8521071Y-18673357D01*
X8506786Y-18644786D01*
X8492500Y-18601929D01*
X8478214Y-18530500D01*
X8478214Y-18473357D01*
X8492500Y-18401929D01*
X8506786Y-18359072D01*
X8521071Y-18330500D01*
X8549643Y-18287643D01*
X8563928Y-18273357D01*
X8806786Y-18316214D02*
X8749643Y-18316214D01*
X8721071Y-18330500D01*
X8706786Y-18344786D01*
X8678214Y-18387643D01*
X8663928Y-18444786D01*
X8663928Y-18559072D01*
X8678214Y-18587643D01*
X8692500Y-18601929D01*
X8721071Y-18616214D01*
X8778214Y-18616214D01*
X8806786Y-18601929D01*
X8821071Y-18587643D01*
X8835357Y-18559072D01*
X8835357Y-18487643D01*
X8821071Y-18459072D01*
X8806786Y-18444786D01*
X8778214Y-18430500D01*
X8721071Y-18430500D01*
X8692500Y-18444786D01*
X8678214Y-18459072D01*
X8663928Y-18487643D01*
X9192500Y-18616214D02*
X9192500Y-18316214D01*
X9321071Y-18616214D02*
X9321071Y-18459072D01*
X9306786Y-18430500D01*
X9278214Y-18416214D01*
X9235357Y-18416214D01*
X9206786Y-18430500D01*
X9192500Y-18444786D01*
X9506786Y-18616214D02*
X9478214Y-18601929D01*
X9463928Y-18587643D01*
X9449643Y-18559072D01*
X9449643Y-18473357D01*
X9463928Y-18444786D01*
X9478214Y-18430500D01*
X9506786Y-18416214D01*
X9549643Y-18416214D01*
X9578214Y-18430500D01*
X9592500Y-18444786D01*
X9606786Y-18473357D01*
X9606786Y-18559072D01*
X9592500Y-18587643D01*
X9578214Y-18601929D01*
X9549643Y-18616214D01*
X9506786Y-18616214D01*
X9778214Y-18616214D02*
X9749643Y-18601929D01*
X9735357Y-18573357D01*
X9735357Y-18316214D01*
X10006786Y-18601929D02*
X9978214Y-18616214D01*
X9921071Y-18616214D01*
X9892500Y-18601929D01*
X9878214Y-18573357D01*
X9878214Y-18459072D01*
X9892500Y-18430500D01*
X9921071Y-18416214D01*
X9978214Y-18416214D01*
X10006786Y-18430500D01*
X10021071Y-18459072D01*
X10021071Y-18487643D01*
X9878214Y-18516214D01*
X10135357Y-18601929D02*
X10163928Y-18616214D01*
X10221071Y-18616214D01*
X10249643Y-18601929D01*
X10263928Y-18573357D01*
X10263928Y-18559072D01*
X10249643Y-18530500D01*
X10221071Y-18516214D01*
X10178214Y-18516214D01*
X10149643Y-18501929D01*
X10135357Y-18473357D01*
X10135357Y-18459072D01*
X10149643Y-18430500D01*
X10178214Y-18416214D01*
X10221071Y-18416214D01*
X10249643Y-18430500D01*
X10363928Y-18730500D02*
X10378214Y-18716214D01*
X10406786Y-18673357D01*
X10421071Y-18644786D01*
X10435357Y-18601929D01*
X10449643Y-18530500D01*
X10449643Y-18473357D01*
X10435357Y-18401929D01*
X10421071Y-18359072D01*
X10406786Y-18330500D01*
X10378214Y-18287643D01*
X10363928Y-18273357D01*
X10906786Y-18730500D02*
X10892500Y-18716214D01*
X10863928Y-18673357D01*
X10849643Y-18644786D01*
X10835357Y-18601929D01*
X10821071Y-18530500D01*
X10821071Y-18473357D01*
X10835357Y-18401929D01*
X10849643Y-18359072D01*
X10863928Y-18330500D01*
X10892500Y-18287643D01*
X10906786Y-18273357D01*
X11021071Y-18416214D02*
X11021071Y-18616214D01*
X11021071Y-18444786D02*
X11035357Y-18430500D01*
X11063928Y-18416214D01*
X11106786Y-18416214D01*
X11135357Y-18430500D01*
X11149643Y-18459072D01*
X11149643Y-18616214D01*
X11335357Y-18616214D02*
X11306786Y-18601929D01*
X11292500Y-18587643D01*
X11278214Y-18559072D01*
X11278214Y-18473357D01*
X11292500Y-18444786D01*
X11306786Y-18430500D01*
X11335357Y-18416214D01*
X11378214Y-18416214D01*
X11406786Y-18430500D01*
X11421071Y-18444786D01*
X11435357Y-18473357D01*
X11435357Y-18559072D01*
X11421071Y-18587643D01*
X11406786Y-18601929D01*
X11378214Y-18616214D01*
X11335357Y-18616214D01*
X11521071Y-18416214D02*
X11635357Y-18416214D01*
X11563928Y-18316214D02*
X11563928Y-18573357D01*
X11578214Y-18601929D01*
X11606786Y-18616214D01*
X11635357Y-18616214D01*
X11963928Y-18416214D02*
X11963928Y-18716214D01*
X11963928Y-18430500D02*
X11992500Y-18416214D01*
X12049643Y-18416214D01*
X12078214Y-18430500D01*
X12092500Y-18444786D01*
X12106786Y-18473357D01*
X12106786Y-18559072D01*
X12092500Y-18587643D01*
X12078214Y-18601929D01*
X12049643Y-18616214D01*
X11992500Y-18616214D01*
X11963928Y-18601929D01*
X12278214Y-18616214D02*
X12249643Y-18601929D01*
X12235357Y-18573357D01*
X12235357Y-18316214D01*
X12521071Y-18616214D02*
X12521071Y-18459072D01*
X12506786Y-18430500D01*
X12478214Y-18416214D01*
X12421071Y-18416214D01*
X12392500Y-18430500D01*
X12521071Y-18601929D02*
X12492500Y-18616214D01*
X12421071Y-18616214D01*
X12392500Y-18601929D01*
X12378214Y-18573357D01*
X12378214Y-18544786D01*
X12392500Y-18516214D01*
X12421071Y-18501929D01*
X12492500Y-18501929D01*
X12521071Y-18487643D01*
X12621071Y-18416214D02*
X12735357Y-18416214D01*
X12663928Y-18316214D02*
X12663928Y-18573357D01*
X12678214Y-18601929D01*
X12706786Y-18616214D01*
X12735357Y-18616214D01*
X12949643Y-18601929D02*
X12921071Y-18616214D01*
X12863928Y-18616214D01*
X12835357Y-18601929D01*
X12821071Y-18573357D01*
X12821071Y-18459072D01*
X12835357Y-18430500D01*
X12863928Y-18416214D01*
X12921071Y-18416214D01*
X12949643Y-18430500D01*
X12963928Y-18459072D01*
X12963928Y-18487643D01*
X12821071Y-18516214D01*
X13221071Y-18616214D02*
X13221071Y-18316214D01*
X13221071Y-18601929D02*
X13192500Y-18616214D01*
X13135357Y-18616214D01*
X13106786Y-18601929D01*
X13092500Y-18587643D01*
X13078214Y-18559072D01*
X13078214Y-18473357D01*
X13092500Y-18444786D01*
X13106786Y-18430500D01*
X13135357Y-18416214D01*
X13192500Y-18416214D01*
X13221071Y-18430500D01*
X13335357Y-18730500D02*
X13349643Y-18716214D01*
X13378214Y-18673357D01*
X13392500Y-18644786D01*
X13406786Y-18601929D01*
X13421071Y-18530500D01*
X13421071Y-18473357D01*
X13406786Y-18401929D01*
X13392500Y-18359072D01*
X13378214Y-18330500D01*
X13349643Y-18287643D01*
X13335357Y-18273357D01*
M02*
