%TF.GenerationSoftware,KiCad,Pcbnew,(5.1.9)-1*%
%TF.CreationDate,2021-05-16T20:36:29+02:00*%
%TF.ProjectId,Ardumower,41726475-6d6f-4776-9572-2e6b69636164,rev?*%
%TF.SameCoordinates,Original*%
%TF.FileFunction,Copper,L1,Top*%
%TF.FilePolarity,Positive*%
%FSLAX46Y46*%
G04 Gerber Fmt 4.6, Leading zero omitted, Abs format (unit mm)*
G04 Created by KiCad (PCBNEW (5.1.9)-1) date 2021-05-16 20:36:29*
%MOMM*%
%LPD*%
G01*
G04 APERTURE LIST*
%TA.AperFunction,ComponentPad*%
%ADD10O,1.700000X1.700000*%
%TD*%
%TA.AperFunction,ComponentPad*%
%ADD11R,1.700000X1.700000*%
%TD*%
%TA.AperFunction,ComponentPad*%
%ADD12O,1.600000X1.600000*%
%TD*%
%TA.AperFunction,ComponentPad*%
%ADD13C,1.600000*%
%TD*%
%TA.AperFunction,ComponentPad*%
%ADD14O,2.200000X2.200000*%
%TD*%
%TA.AperFunction,ComponentPad*%
%ADD15R,2.200000X2.200000*%
%TD*%
%TA.AperFunction,ComponentPad*%
%ADD16C,3.000000*%
%TD*%
%TA.AperFunction,ComponentPad*%
%ADD17R,3.000000X3.000000*%
%TD*%
%TA.AperFunction,ConnectorPad*%
%ADD18C,4.400000*%
%TD*%
%TA.AperFunction,ComponentPad*%
%ADD19C,2.600000*%
%TD*%
%TA.AperFunction,ComponentPad*%
%ADD20C,2.000000*%
%TD*%
%TA.AperFunction,ComponentPad*%
%ADD21C,1.524000*%
%TD*%
%TA.AperFunction,ComponentPad*%
%ADD22C,1.800000*%
%TD*%
%TA.AperFunction,ComponentPad*%
%ADD23R,1.800000X1.800000*%
%TD*%
%TA.AperFunction,ComponentPad*%
%ADD24O,1.727200X1.727200*%
%TD*%
%TA.AperFunction,ComponentPad*%
%ADD25R,1.600000X1.600000*%
%TD*%
%TA.AperFunction,ViaPad*%
%ADD26C,0.889000*%
%TD*%
%TA.AperFunction,Conductor*%
%ADD27C,0.254000*%
%TD*%
%TA.AperFunction,Conductor*%
%ADD28C,0.500000*%
%TD*%
%TA.AperFunction,Conductor*%
%ADD29C,1.270000*%
%TD*%
%TA.AperFunction,Conductor*%
%ADD30C,0.508000*%
%TD*%
%TA.AperFunction,Conductor*%
%ADD31C,0.354000*%
%TD*%
G04 APERTURE END LIST*
D10*
%TO.P,JP5,3*%
%TO.N,+3V3*%
X180160000Y-56470000D03*
%TO.P,JP5,2*%
%TO.N,Net-(J42-Pad1)*%
X180160000Y-53930000D03*
D11*
%TO.P,JP5,1*%
%TO.N,+5V*%
X180160000Y-51390000D03*
%TD*%
D10*
%TO.P,JP4,3*%
%TO.N,+3V3*%
X163420000Y-118940000D03*
%TO.P,JP4,2*%
%TO.N,Net-(J40-Pad1)*%
X163420000Y-116400000D03*
D11*
%TO.P,JP4,1*%
%TO.N,+5V*%
X163420000Y-113860000D03*
%TD*%
D10*
%TO.P,J42,5*%
%TO.N,pinMotorMowEnable*%
X187200000Y-59610000D03*
%TO.P,J42,4*%
%TO.N,pinMotorMowDir*%
X187200000Y-57070000D03*
%TO.P,J42,3*%
%TO.N,pinMotorMowPWM*%
X187200000Y-54530000D03*
%TO.P,J42,2*%
%TO.N,GND*%
X187200000Y-51990000D03*
D11*
%TO.P,J42,1*%
%TO.N,Net-(J42-Pad1)*%
X187200000Y-49450000D03*
%TD*%
D10*
%TO.P,J41,5*%
%TO.N,pinMotorEnable*%
X188540000Y-113970000D03*
%TO.P,J41,4*%
%TO.N,pinMotorLeftDir*%
X188540000Y-111430000D03*
%TO.P,J41,3*%
%TO.N,pinMotorLeftPWM*%
X188540000Y-108890000D03*
%TO.P,J41,2*%
%TO.N,GND*%
X188540000Y-106350000D03*
D11*
%TO.P,J41,1*%
%TO.N,Net-(J40-Pad1)*%
X188540000Y-103810000D03*
%TD*%
D10*
%TO.P,J40,5*%
%TO.N,pinMotorEnable*%
X179700000Y-114050000D03*
%TO.P,J40,4*%
%TO.N,pinMotorRightDir*%
X179700000Y-111510000D03*
%TO.P,J40,3*%
%TO.N,pinMotorRightPWM*%
X179700000Y-108970000D03*
%TO.P,J40,2*%
%TO.N,GND*%
X179700000Y-106430000D03*
D11*
%TO.P,J40,1*%
%TO.N,Net-(J40-Pad1)*%
X179700000Y-103890000D03*
%TD*%
D12*
%TO.P,R17,2*%
%TO.N,GND*%
X147560000Y-116280000D03*
D13*
%TO.P,R17,1*%
%TO.N,Net-(J39-Pad1)*%
X147560000Y-113740000D03*
%TD*%
D12*
%TO.P,R16,2*%
%TO.N,GND*%
X137690000Y-116280000D03*
D13*
%TO.P,R16,1*%
%TO.N,Net-(J38-Pad1)*%
X137690000Y-113740000D03*
%TD*%
D12*
%TO.P,R15,2*%
%TO.N,GND*%
X127380000Y-116210000D03*
D13*
%TO.P,R15,1*%
%TO.N,Net-(J37-Pad1)*%
X127380000Y-113670000D03*
%TD*%
D12*
%TO.P,R14,2*%
%TO.N,pinOdometryLeft*%
X147630000Y-121870000D03*
D13*
%TO.P,R14,1*%
%TO.N,Net-(J39-Pad1)*%
X147630000Y-119330000D03*
%TD*%
D12*
%TO.P,R6,2*%
%TO.N,pinOdometryRight*%
X137760000Y-121870000D03*
D13*
%TO.P,R6,1*%
%TO.N,Net-(J38-Pad1)*%
X137760000Y-119330000D03*
%TD*%
D12*
%TO.P,R5,2*%
%TO.N,pinMotorMowRpm*%
X127450000Y-121800000D03*
D13*
%TO.P,R5,1*%
%TO.N,Net-(J37-Pad1)*%
X127450000Y-119260000D03*
%TD*%
D10*
%TO.P,J39,4*%
%TO.N,+3V3*%
X142700000Y-121580000D03*
%TO.P,J39,3*%
%TO.N,+5V*%
X142700000Y-119040000D03*
%TO.P,J39,2*%
%TO.N,GND*%
X142700000Y-116500000D03*
D11*
%TO.P,J39,1*%
%TO.N,Net-(J39-Pad1)*%
X142700000Y-113960000D03*
%TD*%
D10*
%TO.P,J38,4*%
%TO.N,+3V3*%
X132820000Y-121500000D03*
%TO.P,J38,3*%
%TO.N,+5V*%
X132820000Y-118960000D03*
%TO.P,J38,2*%
%TO.N,GND*%
X132820000Y-116420000D03*
D11*
%TO.P,J38,1*%
%TO.N,Net-(J38-Pad1)*%
X132820000Y-113880000D03*
%TD*%
D10*
%TO.P,J37,4*%
%TO.N,+3V3*%
X122520000Y-121500000D03*
%TO.P,J37,3*%
%TO.N,+5V*%
X122520000Y-118960000D03*
%TO.P,J37,2*%
%TO.N,GND*%
X122520000Y-116420000D03*
D11*
%TO.P,J37,1*%
%TO.N,Net-(J37-Pad1)*%
X122520000Y-113880000D03*
%TD*%
D14*
%TO.P,D13,2*%
%TO.N,Net-(D13-Pad2)*%
X176160000Y-129730000D03*
D15*
%TO.P,D13,1*%
%TO.N,pinMotorLeftFault*%
X176160000Y-119570000D03*
%TD*%
D14*
%TO.P,D12,2*%
%TO.N,Net-(D12-Pad2)*%
X180960000Y-119650000D03*
D15*
%TO.P,D12,1*%
%TO.N,pinMotorLeftSense*%
X180960000Y-129810000D03*
%TD*%
D14*
%TO.P,D11,2*%
%TO.N,Net-(D11-Pad2)*%
X178720000Y-92520000D03*
D15*
%TO.P,D11,1*%
%TO.N,pinMotorRightFault*%
X188880000Y-92520000D03*
%TD*%
D14*
%TO.P,D10,2*%
%TO.N,Net-(D10-Pad2)*%
X178640000Y-87460000D03*
D15*
%TO.P,D10,1*%
%TO.N,pinMotorRightSense*%
X188800000Y-87460000D03*
%TD*%
D14*
%TO.P,D9,2*%
%TO.N,Net-(D9-Pad2)*%
X179540000Y-42820000D03*
D15*
%TO.P,D9,1*%
%TO.N,pinMotorMowFault*%
X189700000Y-42820000D03*
%TD*%
D14*
%TO.P,D6,2*%
%TO.N,Net-(D6-Pad2)*%
X179540000Y-37850000D03*
D15*
%TO.P,D6,1*%
%TO.N,pinMotorMowSense*%
X189700000Y-37850000D03*
%TD*%
D10*
%TO.P,J36,2*%
%TO.N,pinReserveA10*%
X101290000Y-128250000D03*
D11*
%TO.P,J36,1*%
%TO.N,GND*%
X103830000Y-128250000D03*
%TD*%
%TO.P,J35,1*%
%TO.N,GND*%
X113660000Y-128400000D03*
D10*
%TO.P,J35,2*%
%TO.N,pinReserveD49*%
X111120000Y-128400000D03*
%TD*%
%TO.P,J34,2*%
%TO.N,pinReserveD9*%
X98440000Y-52960000D03*
D11*
%TO.P,J34,1*%
%TO.N,GND*%
X95900000Y-52960000D03*
%TD*%
D10*
%TO.P,J33,2*%
%TO.N,pinReserveD8*%
X109320000Y-53000000D03*
D11*
%TO.P,J33,1*%
%TO.N,GND*%
X106780000Y-53000000D03*
%TD*%
D16*
%TO.P,J28,2*%
%TO.N,Net-(J28-Pad2)*%
X202480000Y-116290000D03*
D17*
%TO.P,J28,1*%
%TO.N,Net-(J28-Pad1)*%
X202480000Y-111210000D03*
%TD*%
D16*
%TO.P,J27,2*%
%TO.N,Net-(J27-Pad2)*%
X202470000Y-101570000D03*
D17*
%TO.P,J27,1*%
%TO.N,Net-(J27-Pad1)*%
X202470000Y-96490000D03*
%TD*%
D16*
%TO.P,J26,2*%
%TO.N,Net-(J26-Pad2)*%
X202460000Y-53810000D03*
D17*
%TO.P,J26,1*%
%TO.N,Net-(J26-Pad1)*%
X202460000Y-48730000D03*
%TD*%
D16*
%TO.P,J32,2*%
%TO.N,Net-(D5-Pad2)*%
X202460000Y-80260000D03*
D17*
%TO.P,J32,1*%
%TO.N,GND*%
X202460000Y-85340000D03*
%TD*%
D14*
%TO.P,D5,2*%
%TO.N,Net-(D5-Pad2)*%
X188810000Y-82570000D03*
D15*
%TO.P,D5,1*%
%TO.N,+24V*%
X178650000Y-82570000D03*
%TD*%
D10*
%TO.P,J31,5*%
%TO.N,RX3*%
X147520000Y-47990000D03*
%TO.P,J31,4*%
%TO.N,TX3*%
X147520000Y-45450000D03*
%TO.P,J31,3*%
%TO.N,GND*%
X147520000Y-42910000D03*
%TO.P,J31,2*%
%TO.N,+3V3*%
X147520000Y-40370000D03*
D11*
%TO.P,J31,1*%
%TO.N,+5V*%
X147520000Y-37830000D03*
%TD*%
D10*
%TO.P,J24,5*%
%TO.N,RX2*%
X152570000Y-48070000D03*
%TO.P,J24,4*%
%TO.N,TX2*%
X152570000Y-45530000D03*
%TO.P,J24,3*%
%TO.N,GND*%
X152570000Y-42990000D03*
%TO.P,J24,2*%
%TO.N,+3V3*%
X152570000Y-40450000D03*
D11*
%TO.P,J24,1*%
%TO.N,+5V*%
X152570000Y-37910000D03*
%TD*%
D10*
%TO.P,J23,5*%
%TO.N,RX1*%
X157710000Y-48070000D03*
%TO.P,J23,4*%
%TO.N,TX1*%
X157710000Y-45530000D03*
%TO.P,J23,3*%
%TO.N,GND*%
X157710000Y-42990000D03*
%TO.P,J23,2*%
%TO.N,+3V3*%
X157710000Y-40450000D03*
D11*
%TO.P,J23,1*%
%TO.N,+5V*%
X157710000Y-37910000D03*
%TD*%
D10*
%TO.P,J22,5*%
%TO.N,RX0*%
X162770000Y-48150000D03*
%TO.P,J22,4*%
%TO.N,TX0*%
X162770000Y-45610000D03*
%TO.P,J22,3*%
%TO.N,GND*%
X162770000Y-43070000D03*
%TO.P,J22,2*%
%TO.N,+3V3*%
X162770000Y-40530000D03*
D11*
%TO.P,J22,1*%
%TO.N,+5V*%
X162770000Y-37990000D03*
%TD*%
D10*
%TO.P,J18,2*%
%TO.N,pinUserSwitch3*%
X84270000Y-116060000D03*
D11*
%TO.P,J18,1*%
%TO.N,GND*%
X84270000Y-113520000D03*
%TD*%
D10*
%TO.P,J17,2*%
%TO.N,pinUserSwitch2*%
X78910000Y-116060000D03*
D11*
%TO.P,J17,1*%
%TO.N,GND*%
X78910000Y-113520000D03*
%TD*%
D10*
%TO.P,J16,2*%
%TO.N,pinUserSwitch1*%
X73700000Y-116060000D03*
D11*
%TO.P,J16,1*%
%TO.N,GND*%
X73700000Y-113520000D03*
%TD*%
D10*
%TO.P,J15,2*%
%TO.N,pinButton*%
X68500000Y-116060000D03*
D11*
%TO.P,J15,1*%
%TO.N,GND*%
X68500000Y-113520000D03*
%TD*%
D18*
%TO.P,H4,1*%
%TO.N,GND*%
X41880000Y-128370000D03*
D19*
X41880000Y-128370000D03*
%TD*%
D18*
%TO.P,H3,1*%
%TO.N,GND*%
X205600000Y-128210000D03*
D19*
X205600000Y-128210000D03*
%TD*%
D18*
%TO.P,H2,1*%
%TO.N,GND*%
X205750000Y-38270000D03*
D19*
X205750000Y-38270000D03*
%TD*%
D18*
%TO.P,H1,1*%
%TO.N,GND*%
X41810000Y-38440000D03*
D19*
X41810000Y-38440000D03*
%TD*%
D10*
%TO.P,J14,3*%
%TO.N,pinBuzzer*%
X59480000Y-126230000D03*
%TO.P,J14,2*%
%TO.N,GND*%
X59480000Y-123690000D03*
D11*
%TO.P,J14,1*%
%TO.N,+5V*%
X59480000Y-121150000D03*
%TD*%
D20*
%TO.P,U2,~*%
%TO.N,N/C*%
X195421500Y-86526500D03*
X195421500Y-127293500D03*
D21*
%TO.P,U2,31*%
X173514000Y-90400000D03*
%TO.P,U2,30*%
X173514000Y-92940000D03*
%TO.P,U2,29*%
X173514000Y-100560000D03*
%TO.P,U2,28*%
X173514000Y-103100000D03*
%TO.P,U2,27*%
X173514000Y-105640000D03*
%TO.P,U2,26*%
X173514000Y-113260000D03*
%TO.P,U2,25*%
X173514000Y-115800000D03*
%TO.P,U2,24*%
%TO.N,Net-(J27-Pad1)*%
X194342000Y-98528000D03*
%TO.P,U2,23*%
%TO.N,Net-(J27-Pad2)*%
X194342000Y-102084000D03*
%TO.P,U2,22*%
%TO.N,+24V*%
X194342000Y-105640000D03*
%TO.P,U2,21*%
%TO.N,GND*%
X194342000Y-109196000D03*
%TO.P,U2,20*%
%TO.N,Net-(J28-Pad1)*%
X194342000Y-112752000D03*
%TO.P,U2,19*%
%TO.N,Net-(J28-Pad2)*%
X194342000Y-116308000D03*
%TO.P,U2,18*%
%TO.N,Net-(D10-Pad2)*%
X170974000Y-85320000D03*
%TO.P,U2,17*%
%TO.N,Net-(D11-Pad2)*%
X170974000Y-87860000D03*
%TO.P,U2,16*%
%TO.N,GND*%
X170974000Y-90400000D03*
%TO.P,U2,15*%
%TO.N,IOREV*%
X170974000Y-92940000D03*
%TO.P,U2,14*%
%TO.N,pinMotorRightPWM*%
X170974000Y-95480000D03*
%TO.P,U2,13*%
%TO.N,pinMotorRightDir*%
X170974000Y-98020000D03*
%TO.P,U2,12*%
%TO.N,N/C*%
X170974000Y-100560000D03*
%TO.P,U2,11*%
X170974000Y-103100000D03*
%TO.P,U2,10*%
%TO.N,pinMotorEnable*%
X170974000Y-105640000D03*
%TO.P,U2,9*%
%TO.N,Net-(D12-Pad2)*%
X170974000Y-108180000D03*
%TO.P,U2,8*%
%TO.N,Net-(D13-Pad2)*%
X170974000Y-110720000D03*
%TO.P,U2,7*%
%TO.N,GND*%
X170974000Y-113260000D03*
%TO.P,U2,6*%
%TO.N,IOREV*%
X170974000Y-115800000D03*
%TO.P,U2,5*%
%TO.N,pinMotorLeftPWM*%
X170974000Y-118340000D03*
%TO.P,U2,4*%
%TO.N,pinMotorLeftDir*%
X170974000Y-120880000D03*
%TO.P,U2,3*%
%TO.N,IOREV*%
X170974000Y-123420000D03*
%TO.P,U2,2*%
%TO.N,GND*%
X170974000Y-125960000D03*
%TO.P,U2,1*%
%TO.N,N/C*%
X170974000Y-128500000D03*
%TD*%
D12*
%TO.P,R4,2*%
%TO.N,+3V3*%
X107350000Y-37840000D03*
D13*
%TO.P,R4,1*%
%TO.N,SDA1*%
X104810000Y-37840000D03*
%TD*%
D12*
%TO.P,R3,2*%
%TO.N,+3V3*%
X88380000Y-37910000D03*
D13*
%TO.P,R3,1*%
%TO.N,SDA0*%
X85840000Y-37910000D03*
%TD*%
D12*
%TO.P,R2,2*%
%TO.N,+3V3*%
X107350000Y-45400000D03*
D13*
%TO.P,R2,1*%
%TO.N,SCL1*%
X104810000Y-45400000D03*
%TD*%
D12*
%TO.P,R1,2*%
%TO.N,+3V3*%
X88250000Y-45370000D03*
D13*
%TO.P,R1,1*%
%TO.N,SCL0*%
X85710000Y-45370000D03*
%TD*%
D10*
%TO.P,JP3,3*%
%TO.N,DUE_3.3V*%
X60700000Y-74840000D03*
%TO.P,JP3,2*%
%TO.N,+3V3*%
X60700000Y-72300000D03*
D11*
%TO.P,JP3,1*%
%TO.N,Net-(D8-Pad1)*%
X60700000Y-69760000D03*
%TD*%
D10*
%TO.P,JP2,2*%
%TO.N,Net-(JP2-Pad2)*%
X66080000Y-126280000D03*
D11*
%TO.P,JP2,1*%
%TO.N,pinBuzzer*%
X66080000Y-123740000D03*
%TD*%
D10*
%TO.P,JP1,3*%
%TO.N,DUE_5V*%
X60660000Y-63100000D03*
%TO.P,JP1,2*%
%TO.N,+5V*%
X60660000Y-60560000D03*
D11*
%TO.P,JP1,1*%
%TO.N,Net-(D7-Pad1)*%
X60660000Y-58020000D03*
%TD*%
D10*
%TO.P,J30,4*%
%TO.N,SCL1*%
X100810000Y-45550000D03*
%TO.P,J30,3*%
%TO.N,SDA1*%
X100810000Y-43010000D03*
%TO.P,J30,2*%
%TO.N,GND*%
X100810000Y-40470000D03*
D11*
%TO.P,J30,1*%
%TO.N,+3V3*%
X100810000Y-37930000D03*
%TD*%
D16*
%TO.P,J29,2*%
%TO.N,Net-(D8-Pad2)*%
X44990000Y-74580000D03*
D17*
%TO.P,J29,1*%
%TO.N,GND*%
X44990000Y-69500000D03*
%TD*%
D16*
%TO.P,J25,2*%
%TO.N,Net-(D7-Pad2)*%
X44890000Y-63290000D03*
D17*
%TO.P,J25,1*%
%TO.N,GND*%
X44890000Y-58210000D03*
%TD*%
D14*
%TO.P,D8,2*%
%TO.N,Net-(D8-Pad2)*%
X53690000Y-80380000D03*
D15*
%TO.P,D8,1*%
%TO.N,Net-(D8-Pad1)*%
X53690000Y-70220000D03*
%TD*%
D14*
%TO.P,D7,2*%
%TO.N,Net-(D7-Pad2)*%
X53690000Y-67210000D03*
D15*
%TO.P,D7,1*%
%TO.N,Net-(D7-Pad1)*%
X53690000Y-57050000D03*
%TD*%
D10*
%TO.P,J19,3*%
%TO.N,Net-(J19-Pad3)*%
X103670000Y-118730000D03*
%TO.P,J19,2*%
%TO.N,GND*%
X103670000Y-116190000D03*
D11*
%TO.P,J19,1*%
%TO.N,+5V*%
X103670000Y-113650000D03*
%TD*%
D20*
%TO.P,U1,~*%
%TO.N,N/C*%
X195421500Y-38236500D03*
X195421500Y-79003500D03*
D21*
%TO.P,U1,31*%
X173514000Y-42110000D03*
%TO.P,U1,30*%
X173514000Y-44650000D03*
%TO.P,U1,29*%
X173514000Y-52270000D03*
%TO.P,U1,28*%
X173514000Y-54810000D03*
%TO.P,U1,27*%
X173514000Y-57350000D03*
%TO.P,U1,26*%
X173514000Y-64970000D03*
%TO.P,U1,25*%
X173514000Y-67510000D03*
%TO.P,U1,24*%
%TO.N,Net-(J26-Pad1)*%
X194342000Y-50238000D03*
%TO.P,U1,23*%
%TO.N,Net-(J26-Pad2)*%
X194342000Y-53794000D03*
%TO.P,U1,22*%
%TO.N,+24V*%
X194342000Y-57350000D03*
%TO.P,U1,21*%
%TO.N,GND*%
X194342000Y-60906000D03*
%TO.P,U1,20*%
%TO.N,N/C*%
X194342000Y-64462000D03*
%TO.P,U1,19*%
X194342000Y-68018000D03*
%TO.P,U1,18*%
%TO.N,Net-(D6-Pad2)*%
X170974000Y-37030000D03*
%TO.P,U1,17*%
%TO.N,Net-(D9-Pad2)*%
X170974000Y-39570000D03*
%TO.P,U1,16*%
%TO.N,GND*%
X170974000Y-42110000D03*
%TO.P,U1,15*%
%TO.N,IOREV*%
X170974000Y-44650000D03*
%TO.P,U1,14*%
%TO.N,pinMotorMowPWM*%
X170974000Y-47190000D03*
%TO.P,U1,13*%
%TO.N,pinMotorMowDir*%
X170974000Y-49730000D03*
%TO.P,U1,12*%
%TO.N,N/C*%
X170974000Y-52270000D03*
%TO.P,U1,11*%
X170974000Y-54810000D03*
%TO.P,U1,10*%
%TO.N,pinMotorMowEnable*%
X170974000Y-57350000D03*
%TO.P,U1,9*%
%TO.N,IOREV*%
X170974000Y-59890000D03*
%TO.P,U1,8*%
%TO.N,Net-(D9-Pad2)*%
X170974000Y-62430000D03*
%TO.P,U1,7*%
%TO.N,GND*%
X170974000Y-64970000D03*
%TO.P,U1,6*%
%TO.N,IOREV*%
X170974000Y-67510000D03*
%TO.P,U1,5*%
%TO.N,pinMotorMowPWM*%
X170974000Y-70050000D03*
%TO.P,U1,4*%
%TO.N,pinMotorMowDir*%
X170974000Y-72590000D03*
%TO.P,U1,3*%
%TO.N,IOREV*%
X170974000Y-75130000D03*
%TO.P,U1,2*%
%TO.N,GND*%
X170974000Y-77670000D03*
%TO.P,U1,1*%
%TO.N,N/C*%
X170974000Y-80210000D03*
%TD*%
D22*
%TO.P,D4,2*%
%TO.N,Net-(D4-Pad2)*%
X72210000Y-41350000D03*
D23*
%TO.P,D4,1*%
%TO.N,GND*%
X72210000Y-38810000D03*
%TD*%
D22*
%TO.P,D2,2*%
%TO.N,Net-(D2-Pad2)*%
X59870000Y-41260000D03*
D23*
%TO.P,D2,1*%
%TO.N,GND*%
X59870000Y-38720000D03*
%TD*%
D10*
%TO.P,J21,6*%
%TO.N,pinVoltageMeasurement*%
X43060000Y-100500000D03*
%TO.P,J21,5*%
%TO.N,pinChargeRelay*%
X43060000Y-97960000D03*
%TO.P,J21,4*%
%TO.N,pinChargeCurrent*%
X43060000Y-95420000D03*
%TO.P,J21,3*%
%TO.N,pinChargeVoltage*%
X43060000Y-92880000D03*
%TO.P,J21,2*%
%TO.N,pinBatterySwitch*%
X43060000Y-90340000D03*
D11*
%TO.P,J21,1*%
%TO.N,pinBatteryVoltage*%
X43060000Y-87800000D03*
%TD*%
D10*
%TO.P,J20,4*%
%TO.N,pinRemoteSwitch*%
X46280000Y-111940000D03*
%TO.P,J20,3*%
%TO.N,pinRemoteMow*%
X48820000Y-111940000D03*
%TO.P,J20,2*%
%TO.N,pinRemoteSteer*%
X51360000Y-111940000D03*
D11*
%TO.P,J20,1*%
%TO.N,pinRemoteSpeed*%
X53900000Y-111940000D03*
%TD*%
D10*
%TO.P,J12,4*%
%TO.N,pinSonarLeftEcho*%
X125660000Y-45510000D03*
%TO.P,J12,3*%
%TO.N,pinSonarLeftTrigger*%
X125660000Y-42970000D03*
%TO.P,J12,2*%
%TO.N,GND*%
X125660000Y-40430000D03*
D11*
%TO.P,J12,1*%
%TO.N,+3V3*%
X125660000Y-37890000D03*
%TD*%
D10*
%TO.P,J11,4*%
%TO.N,pinSonarCenterEcho*%
X132200000Y-45510000D03*
%TO.P,J11,3*%
%TO.N,pinSonarCenterTrigger*%
X132200000Y-42970000D03*
%TO.P,J11,2*%
%TO.N,GND*%
X132200000Y-40430000D03*
D11*
%TO.P,J11,1*%
%TO.N,+3V3*%
X132200000Y-37890000D03*
%TD*%
D10*
%TO.P,J10,4*%
%TO.N,pinSonarRightEcho*%
X138640000Y-45510000D03*
%TO.P,J10,3*%
%TO.N,pinSonarRightTrigger*%
X138640000Y-42970000D03*
%TO.P,J10,2*%
%TO.N,GND*%
X138640000Y-40430000D03*
D11*
%TO.P,J10,1*%
%TO.N,+3V3*%
X138640000Y-37890000D03*
%TD*%
D10*
%TO.P,J5,4*%
%TO.N,pinBumperLeft*%
X119110000Y-45530000D03*
%TO.P,J5,3*%
%TO.N,GND*%
X119110000Y-42990000D03*
%TO.P,J5,2*%
%TO.N,pinBumperRight*%
X119110000Y-40450000D03*
D11*
%TO.P,J5,1*%
%TO.N,GND*%
X119110000Y-37910000D03*
%TD*%
D10*
%TO.P,J4,4*%
%TO.N,SCL1*%
X111020000Y-45600000D03*
%TO.P,J4,3*%
%TO.N,SDA1*%
X111020000Y-43060000D03*
%TO.P,J4,2*%
%TO.N,GND*%
X111020000Y-40520000D03*
D11*
%TO.P,J4,1*%
%TO.N,+3V3*%
X111020000Y-37980000D03*
%TD*%
D10*
%TO.P,J3,4*%
%TO.N,SCL0*%
X91920000Y-45500000D03*
%TO.P,J3,3*%
%TO.N,SDA0*%
X91920000Y-42960000D03*
%TO.P,J3,2*%
%TO.N,GND*%
X91920000Y-40420000D03*
D11*
%TO.P,J3,1*%
%TO.N,+3V3*%
X91920000Y-37880000D03*
%TD*%
D10*
%TO.P,J2,4*%
%TO.N,SCL0*%
X81620000Y-45450000D03*
%TO.P,J2,3*%
%TO.N,SDA0*%
X81620000Y-42910000D03*
%TO.P,J2,2*%
%TO.N,GND*%
X81620000Y-40370000D03*
D11*
%TO.P,J2,1*%
%TO.N,+3V3*%
X81620000Y-37830000D03*
%TD*%
D24*
%TO.P,XA1,MISO*%
%TO.N,N/C*%
X130677000Y-79570000D03*
%TO.P,XA1,GND6*%
%TO.N,GND*%
X163570000Y-102430000D03*
%TO.P,XA1,GND5*%
X161030000Y-102430000D03*
%TO.P,XA1,D53*%
%TO.N,pinBuzzer*%
X163570000Y-99890000D03*
%TO.P,XA1,D52*%
%TO.N,pinRemoteSwitch*%
X161030000Y-99890000D03*
%TO.P,XA1,D51*%
%TO.N,pinButton*%
X163570000Y-97350000D03*
%TO.P,XA1,D50*%
%TO.N,pinChargeRelay*%
X161030000Y-97350000D03*
%TO.P,XA1,D49*%
%TO.N,pinReserveD49*%
X163570000Y-94810000D03*
%TO.P,XA1,D48*%
%TO.N,pinUserSwitch3*%
X161030000Y-94810000D03*
%TO.P,XA1,D47*%
%TO.N,pinUserSwitch2*%
X163570000Y-92270000D03*
%TO.P,XA1,D46*%
%TO.N,pinUserSwitch1*%
X161030000Y-92270000D03*
%TO.P,XA1,D45*%
%TO.N,pinDropLeft*%
X163570000Y-89730000D03*
%TO.P,XA1,D44*%
%TO.N,pinRain*%
X161030000Y-89730000D03*
%TO.P,XA1,D43*%
%TO.N,N/C*%
X163570000Y-87190000D03*
%TO.P,XA1,D42*%
X161030000Y-87190000D03*
%TO.P,XA1,D41*%
X163570000Y-84650000D03*
%TO.P,XA1,D40*%
X161030000Y-84650000D03*
%TO.P,XA1,D39*%
%TO.N,pinBumperLeft*%
X163570000Y-82110000D03*
%TO.P,XA1,D38*%
%TO.N,pinBumperRight*%
X161030000Y-82110000D03*
%TO.P,XA1,D37*%
%TO.N,pinMotorEnable*%
X163570000Y-79570000D03*
%TO.P,XA1,D36*%
%TO.N,pinSonarLeftEcho*%
X161030000Y-79570000D03*
%TO.P,XA1,D35*%
%TO.N,pinTilt*%
X163570000Y-77030000D03*
%TO.P,XA1,D34*%
%TO.N,pinSonarLeftTrigger*%
X161030000Y-77030000D03*
%TO.P,XA1,D33*%
%TO.N,pinMotorRightDir*%
X163570000Y-74490000D03*
%TO.P,XA1,D32*%
%TO.N,pinSonarRightEcho*%
X161030000Y-74490000D03*
%TO.P,XA1,D31*%
%TO.N,pinMotorLeftDir*%
X163570000Y-71950000D03*
%TO.P,XA1,D30*%
%TO.N,pinSonarRightTrigger*%
X161030000Y-71950000D03*
%TO.P,XA1,D29*%
%TO.N,pinMotorMowDir*%
X163570000Y-69410000D03*
%TO.P,XA1,D28*%
%TO.N,pinMotorMowEnable*%
X161030000Y-69410000D03*
%TO.P,XA1,D27*%
%TO.N,pinMotorRightFault*%
X163570000Y-66870000D03*
%TO.P,XA1,D26*%
%TO.N,pinMotorMowFault*%
X161030000Y-66870000D03*
%TO.P,XA1,D25*%
%TO.N,pinMotorLeftFault*%
X163570000Y-64330000D03*
%TO.P,XA1,D24*%
%TO.N,pinSonarCenterTrigger*%
X161030000Y-64330000D03*
%TO.P,XA1,D23*%
%TO.N,pinDropRight*%
X163570000Y-61790000D03*
%TO.P,XA1,D22*%
%TO.N,pinSonarCenterEcho*%
X161030000Y-61790000D03*
%TO.P,XA1,5V4*%
%TO.N,N/C*%
X163570000Y-59250000D03*
%TO.P,XA1,5V3*%
X161030000Y-59250000D03*
%TO.P,XA1,CANT*%
X158490000Y-107510000D03*
%TO.P,XA1,CANR*%
%TO.N,pinOdometryRight*%
X155950000Y-107510000D03*
%TO.P,XA1,DAC1*%
%TO.N,N/C*%
X153410000Y-107510000D03*
%TO.P,XA1,DAC0*%
%TO.N,pinOdometryLeft*%
X150870000Y-107510000D03*
%TO.P,XA1,A11*%
%TO.N,pinMotorMowRpm*%
X148330000Y-107510000D03*
%TO.P,XA1,A10*%
%TO.N,pinReserveA10*%
X145790000Y-107510000D03*
%TO.P,XA1,A9*%
%TO.N,pinChargeVoltage*%
X143250000Y-107510000D03*
%TO.P,XA1,A8*%
%TO.N,pinChargeCurrent*%
X140710000Y-107510000D03*
%TO.P,XA1,A7*%
%TO.N,pinVoltageMeasurement*%
X135630000Y-107510000D03*
%TO.P,XA1,A6*%
%TO.N,N/C*%
X133090000Y-107510000D03*
%TO.P,XA1,A5*%
%TO.N,pinPerimeterLeft*%
X130550000Y-107510000D03*
%TO.P,XA1,A4*%
%TO.N,pinPerimeterRight*%
X128010000Y-107510000D03*
%TO.P,XA1,A3*%
%TO.N,pinMotorMowSense*%
X125470000Y-107510000D03*
%TO.P,XA1,A2*%
%TO.N,pinBatteryVoltage*%
X122930000Y-107510000D03*
%TO.P,XA1,A1*%
%TO.N,pinMotorLeftSense*%
X120390000Y-107510000D03*
%TO.P,XA1,*%
%TO.N,*%
X94990000Y-107510000D03*
%TO.P,XA1,D11*%
%TO.N,pinRemoteSteer*%
X101086000Y-59250000D03*
%TO.P,XA1,D12*%
%TO.N,pinRemoteMow*%
X98546000Y-59250000D03*
%TO.P,XA1,D13*%
%TO.N,pinLED*%
X96006000Y-59250000D03*
%TO.P,XA1,AREF*%
%TO.N,Net-(C1-Pad2)*%
X90926000Y-59250000D03*
%TO.P,XA1,SDA1*%
%TO.N,SDA1*%
X88386000Y-59250000D03*
%TO.P,XA1,SCL1*%
%TO.N,SCL1*%
X85846000Y-59250000D03*
%TO.P,XA1,D10*%
%TO.N,pinRemoteSpeed*%
X103626000Y-59250000D03*
%TO.P,XA1,D9*%
%TO.N,pinReserveD9*%
X106166000Y-59250000D03*
%TO.P,XA1,D8*%
%TO.N,pinReserveD8*%
X108706000Y-59250000D03*
%TO.P,XA1,GND1*%
%TO.N,GND*%
X93466000Y-59250000D03*
%TO.P,XA1,D7*%
%TO.N,N/C*%
X112770000Y-59250000D03*
%TO.P,XA1,D6*%
X115310000Y-59250000D03*
%TO.P,XA1,D5*%
%TO.N,pinMotorLeftPWM*%
X117850000Y-59250000D03*
%TO.P,XA1,D4*%
%TO.N,pinBatterySwitch*%
X120390000Y-59250000D03*
%TO.P,XA1,D3*%
%TO.N,pinMotorRightPWM*%
X122930000Y-59250000D03*
%TO.P,XA1,D2*%
%TO.N,pinMotorMowPWM*%
X125470000Y-59250000D03*
%TO.P,XA1,D1*%
%TO.N,TX0*%
X128010000Y-59250000D03*
%TO.P,XA1,D0*%
%TO.N,RX0*%
X130550000Y-59250000D03*
%TO.P,XA1,D14*%
%TO.N,RX3*%
X135630000Y-59250000D03*
%TO.P,XA1,D15*%
%TO.N,TX3*%
X138170000Y-59250000D03*
%TO.P,XA1,D16*%
%TO.N,TX2*%
X140710000Y-59250000D03*
%TO.P,XA1,D17*%
%TO.N,RX2*%
X143250000Y-59250000D03*
%TO.P,XA1,D18*%
%TO.N,TX1*%
X145790000Y-59250000D03*
%TO.P,XA1,D19*%
%TO.N,RX1*%
X148330000Y-59250000D03*
%TO.P,XA1,D20*%
%TO.N,SDA0*%
X150870000Y-59250000D03*
%TO.P,XA1,D21*%
%TO.N,SCL0*%
X153410000Y-59250000D03*
%TO.P,XA1,IORF*%
%TO.N,IOREV*%
X97530000Y-107510000D03*
%TO.P,XA1,RST1*%
%TO.N,N/C*%
X100070000Y-107510000D03*
%TO.P,XA1,3V3*%
%TO.N,DUE_3.3V*%
X102610000Y-107510000D03*
%TO.P,XA1,5V1*%
%TO.N,DUE_5V*%
X105150000Y-107510000D03*
%TO.P,XA1,GND2*%
%TO.N,GND*%
X107690000Y-107510000D03*
%TO.P,XA1,GND3*%
X110230000Y-107510000D03*
%TO.P,XA1,VIN*%
%TO.N,+9V*%
X112770000Y-107510000D03*
%TO.P,XA1,A0*%
%TO.N,pinMotorRightSense*%
X117850000Y-107510000D03*
%TO.P,XA1,5V2*%
%TO.N,N/C*%
X133217000Y-79570000D03*
%TO.P,XA1,SCK*%
X130677000Y-82110000D03*
%TO.P,XA1,MOSI*%
X133217000Y-82110000D03*
%TO.P,XA1,GND4*%
X133217000Y-84650000D03*
%TO.P,XA1,RST2*%
X130677000Y-84650000D03*
%TD*%
D20*
%TO.P,SP1,1*%
%TO.N,GND*%
X49820000Y-119720160D03*
%TO.P,SP1,2*%
%TO.N,Net-(JP2-Pad2)*%
X49820000Y-127319840D03*
%TD*%
D12*
%TO.P,R13,2*%
%TO.N,Net-(D4-Pad2)*%
X73560000Y-45680000D03*
D13*
%TO.P,R13,1*%
%TO.N,pinLED*%
X71020000Y-45680000D03*
%TD*%
D12*
%TO.P,R12,2*%
%TO.N,+5V*%
X67370000Y-45590000D03*
D13*
%TO.P,R12,1*%
%TO.N,Net-(D3-Pad2)*%
X64830000Y-45590000D03*
%TD*%
D12*
%TO.P,R11,2*%
%TO.N,+3V3*%
X61260000Y-45630000D03*
D13*
%TO.P,R11,1*%
%TO.N,Net-(D2-Pad2)*%
X58720000Y-45630000D03*
%TD*%
D12*
%TO.P,R10,2*%
%TO.N,GND*%
X89260000Y-111660000D03*
D13*
%TO.P,R10,1*%
%TO.N,Net-(J19-Pad3)*%
X89260000Y-114200000D03*
%TD*%
D12*
%TO.P,R9,2*%
%TO.N,pinPerimeterLeft*%
X89290000Y-117640000D03*
D13*
%TO.P,R9,1*%
%TO.N,Net-(J19-Pad3)*%
X89290000Y-120180000D03*
%TD*%
D12*
%TO.P,R8,2*%
%TO.N,GND*%
X98820000Y-111850000D03*
D13*
%TO.P,R8,1*%
%TO.N,Net-(J13-Pad3)*%
X98820000Y-114390000D03*
%TD*%
D12*
%TO.P,R7,2*%
%TO.N,pinPerimeterRight*%
X98820000Y-117690000D03*
D13*
%TO.P,R7,1*%
%TO.N,Net-(J13-Pad3)*%
X98820000Y-120230000D03*
%TD*%
D10*
%TO.P,J13,3*%
%TO.N,Net-(J13-Pad3)*%
X93860000Y-118730000D03*
%TO.P,J13,2*%
%TO.N,GND*%
X93860000Y-116190000D03*
D11*
%TO.P,J13,1*%
%TO.N,+5V*%
X93860000Y-113650000D03*
%TD*%
D10*
%TO.P,J9,3*%
%TO.N,pinRain*%
X115260000Y-118780000D03*
%TO.P,J9,2*%
%TO.N,GND*%
X115260000Y-116240000D03*
D11*
%TO.P,J9,1*%
%TO.N,+3V3*%
X115260000Y-113700000D03*
%TD*%
D10*
%TO.P,J8,3*%
%TO.N,pinTilt*%
X109060000Y-118780000D03*
%TO.P,J8,2*%
%TO.N,GND*%
X109060000Y-116240000D03*
D11*
%TO.P,J8,1*%
%TO.N,+3V3*%
X109060000Y-113700000D03*
%TD*%
D10*
%TO.P,J7,3*%
%TO.N,pinDropRight*%
X155750000Y-127630000D03*
%TO.P,J7,2*%
%TO.N,GND*%
X155750000Y-125090000D03*
D11*
%TO.P,J7,1*%
%TO.N,+3V3*%
X155750000Y-122550000D03*
%TD*%
D10*
%TO.P,J6,3*%
%TO.N,pinDropLeft*%
X155800000Y-117590000D03*
%TO.P,J6,2*%
%TO.N,GND*%
X155800000Y-115050000D03*
D11*
%TO.P,J6,1*%
%TO.N,+3V3*%
X155800000Y-112510000D03*
%TD*%
D16*
%TO.P,J1,2*%
%TO.N,Net-(D1-Pad2)*%
X44880000Y-51950000D03*
D17*
%TO.P,J1,1*%
%TO.N,GND*%
X44880000Y-46870000D03*
%TD*%
D22*
%TO.P,D3,2*%
%TO.N,Net-(D3-Pad2)*%
X66060000Y-41260000D03*
D23*
%TO.P,D3,1*%
%TO.N,GND*%
X66060000Y-38720000D03*
%TD*%
D14*
%TO.P,D1,2*%
%TO.N,Net-(D1-Pad2)*%
X53690000Y-54040000D03*
D15*
%TO.P,D1,1*%
%TO.N,+9V*%
X53690000Y-43880000D03*
%TD*%
D13*
%TO.P,C1,2*%
%TO.N,Net-(C1-Pad2)*%
X74750000Y-53370000D03*
D25*
%TO.P,C1,1*%
%TO.N,GND*%
X72250000Y-53370000D03*
%TD*%
D26*
%TO.N,pinMotorRightSense*%
X181339500Y-89191600D03*
%TO.N,pinMotorLeftSense*%
X124971200Y-121092000D03*
%TO.N,pinMotorMowSense*%
X175099900Y-91544000D03*
%TO.N,pinDropLeft*%
X162880600Y-111623000D03*
%TO.N,pinUserSwitch2*%
X144530200Y-104222300D03*
%TO.N,pinUserSwitch1*%
X146184300Y-105870800D03*
%TO.N,pinTilt*%
X125838700Y-96256100D03*
%TO.N,pinChargeVoltage*%
X102726800Y-93299400D03*
%TO.N,pinChargeCurrent*%
X104850400Y-95420000D03*
%TO.N,pinRemoteSteer*%
X73213700Y-88302600D03*
%TO.N,pinRemoteSpeed*%
X74516000Y-89604900D03*
%TO.N,+5V*%
X107464800Y-119023300D03*
%TO.N,Net-(D12-Pad2)*%
X178585300Y-115830900D03*
%TD*%
D27*
%TO.N,SCL1*%
X104810000Y-45400000D02*
X105996600Y-46586600D01*
X105996600Y-46586600D02*
X108802100Y-46586600D01*
X108802100Y-46586600D02*
X109788700Y-45600000D01*
X100810000Y-45550000D02*
X104660000Y-45550000D01*
X104660000Y-45550000D02*
X104810000Y-45400000D01*
X111020000Y-45600000D02*
X109788700Y-45600000D01*
%TO.N,SDA1*%
X111020000Y-43060000D02*
X109788700Y-43060000D01*
X100810000Y-43010000D02*
X109738700Y-43010000D01*
X109738700Y-43010000D02*
X109788700Y-43060000D01*
D28*
%TO.N,GND*%
X147520000Y-42910000D02*
X151135700Y-42910000D01*
X151135700Y-42910000D02*
X151215700Y-42990000D01*
X139994300Y-40430000D02*
X142474300Y-42910000D01*
X142474300Y-42910000D02*
X147520000Y-42910000D01*
X138640000Y-40430000D02*
X139994300Y-40430000D01*
X132200000Y-40430000D02*
X138640000Y-40430000D01*
X152570000Y-42990000D02*
X151215700Y-42990000D01*
X162770000Y-43070000D02*
X161415700Y-43070000D01*
X157710000Y-42990000D02*
X161335700Y-42990000D01*
X161335700Y-42990000D02*
X161415700Y-43070000D01*
X125660000Y-40430000D02*
X132200000Y-40430000D01*
X174447300Y-109786700D02*
X170974000Y-113260000D01*
X179700000Y-106430000D02*
X177804000Y-106430000D01*
X177804000Y-106430000D02*
X174447300Y-109786700D01*
X164937900Y-102430000D02*
X169417900Y-106910000D01*
X169417900Y-106910000D02*
X171570500Y-106910000D01*
X171570500Y-106910000D02*
X174447300Y-109786700D01*
X163570000Y-102430000D02*
X164937900Y-102430000D01*
X163000500Y-102430000D02*
X163570000Y-102430000D01*
X103670000Y-116190000D02*
X105024300Y-116190000D01*
X109060000Y-116240000D02*
X105074300Y-116240000D01*
X105074300Y-116240000D02*
X105024300Y-116190000D01*
X109639100Y-116240000D02*
X109060000Y-116240000D01*
X189664000Y-53099700D02*
X204493700Y-38270000D01*
X204493700Y-38270000D02*
X205750000Y-38270000D01*
X194342000Y-60906000D02*
X189664000Y-56228000D01*
X189664000Y-56228000D02*
X189664000Y-53099700D01*
X188554300Y-51990000D02*
X189664000Y-53099700D01*
X187200000Y-51990000D02*
X188554300Y-51990000D01*
X186620900Y-51990000D02*
X187200000Y-51990000D01*
X91920000Y-40420000D02*
X90565700Y-40420000D01*
X81620000Y-40370000D02*
X90515700Y-40370000D01*
X90515700Y-40370000D02*
X90565700Y-40420000D01*
X163000500Y-102430000D02*
X162202100Y-102430000D01*
X191496000Y-106350000D02*
X194342000Y-109196000D01*
X189894300Y-106350000D02*
X191496000Y-106350000D01*
X191496000Y-106350000D02*
X191496000Y-98308300D01*
X191496000Y-98308300D02*
X202460000Y-87344300D01*
X202460000Y-85340000D02*
X202460000Y-87344300D01*
X186620900Y-51990000D02*
X185845700Y-51990000D01*
X93860000Y-116190000D02*
X92505700Y-116190000D01*
X92505700Y-116190000D02*
X92505700Y-114905700D01*
X92505700Y-114905700D02*
X89260000Y-111660000D01*
X72210000Y-38810000D02*
X70805700Y-38810000D01*
X69709200Y-39521400D02*
X68265700Y-39521400D01*
X68265700Y-39521400D02*
X67464300Y-38720000D01*
X70805700Y-38810000D02*
X70094300Y-39521400D01*
X70094300Y-39521400D02*
X69709200Y-39521400D01*
X72250000Y-52065700D02*
X69709200Y-49524900D01*
X69709200Y-49524900D02*
X69709200Y-39521400D01*
X66060000Y-38720000D02*
X67464300Y-38720000D01*
X72250000Y-53370000D02*
X72250000Y-52065700D01*
X122520000Y-116420000D02*
X123874300Y-116420000D01*
X127380000Y-116210000D02*
X124084300Y-116210000D01*
X124084300Y-116210000D02*
X123874300Y-116420000D01*
X115260000Y-116240000D02*
X116614300Y-116240000D01*
X122520000Y-116420000D02*
X116794300Y-116420000D01*
X116794300Y-116420000D02*
X116614300Y-116240000D01*
X109639100Y-116240000D02*
X110414300Y-116240000D01*
X188540000Y-106350000D02*
X189894300Y-106350000D01*
X123004300Y-40450000D02*
X123024200Y-40430100D01*
X123024200Y-40430100D02*
X124305700Y-40430100D01*
X124305700Y-40430100D02*
X124305700Y-40430000D01*
X120464300Y-42990000D02*
X123004300Y-40450000D01*
X123004300Y-40450000D02*
X120464300Y-37910000D01*
X80264300Y-113520000D02*
X82915700Y-113520000D01*
X84270000Y-113520000D02*
X82915700Y-113520000D01*
X78910000Y-113520000D02*
X80264300Y-113520000D01*
X115260000Y-116240000D02*
X113905700Y-116240000D01*
X113905700Y-116240000D02*
X110414300Y-116240000D01*
X162202100Y-102430000D02*
X161030000Y-102430000D01*
X141345700Y-116500000D02*
X141125700Y-116280000D01*
X141125700Y-116280000D02*
X138994300Y-116280000D01*
X119110000Y-37910000D02*
X120464300Y-37910000D01*
X62859500Y-119160500D02*
X62859500Y-120310500D01*
X62859500Y-120310500D02*
X59480000Y-123690000D01*
X73700000Y-113520000D02*
X68500000Y-113520000D01*
X41810000Y-38440000D02*
X44600000Y-38440000D01*
X44600000Y-38440000D02*
X44880000Y-38720000D01*
X44880000Y-38720000D02*
X58465700Y-38720000D01*
X170974000Y-64970000D02*
X174901100Y-61042900D01*
X174901100Y-61042900D02*
X177552300Y-61042900D01*
X177552300Y-61042900D02*
X185845700Y-52749500D01*
X185845700Y-52749500D02*
X185845700Y-51990000D01*
X137690000Y-116280000D02*
X138994300Y-116280000D01*
X142700000Y-116500000D02*
X141345700Y-116500000D01*
X132820000Y-116420000D02*
X134174300Y-116420000D01*
X137690000Y-116280000D02*
X134314300Y-116280000D01*
X134314300Y-116280000D02*
X134174300Y-116420000D01*
X125660000Y-40430000D02*
X124305700Y-40430000D01*
X119110000Y-42990000D02*
X120464300Y-42990000D01*
X106780000Y-53000000D02*
X105425700Y-53000000D01*
X105425700Y-53000000D02*
X104076300Y-54349400D01*
X104076300Y-54349400D02*
X97289400Y-54349400D01*
X97289400Y-54349400D02*
X95900000Y-52960000D01*
X163349100Y-43070000D02*
X162770000Y-43070000D01*
X163349100Y-43070000D02*
X164124300Y-43070000D01*
X73700000Y-113520000D02*
X78910000Y-113520000D01*
X59870000Y-38720000D02*
X58465700Y-38720000D01*
X147560000Y-116280000D02*
X148864300Y-116280000D01*
X155800000Y-115050000D02*
X154445700Y-115050000D01*
X154445700Y-115050000D02*
X153215700Y-116280000D01*
X153215700Y-116280000D02*
X148864300Y-116280000D01*
X170974000Y-42110000D02*
X165084300Y-42110000D01*
X165084300Y-42110000D02*
X164124300Y-43070000D01*
X100810000Y-40470000D02*
X102164300Y-40470000D01*
X111020000Y-40520000D02*
X102214300Y-40520000D01*
X102214300Y-40520000D02*
X102164300Y-40470000D01*
X100810000Y-40470000D02*
X99455700Y-40470000D01*
X91920000Y-40420000D02*
X99405700Y-40420000D01*
X99405700Y-40420000D02*
X99455700Y-40470000D01*
X59870000Y-38720000D02*
X66060000Y-38720000D01*
X110230000Y-107510000D02*
X107690000Y-107510000D01*
X68500000Y-113520000D02*
X62859500Y-119160500D01*
D29*
X39760000Y-125980000D02*
X42029999Y-128249999D01*
X42039999Y-38400001D02*
X39840000Y-40600000D01*
D30*
X39970002Y-58210000D02*
X39610001Y-58570001D01*
D29*
X44890000Y-58210000D02*
X39970002Y-58210000D01*
X39800000Y-47849998D02*
X39800000Y-58600000D01*
D30*
X39670002Y-69500000D02*
X39610001Y-69560001D01*
D29*
X45079998Y-69500000D02*
X39760000Y-69500000D01*
X39760000Y-69540000D02*
X39760000Y-126080000D01*
X39800000Y-58550000D02*
X39800000Y-69540000D01*
D30*
X39850000Y-46870000D02*
X39610001Y-46630001D01*
D29*
X45000000Y-46780000D02*
X39970000Y-46780000D01*
X39800000Y-46480000D02*
X39800000Y-47669998D01*
X39800000Y-40619998D02*
X39800000Y-46610000D01*
X205600000Y-116141842D02*
X205600000Y-128210000D01*
D30*
X205750000Y-115991842D02*
X205600000Y-116141842D01*
D29*
X205750000Y-38270000D02*
X205750000Y-115991842D01*
D27*
%TO.N,pinMotorRightSense*%
X117850000Y-107510000D02*
X119094900Y-107510000D01*
X119094900Y-107510000D02*
X119094900Y-107043200D01*
X119094900Y-107043200D02*
X137678100Y-88460000D01*
X137678100Y-88460000D02*
X166677500Y-88460000D01*
X166677500Y-88460000D02*
X168428000Y-86709500D01*
X168428000Y-86709500D02*
X173755000Y-86709500D01*
X173755000Y-86709500D02*
X176237100Y-89191600D01*
X176237100Y-89191600D02*
X181339500Y-89191600D01*
%TO.N,pinMotorRightFault*%
X188880000Y-92520000D02*
X187398700Y-92520000D01*
X163570000Y-66870000D02*
X163570000Y-68114900D01*
X163570000Y-68114900D02*
X163103200Y-68114900D01*
X163103200Y-68114900D02*
X162300000Y-68918100D01*
X162300000Y-68918100D02*
X162300000Y-69922300D01*
X162300000Y-69922300D02*
X163057700Y-70680000D01*
X163057700Y-70680000D02*
X164292600Y-70680000D01*
X164292600Y-70680000D02*
X170012600Y-76400000D01*
X170012600Y-76400000D02*
X171336200Y-76400000D01*
X171336200Y-76400000D02*
X173648600Y-78712400D01*
X173648600Y-78712400D02*
X173648600Y-80373700D01*
X173648600Y-80373700D02*
X177664900Y-84390000D01*
X177664900Y-84390000D02*
X179268700Y-84390000D01*
X179268700Y-84390000D02*
X187398700Y-92520000D01*
%TO.N,IOREV*%
X157417500Y-104211600D02*
X156602400Y-103396500D01*
X156602400Y-103396500D02*
X141619700Y-103396500D01*
X141619700Y-103396500D02*
X137797400Y-107218800D01*
X137797400Y-107218800D02*
X137797400Y-107847500D01*
X137797400Y-107847500D02*
X134728100Y-110916800D01*
X134728100Y-110916800D02*
X101714900Y-110916800D01*
X101714900Y-110916800D02*
X98774900Y-107976800D01*
X98774900Y-107976800D02*
X98774900Y-107510000D01*
X157417500Y-104211600D02*
X169005900Y-115800000D01*
X169005900Y-115800000D02*
X170974000Y-115800000D01*
X170974000Y-92940000D02*
X166074900Y-97839100D01*
X166074900Y-97839100D02*
X166074900Y-99188300D01*
X166074900Y-99188300D02*
X164103200Y-101160000D01*
X164103200Y-101160000D02*
X160469100Y-101160000D01*
X160469100Y-101160000D02*
X157417500Y-104211600D01*
X97530000Y-107510000D02*
X98774900Y-107510000D01*
X170974000Y-115800000D02*
X170974000Y-116518700D01*
X170974000Y-116518700D02*
X172119600Y-117664300D01*
X172119600Y-117664300D02*
X172119600Y-122274400D01*
X172119600Y-122274400D02*
X170974000Y-123420000D01*
X170974000Y-59890000D02*
X172119600Y-58744400D01*
X172119600Y-58744400D02*
X172119600Y-45795600D01*
X172119600Y-45795600D02*
X170974000Y-44650000D01*
%TO.N,pinMotorRightPWM*%
X122930000Y-59250000D02*
X124174900Y-59250000D01*
X124174900Y-59250000D02*
X124174900Y-59716800D01*
X124174900Y-59716800D02*
X140218100Y-75760000D01*
X140218100Y-75760000D02*
X164145900Y-75760000D01*
X164145900Y-75760000D02*
X171889800Y-83503900D01*
X171889800Y-83503900D02*
X174377000Y-83503900D01*
X174377000Y-83503900D02*
X176814800Y-85941700D01*
X176814800Y-85941700D02*
X179257600Y-85941700D01*
X179257600Y-85941700D02*
X182204500Y-88888600D01*
X182204500Y-88888600D02*
X182204500Y-91174000D01*
X182204500Y-91174000D02*
X177898500Y-95480000D01*
X177898500Y-95480000D02*
X170974000Y-95480000D01*
%TO.N,pinMotorEnable*%
X179700000Y-114050000D02*
X180931300Y-114050000D01*
X180931300Y-114050000D02*
X181011300Y-113970000D01*
X181011300Y-113970000D02*
X187308700Y-113970000D01*
X188540000Y-113970000D02*
X187308700Y-113970000D01*
%TO.N,pinMotorLeftSense*%
X180960000Y-129810000D02*
X179478700Y-129810000D01*
X124971200Y-121092000D02*
X135107800Y-131228600D01*
X135107800Y-131228600D02*
X178060100Y-131228600D01*
X178060100Y-131228600D02*
X179478700Y-129810000D01*
%TO.N,pinMotorLeftDir*%
X188540000Y-110198700D02*
X188029800Y-110198700D01*
X188029800Y-110198700D02*
X187286100Y-109455000D01*
X187286100Y-109455000D02*
X187286100Y-105862600D01*
X187286100Y-105862600D02*
X188107300Y-105041400D01*
X188107300Y-105041400D02*
X189608300Y-105041400D01*
X189608300Y-105041400D02*
X189771400Y-104878300D01*
X189771400Y-104878300D02*
X189771400Y-96455600D01*
X189771400Y-96455600D02*
X183065200Y-89749400D01*
X183065200Y-89749400D02*
X183065200Y-89030500D01*
X183065200Y-89030500D02*
X179112800Y-85078100D01*
X179112800Y-85078100D02*
X177634200Y-85078100D01*
X177634200Y-85078100D02*
X171496100Y-78940000D01*
X171496100Y-78940000D02*
X170560000Y-78940000D01*
X170560000Y-78940000D02*
X164814900Y-73194900D01*
X164814900Y-73194900D02*
X164814900Y-71950000D01*
X188540000Y-111430000D02*
X188540000Y-110198700D01*
X163570000Y-71950000D02*
X164814900Y-71950000D01*
%TO.N,pinMotorMowSense*%
X125470000Y-107510000D02*
X125470000Y-106265100D01*
X125470000Y-106265100D02*
X138195100Y-93540000D01*
X138195100Y-93540000D02*
X168595800Y-93540000D01*
X168595800Y-93540000D02*
X170591800Y-91544000D01*
X170591800Y-91544000D02*
X175099900Y-91544000D01*
%TO.N,pinMotorMowPWM*%
X166524000Y-65600000D02*
X170974000Y-70050000D01*
X126714900Y-59250000D02*
X126714900Y-59716800D01*
X126714900Y-59716800D02*
X132598100Y-65600000D01*
X132598100Y-65600000D02*
X166524000Y-65600000D01*
X166524000Y-65600000D02*
X166524000Y-51640000D01*
X166524000Y-51640000D02*
X170974000Y-47190000D01*
X125470000Y-59250000D02*
X126714900Y-59250000D01*
%TO.N,pinMotorMowDir*%
X170974000Y-72590000D02*
X167994900Y-72590000D01*
X167994900Y-72590000D02*
X164814900Y-69410000D01*
X187200000Y-57070000D02*
X185968700Y-57070000D01*
X170974000Y-72590000D02*
X185968700Y-57595300D01*
X185968700Y-57595300D02*
X185968700Y-57070000D01*
X163570000Y-69410000D02*
X164814900Y-69410000D01*
%TO.N,pinDropLeft*%
X155800000Y-117590000D02*
X157031300Y-117590000D01*
X162880600Y-111623000D02*
X157031300Y-117472300D01*
X157031300Y-117472300D02*
X157031300Y-117590000D01*
%TO.N,pinBuzzer*%
X66080000Y-123740000D02*
X64848700Y-123740000D01*
X64848700Y-123740000D02*
X62358700Y-126230000D01*
X62358700Y-126230000D02*
X59480000Y-126230000D01*
%TO.N,pinRemoteSwitch*%
X161030000Y-99890000D02*
X144407400Y-99890000D01*
X144407400Y-99890000D02*
X137289100Y-107008300D01*
X137289100Y-107008300D02*
X137289100Y-107636800D01*
X137289100Y-107636800D02*
X134540100Y-110385800D01*
X134540100Y-110385800D02*
X103627200Y-110385800D01*
X103627200Y-110385800D02*
X101340000Y-108098600D01*
X101340000Y-108098600D02*
X101340000Y-107004600D01*
X101340000Y-107004600D02*
X99810700Y-105475300D01*
X99810700Y-105475300D02*
X71654500Y-105475300D01*
X71654500Y-105475300D02*
X63922900Y-113206900D01*
X63922900Y-113206900D02*
X48316500Y-113206900D01*
X48316500Y-113206900D02*
X47511300Y-112401700D01*
X47511300Y-112401700D02*
X47511300Y-111940000D01*
X46280000Y-111940000D02*
X47511300Y-111940000D01*
%TO.N,pinChargeRelay*%
X159785100Y-97350000D02*
X144548000Y-97350000D01*
X144548000Y-97350000D02*
X136552100Y-105345900D01*
X136552100Y-105345900D02*
X133456400Y-105345900D01*
X133456400Y-105345900D02*
X131820000Y-106982300D01*
X131820000Y-106982300D02*
X131820000Y-108015800D01*
X131820000Y-108015800D02*
X130507300Y-109328500D01*
X130507300Y-109328500D02*
X117168300Y-109328500D01*
X117168300Y-109328500D02*
X105799800Y-97960000D01*
X105799800Y-97960000D02*
X44291300Y-97960000D01*
X161030000Y-97350000D02*
X159785100Y-97350000D01*
X43060000Y-97960000D02*
X44291300Y-97960000D01*
%TO.N,pinUserSwitch2*%
X144530200Y-104222300D02*
X141512800Y-104222300D01*
X141512800Y-104222300D02*
X138305700Y-107429400D01*
X138305700Y-107429400D02*
X138305700Y-108058300D01*
X138305700Y-108058300D02*
X134901300Y-111462700D01*
X134901300Y-111462700D02*
X100822200Y-111462700D01*
X100822200Y-111462700D02*
X99282000Y-109922500D01*
X99282000Y-109922500D02*
X88564400Y-109922500D01*
X88564400Y-109922500D02*
X85755900Y-112731000D01*
X85755900Y-112731000D02*
X85755900Y-114298800D01*
X85755900Y-114298800D02*
X85303300Y-114751400D01*
X85303300Y-114751400D02*
X81449900Y-114751400D01*
X81449900Y-114751400D02*
X80141300Y-116060000D01*
X78910000Y-116060000D02*
X80141300Y-116060000D01*
%TO.N,pinUserSwitch1*%
X74931300Y-116060000D02*
X76222600Y-117351300D01*
X76222600Y-117351300D02*
X84754300Y-117351300D01*
X84754300Y-117351300D02*
X87962100Y-114143500D01*
X87962100Y-114143500D02*
X87962100Y-111243600D01*
X87962100Y-111243600D02*
X88774900Y-110430800D01*
X88774900Y-110430800D02*
X99071500Y-110430800D01*
X99071500Y-110430800D02*
X100630200Y-111989500D01*
X100630200Y-111989500D02*
X135093500Y-111989500D01*
X135093500Y-111989500D02*
X138993800Y-108089200D01*
X138993800Y-108089200D02*
X138993800Y-107460000D01*
X138993800Y-107460000D02*
X140583000Y-105870800D01*
X140583000Y-105870800D02*
X146184300Y-105870800D01*
X73700000Y-116060000D02*
X74931300Y-116060000D01*
%TO.N,pinTilt*%
X125838700Y-96256100D02*
X143819900Y-78274900D01*
X143819900Y-78274900D02*
X161547100Y-78274900D01*
X161547100Y-78274900D02*
X162325100Y-77496900D01*
X162325100Y-77496900D02*
X162325100Y-77030000D01*
X163570000Y-77030000D02*
X162325100Y-77030000D01*
%TO.N,pinSonarCenterTrigger*%
X161030000Y-64330000D02*
X159477500Y-64330000D01*
X159477500Y-64330000D02*
X154794300Y-59646800D01*
X154794300Y-59646800D02*
X154794300Y-58873700D01*
X154794300Y-58873700D02*
X144736200Y-48815600D01*
X144736200Y-48815600D02*
X133715300Y-48815600D01*
X133715300Y-48815600D02*
X130891400Y-45991700D01*
X130891400Y-45991700D02*
X130891400Y-44999700D01*
X130891400Y-44999700D02*
X131689800Y-44201300D01*
X131689800Y-44201300D02*
X132200000Y-44201300D01*
X132200000Y-42970000D02*
X132200000Y-44201300D01*
%TO.N,pinSonarCenterEcho*%
X133431300Y-45510000D02*
X135943100Y-48021800D01*
X135943100Y-48021800D02*
X145091600Y-48021800D01*
X145091600Y-48021800D02*
X152283800Y-55214000D01*
X152283800Y-55214000D02*
X156001600Y-55214000D01*
X156001600Y-55214000D02*
X159785100Y-58997500D01*
X159785100Y-58997500D02*
X159785100Y-59767100D01*
X159785100Y-59767100D02*
X160563100Y-60545100D01*
X160563100Y-60545100D02*
X161030000Y-60545100D01*
X132200000Y-45510000D02*
X133431300Y-45510000D01*
X161030000Y-61790000D02*
X161030000Y-60545100D01*
%TO.N,pinChargeVoltage*%
X43060000Y-92880000D02*
X44291300Y-92880000D01*
X102726800Y-93299400D02*
X44710700Y-93299400D01*
X44710700Y-93299400D02*
X44291300Y-92880000D01*
%TO.N,pinChargeCurrent*%
X43060000Y-95420000D02*
X104850400Y-95420000D01*
%TO.N,pinVoltageMeasurement*%
X134385100Y-107510000D02*
X134385100Y-107976800D01*
X134385100Y-107976800D02*
X132505600Y-109856300D01*
X132505600Y-109856300D02*
X116977100Y-109856300D01*
X116977100Y-109856300D02*
X107620800Y-100500000D01*
X107620800Y-100500000D02*
X43060000Y-100500000D01*
X135630000Y-107510000D02*
X134385100Y-107510000D01*
%TO.N,pinBatteryVoltage*%
X43060000Y-87800000D02*
X43060000Y-89031300D01*
X122930000Y-107510000D02*
X121685100Y-107510000D01*
X121685100Y-107510000D02*
X121685100Y-107976800D01*
X121685100Y-107976800D02*
X120894500Y-108767400D01*
X120894500Y-108767400D02*
X117346800Y-108767400D01*
X117346800Y-108767400D02*
X107707200Y-99127800D01*
X107707200Y-99127800D02*
X107707200Y-97072000D01*
X107707200Y-97072000D02*
X102245200Y-91610000D01*
X102245200Y-91610000D02*
X42531500Y-91610000D01*
X42531500Y-91610000D02*
X41828700Y-90907200D01*
X41828700Y-90907200D02*
X41828700Y-89800800D01*
X41828700Y-89800800D02*
X42598200Y-89031300D01*
X42598200Y-89031300D02*
X43060000Y-89031300D01*
%TO.N,pinRemoteSteer*%
X101086000Y-60494900D02*
X101021400Y-60494900D01*
X101021400Y-60494900D02*
X73213700Y-88302600D01*
X101086000Y-59250000D02*
X101086000Y-60494900D01*
%TO.N,pinRemoteMow*%
X48820000Y-111940000D02*
X48820000Y-110708700D01*
X98546000Y-59250000D02*
X97301100Y-59250000D01*
X97301100Y-59250000D02*
X97301100Y-59716800D01*
X97301100Y-59716800D02*
X70995200Y-86022700D01*
X70995200Y-86022700D02*
X42563600Y-86022700D01*
X42563600Y-86022700D02*
X41305700Y-87280600D01*
X41305700Y-87280600D02*
X41305700Y-103194400D01*
X41305700Y-103194400D02*
X48820000Y-110708700D01*
%TO.N,pinLED*%
X96006000Y-59250000D02*
X94761100Y-59250000D01*
X94761100Y-59250000D02*
X94761100Y-58783200D01*
X94761100Y-58783200D02*
X83609000Y-47631100D01*
X83609000Y-47631100D02*
X72971100Y-47631100D01*
X72971100Y-47631100D02*
X71020000Y-45680000D01*
%TO.N,pinRemoteSpeed*%
X103626000Y-60494900D02*
X74516000Y-89604900D01*
X103626000Y-59250000D02*
X103626000Y-60494900D01*
%TO.N,pinBatterySwitch*%
X44291300Y-90340000D02*
X44382000Y-90430700D01*
X44382000Y-90430700D02*
X88430300Y-90430700D01*
X88430300Y-90430700D02*
X119145100Y-59715900D01*
X119145100Y-59715900D02*
X119145100Y-59250000D01*
X43060000Y-90340000D02*
X44291300Y-90340000D01*
X120390000Y-59250000D02*
X119145100Y-59250000D01*
%TO.N,SCL0*%
X153410000Y-59250000D02*
X152165100Y-59250000D01*
X152165100Y-59250000D02*
X152165100Y-59716800D01*
X152165100Y-59716800D02*
X151345000Y-60536900D01*
X151345000Y-60536900D02*
X147854600Y-60536900D01*
X147854600Y-60536900D02*
X147060000Y-59742300D01*
X147060000Y-59742300D02*
X147060000Y-58656400D01*
X147060000Y-58656400D02*
X140172200Y-51768600D01*
X140172200Y-51768600D02*
X101240900Y-51768600D01*
X101240900Y-51768600D02*
X94972300Y-45500000D01*
X94972300Y-45500000D02*
X91920000Y-45500000D01*
X81620000Y-45450000D02*
X82851300Y-45450000D01*
X82851300Y-45450000D02*
X82931300Y-45370000D01*
X82931300Y-45370000D02*
X85710000Y-45370000D01*
%TO.N,SDA0*%
X149625100Y-59250000D02*
X149625100Y-58783200D01*
X149625100Y-58783200D02*
X140427800Y-49585900D01*
X140427800Y-49585900D02*
X99777200Y-49585900D01*
X99777200Y-49585900D02*
X93151300Y-42960000D01*
X91920000Y-42960000D02*
X90688700Y-42960000D01*
X81620000Y-42910000D02*
X90638700Y-42910000D01*
X90638700Y-42910000D02*
X90688700Y-42960000D01*
X91920000Y-42960000D02*
X93151300Y-42960000D01*
X150870000Y-59250000D02*
X149625100Y-59250000D01*
%TO.N,Net-(C1-Pad2)*%
X90926000Y-59250000D02*
X89681100Y-59250000D01*
X74750000Y-53370000D02*
X84316900Y-53370000D01*
X84316900Y-53370000D02*
X89681100Y-58734200D01*
X89681100Y-58734200D02*
X89681100Y-59250000D01*
D31*
%TO.N,+5V*%
X142700000Y-119040000D02*
X143981300Y-119040000D01*
X143981300Y-119040000D02*
X144924400Y-118096900D01*
X144924400Y-118096900D02*
X153882000Y-118096900D01*
X153882000Y-118096900D02*
X154687800Y-118902700D01*
X154687800Y-118902700D02*
X157096000Y-118902700D01*
X157096000Y-118902700D02*
X162138700Y-113860000D01*
X142120900Y-119040000D02*
X142700000Y-119040000D01*
X163420000Y-113860000D02*
X162138700Y-113860000D01*
X132820000Y-118960000D02*
X131538700Y-118960000D01*
X122520000Y-118960000D02*
X124609300Y-118960000D01*
X124609300Y-118960000D02*
X125558900Y-118010400D01*
X125558900Y-118010400D02*
X130589100Y-118010400D01*
X130589100Y-118010400D02*
X131538700Y-118960000D01*
X121879400Y-118960000D02*
X122520000Y-118960000D01*
X132820000Y-118960000D02*
X134101300Y-118960000D01*
X134101300Y-118960000D02*
X134985200Y-118076100D01*
X134985200Y-118076100D02*
X140454800Y-118076100D01*
X140454800Y-118076100D02*
X141418700Y-119040000D01*
X121879400Y-118960000D02*
X121238700Y-118960000D01*
X142120900Y-119040000D02*
X141418700Y-119040000D01*
X107464800Y-119023300D02*
X108530800Y-120089300D01*
X108530800Y-120089300D02*
X120109400Y-120089300D01*
X120109400Y-120089300D02*
X121238700Y-118960000D01*
X103670000Y-113650000D02*
X102388700Y-113650000D01*
X93860000Y-113650000D02*
X95141300Y-113650000D01*
X95141300Y-113650000D02*
X95671300Y-113120000D01*
X95671300Y-113120000D02*
X101858700Y-113120000D01*
X101858700Y-113120000D02*
X102388700Y-113650000D01*
X67370000Y-45590000D02*
X67370000Y-53850000D01*
X67370000Y-53850000D02*
X60660000Y-60560000D01*
X162770000Y-37990000D02*
X161488700Y-37990000D01*
X157710000Y-37910000D02*
X161408700Y-37910000D01*
X161408700Y-37910000D02*
X161488700Y-37990000D01*
X152570000Y-37910000D02*
X157710000Y-37910000D01*
X152570000Y-37910000D02*
X151288700Y-37910000D01*
X148160700Y-37830000D02*
X151208700Y-37830000D01*
X151208700Y-37830000D02*
X151288700Y-37910000D01*
X147520000Y-37830000D02*
X148160700Y-37830000D01*
%TO.N,+3V3*%
X131538700Y-121500000D02*
X130568800Y-120530100D01*
X130568800Y-120530100D02*
X125647900Y-120530100D01*
X125647900Y-120530100D02*
X125334000Y-120216200D01*
X125334000Y-120216200D02*
X124608500Y-120216200D01*
X124608500Y-120216200D02*
X123801300Y-121023400D01*
X123801300Y-121023400D02*
X123801300Y-121500000D01*
X132820000Y-121500000D02*
X131538700Y-121500000D01*
X122520000Y-121500000D02*
X123801300Y-121500000D01*
X142700000Y-121580000D02*
X141418700Y-121580000D01*
X132820000Y-121500000D02*
X134101300Y-121500000D01*
X134101300Y-121500000D02*
X134962600Y-120638700D01*
X134962600Y-120638700D02*
X140477400Y-120638700D01*
X140477400Y-120638700D02*
X141418700Y-121580000D01*
X154468700Y-122550000D02*
X152518700Y-120600000D01*
X152518700Y-120600000D02*
X144961300Y-120600000D01*
X144961300Y-120600000D02*
X143981300Y-121580000D01*
X155750000Y-122550000D02*
X154468700Y-122550000D01*
X142700000Y-121580000D02*
X143981300Y-121580000D01*
X163420000Y-118940000D02*
X162138700Y-118940000D01*
X155750000Y-122550000D02*
X158528700Y-122550000D01*
X158528700Y-122550000D02*
X162138700Y-118940000D01*
X61260000Y-45630000D02*
X62491300Y-45630000D01*
X62491300Y-45630000D02*
X63682700Y-46821400D01*
X63682700Y-46821400D02*
X65342500Y-46821400D01*
X65342500Y-46821400D02*
X66100000Y-46063900D01*
X66100000Y-46063900D02*
X66100000Y-45061100D01*
X66100000Y-45061100D02*
X66844400Y-44316700D01*
X66844400Y-44316700D02*
X67847500Y-44316700D01*
X67847500Y-44316700D02*
X68634100Y-45103300D01*
X68634100Y-45103300D02*
X68634100Y-64365900D01*
X68634100Y-64365900D02*
X60700000Y-72300000D01*
X139921300Y-37890000D02*
X143758700Y-37890000D01*
X143758700Y-37890000D02*
X146238700Y-40370000D01*
X162770000Y-40530000D02*
X161488700Y-40530000D01*
X157710000Y-40450000D02*
X161408700Y-40450000D01*
X161408700Y-40450000D02*
X161488700Y-40530000D01*
X152570000Y-40450000D02*
X157710000Y-40450000D01*
X125660000Y-37890000D02*
X124378700Y-37890000D01*
X111020000Y-37980000D02*
X112301300Y-37980000D01*
X112301300Y-37980000D02*
X113652700Y-36628600D01*
X113652700Y-36628600D02*
X123117300Y-36628600D01*
X123117300Y-36628600D02*
X124378700Y-37890000D01*
X109060000Y-113700000D02*
X110341300Y-113700000D01*
X115260000Y-113700000D02*
X113978700Y-113700000D01*
X113978700Y-113700000D02*
X110341300Y-113700000D01*
X88380000Y-37910000D02*
X87148700Y-37910000D01*
X81620000Y-37830000D02*
X82901300Y-37830000D01*
X82901300Y-37830000D02*
X84271300Y-39200000D01*
X84271300Y-39200000D02*
X86369000Y-39200000D01*
X86369000Y-39200000D02*
X87148700Y-38420300D01*
X87148700Y-38420300D02*
X87148700Y-37910000D01*
X147520000Y-40370000D02*
X146238700Y-40370000D01*
X147520000Y-40370000D02*
X151208700Y-40370000D01*
X151208700Y-40370000D02*
X151288700Y-40450000D01*
X91920000Y-37880000D02*
X93201300Y-37880000D01*
X100810000Y-37930000D02*
X93251300Y-37930000D01*
X93251300Y-37930000D02*
X93201300Y-37880000D01*
X152570000Y-40450000D02*
X151288700Y-40450000D01*
X138640000Y-37890000D02*
X139921300Y-37890000D01*
X132200000Y-37890000D02*
X138640000Y-37890000D01*
X132200000Y-37890000D02*
X125660000Y-37890000D01*
X91920000Y-37880000D02*
X90638700Y-37880000D01*
X90638700Y-37880000D02*
X90608700Y-37910000D01*
X90608700Y-37910000D02*
X88380000Y-37910000D01*
D30*
%TO.N,Net-(D1-Pad2)*%
X53690000Y-54040000D02*
X52208700Y-54040000D01*
X44880000Y-51950000D02*
X50118700Y-51950000D01*
X50118700Y-51950000D02*
X52208700Y-54040000D01*
D27*
%TO.N,Net-(D2-Pad2)*%
X59870000Y-41260000D02*
X58720000Y-42410000D01*
X58720000Y-42410000D02*
X58720000Y-45630000D01*
%TO.N,Net-(D4-Pad2)*%
X72210000Y-41350000D02*
X73560000Y-42700000D01*
X73560000Y-42700000D02*
X73560000Y-45680000D01*
D28*
%TO.N,Net-(D5-Pad2)*%
X188810000Y-82570000D02*
X200150000Y-82570000D01*
X200150000Y-82570000D02*
X202460000Y-80260000D01*
D27*
%TO.N,Net-(JP2-Pad2)*%
X66080000Y-126280000D02*
X64848700Y-126280000D01*
X49820000Y-127319800D02*
X49970400Y-127470200D01*
X49970400Y-127470200D02*
X63658500Y-127470200D01*
X63658500Y-127470200D02*
X64848700Y-126280000D01*
D30*
%TO.N,Net-(J26-Pad1)*%
X202460000Y-48730000D02*
X200578700Y-48730000D01*
X194342000Y-50238000D02*
X199070700Y-50238000D01*
X199070700Y-50238000D02*
X200578700Y-48730000D01*
D27*
%TO.N,Net-(J19-Pad3)*%
X90481100Y-117460000D02*
X90481100Y-115421100D01*
X90481100Y-115421100D02*
X89260000Y-114200000D01*
X89290000Y-120180000D02*
X90481100Y-118988900D01*
X90481100Y-118988900D02*
X90481100Y-117460000D01*
X90481100Y-117460000D02*
X95225200Y-117460000D01*
X95225200Y-117460000D02*
X96667700Y-118902500D01*
X96667700Y-118902500D02*
X102266200Y-118902500D01*
X102266200Y-118902500D02*
X102438700Y-118730000D01*
X103670000Y-118730000D02*
X102438700Y-118730000D01*
D28*
%TO.N,Net-(J27-Pad1)*%
X202470000Y-96490000D02*
X200588700Y-96490000D01*
X194342000Y-98528000D02*
X198550700Y-98528000D01*
X198550700Y-98528000D02*
X200588700Y-96490000D01*
D30*
%TO.N,Net-(J28-Pad1)*%
X202480000Y-111210000D02*
X200598700Y-111210000D01*
X194342000Y-112752000D02*
X199056700Y-112752000D01*
X199056700Y-112752000D02*
X200598700Y-111210000D01*
%TO.N,Net-(D7-Pad2)*%
X53690000Y-67210000D02*
X52208700Y-67210000D01*
X44890000Y-63290000D02*
X48288700Y-63290000D01*
X48288700Y-63290000D02*
X52208700Y-67210000D01*
%TO.N,Net-(D7-Pad1)*%
X53690000Y-57050000D02*
X55171300Y-57050000D01*
X60660000Y-58020000D02*
X56141300Y-58020000D01*
X56141300Y-58020000D02*
X55171300Y-57050000D01*
%TO.N,Net-(D8-Pad1)*%
X53690000Y-70220000D02*
X55171300Y-70220000D01*
X60700000Y-69760000D02*
X55631300Y-69760000D01*
X55631300Y-69760000D02*
X55171300Y-70220000D01*
D27*
%TO.N,pinReserveA10*%
X101290000Y-128250000D02*
X101290000Y-127018700D01*
X145790000Y-108754900D02*
X145613900Y-108754900D01*
X145613900Y-108754900D02*
X139387800Y-114981000D01*
X139387800Y-114981000D02*
X135929900Y-114981000D01*
X135929900Y-114981000D02*
X135799500Y-115111400D01*
X135799500Y-115111400D02*
X132239700Y-115111400D01*
X132239700Y-115111400D02*
X129899200Y-117451900D01*
X129899200Y-117451900D02*
X124536900Y-117451900D01*
X124536900Y-117451900D02*
X124337400Y-117651400D01*
X124337400Y-117651400D02*
X116076200Y-117651400D01*
X116076200Y-117651400D02*
X115934900Y-117510100D01*
X115934900Y-117510100D02*
X107809500Y-117510100D01*
X107809500Y-117510100D02*
X101290000Y-124029600D01*
X101290000Y-124029600D02*
X101290000Y-127018700D01*
X145790000Y-107510000D02*
X145790000Y-108754900D01*
%TO.N,pinReserveD8*%
X109320000Y-53000000D02*
X109320000Y-54231300D01*
X108706000Y-59250000D02*
X108706000Y-54845300D01*
X108706000Y-54845300D02*
X109320000Y-54231300D01*
D30*
%TO.N,Net-(J26-Pad2)*%
X194342000Y-53794000D02*
X202444000Y-53794000D01*
D27*
X202444000Y-53794000D02*
X202460000Y-53810000D01*
D30*
%TO.N,Net-(J27-Pad2)*%
X194342000Y-102084000D02*
X201956000Y-102084000D01*
D27*
X201956000Y-102084000D02*
X202470000Y-101570000D01*
D30*
%TO.N,Net-(J28-Pad2)*%
X194342000Y-116308000D02*
X202462000Y-116308000D01*
D27*
X202462000Y-116308000D02*
X202480000Y-116290000D01*
%TO.N,Net-(D6-Pad2)*%
X179540000Y-37850000D02*
X178058700Y-37850000D01*
X170974000Y-37030000D02*
X177238700Y-37030000D01*
X177238700Y-37030000D02*
X178058700Y-37850000D01*
%TO.N,Net-(D9-Pad2)*%
X179540000Y-42820000D02*
X178058700Y-42820000D01*
X170974000Y-39570000D02*
X174808700Y-39570000D01*
X174808700Y-39570000D02*
X178058700Y-42820000D01*
X179540000Y-42820000D02*
X179540000Y-44301300D01*
X170974000Y-62430000D02*
X178926400Y-54477600D01*
X178926400Y-54477600D02*
X178926400Y-44914900D01*
X178926400Y-44914900D02*
X179540000Y-44301300D01*
%TO.N,Net-(D10-Pad2)*%
X178640000Y-87460000D02*
X177158700Y-87460000D01*
X170974000Y-85320000D02*
X175018700Y-85320000D01*
X175018700Y-85320000D02*
X177158700Y-87460000D01*
%TO.N,Net-(D11-Pad2)*%
X178720000Y-92520000D02*
X177238700Y-92520000D01*
X170974000Y-87860000D02*
X172655400Y-87860000D01*
X172655400Y-87860000D02*
X177238700Y-92443300D01*
X177238700Y-92443300D02*
X177238700Y-92520000D01*
%TO.N,Net-(D12-Pad2)*%
X180960000Y-119650000D02*
X180960000Y-118168700D01*
X178585300Y-115830900D02*
X180923100Y-118168700D01*
X180923100Y-118168700D02*
X180960000Y-118168700D01*
%TO.N,Net-(D13-Pad2)*%
X176160000Y-129730000D02*
X176160000Y-128248700D01*
X170974000Y-110720000D02*
X169818800Y-111875200D01*
X169818800Y-111875200D02*
X169818800Y-113732700D01*
X169818800Y-113732700D02*
X170742700Y-114656600D01*
X170742700Y-114656600D02*
X171447400Y-114656600D01*
X171447400Y-114656600D02*
X172244000Y-115453200D01*
X172244000Y-115453200D02*
X172244000Y-116559400D01*
X172244000Y-116559400D02*
X174061600Y-118377000D01*
X174061600Y-118377000D02*
X174061600Y-126150300D01*
X174061600Y-126150300D02*
X176160000Y-128248700D01*
%TO.N,Net-(J37-Pad1)*%
X122520000Y-113880000D02*
X127170000Y-113880000D01*
X127170000Y-113880000D02*
X127380000Y-113670000D01*
%TO.N,Net-(J38-Pad1)*%
X132820000Y-113880000D02*
X134051300Y-113880000D01*
X134051300Y-113880000D02*
X134191300Y-113740000D01*
X134191300Y-113740000D02*
X137690000Y-113740000D01*
%TO.N,Net-(J39-Pad1)*%
X142700000Y-113960000D02*
X147340000Y-113960000D01*
X147340000Y-113960000D02*
X147560000Y-113740000D01*
%TO.N,Net-(J40-Pad1)*%
X180315700Y-103890000D02*
X179700000Y-103890000D01*
X180315700Y-103890000D02*
X180931300Y-103890000D01*
X180931300Y-103890000D02*
X181011300Y-103810000D01*
X181011300Y-103810000D02*
X187308700Y-103810000D01*
X188540000Y-103810000D02*
X187308700Y-103810000D01*
%TO.N,Net-(J42-Pad1)*%
X180160000Y-53930000D02*
X181391300Y-53930000D01*
X187200000Y-49450000D02*
X185871300Y-49450000D01*
X185871300Y-49450000D02*
X181391300Y-53930000D01*
%TD*%
M02*
